<svg width="40" height="33" viewBox="0 0 40 33" fill="none" xmlns="http://www.w3.org/2000/svg">
<path d="M40 3.87006C39.7366 4.4261 39.2464 5.12845 38.5295 5.97708C37.8125 6.82571 36.9273 7.57197 35.8737 8.21578C35.903 8.44993 35.925 8.66938 35.9396 8.87423C36.0532 12.0282 35.2977 15.3005 34.2496 18.0266C32.2179 23.0953 29.1047 27.1746 24.6582 29.9445C20.0214 32.6042 14.6211 33.1699 9.64568 32.688C6.34258 32.3086 3.08702 31.23 0.625 29.1982C5.12796 29.7365 9.33032 28.2047 12.6526 25.7304C8.9621 25.8238 6.28069 23.1541 5.01466 20.0678C5.58536 20.2173 6.18239 20.1993 6.72661 20.1556C7.39652 20.0927 8.03242 20.0298 8.65806 19.8922C6.30484 19.133 4.24579 17.7373 3.17102 15.6343C2.54059 14.3017 2.25595 13.0328 2.24922 11.5958C3.35188 12.1763 4.67826 12.7422 5.89262 12.6932C4.05866 11.1396 2.5884 9.15412 2.31507 6.8769C2.14251 4.97817 2.61764 3.24495 3.30276 1.6313C6.04612 4.64627 9.12419 7.12746 12.6746 8.65471C15.1027 9.649 17.5238 10.1807 20.0273 10.1911C19.7383 7.95505 19.963 5.79255 21.0149 3.95777C22.253 1.98515 24.0592 0.840648 26.085 0.270465C28.9836 -0.472804 31.8107 0.577098 33.5913 2.59697C35.5115 2.38956 37.3509 1.53768 38.8149 0.665527C38.1929 2.54929 36.9816 4.4223 35.2154 5.31854C36.897 5.00721 38.5016 4.50941 40 3.87006Z" fill="#45FFF4"/>
</svg>
