<svg width="65" height="53" viewBox="0 0 65 53" fill="none" xmlns="http://www.w3.org/2000/svg">
<g clip-path="url(#clip0)">
<path fill-rule="evenodd" clip-rule="evenodd" d="M30.2036 0H7.789V17.2592H0V23.442H7.789V29.9316H0V36.1144H7.789V53.1639H30.2036C43.6837 53.1639 53.9389 46.2013 57.8848 36.1144H65V29.9316H59.4453C59.5813 28.8351 59.651 27.7159 59.651 26.5775V26.4256C59.651 25.4142 59.5962 24.419 59.488 23.442H65V17.2592H58.0176C54.1729 7.02989 43.8379 0 30.2036 0ZM14.0553 47.6176V36.1144H51.019C47.5726 43.0106 40.1691 47.6176 30.2036 47.6176H14.0553ZM14.0553 29.9316H52.9388C53.0892 28.8903 53.1663 27.8214 53.1663 26.7294V26.5775C53.1663 25.5099 53.0929 24.4632 52.9485 23.442H14.0553V29.9316ZM51.0663 17.2592C47.6408 10.2661 40.215 5.53721 30.2036 5.53721H14.0553V17.2592H51.0663Z" fill="#45FFF4"/>
</g>
<defs>
<clipPath id="clip0">
<rect width="65" height="53" fill="white"/>
</clipPath>
</defs>
</svg>
