<svg width="40" height="50" viewBox="0 0 40 50" fill="none" xmlns="http://www.w3.org/2000/svg">
<path d="M6.39996 18.7502C6.39996 18.52 6.58651 18.3335 6.81663 18.3335H33.1832C33.4133 18.3335 33.5998 18.52 33.5998 18.7502C33.5998 18.9803 33.4133 19.1668 33.1832 19.1668H6.81663C6.58651 19.1668 6.39996 18.9803 6.39996 18.7502Z" fill="#45FFF4"/>
<path d="M6.39996 12.9167C6.39996 12.6865 6.58651 12.5 6.81663 12.5H22.7832C23.0133 12.5 23.1999 12.6865 23.1999 12.9167C23.1999 13.1468 23.0133 13.3333 22.7832 13.3333H6.81662C6.58651 13.3333 6.39996 13.1468 6.39996 12.9167Z" fill="#45FFF4"/>
<path d="M6.39996 7.08317C6.39996 6.85305 6.58651 6.6665 6.81663 6.6665H20.3832C20.6133 6.6665 20.7999 6.85305 20.7999 7.08317C20.7999 7.31329 20.6133 7.49984 20.3832 7.49984H6.81663C6.58651 7.49984 6.39996 7.31329 6.39996 7.08317Z" fill="#45FFF4"/>
<path d="M6.39996 24.5833C6.39996 24.3532 6.58651 24.1666 6.81663 24.1666H33.1832C33.4133 24.1666 33.5998 24.3532 33.5998 24.5833C33.5998 24.8134 33.4133 25 33.1832 25H6.81663C6.58651 25 6.39996 24.8134 6.39996 24.5833Z" fill="#45FFF4"/>
<path d="M6.39996 30.4167C6.39996 30.1865 6.58651 30 6.81663 30H33.1832C33.4133 30 33.5998 30.1865 33.5998 30.4167C33.5998 30.6468 33.4133 30.8333 33.1832 30.8333H6.81663C6.58651 30.8333 6.39996 30.6468 6.39996 30.4167Z" fill="#45FFF4"/>
<path d="M6.39996 36.2499C6.39996 36.0198 6.58651 35.8333 6.81663 35.8333H33.1832C33.4133 35.8333 33.5998 36.0198 33.5998 36.2499C33.5998 36.48 33.4133 36.6666 33.1832 36.6666H6.81663C6.58651 36.6666 6.39996 36.48 6.39996 36.2499Z" fill="#45FFF4"/>
<path d="M6.39996 42.0833C6.39996 41.8532 6.58651 41.6666 6.81663 41.6666H33.1832C33.4133 41.6666 33.5998 41.8532 33.5998 42.0833C33.5998 42.3134 33.4133 42.5 33.1832 42.5H6.81663C6.58651 42.5 6.39996 42.3134 6.39996 42.0833Z" fill="#45FFF4"/>
<path fill-rule="evenodd" clip-rule="evenodd" d="M2 1C1.44772 1 1 1.44772 1 2V48C1 48.5523 1.44772 49 2 49H37.9998C38.5521 49 38.9998 48.5523 38.9998 48V12.9023L27.5737 1H2ZM27.9999 0L39.9998 12.4999V48C39.9998 49.1046 39.1044 50 37.9998 50H2C0.895433 50 0 49.1046 0 48V2C0 0.895432 0.895431 0 2 0H27.9999Z" fill="#45FFF4"/>
<path d="M28.2001 1.04167V11.3333C28.2001 11.8856 28.6479 12.3333 29.2001 12.3333H39.0001V12.2917L40.0001 13.3333H29.2001C28.0956 13.3333 27.2001 12.4379 27.2001 11.3333V0L28.2001 1.04167Z" fill="#45FFF4"/>
</svg>
