<svg width="512" height="512" viewBox="0 0 512 512" fill="none" xmlns="http://www.w3.org/2000/svg">
<path d="M379.667 3.16803C306.698 3.16803 247.333 62.532 247.333 135.501C247.333 212.25 330.876 300.907 359.926 329.413L309.68 392.894L232.542 289.583L160.247 425.307L115.281 380.677L65.459 478.833H0V508.833H83.875L123.387 430.99L167.753 475.026L236.792 345.417L308.986 442.107L394.207 334.439C416.48 313.249 512 217.571 512 135.501C512 62.532 452.636 3.16803 379.667 3.16803ZM379.664 306.697C368.84 295.96 350.773 277.115 332.795 254.233C296.512 208.055 277.333 166.997 277.333 135.5C277.333 79.073 323.24 33.167 379.667 33.167C436.094 33.168 482 79.074 482 135.501C482 166.914 462.915 207.853 426.809 253.889C408.784 276.873 390.558 295.887 379.664 306.697Z" fill="#45FFF4"/>
<path d="M370.015 124.574C370.015 121.334 372.985 118.634 382.3 118.634C390.534 118.634 399.308 120.929 408.623 125.654L418.208 102.57C410.514 98.25 400.794 95.685 390.804 94.74V80.295H371.77V95.008C349.631 98.113 338.562 110.938 338.562 126.192C338.562 161.426 390.804 151.841 390.804 163.721C390.804 166.961 387.565 168.851 378.52 168.851C368.125 168.851 356.245 165.476 347.336 160.211L337.076 183.43C345.175 188.425 358.27 192.07 371.769 192.88V207.19H390.803V192.205C411.728 188.56 422.258 175.871 422.258 161.292C422.258 126.464 370.015 135.912 370.015 124.574Z" fill="#45FFF4"/>
</svg>
