<svg width="1440" height="1024" viewBox="0 0 1440 1024" fill="none" xmlns="http://www.w3.org/2000/svg">
<g opacity="0.2">
<mask id="path-1-inside-1" fill="white">
<path d="M-102.857 601L-171.429 511L-240 601L-171.429 691L-102.857 601Z"/>
<path d="M-102.857 241L-171.429 151L-240 241L-171.429 331L-102.857 241Z"/>
<path d="M-102.857 421L-171.429 331L-240 421L-171.429 511L-102.857 421Z"/>
<path d="M-102.857 61L-171.429 -29L-240 61L-171.429 151L-102.857 61Z"/>
<path d="M-102.857 781L-171.429 691L-240 781L-171.429 871L-102.857 781Z"/>
<path d="M-102.857 961L-171.429 871L-240 961L-171.429 1051L-102.857 961Z"/>
<path d="M34.2857 601L-34.2857 511L-102.857 601L-34.2857 691L34.2857 601Z"/>
<path d="M34.2857 241L-34.2857 151L-102.857 241L-34.2857 331L34.2857 241Z"/>
<path d="M34.2857 421L-34.2857 331L-102.857 421L-34.2857 511L34.2857 421Z"/>
<path d="M34.2857 61L-34.2857 -29L-102.857 61L-34.2857 151L34.2857 61Z"/>
<path d="M34.2857 781L-34.2857 691L-102.857 781L-34.2857 871L34.2857 781Z"/>
<path d="M34.2857 961L-34.2857 871L-102.857 961L-34.2857 1051L34.2857 961Z"/>
<path d="M171.429 601L102.857 511L34.2857 601L102.857 691L171.429 601Z"/>
<path d="M171.429 241L102.857 151L34.2857 241L102.857 331L171.429 241Z"/>
<path d="M171.429 421L102.857 331L34.2857 421L102.857 511L171.429 421Z"/>
<path d="M171.429 61L102.857 -29L34.2857 61L102.857 151L171.429 61Z"/>
<path d="M171.429 781L102.857 691L34.2857 781L102.857 871L171.429 781Z"/>
<path d="M171.429 961L102.857 871L34.2857 961L102.857 1051L171.429 961Z"/>
<path d="M308.571 601L240 511L171.429 601L240 691L308.571 601Z"/>
<path d="M308.571 241L240 151L171.429 241L240 331L308.571 241Z"/>
<path d="M308.571 421L240 331L171.429 421L240 511L308.571 421Z"/>
<path d="M308.571 61L240 -29L171.429 61L240 151L308.571 61Z"/>
<path d="M308.571 781L240 691L171.429 781L240 871L308.571 781Z"/>
<path d="M308.571 961L240 871L171.429 961L240 1051L308.571 961Z"/>
<path d="M445.714 601L377.143 511L308.571 601L377.143 691L445.714 601Z"/>
<path d="M445.714 241L377.143 151L308.571 241L377.143 331L445.714 241Z"/>
<path d="M445.714 421L377.143 331L308.571 421L377.143 511L445.714 421Z"/>
<path d="M445.714 61L377.143 -29L308.571 61L377.143 151L445.714 61Z"/>
<path d="M445.714 781L377.143 691L308.571 781L377.143 871L445.714 781Z"/>
<path d="M445.714 961L377.143 871L308.571 961L377.143 1051L445.714 961Z"/>
<path d="M582.857 601L514.286 511L445.714 601L514.286 691L582.857 601Z"/>
<path d="M582.857 241L514.286 151L445.714 241L514.286 331L582.857 241Z"/>
<path d="M582.857 421L514.286 331L445.714 421L514.286 511L582.857 421Z"/>
<path d="M582.857 61L514.286 -29L445.714 61L514.286 151L582.857 61Z"/>
<path d="M582.857 781L514.286 691L445.714 781L514.286 871L582.857 781Z"/>
<path d="M582.857 961L514.286 871L445.714 961L514.286 1051L582.857 961Z"/>
<path d="M720 601L651.429 511L582.857 601L651.429 691L720 601Z"/>
<path d="M720 241L651.429 151L582.857 241L651.429 331L720 241Z"/>
<path d="M720 421L651.429 331L582.857 421L651.429 511L720 421Z"/>
<path d="M720 61L651.429 -29L582.857 61L651.429 151L720 61Z"/>
<path d="M720 781L651.429 691L582.857 781L651.429 871L720 781Z"/>
<path d="M720 961L651.429 871L582.857 961L651.429 1051L720 961Z"/>
<path d="M857.143 601L788.571 511L720 601L788.571 691L857.143 601Z"/>
<path d="M857.143 241L788.571 151L720 241L788.571 331L857.143 241Z"/>
<path d="M857.143 421L788.571 331L720 421L788.571 511L857.143 421Z"/>
<path d="M857.143 61L788.571 -29L720 61L788.571 151L857.143 61Z"/>
<path d="M857.143 781L788.571 691L720 781L788.571 871L857.143 781Z"/>
<path d="M857.143 961L788.571 871L720 961L788.571 1051L857.143 961Z"/>
<path d="M994.286 601L925.714 511L857.143 601L925.714 691L994.286 601Z"/>
<path d="M994.286 241L925.714 151L857.143 241L925.714 331L994.286 241Z"/>
<path d="M994.286 421L925.714 331L857.143 421L925.714 511L994.286 421Z"/>
<path d="M994.286 61L925.714 -29L857.143 61L925.714 151L994.286 61Z"/>
<path d="M994.286 781L925.714 691L857.143 781L925.714 871L994.286 781Z"/>
<path d="M994.286 961L925.714 871L857.143 961L925.714 1051L994.286 961Z"/>
<path d="M1131.43 601L1062.86 511L994.286 601L1062.86 691L1131.43 601Z"/>
<path d="M1131.43 241L1062.86 151L994.286 241L1062.86 331L1131.43 241Z"/>
<path d="M1131.43 421L1062.86 331L994.286 421L1062.86 511L1131.43 421Z"/>
<path d="M1131.43 61L1062.86 -29L994.286 61L1062.86 151L1131.43 61Z"/>
<path d="M1131.43 781L1062.86 691L994.286 781L1062.86 871L1131.43 781Z"/>
<path d="M1131.43 961L1062.86 871L994.286 961L1062.86 1051L1131.43 961Z"/>
<path d="M1268.57 601L1200 511L1131.43 601L1200 691L1268.57 601Z"/>
<path d="M1268.57 241L1200 151L1131.43 241L1200 331L1268.57 241Z"/>
<path d="M1268.57 421L1200 331L1131.43 421L1200 511L1268.57 421Z"/>
<path d="M1268.57 61L1200 -29L1131.43 61L1200 151L1268.57 61Z"/>
<path d="M1268.57 781L1200 691L1131.43 781L1200 871L1268.57 781Z"/>
<path d="M1268.57 961L1200 871L1131.43 961L1200 1051L1268.57 961Z"/>
<path d="M1405.71 601L1337.14 511L1268.57 601L1337.14 691L1405.71 601Z"/>
<path d="M1405.71 241L1337.14 151L1268.57 241L1337.14 331L1405.71 241Z"/>
<path d="M1405.71 421L1337.14 331L1268.57 421L1337.14 511L1405.71 421Z"/>
<path d="M1405.71 61L1337.14 -29L1268.57 61L1337.14 151L1405.71 61Z"/>
<path d="M1405.71 781L1337.14 691L1268.57 781L1337.14 871L1405.71 781Z"/>
<path d="M1405.71 961L1337.14 871L1268.57 961L1337.14 1051L1405.71 961Z"/>
<path d="M1542.86 601L1474.29 511L1405.71 601L1474.29 691L1542.86 601Z"/>
<path d="M1542.86 241L1474.29 151L1405.71 241L1474.29 331L1542.86 241Z"/>
<path d="M1542.86 421L1474.29 331L1405.71 421L1474.29 511L1542.86 421Z"/>
<path d="M1542.86 61L1474.29 -29L1405.71 61L1474.29 151L1542.86 61Z"/>
<path d="M1542.86 781L1474.29 691L1405.71 781L1474.29 871L1542.86 781Z"/>
<path d="M1542.86 961L1474.29 871L1405.71 961L1474.29 1051L1542.86 961Z"/>
<path d="M1680 601L1611.43 511L1542.86 601L1611.43 691L1680 601Z"/>
<path d="M1680 241L1611.43 151L1542.86 241L1611.43 331L1680 241Z"/>
<path d="M1680 421L1611.43 331L1542.86 421L1611.43 511L1680 421Z"/>
<path d="M1680 61L1611.43 -29L1542.86 61L1611.43 151L1680 61Z"/>
<path d="M1680 781L1611.43 691L1542.86 781L1611.43 871L1680 781Z"/>
<path d="M1680 961L1611.43 871L1542.86 961L1611.43 1051L1680 961Z"/>
</mask>
<path d="M-102.857 600.5H-240V601.5H-102.857V600.5ZM-102.857 240.5H-240V241.5H-102.857V240.5ZM-102.857 420.5H-240V421.5H-102.857V420.5ZM-102.857 60.5H-240V61.5H-102.857V60.5ZM-102.857 780.5H-240V781.5H-102.857V780.5ZM-102.857 960.5H-240V961.5H-102.857V960.5ZM34.2857 600.5H-102.857V601.5H34.2857V600.5ZM34.2857 240.5H-102.857V241.5H34.2857V240.5ZM34.2857 420.5H-102.857V421.5H34.2857V420.5ZM34.2857 60.5H-102.857V61.5H34.2857V60.5ZM34.2857 780.5H-102.857V781.5H34.2857V780.5ZM34.2857 960.5H-102.857V961.5H34.2857V960.5ZM171.429 600.5H34.2857V601.5H171.429V600.5ZM171.429 240.5H34.2857V241.5H171.429V240.5ZM171.429 420.5H34.2857V421.5H171.429V420.5ZM171.429 60.5H34.2857V61.5H171.429V60.5ZM171.429 780.5H34.2857V781.5H171.429V780.5ZM171.429 960.5H34.2857V961.5H171.429V960.5ZM308.571 600.5H171.429V601.5H308.571V600.5ZM308.571 240.5H171.429V241.5H308.571V240.5ZM308.571 420.5H171.429V421.5H308.571V420.5ZM308.571 60.5H171.429V61.5H308.571V60.5ZM308.571 780.5H171.429V781.5H308.571V780.5ZM308.571 960.5H171.429V961.5H308.571V960.5ZM445.714 600.5H308.571V601.5H445.714V600.5ZM445.714 240.5H308.571V241.5H445.714V240.5ZM445.714 420.5H308.571V421.5H445.714V420.5ZM445.714 60.5H308.571V61.5H445.714V60.5ZM445.714 780.5H308.571V781.5H445.714V780.5ZM445.714 960.5H308.571V961.5H445.714V960.5ZM582.857 600.5H445.714V601.5H582.857V600.5ZM582.857 240.5H445.714V241.5H582.857V240.5ZM582.857 420.5H445.714V421.5H582.857V420.5ZM582.857 60.5H445.714V61.5H582.857V60.5ZM582.857 780.5H445.714V781.5H582.857V780.5ZM582.857 960.5H445.714V961.5H582.857V960.5ZM720 600.5H582.857V601.5H720V600.5ZM720 240.5H582.857V241.5H720V240.5ZM720 420.5H582.857V421.5H720V420.5ZM720 60.5H582.857V61.5H720V60.5ZM720 780.5H582.857V781.5H720V780.5ZM720 960.5H582.857V961.5H720V960.5ZM857.143 600.5H720V601.5H857.143V600.5ZM857.143 240.5H720V241.5H857.143V240.5ZM857.143 420.5H720V421.5H857.143V420.5ZM857.143 60.5H720V61.5H857.143V60.5ZM857.143 780.5H720V781.5H857.143V780.5ZM857.143 960.5H720V961.5H857.143V960.5ZM994.286 600.5H857.143V601.5H994.286V600.5ZM994.286 240.5H857.143V241.5H994.286V240.5ZM994.286 420.5H857.143V421.5H994.286V420.5ZM994.286 60.5H857.143V61.5H994.286V60.5ZM994.286 780.5H857.143V781.5H994.286V780.5ZM994.286 960.5H857.143V961.5H994.286V960.5ZM1131.43 600.5H994.286V601.5H1131.43V600.5ZM1131.43 240.5H994.286V241.5H1131.43V240.5ZM1131.43 420.5H994.286V421.5H1131.43V420.5ZM1131.43 60.5H994.286V61.5H1131.43V60.5ZM1131.43 780.5H994.286V781.5H1131.43V780.5ZM1131.43 960.5H994.286V961.5H1131.43V960.5ZM1268.57 600.5H1131.43V601.5H1268.57V600.5ZM1268.57 240.5H1131.43V241.5H1268.57V240.5ZM1268.57 420.5H1131.43V421.5H1268.57V420.5ZM1268.57 60.5H1131.43V61.5H1268.57V60.5ZM1268.57 780.5H1131.43V781.5H1268.57V780.5ZM1268.57 960.5H1131.43V961.5H1268.57V960.5ZM1405.71 600.5H1268.57V601.5H1405.71V600.5ZM1405.71 240.5H1268.57V241.5H1405.71V240.5ZM1405.71 420.5H1268.57V421.5H1405.71V420.5ZM1405.71 60.5H1268.57V61.5H1405.71V60.5ZM1405.71 780.5H1268.57V781.5H1405.71V780.5ZM1405.71 960.5H1268.57V961.5H1405.71V960.5ZM1542.86 600.5H1405.71V601.5H1542.86V600.5ZM1542.86 240.5H1405.71V241.5H1542.86V240.5ZM1542.86 420.5H1405.71V421.5H1542.86V420.5ZM1542.86 60.5H1405.71V61.5H1542.86V60.5ZM1542.86 780.5H1405.71V781.5H1542.86V780.5ZM1542.86 960.5H1405.71V961.5H1542.86V960.5ZM1680 600.5H1542.86V601.5H1680V600.5ZM1680 240.5H1542.86V241.5H1680V240.5ZM1680 420.5H1542.86V421.5H1680V420.5ZM1680 60.5H1542.86V61.5H1680V60.5ZM1680 780.5H1542.86V781.5H1680V780.5ZM1680 960.5H1542.86V961.5H1680V960.5ZM-240 601L-240.795 600.394L-241.257 601L-240.795 601.606L-240 601ZM-240 241L-240.795 240.394L-241.257 241L-240.795 241.606L-240 241ZM-240 421L-240.795 420.394L-241.257 421L-240.795 421.606L-240 421ZM-171.429 -29L-170.633 -29.606L-171.429 -30.65L-172.224 -29.606L-171.429 -29ZM-240 61L-240.795 60.394L-241.257 61L-240.795 61.606L-240 61ZM-240 781L-240.795 780.394L-241.257 781L-240.795 781.606L-240 781ZM-240 961L-240.795 960.394L-241.257 961L-240.795 961.606L-240 961ZM-171.429 1051L-172.224 1051.61L-171.429 1052.65L-170.633 1051.61L-171.429 1051ZM-34.2857 -29L-33.4903 -29.606L-34.2857 -30.65L-35.0811 -29.606L-34.2857 -29ZM-34.2857 1051L-35.0811 1051.61L-34.2857 1052.65L-33.4903 1051.61L-34.2857 1051ZM102.857 -29L103.653 -29.606L102.857 -30.65L102.062 -29.606L102.857 -29ZM102.857 1051L102.062 1051.61L102.857 1052.65L103.653 1051.61L102.857 1051ZM240 -29L240.795 -29.606L240 -30.65L239.205 -29.606L240 -29ZM240 1051L239.205 1051.61L240 1052.65L240.795 1051.61L240 1051ZM377.143 -29L377.938 -29.606L377.143 -30.65L376.347 -29.606L377.143 -29ZM377.143 1051L376.347 1051.61L377.143 1052.65L377.938 1051.61L377.143 1051ZM514.286 -29L515.081 -29.606L514.286 -30.65L513.49 -29.606L514.286 -29ZM514.286 1051L513.49 1051.61L514.286 1052.65L515.081 1051.61L514.286 1051ZM651.429 -29L652.224 -29.606L651.429 -30.65L650.633 -29.606L651.429 -29ZM651.429 1051L650.633 1051.61L651.429 1052.65L652.224 1051.61L651.429 1051ZM788.571 -29L789.367 -29.606L788.571 -30.65L787.776 -29.606L788.571 -29ZM788.571 1051L787.776 1051.61L788.571 1052.65L789.367 1051.61L788.571 1051ZM925.714 -29L926.51 -29.606L925.714 -30.65L924.919 -29.606L925.714 -29ZM925.714 1051L924.919 1051.61L925.714 1052.65L926.51 1051.61L925.714 1051ZM1062.86 -29L1063.65 -29.606L1062.86 -30.65L1062.06 -29.606L1062.86 -29ZM1062.86 1051L1062.06 1051.61L1062.86 1052.65L1063.65 1051.61L1062.86 1051ZM1200 -29L1200.8 -29.606L1200 -30.65L1199.2 -29.606L1200 -29ZM1200 1051L1199.2 1051.61L1200 1052.65L1200.8 1051.61L1200 1051ZM1337.14 -29L1337.94 -29.606L1337.14 -30.65L1336.35 -29.606L1337.14 -29ZM1337.14 1051L1336.35 1051.61L1337.14 1052.65L1337.94 1051.61L1337.14 1051ZM1474.29 -29L1475.08 -29.606L1474.29 -30.65L1473.49 -29.606L1474.29 -29ZM1474.29 1051L1473.49 1051.61L1474.29 1052.65L1475.08 1051.61L1474.29 1051ZM1680 601L1680.8 601.606L1681.26 601L1680.8 600.394L1680 601ZM1680 241L1680.8 241.606L1681.26 241L1680.8 240.394L1680 241ZM1680 421L1680.8 421.606L1681.26 421L1680.8 420.394L1680 421ZM1611.43 -29L1612.22 -29.606L1611.43 -30.65L1610.63 -29.606L1611.43 -29ZM1680 61L1680.8 61.606L1681.26 61L1680.8 60.394L1680 61ZM1680 781L1680.8 781.606L1681.26 781L1680.8 780.394L1680 781ZM1680 961L1680.8 961.606L1681.26 961L1680.8 960.394L1680 961ZM1611.43 1051L1610.63 1051.61L1611.43 1052.65L1612.22 1051.61L1611.43 1051ZM-172.224 511.606L-103.653 601.606L-102.062 600.394L-170.633 510.394L-172.224 511.606ZM-239.205 601.606L-170.633 511.606L-172.224 510.394L-240.795 600.394L-239.205 601.606ZM-240.795 601.606L-172.224 691.606L-170.633 690.394L-239.205 600.394L-240.795 601.606ZM-170.633 691.606L-102.062 601.606L-103.653 600.394L-172.224 690.394L-170.633 691.606ZM-172.224 151.606L-103.653 241.606L-102.062 240.394L-170.633 150.394L-172.224 151.606ZM-239.205 241.606L-170.633 151.606L-172.224 150.394L-240.795 240.394L-239.205 241.606ZM-240.795 241.606L-172.224 331.606L-170.633 330.394L-239.205 240.394L-240.795 241.606ZM-170.633 331.606L-102.062 241.606L-103.653 240.394L-172.224 330.394L-170.633 331.606ZM-172.224 331.606L-103.653 421.606L-102.062 420.394L-170.633 330.394L-172.224 331.606ZM-239.205 421.606L-170.633 331.606L-172.224 330.394L-240.795 420.394L-239.205 421.606ZM-240.795 421.606L-172.224 511.606L-170.633 510.394L-239.205 420.394L-240.795 421.606ZM-170.633 511.606L-102.062 421.606L-103.653 420.394L-172.224 510.394L-170.633 511.606ZM-172.224 -28.394L-103.653 61.606L-102.062 60.394L-170.633 -29.606L-172.224 -28.394ZM-239.205 61.606L-170.633 -28.394L-172.224 -29.606L-240.795 60.394L-239.205 61.606ZM-240.795 61.606L-172.224 151.606L-170.633 150.394L-239.205 60.394L-240.795 61.606ZM-170.633 151.606L-102.062 61.606L-103.653 60.394L-172.224 150.394L-170.633 151.606ZM-172.224 691.606L-103.653 781.606L-102.062 780.394L-170.633 690.394L-172.224 691.606ZM-239.205 781.606L-170.633 691.606L-172.224 690.394L-240.795 780.394L-239.205 781.606ZM-240.795 781.606L-172.224 871.606L-170.633 870.394L-239.205 780.394L-240.795 781.606ZM-170.633 871.606L-102.062 781.606L-103.653 780.394L-172.224 870.394L-170.633 871.606ZM-172.224 871.606L-103.653 961.606L-102.062 960.394L-170.633 870.394L-172.224 871.606ZM-239.205 961.606L-170.633 871.606L-172.224 870.394L-240.795 960.394L-239.205 961.606ZM-240.795 961.606L-172.224 1051.61L-170.633 1050.39L-239.205 960.394L-240.795 961.606ZM-170.633 1051.61L-102.062 961.606L-103.653 960.394L-172.224 1050.39L-170.633 1051.61ZM-35.0811 511.606L33.4903 601.606L35.0811 600.394L-33.4903 510.394L-35.0811 511.606ZM-102.062 601.606L-33.4903 511.606L-35.0811 510.394L-103.653 600.394L-102.062 601.606ZM-103.653 601.606L-35.0811 691.606L-33.4903 690.394L-102.062 600.394L-103.653 601.606ZM-33.4903 691.606L35.0811 601.606L33.4903 600.394L-35.0811 690.394L-33.4903 691.606ZM-35.0811 151.606L33.4903 241.606L35.0811 240.394L-33.4903 150.394L-35.0811 151.606ZM-102.062 241.606L-33.4903 151.606L-35.0811 150.394L-103.653 240.394L-102.062 241.606ZM-103.653 241.606L-35.0811 331.606L-33.4903 330.394L-102.062 240.394L-103.653 241.606ZM-33.4903 331.606L35.0811 241.606L33.4903 240.394L-35.0811 330.394L-33.4903 331.606ZM-35.0811 331.606L33.4903 421.606L35.0811 420.394L-33.4903 330.394L-35.0811 331.606ZM-102.062 421.606L-33.4903 331.606L-35.0811 330.394L-103.653 420.394L-102.062 421.606ZM-103.653 421.606L-35.0811 511.606L-33.4903 510.394L-102.062 420.394L-103.653 421.606ZM-33.4903 511.606L35.0811 421.606L33.4903 420.394L-35.0811 510.394L-33.4903 511.606ZM-35.0811 -28.394L33.4903 61.606L35.0811 60.394L-33.4903 -29.606L-35.0811 -28.394ZM-102.062 61.606L-33.4903 -28.394L-35.0811 -29.606L-103.653 60.394L-102.062 61.606ZM-103.653 61.606L-35.0811 151.606L-33.4903 150.394L-102.062 60.394L-103.653 61.606ZM-33.4903 151.606L35.0811 61.606L33.4903 60.394L-35.0811 150.394L-33.4903 151.606ZM-35.0811 691.606L33.4903 781.606L35.0811 780.394L-33.4903 690.394L-35.0811 691.606ZM-102.062 781.606L-33.4903 691.606L-35.0811 690.394L-103.653 780.394L-102.062 781.606ZM-103.653 781.606L-35.0811 871.606L-33.4903 870.394L-102.062 780.394L-103.653 781.606ZM-33.4903 871.606L35.0811 781.606L33.4903 780.394L-35.0811 870.394L-33.4903 871.606ZM-35.0811 871.606L33.4903 961.606L35.0811 960.394L-33.4903 870.394L-35.0811 871.606ZM-102.062 961.606L-33.4903 871.606L-35.0811 870.394L-103.653 960.394L-102.062 961.606ZM-103.653 961.606L-35.0811 1051.61L-33.4903 1050.39L-102.062 960.394L-103.653 961.606ZM-33.4903 1051.61L35.0811 961.606L33.4903 960.394L-35.0811 1050.39L-33.4903 1051.61ZM102.062 511.606L170.633 601.606L172.224 600.394L103.653 510.394L102.062 511.606ZM35.0811 601.606L103.653 511.606L102.062 510.394L33.4903 600.394L35.0811 601.606ZM33.4903 601.606L102.062 691.606L103.653 690.394L35.0811 600.394L33.4903 601.606ZM103.653 691.606L172.224 601.606L170.633 600.394L102.062 690.394L103.653 691.606ZM102.062 151.606L170.633 241.606L172.224 240.394L103.653 150.394L102.062 151.606ZM35.0811 241.606L103.653 151.606L102.062 150.394L33.4903 240.394L35.0811 241.606ZM33.4903 241.606L102.062 331.606L103.653 330.394L35.0811 240.394L33.4903 241.606ZM103.653 331.606L172.224 241.606L170.633 240.394L102.062 330.394L103.653 331.606ZM102.062 331.606L170.633 421.606L172.224 420.394L103.653 330.394L102.062 331.606ZM35.0811 421.606L103.653 331.606L102.062 330.394L33.4903 420.394L35.0811 421.606ZM33.4903 421.606L102.062 511.606L103.653 510.394L35.0811 420.394L33.4903 421.606ZM103.653 511.606L172.224 421.606L170.633 420.394L102.062 510.394L103.653 511.606ZM102.062 -28.394L170.633 61.606L172.224 60.394L103.653 -29.606L102.062 -28.394ZM35.0811 61.606L103.653 -28.394L102.062 -29.606L33.4903 60.394L35.0811 61.606ZM33.4903 61.606L102.062 151.606L103.653 150.394L35.0811 60.394L33.4903 61.606ZM103.653 151.606L172.224 61.606L170.633 60.394L102.062 150.394L103.653 151.606ZM102.062 691.606L170.633 781.606L172.224 780.394L103.653 690.394L102.062 691.606ZM35.0811 781.606L103.653 691.606L102.062 690.394L33.4903 780.394L35.0811 781.606ZM33.4903 781.606L102.062 871.606L103.653 870.394L35.0811 780.394L33.4903 781.606ZM103.653 871.606L172.224 781.606L170.633 780.394L102.062 870.394L103.653 871.606ZM102.062 871.606L170.633 961.606L172.224 960.394L103.653 870.394L102.062 871.606ZM35.0811 961.606L103.653 871.606L102.062 870.394L33.4903 960.394L35.0811 961.606ZM33.4903 961.606L102.062 1051.61L103.653 1050.39L35.0811 960.394L33.4903 961.606ZM103.653 1051.61L172.224 961.606L170.633 960.394L102.062 1050.39L103.653 1051.61ZM239.205 511.606L307.776 601.606L309.367 600.394L240.795 510.394L239.205 511.606ZM172.224 601.606L240.795 511.606L239.205 510.394L170.633 600.394L172.224 601.606ZM170.633 601.606L239.205 691.606L240.795 690.394L172.224 600.394L170.633 601.606ZM240.795 691.606L309.367 601.606L307.776 600.394L239.205 690.394L240.795 691.606ZM239.205 151.606L307.776 241.606L309.367 240.394L240.795 150.394L239.205 151.606ZM172.224 241.606L240.795 151.606L239.205 150.394L170.633 240.394L172.224 241.606ZM170.633 241.606L239.205 331.606L240.795 330.394L172.224 240.394L170.633 241.606ZM240.795 331.606L309.367 241.606L307.776 240.394L239.205 330.394L240.795 331.606ZM239.205 331.606L307.776 421.606L309.367 420.394L240.795 330.394L239.205 331.606ZM172.224 421.606L240.795 331.606L239.205 330.394L170.633 420.394L172.224 421.606ZM170.633 421.606L239.205 511.606L240.795 510.394L172.224 420.394L170.633 421.606ZM240.795 511.606L309.367 421.606L307.776 420.394L239.205 510.394L240.795 511.606ZM239.205 -28.394L307.776 61.606L309.367 60.394L240.795 -29.606L239.205 -28.394ZM172.224 61.606L240.795 -28.394L239.205 -29.606L170.633 60.394L172.224 61.606ZM170.633 61.606L239.205 151.606L240.795 150.394L172.224 60.394L170.633 61.606ZM240.795 151.606L309.367 61.606L307.776 60.394L239.205 150.394L240.795 151.606ZM239.205 691.606L307.776 781.606L309.367 780.394L240.795 690.394L239.205 691.606ZM172.224 781.606L240.795 691.606L239.205 690.394L170.633 780.394L172.224 781.606ZM170.633 781.606L239.205 871.606L240.795 870.394L172.224 780.394L170.633 781.606ZM240.795 871.606L309.367 781.606L307.776 780.394L239.205 870.394L240.795 871.606ZM239.205 871.606L307.776 961.606L309.367 960.394L240.795 870.394L239.205 871.606ZM172.224 961.606L240.795 871.606L239.205 870.394L170.633 960.394L172.224 961.606ZM170.633 961.606L239.205 1051.61L240.795 1050.39L172.224 960.394L170.633 961.606ZM240.795 1051.61L309.367 961.606L307.776 960.394L239.205 1050.39L240.795 1051.61ZM376.347 511.606L444.919 601.606L446.51 600.394L377.938 510.394L376.347 511.606ZM309.367 601.606L377.938 511.606L376.347 510.394L307.776 600.394L309.367 601.606ZM307.776 601.606L376.347 691.606L377.938 690.394L309.367 600.394L307.776 601.606ZM377.938 691.606L446.51 601.606L444.919 600.394L376.347 690.394L377.938 691.606ZM376.347 151.606L444.919 241.606L446.51 240.394L377.938 150.394L376.347 151.606ZM309.367 241.606L377.938 151.606L376.347 150.394L307.776 240.394L309.367 241.606ZM307.776 241.606L376.347 331.606L377.938 330.394L309.367 240.394L307.776 241.606ZM377.938 331.606L446.51 241.606L444.919 240.394L376.347 330.394L377.938 331.606ZM376.347 331.606L444.919 421.606L446.51 420.394L377.938 330.394L376.347 331.606ZM309.367 421.606L377.938 331.606L376.347 330.394L307.776 420.394L309.367 421.606ZM307.776 421.606L376.347 511.606L377.938 510.394L309.367 420.394L307.776 421.606ZM377.938 511.606L446.51 421.606L444.919 420.394L376.347 510.394L377.938 511.606ZM376.347 -28.394L444.919 61.606L446.51 60.394L377.938 -29.606L376.347 -28.394ZM309.367 61.606L377.938 -28.394L376.347 -29.606L307.776 60.394L309.367 61.606ZM307.776 61.606L376.347 151.606L377.938 150.394L309.367 60.394L307.776 61.606ZM377.938 151.606L446.51 61.606L444.919 60.394L376.347 150.394L377.938 151.606ZM376.347 691.606L444.919 781.606L446.51 780.394L377.938 690.394L376.347 691.606ZM309.367 781.606L377.938 691.606L376.347 690.394L307.776 780.394L309.367 781.606ZM307.776 781.606L376.347 871.606L377.938 870.394L309.367 780.394L307.776 781.606ZM377.938 871.606L446.51 781.606L444.919 780.394L376.347 870.394L377.938 871.606ZM376.347 871.606L444.919 961.606L446.51 960.394L377.938 870.394L376.347 871.606ZM309.367 961.606L377.938 871.606L376.347 870.394L307.776 960.394L309.367 961.606ZM307.776 961.606L376.347 1051.61L377.938 1050.39L309.367 960.394L307.776 961.606ZM377.938 1051.61L446.51 961.606L444.919 960.394L376.347 1050.39L377.938 1051.61ZM513.49 511.606L582.062 601.606L583.653 600.394L515.081 510.394L513.49 511.606ZM446.51 601.606L515.081 511.606L513.49 510.394L444.919 600.394L446.51 601.606ZM444.919 601.606L513.49 691.606L515.081 690.394L446.51 600.394L444.919 601.606ZM515.081 691.606L583.653 601.606L582.062 600.394L513.49 690.394L515.081 691.606ZM513.49 151.606L582.062 241.606L583.653 240.394L515.081 150.394L513.49 151.606ZM446.51 241.606L515.081 151.606L513.49 150.394L444.919 240.394L446.51 241.606ZM444.919 241.606L513.49 331.606L515.081 330.394L446.51 240.394L444.919 241.606ZM515.081 331.606L583.653 241.606L582.062 240.394L513.49 330.394L515.081 331.606ZM513.49 331.606L582.062 421.606L583.653 420.394L515.081 330.394L513.49 331.606ZM446.51 421.606L515.081 331.606L513.49 330.394L444.919 420.394L446.51 421.606ZM444.919 421.606L513.49 511.606L515.081 510.394L446.51 420.394L444.919 421.606ZM515.081 511.606L583.653 421.606L582.062 420.394L513.49 510.394L515.081 511.606ZM513.49 -28.394L582.062 61.606L583.653 60.394L515.081 -29.606L513.49 -28.394ZM446.51 61.606L515.081 -28.394L513.49 -29.606L444.919 60.394L446.51 61.606ZM444.919 61.606L513.49 151.606L515.081 150.394L446.51 60.394L444.919 61.606ZM515.081 151.606L583.653 61.606L582.062 60.394L513.49 150.394L515.081 151.606ZM513.49 691.606L582.062 781.606L583.653 780.394L515.081 690.394L513.49 691.606ZM446.51 781.606L515.081 691.606L513.49 690.394L444.919 780.394L446.51 781.606ZM444.919 781.606L513.49 871.606L515.081 870.394L446.51 780.394L444.919 781.606ZM515.081 871.606L583.653 781.606L582.062 780.394L513.49 870.394L515.081 871.606ZM513.49 871.606L582.062 961.606L583.653 960.394L515.081 870.394L513.49 871.606ZM446.51 961.606L515.081 871.606L513.49 870.394L444.919 960.394L446.51 961.606ZM444.919 961.606L513.49 1051.61L515.081 1050.39L446.51 960.394L444.919 961.606ZM515.081 1051.61L583.653 961.606L582.062 960.394L513.49 1050.39L515.081 1051.61ZM650.633 511.606L719.205 601.606L720.795 600.394L652.224 510.394L650.633 511.606ZM583.653 601.606L652.224 511.606L650.633 510.394L582.062 600.394L583.653 601.606ZM582.062 601.606L650.633 691.606L652.224 690.394L583.653 600.394L582.062 601.606ZM652.224 691.606L720.795 601.606L719.205 600.394L650.633 690.394L652.224 691.606ZM650.633 151.606L719.205 241.606L720.795 240.394L652.224 150.394L650.633 151.606ZM583.653 241.606L652.224 151.606L650.633 150.394L582.062 240.394L583.653 241.606ZM582.062 241.606L650.633 331.606L652.224 330.394L583.653 240.394L582.062 241.606ZM652.224 331.606L720.795 241.606L719.205 240.394L650.633 330.394L652.224 331.606ZM650.633 331.606L719.205 421.606L720.795 420.394L652.224 330.394L650.633 331.606ZM583.653 421.606L652.224 331.606L650.633 330.394L582.062 420.394L583.653 421.606ZM582.062 421.606L650.633 511.606L652.224 510.394L583.653 420.394L582.062 421.606ZM652.224 511.606L720.795 421.606L719.205 420.394L650.633 510.394L652.224 511.606ZM650.633 -28.394L719.205 61.606L720.795 60.394L652.224 -29.606L650.633 -28.394ZM583.653 61.606L652.224 -28.394L650.633 -29.606L582.062 60.394L583.653 61.606ZM582.062 61.606L650.633 151.606L652.224 150.394L583.653 60.394L582.062 61.606ZM652.224 151.606L720.795 61.606L719.205 60.394L650.633 150.394L652.224 151.606ZM650.633 691.606L719.205 781.606L720.795 780.394L652.224 690.394L650.633 691.606ZM583.653 781.606L652.224 691.606L650.633 690.394L582.062 780.394L583.653 781.606ZM582.062 781.606L650.633 871.606L652.224 870.394L583.653 780.394L582.062 781.606ZM652.224 871.606L720.795 781.606L719.205 780.394L650.633 870.394L652.224 871.606ZM650.633 871.606L719.205 961.606L720.795 960.394L652.224 870.394L650.633 871.606ZM583.653 961.606L652.224 871.606L650.633 870.394L582.062 960.394L583.653 961.606ZM582.062 961.606L650.633 1051.61L652.224 1050.39L583.653 960.394L582.062 961.606ZM652.224 1051.61L720.795 961.606L719.205 960.394L650.633 1050.39L652.224 1051.61ZM787.776 511.606L856.347 601.606L857.938 600.394L789.367 510.394L787.776 511.606ZM720.795 601.606L789.367 511.606L787.776 510.394L719.205 600.394L720.795 601.606ZM719.205 601.606L787.776 691.606L789.367 690.394L720.795 600.394L719.205 601.606ZM789.367 691.606L857.938 601.606L856.347 600.394L787.776 690.394L789.367 691.606ZM787.776 151.606L856.347 241.606L857.938 240.394L789.367 150.394L787.776 151.606ZM720.795 241.606L789.367 151.606L787.776 150.394L719.205 240.394L720.795 241.606ZM719.205 241.606L787.776 331.606L789.367 330.394L720.795 240.394L719.205 241.606ZM789.367 331.606L857.938 241.606L856.347 240.394L787.776 330.394L789.367 331.606ZM787.776 331.606L856.347 421.606L857.938 420.394L789.367 330.394L787.776 331.606ZM720.795 421.606L789.367 331.606L787.776 330.394L719.205 420.394L720.795 421.606ZM719.205 421.606L787.776 511.606L789.367 510.394L720.795 420.394L719.205 421.606ZM789.367 511.606L857.938 421.606L856.347 420.394L787.776 510.394L789.367 511.606ZM787.776 -28.394L856.347 61.606L857.938 60.394L789.367 -29.606L787.776 -28.394ZM720.795 61.606L789.367 -28.394L787.776 -29.606L719.205 60.394L720.795 61.606ZM719.205 61.606L787.776 151.606L789.367 150.394L720.795 60.394L719.205 61.606ZM789.367 151.606L857.938 61.606L856.347 60.394L787.776 150.394L789.367 151.606ZM787.776 691.606L856.347 781.606L857.938 780.394L789.367 690.394L787.776 691.606ZM720.795 781.606L789.367 691.606L787.776 690.394L719.205 780.394L720.795 781.606ZM719.205 781.606L787.776 871.606L789.367 870.394L720.795 780.394L719.205 781.606ZM789.367 871.606L857.938 781.606L856.347 780.394L787.776 870.394L789.367 871.606ZM787.776 871.606L856.347 961.606L857.938 960.394L789.367 870.394L787.776 871.606ZM720.795 961.606L789.367 871.606L787.776 870.394L719.205 960.394L720.795 961.606ZM719.205 961.606L787.776 1051.61L789.367 1050.39L720.795 960.394L719.205 961.606ZM789.367 1051.61L857.938 961.606L856.347 960.394L787.776 1050.39L789.367 1051.61ZM924.919 511.606L993.49 601.606L995.081 600.394L926.51 510.394L924.919 511.606ZM857.938 601.606L926.51 511.606L924.919 510.394L856.347 600.394L857.938 601.606ZM856.347 601.606L924.919 691.606L926.51 690.394L857.938 600.394L856.347 601.606ZM926.51 691.606L995.081 601.606L993.49 600.394L924.919 690.394L926.51 691.606ZM924.919 151.606L993.49 241.606L995.081 240.394L926.51 150.394L924.919 151.606ZM857.938 241.606L926.51 151.606L924.919 150.394L856.347 240.394L857.938 241.606ZM856.347 241.606L924.919 331.606L926.51 330.394L857.938 240.394L856.347 241.606ZM926.51 331.606L995.081 241.606L993.49 240.394L924.919 330.394L926.51 331.606ZM924.919 331.606L993.49 421.606L995.081 420.394L926.51 330.394L924.919 331.606ZM857.938 421.606L926.51 331.606L924.919 330.394L856.347 420.394L857.938 421.606ZM856.347 421.606L924.919 511.606L926.51 510.394L857.938 420.394L856.347 421.606ZM926.51 511.606L995.081 421.606L993.49 420.394L924.919 510.394L926.51 511.606ZM924.919 -28.394L993.49 61.606L995.081 60.394L926.51 -29.606L924.919 -28.394ZM857.938 61.606L926.51 -28.394L924.919 -29.606L856.347 60.394L857.938 61.606ZM856.347 61.606L924.919 151.606L926.51 150.394L857.938 60.394L856.347 61.606ZM926.51 151.606L995.081 61.606L993.49 60.394L924.919 150.394L926.51 151.606ZM924.919 691.606L993.49 781.606L995.081 780.394L926.51 690.394L924.919 691.606ZM857.938 781.606L926.51 691.606L924.919 690.394L856.347 780.394L857.938 781.606ZM856.347 781.606L924.919 871.606L926.51 870.394L857.938 780.394L856.347 781.606ZM926.51 871.606L995.081 781.606L993.49 780.394L924.919 870.394L926.51 871.606ZM924.919 871.606L993.49 961.606L995.081 960.394L926.51 870.394L924.919 871.606ZM857.938 961.606L926.51 871.606L924.919 870.394L856.347 960.394L857.938 961.606ZM856.347 961.606L924.919 1051.61L926.51 1050.39L857.938 960.394L856.347 961.606ZM926.51 1051.61L995.081 961.606L993.49 960.394L924.919 1050.39L926.51 1051.61ZM1062.06 511.606L1130.63 601.606L1132.22 600.394L1063.65 510.394L1062.06 511.606ZM995.081 601.606L1063.65 511.606L1062.06 510.394L993.49 600.394L995.081 601.606ZM993.49 601.606L1062.06 691.606L1063.65 690.394L995.081 600.394L993.49 601.606ZM1063.65 691.606L1132.22 601.606L1130.63 600.394L1062.06 690.394L1063.65 691.606ZM1062.06 151.606L1130.63 241.606L1132.22 240.394L1063.65 150.394L1062.06 151.606ZM995.081 241.606L1063.65 151.606L1062.06 150.394L993.49 240.394L995.081 241.606ZM993.49 241.606L1062.06 331.606L1063.65 330.394L995.081 240.394L993.49 241.606ZM1063.65 331.606L1132.22 241.606L1130.63 240.394L1062.06 330.394L1063.65 331.606ZM1062.06 331.606L1130.63 421.606L1132.22 420.394L1063.65 330.394L1062.06 331.606ZM995.081 421.606L1063.65 331.606L1062.06 330.394L993.49 420.394L995.081 421.606ZM993.49 421.606L1062.06 511.606L1063.65 510.394L995.081 420.394L993.49 421.606ZM1063.65 511.606L1132.22 421.606L1130.63 420.394L1062.06 510.394L1063.65 511.606ZM1062.06 -28.394L1130.63 61.606L1132.22 60.394L1063.65 -29.606L1062.06 -28.394ZM995.081 61.606L1063.65 -28.394L1062.06 -29.606L993.49 60.394L995.081 61.606ZM993.49 61.606L1062.06 151.606L1063.65 150.394L995.081 60.394L993.49 61.606ZM1063.65 151.606L1132.22 61.606L1130.63 60.394L1062.06 150.394L1063.65 151.606ZM1062.06 691.606L1130.63 781.606L1132.22 780.394L1063.65 690.394L1062.06 691.606ZM995.081 781.606L1063.65 691.606L1062.06 690.394L993.49 780.394L995.081 781.606ZM993.49 781.606L1062.06 871.606L1063.65 870.394L995.081 780.394L993.49 781.606ZM1063.65 871.606L1132.22 781.606L1130.63 780.394L1062.06 870.394L1063.65 871.606ZM1062.06 871.606L1130.63 961.606L1132.22 960.394L1063.65 870.394L1062.06 871.606ZM995.081 961.606L1063.65 871.606L1062.06 870.394L993.49 960.394L995.081 961.606ZM993.49 961.606L1062.06 1051.61L1063.65 1050.39L995.081 960.394L993.49 961.606ZM1063.65 1051.61L1132.22 961.606L1130.63 960.394L1062.06 1050.39L1063.65 1051.61ZM1199.2 511.606L1267.78 601.606L1269.37 600.394L1200.8 510.394L1199.2 511.606ZM1132.22 601.606L1200.8 511.606L1199.2 510.394L1130.63 600.394L1132.22 601.606ZM1130.63 601.606L1199.2 691.606L1200.8 690.394L1132.22 600.394L1130.63 601.606ZM1200.8 691.606L1269.37 601.606L1267.78 600.394L1199.2 690.394L1200.8 691.606ZM1199.2 151.606L1267.78 241.606L1269.37 240.394L1200.8 150.394L1199.2 151.606ZM1132.22 241.606L1200.8 151.606L1199.2 150.394L1130.63 240.394L1132.22 241.606ZM1130.63 241.606L1199.2 331.606L1200.8 330.394L1132.22 240.394L1130.63 241.606ZM1200.8 331.606L1269.37 241.606L1267.78 240.394L1199.2 330.394L1200.8 331.606ZM1199.2 331.606L1267.78 421.606L1269.37 420.394L1200.8 330.394L1199.2 331.606ZM1132.22 421.606L1200.8 331.606L1199.2 330.394L1130.63 420.394L1132.22 421.606ZM1130.63 421.606L1199.2 511.606L1200.8 510.394L1132.22 420.394L1130.63 421.606ZM1200.8 511.606L1269.37 421.606L1267.78 420.394L1199.2 510.394L1200.8 511.606ZM1199.2 -28.394L1267.78 61.606L1269.37 60.394L1200.8 -29.606L1199.2 -28.394ZM1132.22 61.606L1200.8 -28.394L1199.2 -29.606L1130.63 60.394L1132.22 61.606ZM1130.63 61.606L1199.2 151.606L1200.8 150.394L1132.22 60.394L1130.63 61.606ZM1200.8 151.606L1269.37 61.606L1267.78 60.394L1199.2 150.394L1200.8 151.606ZM1199.2 691.606L1267.78 781.606L1269.37 780.394L1200.8 690.394L1199.2 691.606ZM1132.22 781.606L1200.8 691.606L1199.2 690.394L1130.63 780.394L1132.22 781.606ZM1130.63 781.606L1199.2 871.606L1200.8 870.394L1132.22 780.394L1130.63 781.606ZM1200.8 871.606L1269.37 781.606L1267.78 780.394L1199.2 870.394L1200.8 871.606ZM1199.2 871.606L1267.78 961.606L1269.37 960.394L1200.8 870.394L1199.2 871.606ZM1132.22 961.606L1200.8 871.606L1199.2 870.394L1130.63 960.394L1132.22 961.606ZM1130.63 961.606L1199.2 1051.61L1200.8 1050.39L1132.22 960.394L1130.63 961.606ZM1200.8 1051.61L1269.37 961.606L1267.78 960.394L1199.2 1050.39L1200.8 1051.61ZM1336.35 511.606L1404.92 601.606L1406.51 600.394L1337.94 510.394L1336.35 511.606ZM1269.37 601.606L1337.94 511.606L1336.35 510.394L1267.78 600.394L1269.37 601.606ZM1267.78 601.606L1336.35 691.606L1337.94 690.394L1269.37 600.394L1267.78 601.606ZM1337.94 691.606L1406.51 601.606L1404.92 600.394L1336.35 690.394L1337.94 691.606ZM1336.35 151.606L1404.92 241.606L1406.51 240.394L1337.94 150.394L1336.35 151.606ZM1269.37 241.606L1337.94 151.606L1336.35 150.394L1267.78 240.394L1269.37 241.606ZM1267.78 241.606L1336.35 331.606L1337.94 330.394L1269.37 240.394L1267.78 241.606ZM1337.94 331.606L1406.51 241.606L1404.92 240.394L1336.35 330.394L1337.94 331.606ZM1336.35 331.606L1404.92 421.606L1406.51 420.394L1337.94 330.394L1336.35 331.606ZM1269.37 421.606L1337.94 331.606L1336.35 330.394L1267.78 420.394L1269.37 421.606ZM1267.78 421.606L1336.35 511.606L1337.94 510.394L1269.37 420.394L1267.78 421.606ZM1337.94 511.606L1406.51 421.606L1404.92 420.394L1336.35 510.394L1337.94 511.606ZM1336.35 -28.394L1404.92 61.606L1406.51 60.394L1337.94 -29.606L1336.35 -28.394ZM1269.37 61.606L1337.94 -28.394L1336.35 -29.606L1267.78 60.394L1269.37 61.606ZM1267.78 61.606L1336.35 151.606L1337.94 150.394L1269.37 60.394L1267.78 61.606ZM1337.94 151.606L1406.51 61.606L1404.92 60.394L1336.35 150.394L1337.94 151.606ZM1336.35 691.606L1404.92 781.606L1406.51 780.394L1337.94 690.394L1336.35 691.606ZM1269.37 781.606L1337.94 691.606L1336.35 690.394L1267.78 780.394L1269.37 781.606ZM1267.78 781.606L1336.35 871.606L1337.94 870.394L1269.37 780.394L1267.78 781.606ZM1337.94 871.606L1406.51 781.606L1404.92 780.394L1336.35 870.394L1337.94 871.606ZM1336.35 871.606L1404.92 961.606L1406.51 960.394L1337.94 870.394L1336.35 871.606ZM1269.37 961.606L1337.94 871.606L1336.35 870.394L1267.78 960.394L1269.37 961.606ZM1267.78 961.606L1336.35 1051.61L1337.94 1050.39L1269.37 960.394L1267.78 961.606ZM1337.94 1051.61L1406.51 961.606L1404.92 960.394L1336.35 1050.39L1337.94 1051.61ZM1473.49 511.606L1542.06 601.606L1543.65 600.394L1475.08 510.394L1473.49 511.606ZM1406.51 601.606L1475.08 511.606L1473.49 510.394L1404.92 600.394L1406.51 601.606ZM1404.92 601.606L1473.49 691.606L1475.08 690.394L1406.51 600.394L1404.92 601.606ZM1475.08 691.606L1543.65 601.606L1542.06 600.394L1473.49 690.394L1475.08 691.606ZM1473.49 151.606L1542.06 241.606L1543.65 240.394L1475.08 150.394L1473.49 151.606ZM1406.51 241.606L1475.08 151.606L1473.49 150.394L1404.92 240.394L1406.51 241.606ZM1404.92 241.606L1473.49 331.606L1475.08 330.394L1406.51 240.394L1404.92 241.606ZM1475.08 331.606L1543.65 241.606L1542.06 240.394L1473.49 330.394L1475.08 331.606ZM1473.49 331.606L1542.06 421.606L1543.65 420.394L1475.08 330.394L1473.49 331.606ZM1406.51 421.606L1475.08 331.606L1473.49 330.394L1404.92 420.394L1406.51 421.606ZM1404.92 421.606L1473.49 511.606L1475.08 510.394L1406.51 420.394L1404.92 421.606ZM1475.08 511.606L1543.65 421.606L1542.06 420.394L1473.49 510.394L1475.08 511.606ZM1473.49 -28.394L1542.06 61.606L1543.65 60.394L1475.08 -29.606L1473.49 -28.394ZM1406.51 61.606L1475.08 -28.394L1473.49 -29.606L1404.92 60.394L1406.51 61.606ZM1404.92 61.606L1473.49 151.606L1475.08 150.394L1406.51 60.394L1404.92 61.606ZM1475.08 151.606L1543.65 61.606L1542.06 60.394L1473.49 150.394L1475.08 151.606ZM1473.49 691.606L1542.06 781.606L1543.65 780.394L1475.08 690.394L1473.49 691.606ZM1406.51 781.606L1475.08 691.606L1473.49 690.394L1404.92 780.394L1406.51 781.606ZM1404.92 781.606L1473.49 871.606L1475.08 870.394L1406.51 780.394L1404.92 781.606ZM1475.08 871.606L1543.65 781.606L1542.06 780.394L1473.49 870.394L1475.08 871.606ZM1473.49 871.606L1542.06 961.606L1543.65 960.394L1475.08 870.394L1473.49 871.606ZM1406.51 961.606L1475.08 871.606L1473.49 870.394L1404.92 960.394L1406.51 961.606ZM1404.92 961.606L1473.49 1051.61L1475.08 1050.39L1406.51 960.394L1404.92 961.606ZM1475.08 1051.61L1543.65 961.606L1542.06 960.394L1473.49 1050.39L1475.08 1051.61ZM1610.63 511.606L1679.2 601.606L1680.8 600.394L1612.22 510.394L1610.63 511.606ZM1543.65 601.606L1612.22 511.606L1610.63 510.394L1542.06 600.394L1543.65 601.606ZM1542.06 601.606L1610.63 691.606L1612.22 690.394L1543.65 600.394L1542.06 601.606ZM1612.22 691.606L1680.8 601.606L1679.2 600.394L1610.63 690.394L1612.22 691.606ZM1610.63 151.606L1679.2 241.606L1680.8 240.394L1612.22 150.394L1610.63 151.606ZM1543.65 241.606L1612.22 151.606L1610.63 150.394L1542.06 240.394L1543.65 241.606ZM1542.06 241.606L1610.63 331.606L1612.22 330.394L1543.65 240.394L1542.06 241.606ZM1612.22 331.606L1680.8 241.606L1679.2 240.394L1610.63 330.394L1612.22 331.606ZM1610.63 331.606L1679.2 421.606L1680.8 420.394L1612.22 330.394L1610.63 331.606ZM1543.65 421.606L1612.22 331.606L1610.63 330.394L1542.06 420.394L1543.65 421.606ZM1542.06 421.606L1610.63 511.606L1612.22 510.394L1543.65 420.394L1542.06 421.606ZM1612.22 511.606L1680.8 421.606L1679.2 420.394L1610.63 510.394L1612.22 511.606ZM1610.63 -28.394L1679.2 61.606L1680.8 60.394L1612.22 -29.606L1610.63 -28.394ZM1543.65 61.606L1612.22 -28.394L1610.63 -29.606L1542.06 60.394L1543.65 61.606ZM1542.06 61.606L1610.63 151.606L1612.22 150.394L1543.65 60.394L1542.06 61.606ZM1612.22 151.606L1680.8 61.606L1679.2 60.394L1610.63 150.394L1612.22 151.606ZM1610.63 691.606L1679.2 781.606L1680.8 780.394L1612.22 690.394L1610.63 691.606ZM1543.65 781.606L1612.22 691.606L1610.63 690.394L1542.06 780.394L1543.65 781.606ZM1542.06 781.606L1610.63 871.606L1612.22 870.394L1543.65 780.394L1542.06 781.606ZM1612.22 871.606L1680.8 781.606L1679.2 780.394L1610.63 870.394L1612.22 871.606ZM1610.63 871.606L1679.2 961.606L1680.8 960.394L1612.22 870.394L1610.63 871.606ZM1543.65 961.606L1612.22 871.606L1610.63 870.394L1542.06 960.394L1543.65 961.606ZM1542.06 961.606L1610.63 1051.61L1612.22 1050.39L1543.65 960.394L1542.06 961.606ZM1612.22 1051.61L1680.8 961.606L1679.2 960.394L1610.63 1050.39L1612.22 1051.61Z" fill="url(#paint0_linear)" mask="url(#path-1-inside-1)"/>
</g>
<defs>
<linearGradient id="paint0_linear" x1="720" y1="299.5" x2="720" y2="961.5" gradientUnits="userSpaceOnUse">
<stop offset="0.3125" stop-color="#394460"/>
<stop offset="1" stop-color="#121C36"/>
</linearGradient>
</defs>
</svg>
