<?xml version="1.0" encoding="UTF-8" standalone="no"?>
<!DOCTYPE svg PUBLIC "-//W3C//DTD SVG 1.1//EN" "http://www.w3.org/Graphics/SVG/1.1/DTD/svg11.dtd">
<svg version="1.1" xmlns="http://www.w3.org/2000/svg" xmlns:xlink="http://www.w3.org/1999/xlink" preserveAspectRatio="xMidYMid meet" viewBox="0 0 296 64" width="296" height="64"><defs><path d="M24.72 9.47C25.08 9.17 25.54 9 26.01 9C51.26 9 253.25 9 278.5 9C279.61 9 280.5 9.89 280.5 11C280.5 24.1 280.5 41.67 280.5 45.86C280.5 46.45 280.24 47.01 279.79 47.39C279.51 47.62 278.12 48.79 275.61 50.89C273.01 53.08 271.57 54.29 271.28 54.53C270.92 54.83 270.46 55 269.99 55C244.74 55 42.75 55 17.5 55C16.4 55 15.5 54.1 15.5 53C15.5 49.51 15.5 21.63 15.5 18.15C15.5 17.56 15.76 16.99 16.21 16.61C16.49 16.38 17.88 15.21 20.39 13.11C22.99 10.92 24.43 9.71 24.72 9.47Z" id="a7R9v8ltQ1"></path></defs><g><g><g><use xlink:href="#a7R9v8ltQ1" opacity="1" fill="#45fff4" fill-opacity="1"></use><g><use xlink:href="#a7R9v8ltQ1" opacity="1" fill-opacity="0" stroke="#000000" stroke-width="1" stroke-opacity="0"></use></g></g></g></g></svg>