<svg width="271" height="66" viewBox="0 0 271 66" fill="none" xmlns="http://www.w3.org/2000/svg">
<g filter="url(#filter0_d)">
<path d="M14.9628 14.4812L19.0258 10.8778C19.3002 10.6344 19.6543 10.5 20.0211 10.5H259C259.83 10.5 260.5 11.1686 260.5 11.9956V12.0726V12.1498V12.227V12.3043V12.3818V12.4593V12.5369V12.6147V12.6925V12.7704V12.8484V12.9265V13.0047V13.083V13.1614V13.2399V13.3184V13.3971V13.4758V13.5547V13.6336V13.7126V13.7917V13.8709V13.9501V14.0295V14.1089V14.1884V14.268V14.3476V14.4274V14.5072V14.5871V14.6671V14.7471V14.8272V14.9074V14.9877V15.0681V15.1485V15.229V15.3095V15.3902V15.4709V15.5516V15.6324V15.7133V15.7943V15.8753V15.9564V16.0376V16.1188V16.2001V16.2814V16.3628V16.4442V16.5257V16.6073V16.6889V16.7706V16.8524V16.9341V17.016V17.0979V17.1798V17.2618V17.3439V17.426V17.5081V17.5903V17.6725V17.7548V17.8371V17.9195V18.0019V18.0844V18.1669V18.2494V18.332V18.4146V18.4973V18.58V18.6627V18.7455V18.8283V18.9111V18.994V19.0769V19.1599V19.2428V19.3258V19.4089V19.4919V19.575V19.6581V19.7413V19.8244V19.9076V19.9909V20.0741V20.1574V20.2406V20.3239V20.4073V20.4906V20.574V20.6574V20.7408V20.8242V20.9076V20.991V21.0745V21.158V21.2415V21.3249V21.4085V21.492V21.5755V21.659V21.7426V21.8261V21.9096V21.9932V22.0768V22.1603V22.2439V22.3274V22.411V22.4946V22.5781V22.6617V22.7453V22.8288V22.9124V22.9959V23.0795V23.163V23.2465V23.33V23.4136V23.4971V23.5806V23.664V23.7475V23.831V23.9144V23.9978V24.0812V24.1646V24.248V24.3314V24.4147V24.498V24.5813V24.6646V24.7479V24.8311V24.9143V24.9975V25.0807V25.1638V25.2469V25.33V25.4131V25.4961V25.5791V25.6621V25.745V25.8279V25.9108V25.9936V26.0764V26.1592V26.2419V26.3246V26.4072V26.4899V26.5724V26.655V26.7375V26.8199V26.9023V26.9847V27.067V27.1493V27.2315V27.3137V27.3959V27.4779V27.56V27.642V27.7239V27.8058V27.8876V27.9694V28.0511V28.1328V28.2144V28.296V28.3775V28.4589V28.5403V28.6216V28.7029V28.7841V28.8653V28.9463V29.0274V29.1083V29.1892V29.27V29.3508V29.4315V29.5121V29.5926V29.6731V29.7535V29.8338V29.9141V29.9943V30.0744V30.1545V30.2344V30.3143V30.3941V30.4738V30.5535V30.6331V30.7126V30.792V30.8713V30.9506V31.0297V31.1088V31.1878V31.2667V31.3455V31.4243V31.5029V31.5814V31.6599V31.7383V31.8166V31.8948V31.9728V32.0508V32.1288V32.2066V32.2843V32.3619V32.4394V32.5168V32.5941V32.6714V32.7485V32.8255V32.9024V32.9792V33.0559V33.1325V33.209V33.2854V33.3616V33.4378V33.5139V33.5898V33.6656V33.7414V33.817V33.8925V33.9679V34.0431V34.1183V34.1933V34.2682V34.343V34.4177V34.4923V34.5667V34.641V34.7152V34.7893V34.8632V34.937V35.0107V35.0843V35.1578V35.2311V35.3043V35.3773V35.4502V35.523V35.5957V35.6682V35.7406V35.8129V35.885V35.957V36.0288V36.1005V36.1721V36.2436V36.3149V36.386V36.457V36.5279V36.5986V36.6692V36.7396V36.8099V36.8801V36.9501V37.0199V37.0896V37.1592V37.2286V37.2978V37.3669V37.4359V37.5047V37.5733V37.6418V37.7101V37.7783V37.8463V37.9141V37.9818V38.0493V38.1167V38.1839V38.251V38.3178V38.3846V38.4511V38.5175V38.5837V38.6498V38.7156V38.7814V38.8469V38.9123V38.9775V39.0425V39.1074V39.172V39.2365V39.3009V39.365V39.429V39.4928V39.5564V39.6199V39.6831V39.7462V39.8091V39.8718V39.9344V39.9967V40.0589V40.1208V40.1826V40.2442V40.3056V40.3669V40.4279V40.4887V40.5494V40.6098V40.6701V40.7302V40.7901V40.8497V40.9092V40.9685V41.0276V41.0865V41.1452V41.2037V41.2619V41.32V41.3779V41.4356V41.4931V41.5503V41.6074V41.6642V41.7209V41.7773V41.8336V41.8896V41.9454V42.001V42.0564V42.1115V42.1665V42.2212V42.2757V42.3301V42.3841V42.438V42.4917V42.5451V42.5983V42.6513V42.7041V42.7566V42.8089V42.861V42.9129V42.9646V43.016V43.0672V43.1181V43.1689V43.2194V43.2696V43.3197V43.3695V43.419V43.4684V43.5175V43.5664V43.615V43.6634V43.7115V43.7594V43.8071V43.8545V43.9017V43.9487V43.9954V44.0419V44.0881V44.134V44.1798V44.2253V44.2705V44.3155V44.3602V44.4047V44.4489V44.4929V44.5366V44.5801V44.6233V44.6663V44.709V44.7514V44.7936V44.8355V44.8772V44.9186V44.9598V45.0006V45.0413V45.0816V45.1217V45.1616V45.2011V45.2404V45.2795V45.3182V45.3567V45.395V45.4329V45.4706V45.508V45.5452V45.582V45.6186V45.6549V45.691V45.7267V45.7622V45.7974V45.8324V45.867V45.9014V45.9355V45.9693V46.0028V46.036V46.069V46.1016V46.134V46.1661V46.1979V46.2294V46.2606V46.2915V46.3222V46.3525V46.3826V46.4123V46.4418V46.471V46.4998V46.5284V46.5567V46.5847V46.6123V46.6397V46.6668V46.6936V46.72V46.7462V46.7721V46.7976V46.8229V46.8478V46.8725V46.8968C260.5 47.323 260.318 47.7219 259.995 48.0085L256.037 51.5188L251.974 55.1222C251.7 55.3656 251.346 55.5 250.979 55.5H12C11.1716 55.5 10.5 54.8284 10.5 54V19.1138C10.5 18.6847 10.6837 18.2762 11.0047 17.9915L10.6803 17.6257L11.0047 17.9915L14.9628 14.4812Z" stroke="#45FFF4"/>
</g>
<defs>
<filter id="filter0_d" x="0" y="0" width="271" height="66" filterUnits="userSpaceOnUse" color-interpolation-filters="sRGB">
<feFlood flood-opacity="0" result="BackgroundImageFix"/>
<feColorMatrix in="SourceAlpha" type="matrix" values="0 0 0 0 0 0 0 0 0 0 0 0 0 0 0 0 0 0 127 0"/>
<feOffset/>
<feGaussianBlur stdDeviation="5"/>
<feColorMatrix type="matrix" values="0 0 0 0 0.270833 0 0 0 0 1 0 0 0 0 0.95625 0 0 0 1 0"/>
<feBlend mode="normal" in2="BackgroundImageFix" result="effect1_dropShadow"/>
<feBlend mode="normal" in="SourceGraphic" in2="effect1_dropShadow" result="shape"/>
</filter>
</defs>
</svg>
