<svg width="265" height="46" viewBox="0 0 265 46" fill="none" xmlns="http://www.w3.org/2000/svg">
<path d="M0.5 44V9.14624C0.5 8.70313 0.695911 8.2827 1.03519 7.9977L5.2109 4.48999L9.54235 0.851458C9.81259 0.624449 10.1542 0.5 10.5072 0.5H263C263.83 0.5 264.5 1.16862 264.5 1.99561V2.07243V2.14934V2.22635V2.30347V2.38068V2.45799V2.5354V2.61291V2.69051V2.76821V2.846V2.92389V3.00187V3.07994V3.1581V3.23635V3.3147V3.39313V3.47165V3.55025V3.62895V3.70772V3.78659V3.86554V3.94457V4.02368V4.10288V4.18215V4.26151V4.34094V4.42046V4.50005V4.57972V4.65946V4.73928V4.81917V4.89914V4.97918V5.0593V5.13948V5.21974V5.30006V5.38045V5.46091V5.54144V5.62204V5.7027V5.78342V5.86421V5.94507V6.02598V6.10696V6.188V6.2691V6.35026V6.43147V6.51275V6.59408V6.67546V6.75691V6.8384V6.91996V7.00156V7.08321V7.16492V7.24668V7.32849V7.41034V7.49225V7.5742V7.6562V7.73824V7.82033V7.90246V7.98464V8.06686V8.14912V8.23142V8.31376V8.39615V8.47857V8.56102V8.64352V8.72605V8.80862V8.89122V8.97385V9.05652V9.13922V9.22195V9.30471V9.3875V9.47032V9.55317V9.63605V9.71895V9.80188V9.88483V9.96781V10.0508V10.1338V10.2169V10.2999V10.383V10.4661V10.5493V10.6324V10.7156V10.7987V10.8819V10.9651V11.0484V11.1316V11.2148V11.2981V11.3814V11.4646V11.5479V11.6312V11.7145V11.7978V11.8811V11.9644V12.0478V12.1311V12.2144V12.2978V12.3811V12.4644V12.5477V12.6311V12.7144V12.7977V12.8811V12.9644V13.0477V13.131V13.2143V13.2976V13.3809V13.4641V13.5474V13.6306V13.7139V13.7971V13.8803V13.9635V14.0467V14.1299V14.213V14.2962V14.3793V14.4624V14.5454V14.6285V14.7115V14.7946V14.8775V14.9605V15.0435V15.1264V15.2093V15.2921V15.375V15.4578V15.5406V15.6233V15.706V15.7887V15.8714V15.954V16.0366V16.1191V16.2016V16.2841V16.3666V16.449V16.5313V16.6137V16.6959V16.7782V16.8604V16.9425V17.0247V17.1067V17.1887V17.2707V17.3527V17.4345V17.5164V17.5982V17.6799V17.7616V17.8432V17.9248V18.0063V18.0878V18.1692V18.2506V18.3319V18.4131V18.4943V18.5755V18.6565V18.7376V18.8185V18.8994V18.9802V19.061V19.1417V19.2223V19.3029V19.3834V19.4638V19.5442V19.6245V19.7047V19.7849V19.8649V19.945V20.0249V20.1048V20.1845V20.2643V20.3439V20.4234V20.5029V20.5823V20.6617V20.7409V20.8201V20.8991V20.9781V21.057V21.1359V21.2146V21.2933V21.3718V21.4503V21.5287V21.607V21.6852V21.7634V21.8414V21.9193V21.9972V22.0749V22.1526V22.2302V22.3076V22.385V22.4623V22.5394V22.6165V22.6935V22.7703V22.8471V22.9238V23.0003V23.0768V23.1532V23.2294V23.3055V23.3816V23.4575V23.5333V23.609V23.6846V23.7601V23.8355V23.9107V23.9859V24.0609V24.1358V24.2106V24.2853V24.3598V24.4343V24.5086V24.5828V24.6569V24.7309V24.8047V24.8784V24.952V25.0255V25.0988V25.172V25.2451V25.318V25.3909V25.4636V25.5361V25.6086V25.6809V25.753V25.8251V25.897V25.9687V26.0404V26.1119V26.1832V26.2544V26.3255V26.3964V26.4672V26.5379V26.6084V26.6788V26.749V26.8191V26.889V26.9588V27.0284V27.0979V27.1672V27.2364V27.3055V27.3743V27.4431V27.5117V27.5801V27.6484V27.7165V27.7844V27.8522V27.9199V27.9874V28.0547V28.1219V28.1889V28.2557V28.3224V28.3889V28.4553V28.5215V28.5875V28.6533V28.719V28.7846V28.8499V28.9151V28.9801V29.0449V29.1096V29.1741V29.2384V29.3026V29.3665V29.4303V29.494V29.5574V29.6207V29.6837V29.7466V29.8094V29.8719V29.9343V29.9964V30.0584V30.1202V30.1818V30.2433V30.3045V30.3656V30.4264V30.4871V30.5476V30.6079V30.668V30.7279V30.7876V30.8471V30.9065V30.9656V31.0245V31.0833V31.1418V31.2001V31.2583V31.3162V31.3739V31.4315V31.4888V31.5459V31.6028V31.6595V31.7161V31.7724V31.8284V31.8843V31.94V31.9955V32.0507V32.1057V32.1606V32.2152V32.2696V32.3238V32.3777V32.4315V32.485V32.5383V32.5914V32.6443V32.6969V32.7494V32.8016V32.8535V32.9053V32.9568V33.0081V33.0592V33.1101V33.1607V33.2111V33.2613V33.3112V33.3609V33.4104V33.4596V33.5086V33.5574V33.6059V33.6542V33.7023V33.7501V33.7977V33.8451V33.8922V33.939V33.9857V34.0321V34.0782V34.1241V34.1697V34.2151V34.2603V34.3052V34.3499V34.3943V34.4385V34.4824V34.526V34.5695V34.6126V34.6555V34.6982V34.7406V34.7827V34.8246V34.8662V34.9076V34.9487V34.9895V35.0301V35.0704V35.1105V35.1503V35.1898V35.2291V35.2681V35.3068V35.3453V35.3835V35.4214V35.4591V35.4965V35.5336V35.5704V35.607V35.6433V35.6794V35.7151V35.7506V35.7858V35.8207V35.8554V35.8897V35.9238V35.9576V35.9911V36.0244V36.0573V36.09V36.1224V36.1545V36.1863V36.2178V36.2491V36.28V36.3107V36.341V36.3711V36.4009V36.4304V36.4596V36.4885V36.5171V36.5454V36.5735V36.6012V36.6286V36.6557V36.6826V36.7091V36.7353V36.7612V36.7868V36.8121V36.8372V36.8619C264.5 37.3028 264.306 37.7159 263.965 38.0023L259.789 41.51L255.458 45.1485C255.187 45.3756 254.846 45.5 254.493 45.5H2C1.17157 45.5 0.5 44.8284 0.5 44Z" stroke="#45FFF4"/>
</svg>
