<?xml version="1.0" encoding="UTF-8" standalone="no"?>
<!DOCTYPE svg PUBLIC "-//W3C//DTD SVG 1.1//EN" "http://www.w3.org/Graphics/SVG/1.1/DTD/svg11.dtd">
<svg version="1.1" xmlns="http://www.w3.org/2000/svg" xmlns:xlink="http://www.w3.org/1999/xlink" preserveAspectRatio="xMidYMid meet" viewBox="0 0 295 64" width="295" height="64"><defs><path d="M16.54 17C16.81 16.76 18.21 15.59 20.71 13.49C23.31 11.31 24.75 10.09 25.04 9.85C25.31 9.62 25.65 9.5 26.01 9.5C51.26 9.5 253.25 9.5 278.5 9.5C279.33 9.5 280 10.17 280 11C280 11 280 11.03 280 11.07C280 11.08 280 11.1 280 11.15L280 11.23L280 11.3L280 11.38L280 11.46L280 11.54L280 11.61L280 11.69L280 11.77L280 11.85L280 11.92L280 12L280 12.08L280 12.16L280 12.24L280 12.31L280 12.39L280 12.47L280 12.55L280 12.63L280 12.71L280 12.79L280 12.87L280 12.94L280 13.02L280 13.1L280 13.18L280 13.26L280 13.34L280 13.42L280 13.5L280 13.58L280 13.66L280 13.74L280 13.82L280 13.9L280 13.98L280 14.06L280 14.14L280 14.22L280 14.3L280 14.38L280 14.46L280 14.54L280 14.62L280 14.7L280 14.78L280 14.86L280 14.95L280 15.03L280 15.11L280 15.19L280 15.27L280 15.35L280 15.43L280 15.51L280 15.59L280 15.68L280 15.76L280 15.84L280 15.92L280 16L280 16.08L280 16.16L280 16.25L280 16.33L280 16.41L280 16.49L280 16.57L280 16.66L280 16.74L280 16.82L280 16.9L280 16.98L280 17.07L280 17.15L280 17.23L280 17.31L280 17.4L280 17.48L280 17.56L280 17.64L280 17.73L280 17.81L280 17.89L280 17.97L280 18.06L280 18.14L280 18.22L280 18.3L280 18.39L280 18.47L280 18.55L280 18.64L280 18.72L280 18.8L280 18.88L280 18.97L280 19.05L280 19.13L280 19.22L280 19.3L280 19.38L280 19.47L280 19.55L280 19.63L280 19.72L280 19.8L280 19.88L280 19.97L280 20.05L280 20.13L280 20.21L280 20.3L280 20.38L280 20.46L280 20.55L280 20.63L280 20.71L280 20.8L280 20.88L280 20.96L280 21.05L280 21.13L280 21.21L280 21.3L280 21.38L280 21.46L280 21.55L280 21.63L280 21.71L280 21.8L280 21.88L280 21.96L280 22.05L280 22.13L280 22.21L280 22.3L280 22.38L280 22.46L280 22.55L280 22.63L280 22.71L280 22.8L280 22.88L280 22.96L280 23.05L280 23.13L280 23.21L280 23.3L280 23.38L280 23.46L280 23.55L280 23.63L280 23.71L280 23.79L280 23.88L280 23.96L280 24.04L280 24.13L280 24.21L280 24.29L280 24.38L280 24.46L280 24.54L280 24.62L280 24.71L280 24.79L280 24.87L280 24.95L280 25.04L280 25.12L280 25.2L280 25.28L280 25.37L280 25.45L280 25.53L280 25.61L280 25.7L280 25.78L280 25.86L280 25.94L280 26.02L280 26.11L280 26.19L280 26.27L280 26.35L280 26.43L280 26.52L280 26.6L280 26.68L280 26.76L280 26.84L280 26.92L280 27.01L280 27.09L280 27.17L280 27.25L280 27.33L280 27.41L280 27.49L280 27.58L280 27.66L280 27.74L280 27.82L280 27.9L280 27.98L280 28.06L280 28.14L280 28.22L280 28.3L280 28.38L280 28.46L280 28.54L280 28.62L280 28.7L280 28.78L280 28.86L280 28.95L280 29.02L280 29.1L280 29.18L280 29.26L280 29.34L280 29.42L280 29.5L280 29.58L280 29.66L280 29.74L280 29.82L280 29.9L280 29.98L280 30.06L280 30.14L280 30.21L280 30.29L280 30.37L280 30.45L280 30.53L280 30.61L280 30.69L280 30.76L280 30.84L280 30.92L280 31L280 31.07L280 31.15L280 31.23L280 31.31L280 31.39L280 31.46L280 31.54L280 31.62L280 31.69L280 31.77L280 31.85L280 31.92L280 32L280 32.08L280 32.15L280 32.23L280 32.31L280 32.38L280 32.46L280 32.53L280 32.61L280 32.68L280 32.76L280 32.84L280 32.91L280 32.99L280 33.06L280 33.14L280 33.21L280 33.29L280 33.36L280 33.43L280 33.51L280 33.58L280 33.66L280 33.73L280 33.8L280 33.88L280 33.95L280 34.03L280 34.1L280 34.17L280 34.25L280 34.32L280 34.39L280 34.46L280 34.54L280 34.61L280 34.68L280 34.75L280 34.83L280 34.9L280 34.97L280 35.04L280 35.11L280 35.18L280 35.25L280 35.33L280 35.4L280 35.47L280 35.54L280 35.61L280 35.68L280 35.75L280 35.82L280 35.89L280 35.96L280 36.03L280 36.1L280 36.17L280 36.24L280 36.31L280 36.37L280 36.44L280 36.51L280 36.58L280 36.65L280 36.72L280 36.78L280 36.85L280 36.92L280 36.99L280 37.05L280 37.12L280 37.19L280 37.26L280 37.32L280 37.39L280 37.46L280 37.52L280 37.59L280 37.65L280 37.72L280 37.78L280 37.85L280 37.92L280 37.98L280 38.04L280 38.11L280 38.17L280 38.24L280 38.3L280 38.37L280 38.43L280 38.49L280 38.56L280 38.62L280 38.68L280 38.75L280 38.81L280 38.87L280 38.93L280 39L280 39.06L280 39.12L280 39.18L280 39.24L280 39.3L280 39.37L280 39.43L280 39.49L280 39.55L280 39.61L280 39.67L280 39.73L280 39.79L280 39.85L280 39.91L280 39.97L280 40.02L280 40.08L280 40.14L280 40.2L280 40.26L280 40.32L280 40.37L280 40.43L280 40.49L280 40.55L280 40.6L280 40.66L280 40.72L280 40.77L280 40.83L280 40.88L280 40.94L280 41L280 41.05L280 41.11L280 41.16L280 41.22L280 41.27L280 41.32L280 41.38L280 41.43L280 41.49L280 41.54L280 41.59L280 41.64L280 41.7L280 41.75L280 41.8L280 41.85L280 41.91L280 41.96L280 42.01L280 42.06L280 42.11L280 42.16L280 42.21L280 42.26L280 42.31L280 42.36L280 42.41L280 42.46L280 42.51L280 42.56L280 42.61L280 42.65L280 42.7L280 42.75L280 42.8L280 42.85L280 42.89L280 42.94L280 42.99L280 43.03L280 43.08L280 43.12L280 43.17L280 43.22L280 43.26L280 43.31L280 43.35L280 43.39L280 43.44L280 43.48L280 43.53L280 43.57L280 43.61L280 43.66L280 43.7L280 43.74L280 43.78L280 43.82L280 43.87L280 43.91L280 43.95L280 43.99L280 44.03L280 44.07L280 44.11L280 44.15L280 44.19L280 44.23L280 44.27L280 44.31L280 44.35L280 44.38L280 44.42L280 44.46L280 44.5L280 44.53L280 44.57L280 44.61L280 44.64L280 44.68L280 44.72L280 44.75L280 44.79L280 44.82L280 44.86L280 44.89L280 44.92L280 44.96L280 44.99L280 45.02L280 45.06L280 45.09L280 45.12L280 45.15L280 45.19L280 45.22L280 45.25L280 45.28L280 45.31L280 45.34L280 45.37L280 45.4L280 45.43L280 45.46L280 45.49L280 45.52L280 45.55L280 45.57L280 45.6L280 45.63L280 45.66L280 45.68L280 45.71L280 45.74L280 45.76L280 45.79L280 45.81C280 45.83 280 45.84 280 45.84C280 45.85 280 45.86 280 45.86C280 46.3 279.81 46.72 279.46 47C279.19 47.24 277.79 48.41 275.29 50.51C272.69 52.69 271.25 53.91 270.96 54.15C270.69 54.38 270.35 54.5 269.99 54.5C244.74 54.5 42.75 54.5 17.5 54.5C16.67 54.5 16 53.83 16 53C16 46.03 16 21.63 16 18.15C16 17.7 16.2 17.28 16.54 17Z" id="auFScx3Ov"></path><path d="M16.54 17C16.81 16.76 18.21 15.59 20.71 13.49C23.31 11.31 24.75 10.09 25.04 9.85C25.31 9.62 25.65 9.5 26.01 9.5C51.26 9.5 253.25 9.5 278.5 9.5C279.33 9.5 280 10.17 280 11C280 11 280 11.03 280 11.07C280 11.08 280 11.1 280 11.15L280 11.23L280 11.3L280 11.38L280 11.46L280 11.54L280 11.61L280 11.69L280 11.77L280 11.85L280 11.92L280 12L280 12.08L280 12.16L280 12.24L280 12.31L280 12.39L280 12.47L280 12.55L280 12.63L280 12.71L280 12.79L280 12.87L280 12.94L280 13.02L280 13.1L280 13.18L280 13.26L280 13.34L280 13.42L280 13.5L280 13.58L280 13.66L280 13.74L280 13.82L280 13.9L280 13.98L280 14.06L280 14.14L280 14.22L280 14.3L280 14.38L280 14.46L280 14.54L280 14.62L280 14.7L280 14.78L280 14.86L280 14.95L280 15.03L280 15.11L280 15.19L280 15.27L280 15.35L280 15.43L280 15.51L280 15.59L280 15.68L280 15.76L280 15.84L280 15.92L280 16L280 16.08L280 16.16L280 16.25L280 16.33L280 16.41L280 16.49L280 16.57L280 16.66L280 16.74L280 16.82L280 16.9L280 16.98L280 17.07L280 17.15L280 17.23L280 17.31L280 17.4L280 17.48L280 17.56L280 17.64L280 17.73L280 17.81L280 17.89L280 17.97L280 18.06L280 18.14L280 18.22L280 18.3L280 18.39L280 18.47L280 18.55L280 18.64L280 18.72L280 18.8L280 18.88L280 18.97L280 19.05L280 19.13L280 19.22L280 19.3L280 19.38L280 19.47L280 19.55L280 19.63L280 19.72L280 19.8L280 19.88L280 19.97L280 20.05L280 20.13L280 20.21L280 20.3L280 20.38L280 20.46L280 20.55L280 20.63L280 20.71L280 20.8L280 20.88L280 20.96L280 21.05L280 21.13L280 21.21L280 21.3L280 21.38L280 21.46L280 21.55L280 21.63L280 21.71L280 21.8L280 21.88L280 21.96L280 22.05L280 22.13L280 22.21L280 22.3L280 22.38L280 22.46L280 22.55L280 22.63L280 22.71L280 22.8L280 22.88L280 22.96L280 23.05L280 23.13L280 23.21L280 23.3L280 23.38L280 23.46L280 23.55L280 23.63L280 23.71L280 23.79L280 23.88L280 23.96L280 24.04L280 24.13L280 24.21L280 24.29L280 24.38L280 24.46L280 24.54L280 24.62L280 24.71L280 24.79L280 24.87L280 24.95L280 25.04L280 25.12L280 25.2L280 25.28L280 25.37L280 25.45L280 25.53L280 25.61L280 25.7L280 25.78L280 25.86L280 25.94L280 26.02L280 26.11L280 26.19L280 26.27L280 26.35L280 26.43L280 26.52L280 26.6L280 26.68L280 26.76L280 26.84L280 26.92L280 27.01L280 27.09L280 27.17L280 27.25L280 27.33L280 27.41L280 27.49L280 27.58L280 27.66L280 27.74L280 27.82L280 27.9L280 27.98L280 28.06L280 28.14L280 28.22L280 28.3L280 28.38L280 28.46L280 28.54L280 28.62L280 28.7L280 28.78L280 28.86L280 28.95L280 29.02L280 29.1L280 29.18L280 29.26L280 29.34L280 29.42L280 29.5L280 29.58L280 29.66L280 29.74L280 29.82L280 29.9L280 29.98L280 30.06L280 30.14L280 30.21L280 30.29L280 30.37L280 30.45L280 30.53L280 30.61L280 30.69L280 30.76L280 30.84L280 30.92L280 31L280 31.07L280 31.15L280 31.23L280 31.31L280 31.39L280 31.46L280 31.54L280 31.62L280 31.69L280 31.77L280 31.85L280 31.92L280 32L280 32.08L280 32.15L280 32.23L280 32.31L280 32.38L280 32.46L280 32.53L280 32.61L280 32.68L280 32.76L280 32.84L280 32.91L280 32.99L280 33.06L280 33.14L280 33.21L280 33.29L280 33.36L280 33.43L280 33.51L280 33.58L280 33.66L280 33.73L280 33.8L280 33.88L280 33.95L280 34.03L280 34.1L280 34.17L280 34.25L280 34.32L280 34.39L280 34.46L280 34.54L280 34.61L280 34.68L280 34.75L280 34.83L280 34.9L280 34.97L280 35.04L280 35.11L280 35.18L280 35.25L280 35.33L280 35.4L280 35.47L280 35.54L280 35.61L280 35.68L280 35.75L280 35.82L280 35.89L280 35.96L280 36.03L280 36.1L280 36.17L280 36.24L280 36.31L280 36.37L280 36.44L280 36.51L280 36.58L280 36.65L280 36.72L280 36.78L280 36.85L280 36.92L280 36.99L280 37.05L280 37.12L280 37.19L280 37.26L280 37.32L280 37.39L280 37.46L280 37.52L280 37.59L280 37.65L280 37.72L280 37.78L280 37.85L280 37.92L280 37.98L280 38.04L280 38.11L280 38.17L280 38.24L280 38.3L280 38.37L280 38.43L280 38.49L280 38.56L280 38.62L280 38.68L280 38.75L280 38.81L280 38.87L280 38.93L280 39L280 39.06L280 39.12L280 39.18L280 39.24L280 39.3L280 39.37L280 39.43L280 39.49L280 39.55L280 39.61L280 39.67L280 39.73L280 39.79L280 39.85L280 39.91L280 39.97L280 40.02L280 40.08L280 40.14L280 40.2L280 40.26L280 40.32L280 40.37L280 40.43L280 40.49L280 40.55L280 40.6L280 40.66L280 40.72L280 40.77L280 40.83L280 40.88L280 40.94L280 41L280 41.05L280 41.11L280 41.16L280 41.22L280 41.27L280 41.32L280 41.38L280 41.43L280 41.49L280 41.54L280 41.59L280 41.64L280 41.7L280 41.75L280 41.8L280 41.85L280 41.91L280 41.96L280 42.01L280 42.06L280 42.11L280 42.16L280 42.21L280 42.26L280 42.31L280 42.36L280 42.41L280 42.46L280 42.51L280 42.56L280 42.61L280 42.65L280 42.7L280 42.75L280 42.8L280 42.85L280 42.89L280 42.94L280 42.99L280 43.03L280 43.08L280 43.12L280 43.17L280 43.22L280 43.26L280 43.31L280 43.35L280 43.39L280 43.44L280 43.48L280 43.53L280 43.57L280 43.61L280 43.66L280 43.7L280 43.74L280 43.78L280 43.82L280 43.87L280 43.91L280 43.95L280 43.99L280 44.03L280 44.07L280 44.11L280 44.15L280 44.19L280 44.23L280 44.27L280 44.31L280 44.35L280 44.38L280 44.42L280 44.46L280 44.5L280 44.53L280 44.57L280 44.61L280 44.64L280 44.68L280 44.72L280 44.75L280 44.79L280 44.82L280 44.86L280 44.89L280 44.92L280 44.96L280 44.99L280 45.02L280 45.06L280 45.09L280 45.12L280 45.15L280 45.19L280 45.22L280 45.25L280 45.28L280 45.31L280 45.34L280 45.37L280 45.4L280 45.43L280 45.46L280 45.49L280 45.52L280 45.55L280 45.57L280 45.6L280 45.63L280 45.66L280 45.68L280 45.71L280 45.74L280 45.76L280 45.79L280 45.81C280 45.83 280 45.84 280 45.84C280 45.85 280 45.86 280 45.86C280 46.3 279.81 46.72 279.46 47C279.19 47.24 277.79 48.41 275.29 50.51C272.69 52.69 271.25 53.91 270.96 54.15C270.69 54.38 270.35 54.5 269.99 54.5C244.74 54.5 42.75 54.5 17.5 54.5C16.67 54.5 16 53.83 16 53C16 46.03 16 21.63 16 18.15C16 17.7 16.2 17.28 16.54 17Z" id="e4KRhfxyog"></path></defs><g><g><g><use xlink:href="#auFScx3Ov" opacity="1" fill="#000000" fill-opacity="0"></use><g><use xlink:href="#auFScx3Ov" opacity="1" fill-opacity="0" stroke="#000000" stroke-width="1" stroke-opacity="0"></use></g></g><g><use xlink:href="#e4KRhfxyog" opacity="1" fill="#000000" fill-opacity="0"></use><g><use xlink:href="#e4KRhfxyog" opacity="1" fill-opacity="0" stroke="#ffd24c" stroke-width="1" stroke-opacity="1"></use></g></g></g></g></svg>