<svg width="274" height="221" viewBox="0 0 274 221" fill="none" xmlns="http://www.w3.org/2000/svg">
<path fill-rule="evenodd" clip-rule="evenodd" d="M149.401 6.92074C143.502 -2.30692 130.024 -2.30691 124.125 6.92075L2.38616 197.355C-3.99661 207.339 3.17412 220.434 15.0244 220.434H86.763V210.434H15.0244C11.0743 210.434 8.68408 206.069 10.8117 202.741L132.55 12.3069C134.517 9.23103 139.009 9.23103 140.976 12.3069L262.714 202.741C264.842 206.069 262.452 210.434 258.502 210.434H186.763V220.434H258.502C270.352 220.434 277.523 207.339 271.14 197.355L149.401 6.92074ZM148.763 75.4336H123.763V125.434H148.763V75.4336ZM123.763 127.434H148.763V142.434H123.763V127.434ZM148.763 144.434H123.763V154.434H148.763V144.434ZM148.763 164.434H123.763V189.434H148.763V164.434ZM111.763 210.434H91.763V220.434H111.763V210.434ZM161.763 210.434H181.763V220.434H161.763V210.434ZM156.763 210.434H116.763V220.434H156.763V210.434Z" fill="#45fff4"/>
</svg>
