<svg width="1120" height="629" viewBox="0 0 1120 629" fill="none" xmlns="http://www.w3.org/2000/svg">
<mask id="path-1-inside-1" fill="white">
<path fill-rule="evenodd" clip-rule="evenodd" d="M1098.79 0L21.2132 5.37634e-05L0 21.2132V607.787L21.2132 629L1098.79 629L1120 607.787L1120 21.2132L1098.79 0Z"/>
</mask>
<path fill-rule="evenodd" clip-rule="evenodd" d="M1098.79 0L21.2132 5.37634e-05L0 21.2132V607.787L21.2132 629L1098.79 629L1120 607.787L1120 21.2132L1098.79 0Z" fill="url(#paint0_linear)"/>
<path d="M21.2132 5.37634e-05V-1.99995H20.3847L19.7989 -1.41416L21.2132 5.37634e-05ZM1098.79 0L1100.2 -1.41422L1099.62 -2H1098.79V0ZM0 21.2132L-1.41421 19.799L-2 20.3848V21.2132H0ZM0 607.787H-2V608.615L-1.41421 609.201L0 607.787ZM21.2132 629L19.799 630.414L20.3848 631H21.2132V629ZM1098.79 629V631H1099.61L1100.2 630.414L1098.79 629ZM1120 607.787L1121.41 609.201L1122 608.615V607.787H1120ZM1120 21.2132H1122V20.3848L1121.41 19.799L1120 21.2132ZM21.2132 2.00005L1098.79 2V-2L21.2132 -1.99995V2.00005ZM1.41421 22.6274L22.6274 1.41427L19.7989 -1.41416L-1.41421 19.799L1.41421 22.6274ZM2 607.787V21.2132H-2V607.787H2ZM-1.41421 609.201L19.799 630.414L22.6274 627.586L1.41421 606.373L-1.41421 609.201ZM1098.79 627L21.2132 627V631L1098.79 631V627ZM1118.59 606.373L1097.37 627.586L1100.2 630.414L1121.41 609.201L1118.59 606.373ZM1118 21.2132L1118 607.787H1122L1122 21.2132H1118ZM1097.37 1.41422L1118.59 22.6274L1121.41 19.799L1100.2 -1.41422L1097.37 1.41422Z" fill="#45FFF4" mask="url(#path-1-inside-1)"/>
<defs>
<linearGradient id="paint0_linear" x1="2.41965e-06" y1="337.749" x2="1120" y2="337.749" gradientUnits="userSpaceOnUse">
<stop stop-color="#1B284B"/>
<stop offset="0.515625" stop-color="#21325E"/>
<stop offset="1" stop-color="#1B284B"/>
</linearGradient>
</defs>
</svg>
