<svg width="350" height="10" viewBox="0 0 350 10" fill="none" xmlns="http://www.w3.org/2000/svg">
<path fill-rule="evenodd" clip-rule="evenodd" d="M11.0312 4.00003L10 4.00003L10 6L11.0312 6L11.0312 4.00003ZM15.1562 4.00003L13.0937 4.00003L13.0938 6L15.1562 6L15.1562 4.00003ZM19.2812 4.00003L17.2187 4.00003L17.2188 6L19.2812 6L19.2812 4.00003ZM23.4062 4.00003L21.3437 4.00003L21.3438 6L23.4062 6L23.4062 4.00003ZM27.5312 4.00003L25.4687 4.00003L25.4688 6L27.5312 6L27.5312 4.00003ZM31.6562 4.00003L29.5937 4.00003L29.5938 6L31.6562 6L31.6562 4.00003ZM35.7812 4.00003L33.7187 4.00003L33.7188 6L35.7812 6L35.7812 4.00003ZM39.9062 4.00003L37.8437 4.00003L37.8438 6L39.9062 6L39.9062 4.00003ZM44.0312 4.00003L41.9687 4.00003L41.9688 6L44.0312 6L44.0312 4.00003ZM48.1562 4.00003L46.0937 4.00003L46.0938 6L48.1562 6L48.1562 4.00003ZM52.2812 4.00003L50.2187 4.00003L50.2188 6L52.2812 6L52.2812 4.00003ZM56.4062 4.00002L54.3437 4.00002L54.3438 6L56.4062 6L56.4062 4.00002ZM60.5312 4.00002L58.4687 4.00002L58.4688 6L60.5312 6L60.5312 4.00002ZM64.6562 4.00002L62.5937 4.00002L62.5938 6L64.6562 6L64.6562 4.00002ZM68.7812 4.00002L66.7187 4.00002L66.7188 6L68.7812 5.99999L68.7812 4.00002ZM72.9062 4.00002L70.8437 4.00002L70.8438 5.99999L72.9062 5.99999L72.9062 4.00002ZM77.0312 4.00002L74.9687 4.00002L74.9688 5.99999L77.0312 5.99999L77.0312 4.00002ZM81.1562 4.00002L79.0937 4.00002L79.0938 5.99999L81.1562 5.99999L81.1562 4.00002ZM85.2812 4.00002L83.2187 4.00002L83.2188 5.99999L85.2812 5.99999L85.2812 4.00002ZM89.4062 4.00002L87.3437 4.00002L87.3438 5.99999L89.4062 5.99999L89.4062 4.00002ZM93.5312 4.00002L91.4687 4.00002L91.4688 5.99999L93.5312 5.99999L93.5312 4.00002ZM97.6562 4.00002L95.5937 4.00002L95.5938 5.99999L97.6562 5.99999L97.6562 4.00002ZM101.781 4.00002L99.7187 4.00002L99.7188 5.99999L101.781 5.99999L101.781 4.00002ZM105.906 4.00002L103.844 4.00002L103.844 5.99999L105.906 5.99999L105.906 4.00002ZM110.031 4.00002L107.969 4.00002L107.969 5.99999L110.031 5.99999L110.031 4.00002ZM114.156 4.00002L112.094 4.00002L112.094 5.99999L114.156 5.99999L114.156 4.00002ZM118.281 4.00002L116.219 4.00002L116.219 5.99999L118.281 5.99999L118.281 4.00002ZM122.406 4.00002L120.344 4.00002L120.344 5.99999L122.406 5.99999L122.406 4.00002ZM126.531 4.00002L124.469 4.00002L124.469 5.99999L126.531 5.99999L126.531 4.00002ZM130.656 4.00002L128.594 4.00002L128.594 5.99999L130.656 5.99999L130.656 4.00002ZM134.781 4.00002L132.719 4.00002L132.719 5.99999L134.781 5.99999L134.781 4.00002ZM138.906 4.00002L136.844 4.00002L136.844 5.99999L138.906 5.99999L138.906 4.00002ZM143.031 4.00002L140.969 4.00002L140.969 5.99999L143.031 5.99999L143.031 4.00002ZM147.156 4.00002L145.094 4.00002L145.094 5.99999L147.156 5.99999L147.156 4.00002ZM151.281 4.00002L149.219 4.00002L149.219 5.99999L151.281 5.99999L151.281 4.00002ZM155.406 4.00002L153.344 4.00002L153.344 5.99999L155.406 5.99999L155.406 4.00002ZM159.531 4.00002L157.469 4.00002L157.469 5.99999L159.531 5.99999L159.531 4.00002ZM163.656 4.00002L161.594 4.00002L161.594 5.99999L163.656 5.99999L163.656 4.00002ZM167.781 4.00002L165.719 4.00002L165.719 5.99999L167.781 5.99999L167.781 4.00002ZM171.906 4.00001L169.844 4.00001L169.844 5.99999L171.906 5.99999L171.906 4.00001ZM176.031 4.00001L173.969 4.00001L173.969 5.99999L176.031 5.99999L176.031 4.00001ZM180.156 4.00001L178.094 4.00001L178.094 5.99999L180.156 5.99999L180.156 4.00001ZM184.281 4.00001L182.219 4.00001L182.219 5.99998L184.281 5.99998L184.281 4.00001ZM188.406 4.00001L186.344 4.00001L186.344 5.99998L188.406 5.99998L188.406 4.00001ZM192.531 4.00001L190.469 4.00001L190.469 5.99998L192.531 5.99998L192.531 4.00001ZM196.656 4.00001L194.594 4.00001L194.594 5.99998L196.656 5.99998L196.656 4.00001ZM200.781 4.00001L198.719 4.00001L198.719 5.99998L200.781 5.99998L200.781 4.00001ZM204.906 4.00001L202.844 4.00001L202.844 5.99998L204.906 5.99998L204.906 4.00001ZM209.031 4.00001L206.969 4.00001L206.969 5.99998L209.031 5.99998L209.031 4.00001ZM213.156 4.00001L211.094 4.00001L211.094 5.99998L213.156 5.99998L213.156 4.00001ZM217.281 4.00001L215.219 4.00001L215.219 5.99998L217.281 5.99998L217.281 4.00001ZM221.406 4.00001L219.344 4.00001L219.344 5.99998L221.406 5.99998L221.406 4.00001ZM225.531 4.00001L223.469 4.00001L223.469 5.99998L225.531 5.99998L225.531 4.00001ZM229.656 4.00001L227.594 4.00001L227.594 5.99998L229.656 5.99998L229.656 4.00001ZM233.781 4.00001L231.719 4.00001L231.719 5.99998L233.781 5.99998L233.781 4.00001ZM237.906 4.00001L235.844 4.00001L235.844 5.99998L237.906 5.99998L237.906 4.00001ZM242.031 4.00001L239.969 4.00001L239.969 5.99998L242.031 5.99998L242.031 4.00001ZM246.156 4.00001L244.094 4.00001L244.094 5.99998L246.156 5.99998L246.156 4.00001ZM250.281 4.00001L248.219 4.00001L248.219 5.99998L250.281 5.99998L250.281 4.00001ZM254.406 4.00001L252.344 4.00001L252.344 5.99998L254.406 5.99998L254.406 4.00001ZM258.531 4.00001L256.469 4.00001L256.469 5.99998L258.531 5.99998L258.531 4.00001ZM262.656 4.00001L260.594 4.00001L260.594 5.99998L262.656 5.99998L262.656 4.00001ZM266.781 4.00001L264.719 4.00001L264.719 5.99998L266.781 5.99998L266.781 4.00001ZM270.906 4.00001L268.844 4.00001L268.844 5.99998L270.906 5.99998L270.906 4.00001ZM275.031 4.00001L272.969 4.00001L272.969 5.99998L275.031 5.99998L275.031 4.00001ZM279.156 4.00001L277.094 4.00001L277.094 5.99998L279.156 5.99998L279.156 4.00001ZM283.281 4L281.219 4.00001L281.219 5.99998L283.281 5.99998L283.281 4ZM287.406 4L285.344 4L285.344 5.99998L287.406 5.99998L287.406 4ZM291.531 4L289.469 4L289.469 5.99998L291.531 5.99998L291.531 4ZM295.656 4L293.594 4L293.594 5.99998L295.656 5.99998L295.656 4ZM299.781 4L297.719 4L297.719 5.99997L299.781 5.99997L299.781 4ZM303.906 4L301.844 4L301.844 5.99997L303.906 5.99997L303.906 4ZM308.031 4L305.969 4L305.969 5.99997L308.031 5.99997L308.031 4ZM312.156 4L310.094 4L310.094 5.99997L312.156 5.99997L312.156 4ZM316.281 4L314.219 4L314.219 5.99997L316.281 5.99997L316.281 4ZM320.406 4L318.344 4L318.344 5.99997L320.406 5.99997L320.406 4ZM324.531 4L322.469 4L322.469 5.99997L324.531 5.99997L324.531 4ZM328.656 4L326.594 4L326.594 5.99997L328.656 5.99997L328.656 4ZM332.781 4L330.719 4L330.719 5.99997L332.781 5.99997L332.781 4ZM336.906 4L334.844 4L334.844 5.99997L336.906 5.99997L336.906 4ZM340 4L338.969 4L338.969 5.99997L340 5.99997L340 4Z" fill="#45FFF4"/>
<path d="M10.4142 9L2.41421 1H175H347.586L339.586 9H10.4142Z" stroke="#45FFF4" stroke-width="2"/>
</svg>
