<svg width="150" height="10" viewBox="0 0 150 10" fill="none" xmlns="http://www.w3.org/2000/svg">
<path d="M2.41421 1L10.4142 9H139.586L147.586 1H2.41421Z" stroke="#45FFF4" stroke-width="2"/>
<path fill-rule="evenodd" clip-rule="evenodd" d="M10.9848 4L10 4L10 6L10.9848 6L10.9848 4ZM14.9242 4L12.9545 4L12.9545 6L14.9242 6L14.9242 4ZM18.8636 4L16.8939 4L16.8939 6L18.8636 6L18.8636 4ZM22.803 4L20.8333 4L20.8333 6L22.803 6L22.803 4ZM26.7424 4L24.7727 4L24.7727 6L26.7424 6L26.7424 4ZM30.6818 4L28.7121 4L28.7121 6L30.6818 6L30.6818 4ZM34.6212 4L32.6515 4L32.6515 6L34.6212 6L34.6212 4ZM38.5606 4L36.5909 4L36.5909 6L38.5606 6L38.5606 4ZM42.5 4L40.5303 4L40.5303 6L42.5 6L42.5 4ZM46.4394 4L44.4697 4L44.4697 6L46.4394 6L46.4394 4ZM50.3788 4L48.4091 4L48.4091 6L50.3788 6L50.3788 4ZM54.3182 4L52.3485 4L52.3485 6L54.3182 6L54.3182 4ZM58.2576 4L56.2879 4L56.2879 6L58.2576 6L58.2576 4ZM62.197 4L60.2273 4L60.2273 6L62.197 6L62.197 4ZM66.1363 4L64.1666 4L64.1666 6L66.1363 6L66.1363 4ZM70.0757 3.99999L68.106 3.99999L68.106 5.99999L70.0757 5.99999L70.0757 3.99999ZM74.0151 3.99999L72.0454 3.99999L72.0454 5.99999L74.0151 5.99999L74.0151 3.99999ZM77.9545 3.99999L75.9848 3.99999L75.9848 5.99999L77.9545 5.99999L77.9545 3.99999ZM81.8939 3.99999L79.9242 3.99999L79.9242 5.99999L81.8939 5.99999L81.8939 3.99999ZM85.8333 3.99999L83.8636 3.99999L83.8636 5.99999L85.8333 5.99999L85.8333 3.99999ZM89.7727 3.99999L87.803 3.99999L87.803 5.99999L89.7727 5.99999L89.7727 3.99999ZM93.7121 3.99999L91.7424 3.99999L91.7424 5.99999L93.7121 5.99999L93.7121 3.99999ZM97.6515 3.99999L95.6818 3.99999L95.6818 5.99999L97.6515 5.99999L97.6515 3.99999ZM101.591 3.99999L99.6212 3.99999L99.6212 5.99999L101.591 5.99999L101.591 3.99999ZM105.53 3.99999L103.561 3.99999L103.561 5.99999L105.53 5.99999L105.53 3.99999ZM109.47 3.99999L107.5 3.99999L107.5 5.99999L109.47 5.99999L109.47 3.99999ZM113.409 3.99999L111.439 3.99999L111.439 5.99999L113.409 5.99999L113.409 3.99999ZM117.348 3.99999L115.379 3.99999L115.379 5.99999L117.348 5.99999L117.348 3.99999ZM121.288 3.99999L119.318 3.99999L119.318 5.99999L121.288 5.99999L121.288 3.99999ZM125.227 3.99999L123.258 3.99999L123.258 5.99999L125.227 5.99999L125.227 3.99999ZM129.167 3.99999L127.197 3.99999L127.197 5.99999L129.167 5.99999L129.167 3.99999ZM133.106 3.99999L131.136 3.99999L131.136 5.99999L133.106 5.99999L133.106 3.99999ZM137.045 3.99999L135.076 3.99999L135.076 5.99999L137.045 5.99999L137.045 3.99999ZM140 3.99999L139.015 3.99999L139.015 5.99999L140 5.99999L140 3.99999Z" fill="#45FFF4"/>
</svg>
