<svg width="41" height="40" viewBox="0 0 41 40" fill="none" xmlns="http://www.w3.org/2000/svg">
<path d="M20.4999 0.8125C9.62916 0.8125 0.812439 9.62758 0.812439 20.5C0.812439 29.1986 6.45291 36.5781 14.277 39.1818C15.2598 39.3639 15.5781 38.7536 15.5781 38.2351V34.57C10.1017 35.7611 8.96142 32.2469 8.96142 32.2469C8.06564 29.9713 6.77447 29.3659 6.77447 29.3659C4.98783 28.1437 6.91064 28.1699 6.91064 28.1699C8.8876 28.3077 9.92775 30.1994 9.92775 30.1994C11.6832 33.2083 14.533 32.3387 15.6568 31.8351C15.8324 30.5636 16.3426 29.6941 16.907 29.2035C12.5347 28.7031 7.93767 27.0149 7.93767 19.473C7.93767 17.3221 8.70713 15.5666 9.96549 14.1885C9.76205 13.6914 9.08775 11.6882 10.1574 8.97789C10.1574 8.97789 11.8112 8.44961 15.5731 10.9959C17.1432 10.5595 18.8265 10.3412 20.4999 10.333C22.1734 10.3412 23.8583 10.5595 25.4317 10.9959C29.1903 8.44961 30.8408 8.97789 30.8408 8.97789C31.9121 11.6898 31.2378 13.693 31.0344 14.1885C32.2977 15.5666 33.0606 17.3237 33.0606 19.473C33.0606 27.0346 28.4553 28.6998 24.0716 29.1871C24.777 29.7974 25.4218 30.9951 25.4218 32.8326V38.2351C25.4218 38.7585 25.7368 39.3737 26.736 39.1801C34.5535 36.5732 40.1874 29.1953 40.1874 20.5C40.1874 9.62758 31.3724 0.8125 20.4999 0.8125Z" fill="#45FFF4"/>
</svg>
