<svg width="640" height="640" viewBox="0 0 640 640" fill="none" xmlns="http://www.w3.org/2000/svg">
<g clip-path="url(#clip0)">
<path d="M103.648 381.129V428.037H127.228L117.403 626.559H154.082L168.491 607.293L177.661 428.037H342.06L332.89 627.397H368.914L383.978 607.293L392.493 428.037H404.283L416.727 410.447V361.863H395.768L405.593 170.88L369.569 171.718L353.194 190.983L344.68 363.538H180.936L190.105 171.718H154.737L138.362 190.983L129.847 363.538H118.058L103.648 381.129Z" fill="#45FFF4" stroke="#263B73"/>
<path d="M84 392.856V439.764H107.579L97.7545 638.286H134.433L148.843 619.02L158.012 439.764H322.411L313.242 639.124H349.265L364.33 619.02L372.845 439.764H384.634L397.079 422.174V373.59H376.12L385.944 182.607L349.92 183.445L333.546 202.71L325.031 375.265H161.287L170.457 183.445H135.088L118.714 202.71L110.199 375.265H98.4095L84 392.856Z" fill="#45FFF4" stroke="#263B73"/>
<path d="M154.738 171.718L135.089 183.445H169.803L190.107 171.718H154.738Z" fill="#45FFF4" stroke="#263B73"/>
<path d="M370.88 170.88L351.23 182.607H385.944L406.248 170.88H370.88Z" fill="#45FFF4" stroke="#263B73"/>
<path d="M161.287 375.265L181.591 363.538" stroke="#263B73"/>
<path d="M376.119 373.59L396.423 361.863" stroke="#263B73"/>
<path d="M376.119 373.59L396.423 361.863" stroke="#263B73"/>
<path d="M397.078 373.59L417.382 361.863" stroke="#263B73"/>
<path d="M416.729 410.447L397.079 422.174L384.635 439.764L404.284 428.037L416.729 410.447Z" fill="#45FFF4" stroke="#263B73"/>
<path d="M383.979 607.293L364.33 619.02L349.266 639.124L368.915 627.397L383.979 607.293Z" fill="#45FFF4" stroke="#263B73"/>
<path d="M168.492 606.456L148.843 618.183L133.778 638.286L153.428 626.559L168.492 606.456Z" fill="#45FFF4" stroke="#263B73"/>
<path d="M266.307 84.0785L264.173 86.382V92.1408L266.307 93.8685H291.383L289.783 120.935L291.917 123.238H297.252L298.853 120.935L300.453 93.8685H326.063L328.197 91.565V86.382L325.53 84.0785H300.987L302.054 57.5879L299.92 55.2844H294.584L292.984 57.0121L291.917 84.0785H266.307Z" fill="#45FFF4" stroke="#263B73"/>
<path d="M262.039 86.3822L259.905 88.6857V94.4445L262.039 96.1722H287.116L285.515 123.239L287.649 125.542H292.985L294.585 123.239L296.186 96.1722H321.796L323.93 93.8687V88.6857L321.262 86.3822H296.719L297.786 59.8917L295.652 57.5881H290.317L288.716 59.3158L287.649 86.3822H262.039Z" fill="#45FFF4" stroke="#263B73"/>
<path d="M328.199 90.9893L323.931 93.2928L321.797 96.1722L326.065 93.8687L328.199 90.9893Z" fill="#45FFF4" stroke="#263B73"/>
<path d="M297.252 123.238L292.983 125.542L294.584 123.238L298.852 120.935L297.252 123.238Z" fill="#45FFF4" stroke="#263B73"/>
<path d="M297.786 59.8917L302.054 57.5881" stroke="#263B73"/>
<path d="M266.306 84.0785L262.038 86.382H287.648V84.0785H266.306Z" fill="#45FFF4"/>
<path d="M294.584 55.2844L290.316 57.5879H295.651L299.919 55.2844H294.584Z" fill="#45FFF4"/>
<path d="M266.306 84.0785L262.038 86.382H287.648V84.0785H266.306Z" stroke="#263B73"/>
<path d="M294.584 55.2844L290.316 57.5879H295.651L299.919 55.2844H294.584Z" stroke="#263B73"/>
<path d="M324.997 84.0786L321.263 86.3821L323.93 88.6857L327.665 86.3821L324.997 84.0786Z" fill="#45FFF4" stroke="#263B73"/>
<path d="M478.995 245.404L476.327 248.283V255.482L478.995 257.641H510.34L508.339 291.474L511.007 294.354H517.676L519.677 291.474L521.678 257.641H553.69L556.358 254.762V248.283L553.023 245.404H522.345L523.679 212.291L521.011 209.411H514.342L512.341 211.571L511.007 245.404H478.995Z" fill="#45FFF4" stroke="#263B73"/>
<path d="M473.66 248.283L470.992 251.163V258.361L473.66 260.521H505.005L503.004 294.354L505.672 297.233H512.341L514.342 294.354L516.343 260.521H548.355L551.023 257.641V251.163L547.688 248.283H517.01L518.344 215.17L515.676 212.291H509.007L507.006 214.45L505.672 248.283H473.66Z" fill="#45FFF4" stroke="#263B73"/>
<path d="M556.359 254.042L551.023 256.922L548.355 260.521L553.691 257.641L556.359 254.042Z" fill="#45FFF4" stroke="#263B73"/>
<path d="M517.677 294.354L512.342 297.233L514.343 294.354L519.678 291.474L517.677 294.354Z" fill="#45FFF4" stroke="#263B73"/>
<path d="M518.345 215.17L523.68 212.291" stroke="#263B73"/>
<path d="M478.997 245.404L473.661 248.283H505.673V245.404H478.997Z" fill="#45FFF4"/>
<path d="M514.343 209.411L509.008 212.291H515.677L521.013 209.411H514.343Z" fill="#45FFF4"/>
<path d="M478.997 245.404L473.661 248.283H505.673V245.404H478.997Z" stroke="#263B73"/>
<path d="M514.343 209.411L509.008 212.291H515.677L521.013 209.411H514.343Z" stroke="#263B73"/>
<path d="M552.356 245.404L547.688 248.283L551.022 251.163L555.691 248.283L552.356 245.404Z" fill="#45FFF4" stroke="#263B73"/>
<path d="M461.876 41.8823L458.771 45.2329V53.6093L461.876 56.1223H498.35L496.022 95.4916L499.126 98.8422H506.887L509.215 95.4916L511.543 56.1223H548.794L551.898 52.7717V45.2329L548.018 41.8823H512.319L513.871 3.35058L510.767 0H503.007L500.678 2.51294L499.126 41.8823H461.876Z" fill="#45FFF4" stroke="#263B73"/>
<path d="M455.669 45.2329L452.564 48.5835V56.9599L455.669 59.4729H492.143L489.815 98.8422L492.919 102.193H500.68L503.008 98.8422L505.336 59.4729H542.587L545.691 56.1223V48.5835L541.811 45.2329H506.112L507.664 6.70117L504.56 3.35059H496.8L494.471 5.86352L492.919 45.2329H455.669Z" fill="#45FFF4" stroke="#263B73"/>
<path d="M551.899 51.9338L545.69 55.2844L542.586 59.4726L548.794 56.1221L551.899 51.9338Z" fill="#45FFF4" stroke="#263B73"/>
<path d="M506.888 98.842L500.68 102.193L503.008 98.842L509.216 95.4915L506.888 98.842Z" fill="#45FFF4" stroke="#263B73"/>
<path d="M507.664 6.70117L513.872 3.35059" stroke="#263B73"/>
<path d="M461.876 41.8823L455.668 45.2329H492.919V41.8823H461.876Z" fill="#45FFF4"/>
<path d="M503.007 0L496.799 3.35058H504.559L510.768 0H503.007Z" fill="#45FFF4"/>
<path d="M461.876 41.8823L455.668 45.2329H492.919V41.8823H461.876Z" stroke="#263B73"/>
<path d="M503.007 0L496.799 3.35058H504.559L510.768 0H503.007Z" stroke="#263B73"/>
<path d="M547.244 41.8823L541.812 45.2329L545.692 48.5835L551.124 45.2329L547.244 41.8823Z" fill="#45FFF4" stroke="#263B73"/>
</g>
<defs>
<clipPath id="clip0">
<rect width="640" height="640" fill="white"/>
</clipPath>
</defs>
</svg>
