<svg width="640" height="640" viewBox="0 0 640 640" fill="none" xmlns="http://www.w3.org/2000/svg">
<g filter="url(#filter0_d)">
<path d="M354.643 126.261L355.899 125H359.099L360.357 126.261V163.651L359.099 165H355.899L354.643 163.651V126.261Z" fill="#45FFF4"/>
<path d="M338.761 147.857L337.5 146.601V143.401L338.761 142.143H376.151L377.5 143.401V146.601L376.151 147.857H338.761Z" fill="#45FFF4"/>
</g>
<g filter="url(#filter1_d)">
<path d="M187.429 551.473L187.9 551H189.1L189.572 551.473V565.494L189.1 566H187.9L187.429 565.494V551.473Z" fill="#45FFF4"/>
<path d="M181.473 559.571L181 559.1V557.9L181.473 557.429H195.494L196 557.9V559.1L195.494 559.571H181.473Z" fill="#45FFF4"/>
</g>
<g filter="url(#filter2_d)">
<path d="M264.429 536.473L264.9 536H266.1L266.572 536.473V550.494L266.1 551H264.9L264.429 550.494V536.473Z" fill="#DEFEFE"/>
<path d="M258.473 544.571L258 544.1V542.9L258.473 542.429H272.494L273 542.9V544.1L272.494 544.571H258.473Z" fill="#DEFEFE"/>
</g>
<g filter="url(#filter3_d)">
<path d="M295.429 491.473L295.9 491H297.1L297.572 491.473V505.494L297.1 506H295.9L295.429 505.494V491.473Z" fill="#45FFF4"/>
<path d="M289.473 499.571L289 499.1V497.9L289.473 497.429H303.494L304 497.9V499.1L303.494 499.571H289.473Z" fill="#45FFF4"/>
</g>
<g filter="url(#filter4_d)">
<path d="M315.429 539.252L315.68 539H316.32L316.572 539.252V546.73L316.32 547H315.68L315.429 546.73V539.252Z" fill="#45FFF4"/>
<path d="M312.252 543.571L312 543.32V542.68L312.252 542.429H319.73L320 542.68V543.32L319.73 543.571H312.252Z" fill="#45FFF4"/>
</g>
<g filter="url(#filter5_d)">
<path d="M329.429 463.252L329.68 463H330.32L330.572 463.252V470.73L330.32 471H329.68L329.429 470.73V463.252Z" fill="#667FCC"/>
<path d="M326.252 467.571L326 467.32V466.68L326.252 466.429H333.73L334 466.68V467.32L333.73 467.571H326.252Z" fill="#667FCC"/>
</g>
<g filter="url(#filter6_d)">
<path d="M294.429 412.252L294.68 412H295.32L295.572 412.252V419.73L295.32 420H294.68L294.429 419.73V412.252Z" fill="#45FFF4"/>
<path d="M291.252 416.571L291 416.32V415.68L291.252 415.429H298.73L299 415.68V416.32L298.73 416.571H291.252Z" fill="#45FFF4"/>
</g>
<g filter="url(#filter7_d)">
<path d="M432.429 480.252L432.68 480H433.32L433.572 480.252V487.73L433.32 488H432.68L432.429 487.73V480.252Z" fill="#667FCC"/>
<path d="M429.252 484.571L429 484.32V483.68L429.252 483.429H436.73L437 483.68V484.32L436.73 484.571H429.252Z" fill="#667FCC"/>
</g>
<g filter="url(#filter8_d)">
<path d="M480.429 374.252L480.68 374H481.32L481.572 374.252V381.73L481.32 382H480.68L480.429 381.73V374.252Z" fill="#45FFF4"/>
<path d="M477.252 378.571L477 378.32V377.68L477.252 377.429H484.73L485 377.68V378.32L484.73 378.571H477.252Z" fill="#45FFF4"/>
</g>
<g filter="url(#filter9_d)">
<path d="M571.429 265.252L571.68 265H572.32L572.572 265.252V272.73L572.32 273H571.68L571.429 272.73V265.252Z" fill="#DEFEFE"/>
<path d="M568.252 269.571L568 269.32V268.68L568.252 268.429H575.73L576 268.68V269.32L575.73 269.571H568.252Z" fill="#DEFEFE"/>
</g>
<g filter="url(#filter10_d)">
<path d="M473.429 230.252L473.68 230H474.32L474.572 230.252V237.73L474.32 238H473.68L473.429 237.73V230.252Z" fill="#667FCC"/>
<path d="M470.252 234.571L470 234.32V233.68L470.252 233.429H477.73L478 233.68V234.32L477.73 234.571H470.252Z" fill="#667FCC"/>
</g>
<g filter="url(#filter11_d)">
<path d="M360.429 203.252L360.68 203H361.32L361.572 203.252V210.73L361.32 211H360.68L360.429 210.73V203.252Z" fill="#45FFF4"/>
<path d="M357.252 207.571L357 207.32V206.68L357.252 206.429H364.73L365 206.68V207.32L364.73 207.571H357.252Z" fill="#45FFF4"/>
</g>
<g filter="url(#filter12_d)">
<path d="M409.429 110.252L409.68 110H410.32L410.572 110.252V117.73L410.32 118H409.68L409.429 117.73V110.252Z" fill="#45FFF4"/>
<path d="M406.252 114.571L406 114.32V113.68L406.252 113.429H413.73L414 113.68V114.32L413.73 114.571H406.252Z" fill="#45FFF4"/>
</g>
<g filter="url(#filter13_d)">
<path d="M511.429 316.252L511.68 316H512.32L512.572 316.252V323.73L512.32 324H511.68L511.429 323.73V316.252Z" fill="#667FCC"/>
<path d="M508.252 320.571L508 320.32V319.68L508.252 319.429H515.73L516 319.68V320.32L515.73 320.571H508.252Z" fill="#667FCC"/>
</g>
<g filter="url(#filter14_d)">
<path d="M351.429 515.473L351.9 515H353.1L353.572 515.473V529.494L353.1 530H351.9L351.429 529.494V515.473Z" fill="#45FFF4"/>
<path d="M345.473 523.571L345 523.1V521.9L345.473 521.429H359.494L360 521.9V523.1L359.494 523.571H345.473Z" fill="#45FFF4"/>
</g>
<g filter="url(#filter15_d)">
<path d="M289.429 446.473L289.9 446H291.1L291.572 446.473V460.494L291.1 461H289.9L289.429 460.494V446.473Z" fill="#DEFEFE"/>
<path d="M283.473 454.571L283 454.1V452.9L283.473 452.429H297.494L298 452.9V454.1L297.494 454.571H283.473Z" fill="#DEFEFE"/>
</g>
<g filter="url(#filter16_d)">
<path d="M420.429 497.473L420.9 497H422.1L422.572 497.473V511.494L422.1 512H420.9L420.429 511.494V497.473Z" fill="#45FFF4"/>
<path d="M414.473 505.571L414 505.1V503.9L414.473 503.429H428.494L429 503.9V505.1L428.494 505.571H414.473Z" fill="#45FFF4"/>
</g>
<g filter="url(#filter17_d)">
<path d="M359.429 465.473L359.9 465H361.1L361.572 465.473V479.494L361.1 480H359.9L359.429 479.494V465.473Z" fill="#45FFF4"/>
<path d="M353.473 473.571L353 473.1V471.9L353.473 471.429H367.494L368 471.9V473.1L367.494 473.571H353.473Z" fill="#45FFF4"/>
</g>
<g filter="url(#filter18_d)">
<path d="M452.429 407.473L452.9 407H454.1L454.572 407.473V421.494L454.1 422H452.9L452.429 421.494V407.473Z" fill="#45FFF4"/>
<path d="M446.473 415.571L446 415.1V413.9L446.473 413.429H460.494L461 413.9V415.1L460.494 415.571H446.473Z" fill="#45FFF4"/>
</g>
<g filter="url(#filter19_d)">
<path d="M464.429 461.473L464.9 461H466.1L466.572 461.473V475.494L466.1 476H464.9L464.429 475.494V461.473Z" fill="#45FFF4"/>
<path d="M458.473 469.571L458 469.1V467.9L458.473 467.429H472.494L473 467.9V469.1L472.494 469.571H458.473Z" fill="#45FFF4"/>
</g>
<g filter="url(#filter20_d)">
<path d="M343.429 422.473L343.9 422H345.1L345.572 422.473V436.494L345.1 437H343.9L343.429 436.494V422.473Z" fill="#45FFF4"/>
<path d="M337.473 430.571L337 430.1V428.9L337.473 428.429H351.494L352 428.9V430.1L351.494 430.571H337.473Z" fill="#45FFF4"/>
</g>
<g filter="url(#filter21_d)">
<path d="M467.429 334.473L467.9 334H469.1L469.572 334.473V348.494L469.1 349H467.9L467.429 348.494V334.473Z" fill="#45FFF4"/>
<path d="M461.473 342.571L461 342.1V340.9L461.473 340.429H475.494L476 340.9V342.1L475.494 342.571H461.473Z" fill="#45FFF4"/>
</g>
<g filter="url(#filter22_d)">
<path d="M512.429 387.473L512.9 387H514.1L514.572 387.473V401.494L514.1 402H512.9L512.429 401.494V387.473Z" fill="#DEFEFE"/>
<path d="M506.473 395.571L506 395.1V393.9L506.473 393.429H520.494L521 393.9V395.1L520.494 395.571H506.473Z" fill="#DEFEFE"/>
</g>
<g filter="url(#filter23_d)">
<path d="M458.429 274.473L458.9 274H460.1L460.572 274.473V288.494L460.1 289H458.9L458.429 288.494V274.473Z" fill="#45FFF4"/>
<path d="M452.473 282.571L452 282.1V280.9L452.473 280.429H466.494L467 280.9V282.1L466.494 282.571H452.473Z" fill="#45FFF4"/>
</g>
<g filter="url(#filter24_d)">
<path d="M522.429 259.473L522.9 259H524.1L524.572 259.473V273.494L524.1 274H522.9L522.429 273.494V259.473Z" fill="#45FFF4"/>
<path d="M516.473 267.571L516 267.1V265.9L516.473 265.429H530.494L531 265.9V267.1L530.494 267.571H516.473Z" fill="#45FFF4"/>
</g>
<g filter="url(#filter25_d)">
<path d="M548.429 314.473L548.9 314H550.1L550.572 314.473V328.494L550.1 329H548.9L548.429 328.494V314.473Z" fill="#45FFF4"/>
<path d="M542.473 322.571L542 322.1V320.9L542.473 320.429H556.494L557 320.9V322.1L556.494 322.571H542.473Z" fill="#45FFF4"/>
</g>
<g filter="url(#filter26_d)">
<path d="M458.429 158.473L458.9 158H460.1L460.572 158.473V172.494L460.1 173H458.9L458.429 172.494V158.473Z" fill="#DEFEFE"/>
<path d="M452.473 166.571L452 166.1V164.9L452.473 164.429H466.494L467 164.9V166.1L466.494 166.571H452.473Z" fill="#DEFEFE"/>
</g>
<g filter="url(#filter27_d)">
<path d="M563.429 118.473L563.9 118H565.1L565.572 118.473V132.494L565.1 133H563.9L563.429 132.494V118.473Z" fill="#45FFF4"/>
<path d="M557.473 126.571L557 126.1V124.9L557.473 124.429H571.494L572 124.9V126.1L571.494 126.571H557.473Z" fill="#45FFF4"/>
</g>
<g filter="url(#filter28_d)">
<path d="M578.429 209.473L578.9 209H580.1L580.572 209.473V223.494L580.1 224H578.9L578.429 223.494V209.473Z" fill="#45FFF4"/>
<path d="M572.473 217.571L572 217.1V215.9L572.473 215.429H586.494L587 215.9V217.1L586.494 217.571H572.473Z" fill="#45FFF4"/>
</g>
<g filter="url(#filter29_d)">
<path d="M359.429 265.473L359.9 265H361.1L361.572 265.473V279.494L361.1 280H359.9L359.429 279.494V265.473Z" fill="#45FFF4"/>
<path d="M353.473 273.571L353 273.1V271.9L353.473 271.429H367.494L368 271.9V273.1L367.494 273.571H353.473Z" fill="#45FFF4"/>
</g>
<g filter="url(#filter30_d)">
<path d="M329.429 224.473L329.9 224H331.1L331.572 224.473V238.494L331.1 239H329.9L329.429 238.494V224.473Z" fill="#DEFEFE"/>
<path d="M323.473 232.571L323 232.1V230.9L323.473 230.429H337.494L338 230.9V232.1L337.494 232.571H323.473Z" fill="#DEFEFE"/>
</g>
<g filter="url(#filter31_d)">
<path d="M356.429 372.473L356.9 372H358.1L358.572 372.473V386.494L358.1 387H356.9L356.429 386.494V372.473Z" fill="#45FFF4"/>
<path d="M350.473 380.571L350 380.1V378.9L350.473 378.429H364.494L365 378.9V380.1L364.494 380.571H350.473Z" fill="#45FFF4"/>
</g>
<g filter="url(#filter32_d)">
<path d="M311.429 381.473L311.9 381H313.1L313.572 381.473V395.494L313.1 396H311.9L311.429 395.494V381.473Z" fill="#45FFF4"/>
<path d="M305.473 389.571L305 389.1V387.9L305.473 387.429H319.494L320 387.9V389.1L319.494 389.571H305.473Z" fill="#45FFF4"/>
</g>
<g filter="url(#filter33_d)">
<path d="M209.429 500.473L209.9 500H211.1L211.572 500.473V514.494L211.1 515H209.9L209.429 514.494V500.473Z" fill="#45FFF4"/>
<path d="M203.473 508.571L203 508.1V506.9L203.473 506.429H217.494L218 506.9V508.1L217.494 508.571H203.473Z" fill="#45FFF4"/>
</g>
<g filter="url(#filter34_d)">
<path d="M227.429 524.252L227.68 524H228.32L228.572 524.252V531.73L228.32 532H227.68L227.429 531.73V524.252Z" fill="#667FCC"/>
<path d="M224.252 528.571L224 528.32V527.68L224.252 527.429H231.73L232 527.68V528.32L231.73 528.571H224.252Z" fill="#667FCC"/>
</g>
<g filter="url(#filter35_d)">
<path d="M502.429 175.576L503.999 174H507.999L509.572 175.576V222.313L507.999 224H503.999L502.429 222.313V175.576Z" fill="#45FFF4"/>
<path d="M482.576 202.571L481 201.001V197.001L482.576 195.429H529.313L531 197.001V201.001L529.313 202.571H482.576Z" fill="#45FFF4"/>
</g>
<g filter="url(#filter36_d)">
<path d="M476.715 66.8918L478.599 65H483.399L485.286 66.8918V122.976L483.399 125H478.599L476.715 122.976V66.8918Z" fill="#45FFF4"/>
<path d="M452.892 99.2856L451 97.4013V92.6013L452.892 90.7142H508.976L511 92.6013V97.4013L508.976 99.2856H452.892Z" fill="#45FFF4"/>
</g>
<g filter="url(#filter37_d)">
<path d="M233 197L245 185H272.689L256.689 446L245 457.821H217L233 197Z" fill="#45FFF4"/>
<path d="M397 197L409 185H436.689L420.689 446L409 457.821H381L397 197Z" fill="#45FFF4"/>
<path d="M206 339L206.522 310.521L217.478 299.941L446 299V328L436.258 339H206Z" fill="#45FFF4"/>
</g>
<defs>
<filter id="filter0_d" x="337.5" y="125" width="47" height="47" filterUnits="userSpaceOnUse" color-interpolation-filters="sRGB">
<feFlood flood-opacity="0" result="BackgroundImageFix"/>
<feColorMatrix in="SourceAlpha" type="matrix" values="0 0 0 0 0 0 0 0 0 0 0 0 0 0 0 0 0 0 127 0"/>
<feOffset dx="4" dy="4"/>
<feGaussianBlur stdDeviation="1.5"/>
<feColorMatrix type="matrix" values="0 0 0 0 0.270833 0 0 0 0 1 0 0 0 0 0.95625 0 0 0 0.2 0"/>
<feBlend mode="normal" in2="BackgroundImageFix" result="effect1_dropShadow"/>
<feBlend mode="normal" in="SourceGraphic" in2="effect1_dropShadow" result="shape"/>
</filter>
<filter id="filter1_d" x="181" y="551" width="19" height="19" filterUnits="userSpaceOnUse" color-interpolation-filters="sRGB">
<feFlood flood-opacity="0" result="BackgroundImageFix"/>
<feColorMatrix in="SourceAlpha" type="matrix" values="0 0 0 0 0 0 0 0 0 0 0 0 0 0 0 0 0 0 127 0"/>
<feOffset dx="2" dy="2"/>
<feGaussianBlur stdDeviation="1"/>
<feColorMatrix type="matrix" values="0 0 0 0 0.270833 0 0 0 0 1 0 0 0 0 0.95625 0 0 0 0.2 0"/>
<feBlend mode="normal" in2="BackgroundImageFix" result="effect1_dropShadow"/>
<feBlend mode="normal" in="SourceGraphic" in2="effect1_dropShadow" result="shape"/>
</filter>
<filter id="filter2_d" x="258" y="536" width="21" height="21" filterUnits="userSpaceOnUse" color-interpolation-filters="sRGB">
<feFlood flood-opacity="0" result="BackgroundImageFix"/>
<feColorMatrix in="SourceAlpha" type="matrix" values="0 0 0 0 0 0 0 0 0 0 0 0 0 0 0 0 0 0 127 0"/>
<feOffset dx="3" dy="3"/>
<feGaussianBlur stdDeviation="1.5"/>
<feColorMatrix type="matrix" values="0 0 0 0 0.270833 0 0 0 0 1 0 0 0 0 0.95625 0 0 0 0.2 0"/>
<feBlend mode="normal" in2="BackgroundImageFix" result="effect1_dropShadow"/>
<feBlend mode="normal" in="SourceGraphic" in2="effect1_dropShadow" result="shape"/>
</filter>
<filter id="filter3_d" x="289" y="491" width="19" height="19" filterUnits="userSpaceOnUse" color-interpolation-filters="sRGB">
<feFlood flood-opacity="0" result="BackgroundImageFix"/>
<feColorMatrix in="SourceAlpha" type="matrix" values="0 0 0 0 0 0 0 0 0 0 0 0 0 0 0 0 0 0 127 0"/>
<feOffset dx="2" dy="2"/>
<feGaussianBlur stdDeviation="1"/>
<feColorMatrix type="matrix" values="0 0 0 0 0.270833 0 0 0 0 1 0 0 0 0 0.95625 0 0 0 0.2 0"/>
<feBlend mode="normal" in2="BackgroundImageFix" result="effect1_dropShadow"/>
<feBlend mode="normal" in="SourceGraphic" in2="effect1_dropShadow" result="shape"/>
</filter>
<filter id="filter4_d" x="312" y="539" width="12" height="12" filterUnits="userSpaceOnUse" color-interpolation-filters="sRGB">
<feFlood flood-opacity="0" result="BackgroundImageFix"/>
<feColorMatrix in="SourceAlpha" type="matrix" values="0 0 0 0 0 0 0 0 0 0 0 0 0 0 0 0 0 0 127 0"/>
<feOffset dx="2" dy="2"/>
<feGaussianBlur stdDeviation="1"/>
<feColorMatrix type="matrix" values="0 0 0 0 0.270833 0 0 0 0 1 0 0 0 0 0.95625 0 0 0 0.2 0"/>
<feBlend mode="normal" in2="BackgroundImageFix" result="effect1_dropShadow"/>
<feBlend mode="normal" in="SourceGraphic" in2="effect1_dropShadow" result="shape"/>
</filter>
<filter id="filter5_d" x="326" y="463" width="12" height="12" filterUnits="userSpaceOnUse" color-interpolation-filters="sRGB">
<feFlood flood-opacity="0" result="BackgroundImageFix"/>
<feColorMatrix in="SourceAlpha" type="matrix" values="0 0 0 0 0 0 0 0 0 0 0 0 0 0 0 0 0 0 127 0"/>
<feOffset dx="2" dy="2"/>
<feGaussianBlur stdDeviation="1"/>
<feColorMatrix type="matrix" values="0 0 0 0 0.270833 0 0 0 0 1 0 0 0 0 0.95625 0 0 0 0.2 0"/>
<feBlend mode="normal" in2="BackgroundImageFix" result="effect1_dropShadow"/>
<feBlend mode="normal" in="SourceGraphic" in2="effect1_dropShadow" result="shape"/>
</filter>
<filter id="filter6_d" x="291" y="412" width="12" height="12" filterUnits="userSpaceOnUse" color-interpolation-filters="sRGB">
<feFlood flood-opacity="0" result="BackgroundImageFix"/>
<feColorMatrix in="SourceAlpha" type="matrix" values="0 0 0 0 0 0 0 0 0 0 0 0 0 0 0 0 0 0 127 0"/>
<feOffset dx="2" dy="2"/>
<feGaussianBlur stdDeviation="1"/>
<feColorMatrix type="matrix" values="0 0 0 0 0.270833 0 0 0 0 1 0 0 0 0 0.95625 0 0 0 0.2 0"/>
<feBlend mode="normal" in2="BackgroundImageFix" result="effect1_dropShadow"/>
<feBlend mode="normal" in="SourceGraphic" in2="effect1_dropShadow" result="shape"/>
</filter>
<filter id="filter7_d" x="429" y="480" width="12" height="12" filterUnits="userSpaceOnUse" color-interpolation-filters="sRGB">
<feFlood flood-opacity="0" result="BackgroundImageFix"/>
<feColorMatrix in="SourceAlpha" type="matrix" values="0 0 0 0 0 0 0 0 0 0 0 0 0 0 0 0 0 0 127 0"/>
<feOffset dx="2" dy="2"/>
<feGaussianBlur stdDeviation="1"/>
<feColorMatrix type="matrix" values="0 0 0 0 0.270833 0 0 0 0 1 0 0 0 0 0.95625 0 0 0 0.2 0"/>
<feBlend mode="normal" in2="BackgroundImageFix" result="effect1_dropShadow"/>
<feBlend mode="normal" in="SourceGraphic" in2="effect1_dropShadow" result="shape"/>
</filter>
<filter id="filter8_d" x="477" y="374" width="12" height="12" filterUnits="userSpaceOnUse" color-interpolation-filters="sRGB">
<feFlood flood-opacity="0" result="BackgroundImageFix"/>
<feColorMatrix in="SourceAlpha" type="matrix" values="0 0 0 0 0 0 0 0 0 0 0 0 0 0 0 0 0 0 127 0"/>
<feOffset dx="2" dy="2"/>
<feGaussianBlur stdDeviation="1"/>
<feColorMatrix type="matrix" values="0 0 0 0 0.270833 0 0 0 0 1 0 0 0 0 0.95625 0 0 0 0.2 0"/>
<feBlend mode="normal" in2="BackgroundImageFix" result="effect1_dropShadow"/>
<feBlend mode="normal" in="SourceGraphic" in2="effect1_dropShadow" result="shape"/>
</filter>
<filter id="filter9_d" x="568" y="265" width="12" height="12" filterUnits="userSpaceOnUse" color-interpolation-filters="sRGB">
<feFlood flood-opacity="0" result="BackgroundImageFix"/>
<feColorMatrix in="SourceAlpha" type="matrix" values="0 0 0 0 0 0 0 0 0 0 0 0 0 0 0 0 0 0 127 0"/>
<feOffset dx="2" dy="2"/>
<feGaussianBlur stdDeviation="1"/>
<feColorMatrix type="matrix" values="0 0 0 0 0.270833 0 0 0 0 1 0 0 0 0 0.95625 0 0 0 0.2 0"/>
<feBlend mode="normal" in2="BackgroundImageFix" result="effect1_dropShadow"/>
<feBlend mode="normal" in="SourceGraphic" in2="effect1_dropShadow" result="shape"/>
</filter>
<filter id="filter10_d" x="470" y="230" width="12" height="12" filterUnits="userSpaceOnUse" color-interpolation-filters="sRGB">
<feFlood flood-opacity="0" result="BackgroundImageFix"/>
<feColorMatrix in="SourceAlpha" type="matrix" values="0 0 0 0 0 0 0 0 0 0 0 0 0 0 0 0 0 0 127 0"/>
<feOffset dx="2" dy="2"/>
<feGaussianBlur stdDeviation="1"/>
<feColorMatrix type="matrix" values="0 0 0 0 0.270833 0 0 0 0 1 0 0 0 0 0.95625 0 0 0 0.2 0"/>
<feBlend mode="normal" in2="BackgroundImageFix" result="effect1_dropShadow"/>
<feBlend mode="normal" in="SourceGraphic" in2="effect1_dropShadow" result="shape"/>
</filter>
<filter id="filter11_d" x="357" y="203" width="12" height="12" filterUnits="userSpaceOnUse" color-interpolation-filters="sRGB">
<feFlood flood-opacity="0" result="BackgroundImageFix"/>
<feColorMatrix in="SourceAlpha" type="matrix" values="0 0 0 0 0 0 0 0 0 0 0 0 0 0 0 0 0 0 127 0"/>
<feOffset dx="2" dy="2"/>
<feGaussianBlur stdDeviation="1"/>
<feColorMatrix type="matrix" values="0 0 0 0 0.270833 0 0 0 0 1 0 0 0 0 0.95625 0 0 0 0.2 0"/>
<feBlend mode="normal" in2="BackgroundImageFix" result="effect1_dropShadow"/>
<feBlend mode="normal" in="SourceGraphic" in2="effect1_dropShadow" result="shape"/>
</filter>
<filter id="filter12_d" x="406" y="110" width="12" height="12" filterUnits="userSpaceOnUse" color-interpolation-filters="sRGB">
<feFlood flood-opacity="0" result="BackgroundImageFix"/>
<feColorMatrix in="SourceAlpha" type="matrix" values="0 0 0 0 0 0 0 0 0 0 0 0 0 0 0 0 0 0 127 0"/>
<feOffset dx="2" dy="2"/>
<feGaussianBlur stdDeviation="1"/>
<feColorMatrix type="matrix" values="0 0 0 0 0.270833 0 0 0 0 1 0 0 0 0 0.95625 0 0 0 0.2 0"/>
<feBlend mode="normal" in2="BackgroundImageFix" result="effect1_dropShadow"/>
<feBlend mode="normal" in="SourceGraphic" in2="effect1_dropShadow" result="shape"/>
</filter>
<filter id="filter13_d" x="508" y="316" width="12" height="12" filterUnits="userSpaceOnUse" color-interpolation-filters="sRGB">
<feFlood flood-opacity="0" result="BackgroundImageFix"/>
<feColorMatrix in="SourceAlpha" type="matrix" values="0 0 0 0 0 0 0 0 0 0 0 0 0 0 0 0 0 0 127 0"/>
<feOffset dx="2" dy="2"/>
<feGaussianBlur stdDeviation="1"/>
<feColorMatrix type="matrix" values="0 0 0 0 0.270833 0 0 0 0 1 0 0 0 0 0.95625 0 0 0 0.2 0"/>
<feBlend mode="normal" in2="BackgroundImageFix" result="effect1_dropShadow"/>
<feBlend mode="normal" in="SourceGraphic" in2="effect1_dropShadow" result="shape"/>
</filter>
<filter id="filter14_d" x="345" y="515" width="19" height="19" filterUnits="userSpaceOnUse" color-interpolation-filters="sRGB">
<feFlood flood-opacity="0" result="BackgroundImageFix"/>
<feColorMatrix in="SourceAlpha" type="matrix" values="0 0 0 0 0 0 0 0 0 0 0 0 0 0 0 0 0 0 127 0"/>
<feOffset dx="2" dy="2"/>
<feGaussianBlur stdDeviation="1"/>
<feColorMatrix type="matrix" values="0 0 0 0 0.270833 0 0 0 0 1 0 0 0 0 0.95625 0 0 0 0.2 0"/>
<feBlend mode="normal" in2="BackgroundImageFix" result="effect1_dropShadow"/>
<feBlend mode="normal" in="SourceGraphic" in2="effect1_dropShadow" result="shape"/>
</filter>
<filter id="filter15_d" x="283" y="446" width="19" height="19" filterUnits="userSpaceOnUse" color-interpolation-filters="sRGB">
<feFlood flood-opacity="0" result="BackgroundImageFix"/>
<feColorMatrix in="SourceAlpha" type="matrix" values="0 0 0 0 0 0 0 0 0 0 0 0 0 0 0 0 0 0 127 0"/>
<feOffset dx="2" dy="2"/>
<feGaussianBlur stdDeviation="1"/>
<feColorMatrix type="matrix" values="0 0 0 0 0.270833 0 0 0 0 1 0 0 0 0 0.95625 0 0 0 0.2 0"/>
<feBlend mode="normal" in2="BackgroundImageFix" result="effect1_dropShadow"/>
<feBlend mode="normal" in="SourceGraphic" in2="effect1_dropShadow" result="shape"/>
</filter>
<filter id="filter16_d" x="414" y="497" width="19" height="19" filterUnits="userSpaceOnUse" color-interpolation-filters="sRGB">
<feFlood flood-opacity="0" result="BackgroundImageFix"/>
<feColorMatrix in="SourceAlpha" type="matrix" values="0 0 0 0 0 0 0 0 0 0 0 0 0 0 0 0 0 0 127 0"/>
<feOffset dx="2" dy="2"/>
<feGaussianBlur stdDeviation="1"/>
<feColorMatrix type="matrix" values="0 0 0 0 0.270833 0 0 0 0 1 0 0 0 0 0.95625 0 0 0 0.2 0"/>
<feBlend mode="normal" in2="BackgroundImageFix" result="effect1_dropShadow"/>
<feBlend mode="normal" in="SourceGraphic" in2="effect1_dropShadow" result="shape"/>
</filter>
<filter id="filter17_d" x="353" y="465" width="19" height="19" filterUnits="userSpaceOnUse" color-interpolation-filters="sRGB">
<feFlood flood-opacity="0" result="BackgroundImageFix"/>
<feColorMatrix in="SourceAlpha" type="matrix" values="0 0 0 0 0 0 0 0 0 0 0 0 0 0 0 0 0 0 127 0"/>
<feOffset dx="2" dy="2"/>
<feGaussianBlur stdDeviation="1"/>
<feColorMatrix type="matrix" values="0 0 0 0 0.270833 0 0 0 0 1 0 0 0 0 0.95625 0 0 0 0.2 0"/>
<feBlend mode="normal" in2="BackgroundImageFix" result="effect1_dropShadow"/>
<feBlend mode="normal" in="SourceGraphic" in2="effect1_dropShadow" result="shape"/>
</filter>
<filter id="filter18_d" x="446" y="407" width="19" height="19" filterUnits="userSpaceOnUse" color-interpolation-filters="sRGB">
<feFlood flood-opacity="0" result="BackgroundImageFix"/>
<feColorMatrix in="SourceAlpha" type="matrix" values="0 0 0 0 0 0 0 0 0 0 0 0 0 0 0 0 0 0 127 0"/>
<feOffset dx="2" dy="2"/>
<feGaussianBlur stdDeviation="1"/>
<feColorMatrix type="matrix" values="0 0 0 0 0.270833 0 0 0 0 1 0 0 0 0 0.95625 0 0 0 0.2 0"/>
<feBlend mode="normal" in2="BackgroundImageFix" result="effect1_dropShadow"/>
<feBlend mode="normal" in="SourceGraphic" in2="effect1_dropShadow" result="shape"/>
</filter>
<filter id="filter19_d" x="458" y="461" width="19" height="19" filterUnits="userSpaceOnUse" color-interpolation-filters="sRGB">
<feFlood flood-opacity="0" result="BackgroundImageFix"/>
<feColorMatrix in="SourceAlpha" type="matrix" values="0 0 0 0 0 0 0 0 0 0 0 0 0 0 0 0 0 0 127 0"/>
<feOffset dx="2" dy="2"/>
<feGaussianBlur stdDeviation="1"/>
<feColorMatrix type="matrix" values="0 0 0 0 0.270833 0 0 0 0 1 0 0 0 0 0.95625 0 0 0 0.2 0"/>
<feBlend mode="normal" in2="BackgroundImageFix" result="effect1_dropShadow"/>
<feBlend mode="normal" in="SourceGraphic" in2="effect1_dropShadow" result="shape"/>
</filter>
<filter id="filter20_d" x="337" y="422" width="19" height="19" filterUnits="userSpaceOnUse" color-interpolation-filters="sRGB">
<feFlood flood-opacity="0" result="BackgroundImageFix"/>
<feColorMatrix in="SourceAlpha" type="matrix" values="0 0 0 0 0 0 0 0 0 0 0 0 0 0 0 0 0 0 127 0"/>
<feOffset dx="2" dy="2"/>
<feGaussianBlur stdDeviation="1"/>
<feColorMatrix type="matrix" values="0 0 0 0 0.270833 0 0 0 0 1 0 0 0 0 0.95625 0 0 0 0.2 0"/>
<feBlend mode="normal" in2="BackgroundImageFix" result="effect1_dropShadow"/>
<feBlend mode="normal" in="SourceGraphic" in2="effect1_dropShadow" result="shape"/>
</filter>
<filter id="filter21_d" x="461" y="334" width="19" height="19" filterUnits="userSpaceOnUse" color-interpolation-filters="sRGB">
<feFlood flood-opacity="0" result="BackgroundImageFix"/>
<feColorMatrix in="SourceAlpha" type="matrix" values="0 0 0 0 0 0 0 0 0 0 0 0 0 0 0 0 0 0 127 0"/>
<feOffset dx="2" dy="2"/>
<feGaussianBlur stdDeviation="1"/>
<feColorMatrix type="matrix" values="0 0 0 0 0.270833 0 0 0 0 1 0 0 0 0 0.95625 0 0 0 0.2 0"/>
<feBlend mode="normal" in2="BackgroundImageFix" result="effect1_dropShadow"/>
<feBlend mode="normal" in="SourceGraphic" in2="effect1_dropShadow" result="shape"/>
</filter>
<filter id="filter22_d" x="506" y="387" width="19" height="19" filterUnits="userSpaceOnUse" color-interpolation-filters="sRGB">
<feFlood flood-opacity="0" result="BackgroundImageFix"/>
<feColorMatrix in="SourceAlpha" type="matrix" values="0 0 0 0 0 0 0 0 0 0 0 0 0 0 0 0 0 0 127 0"/>
<feOffset dx="2" dy="2"/>
<feGaussianBlur stdDeviation="1"/>
<feColorMatrix type="matrix" values="0 0 0 0 0.270833 0 0 0 0 1 0 0 0 0 0.95625 0 0 0 0.2 0"/>
<feBlend mode="normal" in2="BackgroundImageFix" result="effect1_dropShadow"/>
<feBlend mode="normal" in="SourceGraphic" in2="effect1_dropShadow" result="shape"/>
</filter>
<filter id="filter23_d" x="452" y="274" width="19" height="19" filterUnits="userSpaceOnUse" color-interpolation-filters="sRGB">
<feFlood flood-opacity="0" result="BackgroundImageFix"/>
<feColorMatrix in="SourceAlpha" type="matrix" values="0 0 0 0 0 0 0 0 0 0 0 0 0 0 0 0 0 0 127 0"/>
<feOffset dx="2" dy="2"/>
<feGaussianBlur stdDeviation="1"/>
<feColorMatrix type="matrix" values="0 0 0 0 0.270833 0 0 0 0 1 0 0 0 0 0.95625 0 0 0 0.2 0"/>
<feBlend mode="normal" in2="BackgroundImageFix" result="effect1_dropShadow"/>
<feBlend mode="normal" in="SourceGraphic" in2="effect1_dropShadow" result="shape"/>
</filter>
<filter id="filter24_d" x="516" y="259" width="19" height="19" filterUnits="userSpaceOnUse" color-interpolation-filters="sRGB">
<feFlood flood-opacity="0" result="BackgroundImageFix"/>
<feColorMatrix in="SourceAlpha" type="matrix" values="0 0 0 0 0 0 0 0 0 0 0 0 0 0 0 0 0 0 127 0"/>
<feOffset dx="2" dy="2"/>
<feGaussianBlur stdDeviation="1"/>
<feColorMatrix type="matrix" values="0 0 0 0 0.270833 0 0 0 0 1 0 0 0 0 0.95625 0 0 0 0.2 0"/>
<feBlend mode="normal" in2="BackgroundImageFix" result="effect1_dropShadow"/>
<feBlend mode="normal" in="SourceGraphic" in2="effect1_dropShadow" result="shape"/>
</filter>
<filter id="filter25_d" x="542" y="314" width="19" height="19" filterUnits="userSpaceOnUse" color-interpolation-filters="sRGB">
<feFlood flood-opacity="0" result="BackgroundImageFix"/>
<feColorMatrix in="SourceAlpha" type="matrix" values="0 0 0 0 0 0 0 0 0 0 0 0 0 0 0 0 0 0 127 0"/>
<feOffset dx="2" dy="2"/>
<feGaussianBlur stdDeviation="1"/>
<feColorMatrix type="matrix" values="0 0 0 0 0.270833 0 0 0 0 1 0 0 0 0 0.95625 0 0 0 0.2 0"/>
<feBlend mode="normal" in2="BackgroundImageFix" result="effect1_dropShadow"/>
<feBlend mode="normal" in="SourceGraphic" in2="effect1_dropShadow" result="shape"/>
</filter>
<filter id="filter26_d" x="452" y="158" width="19" height="19" filterUnits="userSpaceOnUse" color-interpolation-filters="sRGB">
<feFlood flood-opacity="0" result="BackgroundImageFix"/>
<feColorMatrix in="SourceAlpha" type="matrix" values="0 0 0 0 0 0 0 0 0 0 0 0 0 0 0 0 0 0 127 0"/>
<feOffset dx="2" dy="2"/>
<feGaussianBlur stdDeviation="1"/>
<feColorMatrix type="matrix" values="0 0 0 0 0.270833 0 0 0 0 1 0 0 0 0 0.95625 0 0 0 0.2 0"/>
<feBlend mode="normal" in2="BackgroundImageFix" result="effect1_dropShadow"/>
<feBlend mode="normal" in="SourceGraphic" in2="effect1_dropShadow" result="shape"/>
</filter>
<filter id="filter27_d" x="557" y="118" width="19" height="19" filterUnits="userSpaceOnUse" color-interpolation-filters="sRGB">
<feFlood flood-opacity="0" result="BackgroundImageFix"/>
<feColorMatrix in="SourceAlpha" type="matrix" values="0 0 0 0 0 0 0 0 0 0 0 0 0 0 0 0 0 0 127 0"/>
<feOffset dx="2" dy="2"/>
<feGaussianBlur stdDeviation="1"/>
<feColorMatrix type="matrix" values="0 0 0 0 0.270833 0 0 0 0 1 0 0 0 0 0.95625 0 0 0 0.2 0"/>
<feBlend mode="normal" in2="BackgroundImageFix" result="effect1_dropShadow"/>
<feBlend mode="normal" in="SourceGraphic" in2="effect1_dropShadow" result="shape"/>
</filter>
<filter id="filter28_d" x="572" y="209" width="19" height="19" filterUnits="userSpaceOnUse" color-interpolation-filters="sRGB">
<feFlood flood-opacity="0" result="BackgroundImageFix"/>
<feColorMatrix in="SourceAlpha" type="matrix" values="0 0 0 0 0 0 0 0 0 0 0 0 0 0 0 0 0 0 127 0"/>
<feOffset dx="2" dy="2"/>
<feGaussianBlur stdDeviation="1"/>
<feColorMatrix type="matrix" values="0 0 0 0 0.270833 0 0 0 0 1 0 0 0 0 0.95625 0 0 0 0.2 0"/>
<feBlend mode="normal" in2="BackgroundImageFix" result="effect1_dropShadow"/>
<feBlend mode="normal" in="SourceGraphic" in2="effect1_dropShadow" result="shape"/>
</filter>
<filter id="filter29_d" x="353" y="265" width="19" height="19" filterUnits="userSpaceOnUse" color-interpolation-filters="sRGB">
<feFlood flood-opacity="0" result="BackgroundImageFix"/>
<feColorMatrix in="SourceAlpha" type="matrix" values="0 0 0 0 0 0 0 0 0 0 0 0 0 0 0 0 0 0 127 0"/>
<feOffset dx="2" dy="2"/>
<feGaussianBlur stdDeviation="1"/>
<feColorMatrix type="matrix" values="0 0 0 0 0.270833 0 0 0 0 1 0 0 0 0 0.95625 0 0 0 0.2 0"/>
<feBlend mode="normal" in2="BackgroundImageFix" result="effect1_dropShadow"/>
<feBlend mode="normal" in="SourceGraphic" in2="effect1_dropShadow" result="shape"/>
</filter>
<filter id="filter30_d" x="323" y="224" width="19" height="19" filterUnits="userSpaceOnUse" color-interpolation-filters="sRGB">
<feFlood flood-opacity="0" result="BackgroundImageFix"/>
<feColorMatrix in="SourceAlpha" type="matrix" values="0 0 0 0 0 0 0 0 0 0 0 0 0 0 0 0 0 0 127 0"/>
<feOffset dx="2" dy="2"/>
<feGaussianBlur stdDeviation="1"/>
<feColorMatrix type="matrix" values="0 0 0 0 0.270833 0 0 0 0 1 0 0 0 0 0.95625 0 0 0 0.2 0"/>
<feBlend mode="normal" in2="BackgroundImageFix" result="effect1_dropShadow"/>
<feBlend mode="normal" in="SourceGraphic" in2="effect1_dropShadow" result="shape"/>
</filter>
<filter id="filter31_d" x="350" y="372" width="19" height="19" filterUnits="userSpaceOnUse" color-interpolation-filters="sRGB">
<feFlood flood-opacity="0" result="BackgroundImageFix"/>
<feColorMatrix in="SourceAlpha" type="matrix" values="0 0 0 0 0 0 0 0 0 0 0 0 0 0 0 0 0 0 127 0"/>
<feOffset dx="2" dy="2"/>
<feGaussianBlur stdDeviation="1"/>
<feColorMatrix type="matrix" values="0 0 0 0 0.270833 0 0 0 0 1 0 0 0 0 0.95625 0 0 0 0.2 0"/>
<feBlend mode="normal" in2="BackgroundImageFix" result="effect1_dropShadow"/>
<feBlend mode="normal" in="SourceGraphic" in2="effect1_dropShadow" result="shape"/>
</filter>
<filter id="filter32_d" x="305" y="381" width="19" height="19" filterUnits="userSpaceOnUse" color-interpolation-filters="sRGB">
<feFlood flood-opacity="0" result="BackgroundImageFix"/>
<feColorMatrix in="SourceAlpha" type="matrix" values="0 0 0 0 0 0 0 0 0 0 0 0 0 0 0 0 0 0 127 0"/>
<feOffset dx="2" dy="2"/>
<feGaussianBlur stdDeviation="1"/>
<feColorMatrix type="matrix" values="0 0 0 0 0.270833 0 0 0 0 1 0 0 0 0 0.95625 0 0 0 0.2 0"/>
<feBlend mode="normal" in2="BackgroundImageFix" result="effect1_dropShadow"/>
<feBlend mode="normal" in="SourceGraphic" in2="effect1_dropShadow" result="shape"/>
</filter>
<filter id="filter33_d" x="203" y="500" width="19" height="19" filterUnits="userSpaceOnUse" color-interpolation-filters="sRGB">
<feFlood flood-opacity="0" result="BackgroundImageFix"/>
<feColorMatrix in="SourceAlpha" type="matrix" values="0 0 0 0 0 0 0 0 0 0 0 0 0 0 0 0 0 0 127 0"/>
<feOffset dx="2" dy="2"/>
<feGaussianBlur stdDeviation="1"/>
<feColorMatrix type="matrix" values="0 0 0 0 0.270833 0 0 0 0 1 0 0 0 0 0.95625 0 0 0 0.2 0"/>
<feBlend mode="normal" in2="BackgroundImageFix" result="effect1_dropShadow"/>
<feBlend mode="normal" in="SourceGraphic" in2="effect1_dropShadow" result="shape"/>
</filter>
<filter id="filter34_d" x="224" y="524" width="12" height="12" filterUnits="userSpaceOnUse" color-interpolation-filters="sRGB">
<feFlood flood-opacity="0" result="BackgroundImageFix"/>
<feColorMatrix in="SourceAlpha" type="matrix" values="0 0 0 0 0 0 0 0 0 0 0 0 0 0 0 0 0 0 127 0"/>
<feOffset dx="2" dy="2"/>
<feGaussianBlur stdDeviation="1"/>
<feColorMatrix type="matrix" values="0 0 0 0 0.270833 0 0 0 0 1 0 0 0 0 0.95625 0 0 0 0.2 0"/>
<feBlend mode="normal" in2="BackgroundImageFix" result="effect1_dropShadow"/>
<feBlend mode="normal" in="SourceGraphic" in2="effect1_dropShadow" result="shape"/>
</filter>
<filter id="filter35_d" x="481" y="174" width="57" height="57" filterUnits="userSpaceOnUse" color-interpolation-filters="sRGB">
<feFlood flood-opacity="0" result="BackgroundImageFix"/>
<feColorMatrix in="SourceAlpha" type="matrix" values="0 0 0 0 0 0 0 0 0 0 0 0 0 0 0 0 0 0 127 0"/>
<feOffset dx="4" dy="4"/>
<feGaussianBlur stdDeviation="1.5"/>
<feColorMatrix type="matrix" values="0 0 0 0 0.270833 0 0 0 0 1 0 0 0 0 0.95625 0 0 0 0.2 0"/>
<feBlend mode="normal" in2="BackgroundImageFix" result="effect1_dropShadow"/>
<feBlend mode="normal" in="SourceGraphic" in2="effect1_dropShadow" result="shape"/>
</filter>
<filter id="filter36_d" x="451" y="65" width="68" height="68" filterUnits="userSpaceOnUse" color-interpolation-filters="sRGB">
<feFlood flood-opacity="0" result="BackgroundImageFix"/>
<feColorMatrix in="SourceAlpha" type="matrix" values="0 0 0 0 0 0 0 0 0 0 0 0 0 0 0 0 0 0 127 0"/>
<feOffset dx="5" dy="5"/>
<feGaussianBlur stdDeviation="1.5"/>
<feColorMatrix type="matrix" values="0 0 0 0 0.270833 0 0 0 0 1 0 0 0 0 0.95625 0 0 0 0.2 0"/>
<feBlend mode="normal" in2="BackgroundImageFix" result="effect1_dropShadow"/>
<feBlend mode="normal" in="SourceGraphic" in2="effect1_dropShadow" result="shape"/>
</filter>
<filter id="filter37_d" x="206" y="185" width="260" height="292.821" filterUnits="userSpaceOnUse" color-interpolation-filters="sRGB">
<feFlood flood-opacity="0" result="BackgroundImageFix"/>
<feColorMatrix in="SourceAlpha" type="matrix" values="0 0 0 0 0 0 0 0 0 0 0 0 0 0 0 0 0 0 127 0"/>
<feOffset dx="15" dy="15"/>
<feGaussianBlur stdDeviation="2.5"/>
<feColorMatrix type="matrix" values="0 0 0 0 0.270833 0 0 0 0 1 0 0 0 0 0.95625 0 0 0 0.2 0"/>
<feBlend mode="normal" in2="BackgroundImageFix" result="effect1_dropShadow"/>
<feBlend mode="normal" in="SourceGraphic" in2="effect1_dropShadow" result="shape"/>
</filter>
</defs>
</svg>
