<svg width="640" height="640" viewBox="0 0 640 640" fill="none" xmlns="http://www.w3.org/2000/svg">
<g filter="url(#filter0_d)">
<path d="M218 193L230 181H257.689V447L246 458.821H218V193Z" fill="#45FFF4"/>
<path d="M382.312 193L394.5 181H422V447L410 458.821H382.312V193Z" fill="#45FFF4"/>
<rect x="218" y="339.755" width="39.6887" height="204" transform="rotate(-90 218 339.755)" fill="#45FFF4"/>
</g>
<circle cx="320" cy="320" r="232" fill="#DEFEFE" fill-opacity="0.1"/>
<g filter="url(#filter1_d)">
<path d="M96.1426 115.261L97.3988 114H100.599L101.857 115.261V152.651L100.599 154H97.3988L96.1426 152.651V115.261Z" fill="#45FFF4"/>
<path d="M80.2612 136.857L79 135.601V132.401L80.2612 131.143H117.651L119 132.401V135.601L117.651 136.857H80.2612Z" fill="#45FFF4"/>
</g>
<g filter="url(#filter2_d)">
<path d="M51.4287 323.473L51.8998 323H53.0998L53.5716 323.473V337.494L53.0998 338H51.8998L51.4287 337.494V323.473Z" fill="#45FFF4"/>
<path d="M45.4729 331.571L45 331.1V329.9L45.4729 329.429H59.494L60 329.9V331.1L59.494 331.571H45.4729Z" fill="#45FFF4"/>
</g>
<g filter="url(#filter3_d)">
<path d="M161.429 529.473L161.9 529H163.1L163.572 529.473V543.494L163.1 544H161.9L161.429 543.494V529.473Z" fill="#45FFF4"/>
<path d="M155.473 537.571L155 537.1V535.9L155.473 535.429H169.494L170 535.9V537.1L169.494 537.571H155.473Z" fill="#45FFF4"/>
</g>
<g filter="url(#filter4_d)">
<path d="M71.4287 460.473L71.8998 460H73.0998L73.5716 460.473V474.494L73.0998 475H71.8998L71.4287 474.494V460.473Z" fill="#45FFF4"/>
<path d="M65.4729 468.571L65 468.1V466.9L65.4729 466.429H79.494L80 466.9V468.1L79.494 468.571H65.4729Z" fill="#45FFF4"/>
</g>
<g filter="url(#filter5_d)">
<path d="M213.429 565.252L213.68 565H214.32L214.572 565.252V572.73L214.32 573H213.68L213.429 572.73V565.252Z" fill="#45FFF4"/>
<path d="M210.252 569.571L210 569.32V568.68L210.252 568.429H217.73L218 568.68V569.32L217.73 569.571H210.252Z" fill="#45FFF4"/>
</g>
<g filter="url(#filter6_d)">
<path d="M113.429 528.252L113.68 528H114.32L114.572 528.252V535.73L114.32 536H113.68L113.429 535.73V528.252Z" fill="#45FFF4"/>
<path d="M110.252 532.571L110 532.32V531.68L110.252 531.429H117.73L118 531.68V532.32L117.73 532.571H110.252Z" fill="#45FFF4"/>
</g>
<g filter="url(#filter7_d)">
<path d="M259.429 560.252L259.68 560H260.32L260.572 560.252V567.73L260.32 568H259.68L259.429 567.73V560.252Z" fill="#45FFF4"/>
<path d="M256.252 564.571L256 564.32V563.68L256.252 563.429H263.73L264 563.68V564.32L263.73 564.571H256.252Z" fill="#45FFF4"/>
</g>
<g filter="url(#filter8_d)">
<path d="M412.429 598.252L412.68 598H413.32L413.572 598.252V605.73L413.32 606H412.68L412.429 605.73V598.252Z" fill="#45FFF4"/>
<path d="M409.252 602.571L409 602.32V601.68L409.252 601.429H416.73L417 601.68V602.32L416.73 602.571H409.252Z" fill="#45FFF4"/>
</g>
<g filter="url(#filter9_d)">
<path d="M604.429 244.252L604.68 244H605.32L605.572 244.252V251.73L605.32 252H604.68L604.429 251.73V244.252Z" fill="#45FFF4"/>
<path d="M601.252 248.571L601 248.32V247.68L601.252 247.429H608.73L609 247.68V248.32L608.73 248.571H601.252Z" fill="#45FFF4"/>
</g>
<g filter="url(#filter10_d)">
<path d="M78.4287 409.252L78.68 409H79.32L79.5716 409.252V416.73L79.32 417H78.68L78.4287 416.73V409.252Z" fill="#45FFF4"/>
<path d="M75.2522 413.571L75 413.32V412.68L75.2522 412.429H82.7301L83 412.68V413.32L82.7301 413.571H75.2522Z" fill="#45FFF4"/>
</g>
<g filter="url(#filter11_d)">
<path d="M37.4287 263.252L37.68 263H38.32L38.5716 263.252V270.73L38.32 271H37.68L37.4287 270.73V263.252Z" fill="#45FFF4"/>
<path d="M34.2522 267.571L34 267.32V266.68L34.2522 266.429H41.7301L42 266.68V267.32L41.7301 267.571H34.2522Z" fill="#45FFF4"/>
</g>
<g filter="url(#filter12_d)">
<path d="M473.429 571.252L473.68 571H474.32L474.572 571.252V578.73L474.32 579H473.68L473.429 578.73V571.252Z" fill="#45FFF4"/>
<path d="M470.252 575.571L470 575.32V574.68L470.252 574.429H477.73L478 574.68V575.32L477.73 575.571H470.252Z" fill="#45FFF4"/>
</g>
<g filter="url(#filter13_d)">
<path d="M571.429 264.252L571.68 264H572.32L572.572 264.252V271.73L572.32 272H571.68L571.429 271.73V264.252Z" fill="#45FFF4"/>
<path d="M568.252 268.571L568 268.32V267.68L568.252 267.429H575.73L576 267.68V268.32L575.73 268.571H568.252Z" fill="#45FFF4"/>
</g>
<g filter="url(#filter14_d)">
<path d="M590.429 328.252L590.68 328H591.32L591.572 328.252V335.73L591.32 336H590.68L590.429 335.73V328.252Z" fill="#45FFF4"/>
<path d="M587.252 332.571L587 332.32V331.68L587.252 331.429H594.73L595 331.68V332.32L594.73 332.571H587.252Z" fill="#45FFF4"/>
</g>
<g filter="url(#filter15_d)">
<path d="M595.429 433.252L595.68 433H596.32L596.572 433.252V440.73L596.32 441H595.68L595.429 440.73V433.252Z" fill="#45FFF4"/>
<path d="M592.252 437.571L592 437.32V436.68L592.252 436.429H599.73L600 436.68V437.32L599.73 437.571H592.252Z" fill="#45FFF4"/>
</g>
<g filter="url(#filter16_d)">
<path d="M137.429 75.2522L137.68 75H138.32L138.572 75.2522V82.7301L138.32 83H137.68L137.429 82.7301V75.2522Z" fill="#45FFF4"/>
<path d="M134.252 79.5714L134 79.3202V78.6802L134.252 78.4286H141.73L142 78.6802V79.3202L141.73 79.5714H134.252Z" fill="#45FFF4"/>
</g>
<g filter="url(#filter17_d)">
<path d="M463.429 109.252L463.68 109H464.32L464.572 109.252V116.73L464.32 117H463.68L463.429 116.73V109.252Z" fill="#45FFF4"/>
<path d="M460.252 113.571L460 113.32V112.68L460.252 112.429H467.73L468 112.68V113.32L467.73 113.571H460.252Z" fill="#45FFF4"/>
</g>
<g filter="url(#filter18_d)">
<path d="M290.429 40.2522L290.68 40H291.32L291.572 40.2522V47.7301L291.32 48H290.68L290.429 47.7301V40.2522Z" fill="#45FFF4"/>
<path d="M287.252 44.5714L287 44.3202V43.6802L287.252 43.4286H294.73L295 43.6802V44.3202L294.73 44.5714H287.252Z" fill="#45FFF4"/>
</g>
<g filter="url(#filter19_d)">
<path d="M511.429 154.252L511.68 154H512.32L512.572 154.252V161.73L512.32 162H511.68L511.429 161.73V154.252Z" fill="#45FFF4"/>
<path d="M508.252 158.571L508 158.32V157.68L508.252 157.429H515.73L516 157.68V158.32L515.73 158.571H508.252Z" fill="#45FFF4"/>
</g>
<g filter="url(#filter20_d)">
<path d="M249.429 585.473L249.9 585H251.1L251.572 585.473V599.494L251.1 600H249.9L249.429 599.494V585.473Z" fill="#45FFF4"/>
<path d="M243.473 593.571L243 593.1V591.9L243.473 591.429H257.494L258 591.9V593.1L257.494 593.571H243.473Z" fill="#45FFF4"/>
</g>
<g filter="url(#filter21_d)">
<path d="M77.4287 229.473L77.8998 229H79.0998L79.5716 229.473V243.494L79.0998 244H77.8998L77.4287 243.494V229.473Z" fill="#45FFF4"/>
<path d="M71.4729 237.571L71 237.1V235.9L71.4729 235.429H85.494L86 235.9V237.1L85.494 237.571H71.4729Z" fill="#45FFF4"/>
</g>
<g filter="url(#filter22_d)">
<path d="M301.429 566.473L301.9 566H303.1L303.572 566.473V580.494L303.1 581H301.9L301.429 580.494V566.473Z" fill="#45FFF4"/>
<path d="M295.473 574.571L295 574.1V572.9L295.473 572.429H309.494L310 572.9V574.1L309.494 574.571H295.473Z" fill="#45FFF4"/>
</g>
<g filter="url(#filter23_d)">
<path d="M421.429 560.473L421.9 560H423.1L423.572 560.473V574.494L423.1 575H421.9L421.429 574.494V560.473Z" fill="#45FFF4"/>
<path d="M415.473 568.571L415 568.1V566.9L415.473 566.429H429.494L430 566.9V568.1L429.494 568.571H415.473Z" fill="#45FFF4"/>
</g>
<g filter="url(#filter24_d)">
<path d="M264.429 60.4729L264.9 60H266.1L266.572 60.4729V74.494L266.1 75H264.9L264.429 74.494V60.4729Z" fill="#45FFF4"/>
<path d="M258.473 68.5714L258 68.1003V66.9003L258.473 66.4286H272.494L273 66.9003V68.1003L272.494 68.5714H258.473Z" fill="#45FFF4"/>
</g>
<g filter="url(#filter25_d)">
<path d="M360.429 591.473L360.9 591H362.1L362.572 591.473V605.494L362.1 606H360.9L360.429 605.494V591.473Z" fill="#45FFF4"/>
<path d="M354.473 599.571L354 599.1V597.9L354.473 597.429H368.494L369 597.9V599.1L368.494 599.571H354.473Z" fill="#45FFF4"/>
</g>
<g filter="url(#filter26_d)">
<path d="M110.429 481.473L110.9 481H112.1L112.572 481.473V495.494L112.1 496H110.9L110.429 495.494V481.473Z" fill="#45FFF4"/>
<path d="M104.473 489.571L104 489.1V487.9L104.473 487.429H118.494L119 487.9V489.1L118.494 489.571H104.473Z" fill="#45FFF4"/>
</g>
<g filter="url(#filter27_d)">
<path d="M607.429 298.473L607.9 298H609.1L609.572 298.473V312.494L609.1 313H607.9L607.429 312.494V298.473Z" fill="#45FFF4"/>
<path d="M601.473 306.571L601 306.1V304.9L601.473 304.429H615.494L616 304.9V306.1L615.494 306.571H601.473Z" fill="#45FFF4"/>
</g>
<g filter="url(#filter28_d)">
<path d="M493.429 519.473L493.9 519H495.1L495.572 519.473V533.494L495.1 534H493.9L493.429 533.494V519.473Z" fill="#45FFF4"/>
<path d="M487.473 527.571L487 527.1V525.9L487.473 525.429H501.494L502 525.9V527.1L501.494 527.571H487.473Z" fill="#45FFF4"/>
</g>
<g filter="url(#filter29_d)">
<path d="M548.429 149.473L548.9 149H550.1L550.572 149.473V163.494L550.1 164H548.9L548.429 163.494V149.473Z" fill="#45FFF4"/>
<path d="M542.473 157.571L542 157.1V155.9L542.473 155.429H556.494L557 155.9V157.1L556.494 157.571H542.473Z" fill="#45FFF4"/>
</g>
<g filter="url(#filter30_d)">
<path d="M574.429 388.473L574.9 388H576.1L576.572 388.473V402.494L576.1 403H574.9L574.429 402.494V388.473Z" fill="#45FFF4"/>
<path d="M568.473 396.571L568 396.1V394.9L568.473 394.429H582.494L583 394.9V396.1L582.494 396.571H568.473Z" fill="#45FFF4"/>
</g>
<g filter="url(#filter31_d)">
<path d="M613.429 367.473L613.9 367H615.1L615.572 367.473V381.494L615.1 382H613.9L613.429 381.494V367.473Z" fill="#45FFF4"/>
<path d="M607.473 375.571L607 375.1V373.9L607.473 373.429H621.494L622 373.9V375.1L621.494 375.571H607.473Z" fill="#45FFF4"/>
</g>
<g filter="url(#filter32_d)">
<path d="M353.429 49.4729L353.9 49H355.1L355.572 49.4729V63.494L355.1 64H353.9L353.429 63.494V49.4729Z" fill="#45FFF4"/>
<path d="M347.473 57.5714L347 57.1003V55.9003L347.473 55.4286H361.494L362 55.9003V57.1003L361.494 57.5714H347.473Z" fill="#45FFF4"/>
</g>
<g filter="url(#filter33_d)">
<path d="M224.429 40.4729L224.9 40H226.1L226.572 40.4729V54.494L226.1 55H224.9L224.429 54.494V40.4729Z" fill="#45FFF4"/>
<path d="M218.473 48.5714L218 48.1003V46.9003L218.473 46.4286H232.494L233 46.9003V48.1003L232.494 48.5714H218.473Z" fill="#45FFF4"/>
</g>
<g filter="url(#filter34_d)">
<path d="M578.429 208.473L578.9 208H580.1L580.572 208.473V222.494L580.1 223H578.9L578.429 222.494V208.473Z" fill="#45FFF4"/>
<path d="M572.473 216.571L572 216.1V214.9L572.473 214.429H586.494L587 214.9V216.1L586.494 216.571H572.473Z" fill="#45FFF4"/>
</g>
<g filter="url(#filter35_d)">
<path d="M499.429 102.473L499.9 102H501.1L501.572 102.473V116.494L501.1 117H499.9L499.429 116.494V102.473Z" fill="#45FFF4"/>
<path d="M493.473 110.571L493 110.1V108.9L493.473 108.429H507.494L508 108.9V110.1L507.494 110.571H493.473Z" fill="#45FFF4"/>
</g>
<g filter="url(#filter36_d)">
<path d="M176.429 83.4729L176.9 83H178.1L178.572 83.4729V97.494L178.1 98H176.9L176.429 97.494V83.4729Z" fill="#45FFF4"/>
<path d="M170.473 91.5714L170 91.1003V89.9003L170.473 89.4286H184.494L185 89.9003V91.1003L184.494 91.5714H170.473Z" fill="#45FFF4"/>
</g>
<g filter="url(#filter37_d)">
<path d="M36.4287 394.473L36.8998 394H38.0998L38.5716 394.473V408.494L38.0998 409H36.8998L36.4287 408.494V394.473Z" fill="#45FFF4"/>
<path d="M30.4729 402.571L30 402.1V400.9L30.4729 400.429H44.494L45 400.9V402.1L44.494 402.571H30.4729Z" fill="#45FFF4"/>
</g>
<g filter="url(#filter38_d)">
<path d="M56.4287 174.473L56.8998 174H58.0998L58.5716 174.473V188.494L58.0998 189H56.8998L56.4287 188.494V174.473Z" fill="#45FFF4"/>
<path d="M50.4729 182.571L50 182.1V180.9L50.4729 180.429H64.494L65 180.9V182.1L64.494 182.571H50.4729Z" fill="#45FFF4"/>
</g>
<g filter="url(#filter39_d)">
<path d="M125.429 149.473L125.9 149H127.1L127.572 149.473V163.494L127.1 164H125.9L125.429 163.494V149.473Z" fill="#45FFF4"/>
<path d="M119.473 157.571L119 157.1V155.9L119.473 155.429H133.494L134 155.9V157.1L133.494 157.571H119.473Z" fill="#45FFF4"/>
</g>
<g filter="url(#filter40_d)">
<path d="M80.4287 277.252L80.68 277H81.32L81.5716 277.252V284.73L81.32 285H80.68L80.4287 284.73V277.252Z" fill="#45FFF4"/>
<path d="M77.2522 281.571L77 281.32V280.68L77.2522 280.429H84.7301L85 280.68V281.32L84.7301 281.571H77.2522Z" fill="#45FFF4"/>
</g>
<g filter="url(#filter41_d)">
<path d="M538.429 460.576L539.999 459H543.999L545.572 460.576V507.313L543.999 509H539.999L538.429 507.313V460.576Z" fill="#45FFF4"/>
<path d="M518.576 487.571L517 486.001V482.001L518.576 480.429H565.313L567 482.001V486.001L565.313 487.571H518.576Z" fill="#45FFF4"/>
</g>
<g filter="url(#filter42_d)">
<path d="M429.715 50.8918L431.599 49H436.399L438.286 50.8918V106.976L436.399 109H431.599L429.715 106.976V50.8918Z" fill="#45FFF4"/>
<path d="M405.892 83.2856L404 81.4012V76.6012L405.892 74.7142H461.976L464 76.6012V81.4012L461.976 83.2856H405.892Z" fill="#45FFF4"/>
</g>
<defs>
<filter id="filter0_d" x="218" y="181" width="224" height="297.821" filterUnits="userSpaceOnUse" color-interpolation-filters="sRGB">
<feFlood flood-opacity="0" result="BackgroundImageFix"/>
<feColorMatrix in="SourceAlpha" type="matrix" values="0 0 0 0 0 0 0 0 0 0 0 0 0 0 0 0 0 0 127 0"/>
<feOffset dx="15" dy="15"/>
<feGaussianBlur stdDeviation="2.5"/>
<feColorMatrix type="matrix" values="0 0 0 0 0.117647 0 0 0 0 0.176471 0 0 0 0 0.32549 0 0 0 1 0"/>
<feBlend mode="normal" in2="BackgroundImageFix" result="effect1_dropShadow"/>
<feBlend mode="normal" in="SourceGraphic" in2="effect1_dropShadow" result="shape"/>
</filter>
<filter id="filter1_d" x="79" y="114" width="47" height="47" filterUnits="userSpaceOnUse" color-interpolation-filters="sRGB">
<feFlood flood-opacity="0" result="BackgroundImageFix"/>
<feColorMatrix in="SourceAlpha" type="matrix" values="0 0 0 0 0 0 0 0 0 0 0 0 0 0 0 0 0 0 127 0"/>
<feOffset dx="5" dy="5"/>
<feGaussianBlur stdDeviation="1"/>
<feColorMatrix type="matrix" values="0 0 0 0 0.1 0 0 0 0 0.15 0 0 0 0 0.3 0 0 0 1 0"/>
<feBlend mode="normal" in2="BackgroundImageFix" result="effect1_dropShadow"/>
<feBlend mode="normal" in="SourceGraphic" in2="effect1_dropShadow" result="shape"/>
</filter>
<filter id="filter2_d" x="45" y="323" width="20" height="20" filterUnits="userSpaceOnUse" color-interpolation-filters="sRGB">
<feFlood flood-opacity="0" result="BackgroundImageFix"/>
<feColorMatrix in="SourceAlpha" type="matrix" values="0 0 0 0 0 0 0 0 0 0 0 0 0 0 0 0 0 0 127 0"/>
<feOffset dx="3" dy="3"/>
<feGaussianBlur stdDeviation="1"/>
<feColorMatrix type="matrix" values="0 0 0 0 0.1 0 0 0 0 0.15 0 0 0 0 0.3 0 0 0 1 0"/>
<feBlend mode="normal" in2="BackgroundImageFix" result="effect1_dropShadow"/>
<feBlend mode="normal" in="SourceGraphic" in2="effect1_dropShadow" result="shape"/>
</filter>
<filter id="filter3_d" x="155" y="529" width="20" height="20" filterUnits="userSpaceOnUse" color-interpolation-filters="sRGB">
<feFlood flood-opacity="0" result="BackgroundImageFix"/>
<feColorMatrix in="SourceAlpha" type="matrix" values="0 0 0 0 0 0 0 0 0 0 0 0 0 0 0 0 0 0 127 0"/>
<feOffset dx="3" dy="3"/>
<feGaussianBlur stdDeviation="1"/>
<feColorMatrix type="matrix" values="0 0 0 0 0.1 0 0 0 0 0.15 0 0 0 0 0.3 0 0 0 1 0"/>
<feBlend mode="normal" in2="BackgroundImageFix" result="effect1_dropShadow"/>
<feBlend mode="normal" in="SourceGraphic" in2="effect1_dropShadow" result="shape"/>
</filter>
<filter id="filter4_d" x="65" y="460" width="20" height="20" filterUnits="userSpaceOnUse" color-interpolation-filters="sRGB">
<feFlood flood-opacity="0" result="BackgroundImageFix"/>
<feColorMatrix in="SourceAlpha" type="matrix" values="0 0 0 0 0 0 0 0 0 0 0 0 0 0 0 0 0 0 127 0"/>
<feOffset dx="3" dy="3"/>
<feGaussianBlur stdDeviation="1"/>
<feColorMatrix type="matrix" values="0 0 0 0 0.1 0 0 0 0 0.15 0 0 0 0 0.3 0 0 0 1 0"/>
<feBlend mode="normal" in2="BackgroundImageFix" result="effect1_dropShadow"/>
<feBlend mode="normal" in="SourceGraphic" in2="effect1_dropShadow" result="shape"/>
</filter>
<filter id="filter5_d" x="210" y="565" width="13" height="13" filterUnits="userSpaceOnUse" color-interpolation-filters="sRGB">
<feFlood flood-opacity="0" result="BackgroundImageFix"/>
<feColorMatrix in="SourceAlpha" type="matrix" values="0 0 0 0 0 0 0 0 0 0 0 0 0 0 0 0 0 0 127 0"/>
<feOffset dx="3" dy="3"/>
<feGaussianBlur stdDeviation="1"/>
<feColorMatrix type="matrix" values="0 0 0 0 0.1 0 0 0 0 0.15 0 0 0 0 0.3 0 0 0 1 0"/>
<feBlend mode="normal" in2="BackgroundImageFix" result="effect1_dropShadow"/>
<feBlend mode="normal" in="SourceGraphic" in2="effect1_dropShadow" result="shape"/>
</filter>
<filter id="filter6_d" x="110" y="528" width="13" height="13" filterUnits="userSpaceOnUse" color-interpolation-filters="sRGB">
<feFlood flood-opacity="0" result="BackgroundImageFix"/>
<feColorMatrix in="SourceAlpha" type="matrix" values="0 0 0 0 0 0 0 0 0 0 0 0 0 0 0 0 0 0 127 0"/>
<feOffset dx="3" dy="3"/>
<feGaussianBlur stdDeviation="1"/>
<feColorMatrix type="matrix" values="0 0 0 0 0.1 0 0 0 0 0.15 0 0 0 0 0.3 0 0 0 1 0"/>
<feBlend mode="normal" in2="BackgroundImageFix" result="effect1_dropShadow"/>
<feBlend mode="normal" in="SourceGraphic" in2="effect1_dropShadow" result="shape"/>
</filter>
<filter id="filter7_d" x="256" y="560" width="13" height="13" filterUnits="userSpaceOnUse" color-interpolation-filters="sRGB">
<feFlood flood-opacity="0" result="BackgroundImageFix"/>
<feColorMatrix in="SourceAlpha" type="matrix" values="0 0 0 0 0 0 0 0 0 0 0 0 0 0 0 0 0 0 127 0"/>
<feOffset dx="3" dy="3"/>
<feGaussianBlur stdDeviation="1"/>
<feColorMatrix type="matrix" values="0 0 0 0 0.1 0 0 0 0 0.15 0 0 0 0 0.3 0 0 0 1 0"/>
<feBlend mode="normal" in2="BackgroundImageFix" result="effect1_dropShadow"/>
<feBlend mode="normal" in="SourceGraphic" in2="effect1_dropShadow" result="shape"/>
</filter>
<filter id="filter8_d" x="409" y="598" width="13" height="13" filterUnits="userSpaceOnUse" color-interpolation-filters="sRGB">
<feFlood flood-opacity="0" result="BackgroundImageFix"/>
<feColorMatrix in="SourceAlpha" type="matrix" values="0 0 0 0 0 0 0 0 0 0 0 0 0 0 0 0 0 0 127 0"/>
<feOffset dx="3" dy="3"/>
<feGaussianBlur stdDeviation="1"/>
<feColorMatrix type="matrix" values="0 0 0 0 0.1 0 0 0 0 0.15 0 0 0 0 0.3 0 0 0 1 0"/>
<feBlend mode="normal" in2="BackgroundImageFix" result="effect1_dropShadow"/>
<feBlend mode="normal" in="SourceGraphic" in2="effect1_dropShadow" result="shape"/>
</filter>
<filter id="filter9_d" x="601" y="244" width="13" height="13" filterUnits="userSpaceOnUse" color-interpolation-filters="sRGB">
<feFlood flood-opacity="0" result="BackgroundImageFix"/>
<feColorMatrix in="SourceAlpha" type="matrix" values="0 0 0 0 0 0 0 0 0 0 0 0 0 0 0 0 0 0 127 0"/>
<feOffset dx="3" dy="3"/>
<feGaussianBlur stdDeviation="1"/>
<feColorMatrix type="matrix" values="0 0 0 0 0.1 0 0 0 0 0.15 0 0 0 0 0.3 0 0 0 1 0"/>
<feBlend mode="normal" in2="BackgroundImageFix" result="effect1_dropShadow"/>
<feBlend mode="normal" in="SourceGraphic" in2="effect1_dropShadow" result="shape"/>
</filter>
<filter id="filter10_d" x="75" y="409" width="13" height="13" filterUnits="userSpaceOnUse" color-interpolation-filters="sRGB">
<feFlood flood-opacity="0" result="BackgroundImageFix"/>
<feColorMatrix in="SourceAlpha" type="matrix" values="0 0 0 0 0 0 0 0 0 0 0 0 0 0 0 0 0 0 127 0"/>
<feOffset dx="3" dy="3"/>
<feGaussianBlur stdDeviation="1"/>
<feColorMatrix type="matrix" values="0 0 0 0 0.1 0 0 0 0 0.15 0 0 0 0 0.3 0 0 0 1 0"/>
<feBlend mode="normal" in2="BackgroundImageFix" result="effect1_dropShadow"/>
<feBlend mode="normal" in="SourceGraphic" in2="effect1_dropShadow" result="shape"/>
</filter>
<filter id="filter11_d" x="34" y="263" width="13" height="13" filterUnits="userSpaceOnUse" color-interpolation-filters="sRGB">
<feFlood flood-opacity="0" result="BackgroundImageFix"/>
<feColorMatrix in="SourceAlpha" type="matrix" values="0 0 0 0 0 0 0 0 0 0 0 0 0 0 0 0 0 0 127 0"/>
<feOffset dx="3" dy="3"/>
<feGaussianBlur stdDeviation="1"/>
<feColorMatrix type="matrix" values="0 0 0 0 0.1 0 0 0 0 0.15 0 0 0 0 0.3 0 0 0 1 0"/>
<feBlend mode="normal" in2="BackgroundImageFix" result="effect1_dropShadow"/>
<feBlend mode="normal" in="SourceGraphic" in2="effect1_dropShadow" result="shape"/>
</filter>
<filter id="filter12_d" x="470" y="571" width="13" height="13" filterUnits="userSpaceOnUse" color-interpolation-filters="sRGB">
<feFlood flood-opacity="0" result="BackgroundImageFix"/>
<feColorMatrix in="SourceAlpha" type="matrix" values="0 0 0 0 0 0 0 0 0 0 0 0 0 0 0 0 0 0 127 0"/>
<feOffset dx="3" dy="3"/>
<feGaussianBlur stdDeviation="1"/>
<feColorMatrix type="matrix" values="0 0 0 0 0.1 0 0 0 0 0.15 0 0 0 0 0.3 0 0 0 1 0"/>
<feBlend mode="normal" in2="BackgroundImageFix" result="effect1_dropShadow"/>
<feBlend mode="normal" in="SourceGraphic" in2="effect1_dropShadow" result="shape"/>
</filter>
<filter id="filter13_d" x="568" y="264" width="13" height="13" filterUnits="userSpaceOnUse" color-interpolation-filters="sRGB">
<feFlood flood-opacity="0" result="BackgroundImageFix"/>
<feColorMatrix in="SourceAlpha" type="matrix" values="0 0 0 0 0 0 0 0 0 0 0 0 0 0 0 0 0 0 127 0"/>
<feOffset dx="3" dy="3"/>
<feGaussianBlur stdDeviation="1"/>
<feColorMatrix type="matrix" values="0 0 0 0 0.1 0 0 0 0 0.15 0 0 0 0 0.3 0 0 0 1 0"/>
<feBlend mode="normal" in2="BackgroundImageFix" result="effect1_dropShadow"/>
<feBlend mode="normal" in="SourceGraphic" in2="effect1_dropShadow" result="shape"/>
</filter>
<filter id="filter14_d" x="587" y="328" width="13" height="13" filterUnits="userSpaceOnUse" color-interpolation-filters="sRGB">
<feFlood flood-opacity="0" result="BackgroundImageFix"/>
<feColorMatrix in="SourceAlpha" type="matrix" values="0 0 0 0 0 0 0 0 0 0 0 0 0 0 0 0 0 0 127 0"/>
<feOffset dx="3" dy="3"/>
<feGaussianBlur stdDeviation="1"/>
<feColorMatrix type="matrix" values="0 0 0 0 0.1 0 0 0 0 0.15 0 0 0 0 0.3 0 0 0 1 0"/>
<feBlend mode="normal" in2="BackgroundImageFix" result="effect1_dropShadow"/>
<feBlend mode="normal" in="SourceGraphic" in2="effect1_dropShadow" result="shape"/>
</filter>
<filter id="filter15_d" x="592" y="433" width="13" height="13" filterUnits="userSpaceOnUse" color-interpolation-filters="sRGB">
<feFlood flood-opacity="0" result="BackgroundImageFix"/>
<feColorMatrix in="SourceAlpha" type="matrix" values="0 0 0 0 0 0 0 0 0 0 0 0 0 0 0 0 0 0 127 0"/>
<feOffset dx="3" dy="3"/>
<feGaussianBlur stdDeviation="1"/>
<feColorMatrix type="matrix" values="0 0 0 0 0.1 0 0 0 0 0.15 0 0 0 0 0.3 0 0 0 1 0"/>
<feBlend mode="normal" in2="BackgroundImageFix" result="effect1_dropShadow"/>
<feBlend mode="normal" in="SourceGraphic" in2="effect1_dropShadow" result="shape"/>
</filter>
<filter id="filter16_d" x="134" y="75" width="13" height="13" filterUnits="userSpaceOnUse" color-interpolation-filters="sRGB">
<feFlood flood-opacity="0" result="BackgroundImageFix"/>
<feColorMatrix in="SourceAlpha" type="matrix" values="0 0 0 0 0 0 0 0 0 0 0 0 0 0 0 0 0 0 127 0"/>
<feOffset dx="3" dy="3"/>
<feGaussianBlur stdDeviation="1"/>
<feColorMatrix type="matrix" values="0 0 0 0 0.1 0 0 0 0 0.15 0 0 0 0 0.3 0 0 0 1 0"/>
<feBlend mode="normal" in2="BackgroundImageFix" result="effect1_dropShadow"/>
<feBlend mode="normal" in="SourceGraphic" in2="effect1_dropShadow" result="shape"/>
</filter>
<filter id="filter17_d" x="460" y="109" width="13" height="13" filterUnits="userSpaceOnUse" color-interpolation-filters="sRGB">
<feFlood flood-opacity="0" result="BackgroundImageFix"/>
<feColorMatrix in="SourceAlpha" type="matrix" values="0 0 0 0 0 0 0 0 0 0 0 0 0 0 0 0 0 0 127 0"/>
<feOffset dx="3" dy="3"/>
<feGaussianBlur stdDeviation="1"/>
<feColorMatrix type="matrix" values="0 0 0 0 0.1 0 0 0 0 0.15 0 0 0 0 0.3 0 0 0 1 0"/>
<feBlend mode="normal" in2="BackgroundImageFix" result="effect1_dropShadow"/>
<feBlend mode="normal" in="SourceGraphic" in2="effect1_dropShadow" result="shape"/>
</filter>
<filter id="filter18_d" x="287" y="40" width="13" height="13" filterUnits="userSpaceOnUse" color-interpolation-filters="sRGB">
<feFlood flood-opacity="0" result="BackgroundImageFix"/>
<feColorMatrix in="SourceAlpha" type="matrix" values="0 0 0 0 0 0 0 0 0 0 0 0 0 0 0 0 0 0 127 0"/>
<feOffset dx="3" dy="3"/>
<feGaussianBlur stdDeviation="1"/>
<feColorMatrix type="matrix" values="0 0 0 0 0.1 0 0 0 0 0.15 0 0 0 0 0.3 0 0 0 1 0"/>
<feBlend mode="normal" in2="BackgroundImageFix" result="effect1_dropShadow"/>
<feBlend mode="normal" in="SourceGraphic" in2="effect1_dropShadow" result="shape"/>
</filter>
<filter id="filter19_d" x="508" y="154" width="13" height="13" filterUnits="userSpaceOnUse" color-interpolation-filters="sRGB">
<feFlood flood-opacity="0" result="BackgroundImageFix"/>
<feColorMatrix in="SourceAlpha" type="matrix" values="0 0 0 0 0 0 0 0 0 0 0 0 0 0 0 0 0 0 127 0"/>
<feOffset dx="3" dy="3"/>
<feGaussianBlur stdDeviation="1"/>
<feColorMatrix type="matrix" values="0 0 0 0 0.1 0 0 0 0 0.15 0 0 0 0 0.3 0 0 0 1 0"/>
<feBlend mode="normal" in2="BackgroundImageFix" result="effect1_dropShadow"/>
<feBlend mode="normal" in="SourceGraphic" in2="effect1_dropShadow" result="shape"/>
</filter>
<filter id="filter20_d" x="243" y="585" width="20" height="20" filterUnits="userSpaceOnUse" color-interpolation-filters="sRGB">
<feFlood flood-opacity="0" result="BackgroundImageFix"/>
<feColorMatrix in="SourceAlpha" type="matrix" values="0 0 0 0 0 0 0 0 0 0 0 0 0 0 0 0 0 0 127 0"/>
<feOffset dx="3" dy="3"/>
<feGaussianBlur stdDeviation="1"/>
<feColorMatrix type="matrix" values="0 0 0 0 0.1 0 0 0 0 0.15 0 0 0 0 0.3 0 0 0 1 0"/>
<feBlend mode="normal" in2="BackgroundImageFix" result="effect1_dropShadow"/>
<feBlend mode="normal" in="SourceGraphic" in2="effect1_dropShadow" result="shape"/>
</filter>
<filter id="filter21_d" x="71" y="229" width="20" height="20" filterUnits="userSpaceOnUse" color-interpolation-filters="sRGB">
<feFlood flood-opacity="0" result="BackgroundImageFix"/>
<feColorMatrix in="SourceAlpha" type="matrix" values="0 0 0 0 0 0 0 0 0 0 0 0 0 0 0 0 0 0 127 0"/>
<feOffset dx="3" dy="3"/>
<feGaussianBlur stdDeviation="1"/>
<feColorMatrix type="matrix" values="0 0 0 0 0.1 0 0 0 0 0.15 0 0 0 0 0.3 0 0 0 1 0"/>
<feBlend mode="normal" in2="BackgroundImageFix" result="effect1_dropShadow"/>
<feBlend mode="normal" in="SourceGraphic" in2="effect1_dropShadow" result="shape"/>
</filter>
<filter id="filter22_d" x="295" y="566" width="20" height="20" filterUnits="userSpaceOnUse" color-interpolation-filters="sRGB">
<feFlood flood-opacity="0" result="BackgroundImageFix"/>
<feColorMatrix in="SourceAlpha" type="matrix" values="0 0 0 0 0 0 0 0 0 0 0 0 0 0 0 0 0 0 127 0"/>
<feOffset dx="3" dy="3"/>
<feGaussianBlur stdDeviation="1"/>
<feColorMatrix type="matrix" values="0 0 0 0 0.1 0 0 0 0 0.15 0 0 0 0 0.3 0 0 0 1 0"/>
<feBlend mode="normal" in2="BackgroundImageFix" result="effect1_dropShadow"/>
<feBlend mode="normal" in="SourceGraphic" in2="effect1_dropShadow" result="shape"/>
</filter>
<filter id="filter23_d" x="415" y="560" width="20" height="20" filterUnits="userSpaceOnUse" color-interpolation-filters="sRGB">
<feFlood flood-opacity="0" result="BackgroundImageFix"/>
<feColorMatrix in="SourceAlpha" type="matrix" values="0 0 0 0 0 0 0 0 0 0 0 0 0 0 0 0 0 0 127 0"/>
<feOffset dx="3" dy="3"/>
<feGaussianBlur stdDeviation="1"/>
<feColorMatrix type="matrix" values="0 0 0 0 0.1 0 0 0 0 0.15 0 0 0 0 0.3 0 0 0 1 0"/>
<feBlend mode="normal" in2="BackgroundImageFix" result="effect1_dropShadow"/>
<feBlend mode="normal" in="SourceGraphic" in2="effect1_dropShadow" result="shape"/>
</filter>
<filter id="filter24_d" x="258" y="60" width="20" height="20" filterUnits="userSpaceOnUse" color-interpolation-filters="sRGB">
<feFlood flood-opacity="0" result="BackgroundImageFix"/>
<feColorMatrix in="SourceAlpha" type="matrix" values="0 0 0 0 0 0 0 0 0 0 0 0 0 0 0 0 0 0 127 0"/>
<feOffset dx="3" dy="3"/>
<feGaussianBlur stdDeviation="1"/>
<feColorMatrix type="matrix" values="0 0 0 0 0.1 0 0 0 0 0.15 0 0 0 0 0.3 0 0 0 1 0"/>
<feBlend mode="normal" in2="BackgroundImageFix" result="effect1_dropShadow"/>
<feBlend mode="normal" in="SourceGraphic" in2="effect1_dropShadow" result="shape"/>
</filter>
<filter id="filter25_d" x="354" y="591" width="20" height="20" filterUnits="userSpaceOnUse" color-interpolation-filters="sRGB">
<feFlood flood-opacity="0" result="BackgroundImageFix"/>
<feColorMatrix in="SourceAlpha" type="matrix" values="0 0 0 0 0 0 0 0 0 0 0 0 0 0 0 0 0 0 127 0"/>
<feOffset dx="3" dy="3"/>
<feGaussianBlur stdDeviation="1"/>
<feColorMatrix type="matrix" values="0 0 0 0 0.1 0 0 0 0 0.15 0 0 0 0 0.3 0 0 0 1 0"/>
<feBlend mode="normal" in2="BackgroundImageFix" result="effect1_dropShadow"/>
<feBlend mode="normal" in="SourceGraphic" in2="effect1_dropShadow" result="shape"/>
</filter>
<filter id="filter26_d" x="104" y="481" width="20" height="20" filterUnits="userSpaceOnUse" color-interpolation-filters="sRGB">
<feFlood flood-opacity="0" result="BackgroundImageFix"/>
<feColorMatrix in="SourceAlpha" type="matrix" values="0 0 0 0 0 0 0 0 0 0 0 0 0 0 0 0 0 0 127 0"/>
<feOffset dx="3" dy="3"/>
<feGaussianBlur stdDeviation="1"/>
<feColorMatrix type="matrix" values="0 0 0 0 0.1 0 0 0 0 0.15 0 0 0 0 0.3 0 0 0 1 0"/>
<feBlend mode="normal" in2="BackgroundImageFix" result="effect1_dropShadow"/>
<feBlend mode="normal" in="SourceGraphic" in2="effect1_dropShadow" result="shape"/>
</filter>
<filter id="filter27_d" x="601" y="298" width="20" height="20" filterUnits="userSpaceOnUse" color-interpolation-filters="sRGB">
<feFlood flood-opacity="0" result="BackgroundImageFix"/>
<feColorMatrix in="SourceAlpha" type="matrix" values="0 0 0 0 0 0 0 0 0 0 0 0 0 0 0 0 0 0 127 0"/>
<feOffset dx="3" dy="3"/>
<feGaussianBlur stdDeviation="1"/>
<feColorMatrix type="matrix" values="0 0 0 0 0.1 0 0 0 0 0.15 0 0 0 0 0.3 0 0 0 1 0"/>
<feBlend mode="normal" in2="BackgroundImageFix" result="effect1_dropShadow"/>
<feBlend mode="normal" in="SourceGraphic" in2="effect1_dropShadow" result="shape"/>
</filter>
<filter id="filter28_d" x="487" y="519" width="20" height="20" filterUnits="userSpaceOnUse" color-interpolation-filters="sRGB">
<feFlood flood-opacity="0" result="BackgroundImageFix"/>
<feColorMatrix in="SourceAlpha" type="matrix" values="0 0 0 0 0 0 0 0 0 0 0 0 0 0 0 0 0 0 127 0"/>
<feOffset dx="3" dy="3"/>
<feGaussianBlur stdDeviation="1"/>
<feColorMatrix type="matrix" values="0 0 0 0 0.1 0 0 0 0 0.15 0 0 0 0 0.3 0 0 0 1 0"/>
<feBlend mode="normal" in2="BackgroundImageFix" result="effect1_dropShadow"/>
<feBlend mode="normal" in="SourceGraphic" in2="effect1_dropShadow" result="shape"/>
</filter>
<filter id="filter29_d" x="542" y="149" width="20" height="20" filterUnits="userSpaceOnUse" color-interpolation-filters="sRGB">
<feFlood flood-opacity="0" result="BackgroundImageFix"/>
<feColorMatrix in="SourceAlpha" type="matrix" values="0 0 0 0 0 0 0 0 0 0 0 0 0 0 0 0 0 0 127 0"/>
<feOffset dx="3" dy="3"/>
<feGaussianBlur stdDeviation="1"/>
<feColorMatrix type="matrix" values="0 0 0 0 0.1 0 0 0 0 0.15 0 0 0 0 0.3 0 0 0 1 0"/>
<feBlend mode="normal" in2="BackgroundImageFix" result="effect1_dropShadow"/>
<feBlend mode="normal" in="SourceGraphic" in2="effect1_dropShadow" result="shape"/>
</filter>
<filter id="filter30_d" x="568" y="388" width="20" height="20" filterUnits="userSpaceOnUse" color-interpolation-filters="sRGB">
<feFlood flood-opacity="0" result="BackgroundImageFix"/>
<feColorMatrix in="SourceAlpha" type="matrix" values="0 0 0 0 0 0 0 0 0 0 0 0 0 0 0 0 0 0 127 0"/>
<feOffset dx="3" dy="3"/>
<feGaussianBlur stdDeviation="1"/>
<feColorMatrix type="matrix" values="0 0 0 0 0.1 0 0 0 0 0.15 0 0 0 0 0.3 0 0 0 1 0"/>
<feBlend mode="normal" in2="BackgroundImageFix" result="effect1_dropShadow"/>
<feBlend mode="normal" in="SourceGraphic" in2="effect1_dropShadow" result="shape"/>
</filter>
<filter id="filter31_d" x="607" y="367" width="20" height="20" filterUnits="userSpaceOnUse" color-interpolation-filters="sRGB">
<feFlood flood-opacity="0" result="BackgroundImageFix"/>
<feColorMatrix in="SourceAlpha" type="matrix" values="0 0 0 0 0 0 0 0 0 0 0 0 0 0 0 0 0 0 127 0"/>
<feOffset dx="3" dy="3"/>
<feGaussianBlur stdDeviation="1"/>
<feColorMatrix type="matrix" values="0 0 0 0 0.1 0 0 0 0 0.15 0 0 0 0 0.3 0 0 0 1 0"/>
<feBlend mode="normal" in2="BackgroundImageFix" result="effect1_dropShadow"/>
<feBlend mode="normal" in="SourceGraphic" in2="effect1_dropShadow" result="shape"/>
</filter>
<filter id="filter32_d" x="347" y="49" width="20" height="20" filterUnits="userSpaceOnUse" color-interpolation-filters="sRGB">
<feFlood flood-opacity="0" result="BackgroundImageFix"/>
<feColorMatrix in="SourceAlpha" type="matrix" values="0 0 0 0 0 0 0 0 0 0 0 0 0 0 0 0 0 0 127 0"/>
<feOffset dx="3" dy="3"/>
<feGaussianBlur stdDeviation="1"/>
<feColorMatrix type="matrix" values="0 0 0 0 0.1 0 0 0 0 0.15 0 0 0 0 0.3 0 0 0 1 0"/>
<feBlend mode="normal" in2="BackgroundImageFix" result="effect1_dropShadow"/>
<feBlend mode="normal" in="SourceGraphic" in2="effect1_dropShadow" result="shape"/>
</filter>
<filter id="filter33_d" x="218" y="40" width="20" height="20" filterUnits="userSpaceOnUse" color-interpolation-filters="sRGB">
<feFlood flood-opacity="0" result="BackgroundImageFix"/>
<feColorMatrix in="SourceAlpha" type="matrix" values="0 0 0 0 0 0 0 0 0 0 0 0 0 0 0 0 0 0 127 0"/>
<feOffset dx="3" dy="3"/>
<feGaussianBlur stdDeviation="1"/>
<feColorMatrix type="matrix" values="0 0 0 0 0.1 0 0 0 0 0.15 0 0 0 0 0.3 0 0 0 1 0"/>
<feBlend mode="normal" in2="BackgroundImageFix" result="effect1_dropShadow"/>
<feBlend mode="normal" in="SourceGraphic" in2="effect1_dropShadow" result="shape"/>
</filter>
<filter id="filter34_d" x="572" y="208" width="20" height="20" filterUnits="userSpaceOnUse" color-interpolation-filters="sRGB">
<feFlood flood-opacity="0" result="BackgroundImageFix"/>
<feColorMatrix in="SourceAlpha" type="matrix" values="0 0 0 0 0 0 0 0 0 0 0 0 0 0 0 0 0 0 127 0"/>
<feOffset dx="3" dy="3"/>
<feGaussianBlur stdDeviation="1"/>
<feColorMatrix type="matrix" values="0 0 0 0 0.1 0 0 0 0 0.15 0 0 0 0 0.3 0 0 0 1 0"/>
<feBlend mode="normal" in2="BackgroundImageFix" result="effect1_dropShadow"/>
<feBlend mode="normal" in="SourceGraphic" in2="effect1_dropShadow" result="shape"/>
</filter>
<filter id="filter35_d" x="493" y="102" width="20" height="20" filterUnits="userSpaceOnUse" color-interpolation-filters="sRGB">
<feFlood flood-opacity="0" result="BackgroundImageFix"/>
<feColorMatrix in="SourceAlpha" type="matrix" values="0 0 0 0 0 0 0 0 0 0 0 0 0 0 0 0 0 0 127 0"/>
<feOffset dx="3" dy="3"/>
<feGaussianBlur stdDeviation="1"/>
<feColorMatrix type="matrix" values="0 0 0 0 0.1 0 0 0 0 0.15 0 0 0 0 0.3 0 0 0 1 0"/>
<feBlend mode="normal" in2="BackgroundImageFix" result="effect1_dropShadow"/>
<feBlend mode="normal" in="SourceGraphic" in2="effect1_dropShadow" result="shape"/>
</filter>
<filter id="filter36_d" x="170" y="83" width="20" height="20" filterUnits="userSpaceOnUse" color-interpolation-filters="sRGB">
<feFlood flood-opacity="0" result="BackgroundImageFix"/>
<feColorMatrix in="SourceAlpha" type="matrix" values="0 0 0 0 0 0 0 0 0 0 0 0 0 0 0 0 0 0 127 0"/>
<feOffset dx="3" dy="3"/>
<feGaussianBlur stdDeviation="1"/>
<feColorMatrix type="matrix" values="0 0 0 0 0.1 0 0 0 0 0.15 0 0 0 0 0.3 0 0 0 1 0"/>
<feBlend mode="normal" in2="BackgroundImageFix" result="effect1_dropShadow"/>
<feBlend mode="normal" in="SourceGraphic" in2="effect1_dropShadow" result="shape"/>
</filter>
<filter id="filter37_d" x="30" y="394" width="20" height="20" filterUnits="userSpaceOnUse" color-interpolation-filters="sRGB">
<feFlood flood-opacity="0" result="BackgroundImageFix"/>
<feColorMatrix in="SourceAlpha" type="matrix" values="0 0 0 0 0 0 0 0 0 0 0 0 0 0 0 0 0 0 127 0"/>
<feOffset dx="3" dy="3"/>
<feGaussianBlur stdDeviation="1"/>
<feColorMatrix type="matrix" values="0 0 0 0 0.1 0 0 0 0 0.15 0 0 0 0 0.3 0 0 0 1 0"/>
<feBlend mode="normal" in2="BackgroundImageFix" result="effect1_dropShadow"/>
<feBlend mode="normal" in="SourceGraphic" in2="effect1_dropShadow" result="shape"/>
</filter>
<filter id="filter38_d" x="50" y="174" width="20" height="20" filterUnits="userSpaceOnUse" color-interpolation-filters="sRGB">
<feFlood flood-opacity="0" result="BackgroundImageFix"/>
<feColorMatrix in="SourceAlpha" type="matrix" values="0 0 0 0 0 0 0 0 0 0 0 0 0 0 0 0 0 0 127 0"/>
<feOffset dx="3" dy="3"/>
<feGaussianBlur stdDeviation="1"/>
<feColorMatrix type="matrix" values="0 0 0 0 0.1 0 0 0 0 0.15 0 0 0 0 0.3 0 0 0 1 0"/>
<feBlend mode="normal" in2="BackgroundImageFix" result="effect1_dropShadow"/>
<feBlend mode="normal" in="SourceGraphic" in2="effect1_dropShadow" result="shape"/>
</filter>
<filter id="filter39_d" x="119" y="149" width="20" height="20" filterUnits="userSpaceOnUse" color-interpolation-filters="sRGB">
<feFlood flood-opacity="0" result="BackgroundImageFix"/>
<feColorMatrix in="SourceAlpha" type="matrix" values="0 0 0 0 0 0 0 0 0 0 0 0 0 0 0 0 0 0 127 0"/>
<feOffset dx="3" dy="3"/>
<feGaussianBlur stdDeviation="1"/>
<feColorMatrix type="matrix" values="0 0 0 0 0.1 0 0 0 0 0.15 0 0 0 0 0.3 0 0 0 1 0"/>
<feBlend mode="normal" in2="BackgroundImageFix" result="effect1_dropShadow"/>
<feBlend mode="normal" in="SourceGraphic" in2="effect1_dropShadow" result="shape"/>
</filter>
<filter id="filter40_d" x="77" y="277" width="13" height="13" filterUnits="userSpaceOnUse" color-interpolation-filters="sRGB">
<feFlood flood-opacity="0" result="BackgroundImageFix"/>
<feColorMatrix in="SourceAlpha" type="matrix" values="0 0 0 0 0 0 0 0 0 0 0 0 0 0 0 0 0 0 127 0"/>
<feOffset dx="3" dy="3"/>
<feGaussianBlur stdDeviation="1"/>
<feColorMatrix type="matrix" values="0 0 0 0 0.1 0 0 0 0 0.15 0 0 0 0 0.3 0 0 0 1 0"/>
<feBlend mode="normal" in2="BackgroundImageFix" result="effect1_dropShadow"/>
<feBlend mode="normal" in="SourceGraphic" in2="effect1_dropShadow" result="shape"/>
</filter>
<filter id="filter41_d" x="517" y="459" width="57" height="57" filterUnits="userSpaceOnUse" color-interpolation-filters="sRGB">
<feFlood flood-opacity="0" result="BackgroundImageFix"/>
<feColorMatrix in="SourceAlpha" type="matrix" values="0 0 0 0 0 0 0 0 0 0 0 0 0 0 0 0 0 0 127 0"/>
<feOffset dx="5" dy="5"/>
<feGaussianBlur stdDeviation="1"/>
<feColorMatrix type="matrix" values="0 0 0 0 0.1 0 0 0 0 0.15 0 0 0 0 0.3 0 0 0 1 0"/>
<feBlend mode="normal" in2="BackgroundImageFix" result="effect1_dropShadow"/>
<feBlend mode="normal" in="SourceGraphic" in2="effect1_dropShadow" result="shape"/>
</filter>
<filter id="filter42_d" x="404" y="49" width="67" height="67" filterUnits="userSpaceOnUse" color-interpolation-filters="sRGB">
<feFlood flood-opacity="0" result="BackgroundImageFix"/>
<feColorMatrix in="SourceAlpha" type="matrix" values="0 0 0 0 0 0 0 0 0 0 0 0 0 0 0 0 0 0 127 0"/>
<feOffset dx="5" dy="5"/>
<feGaussianBlur stdDeviation="1"/>
<feColorMatrix type="matrix" values="0 0 0 0 0.1 0 0 0 0 0.15 0 0 0 0 0.3 0 0 0 1 0"/>
<feBlend mode="normal" in2="BackgroundImageFix" result="effect1_dropShadow"/>
<feBlend mode="normal" in="SourceGraphic" in2="effect1_dropShadow" result="shape"/>
</filter>
</defs>
</svg>
