<svg width="341" height="476" viewBox="0 0 341 476" fill="none" xmlns="http://www.w3.org/2000/svg">
<path d="M23.6484 214.249V261.157H47.2276L37.4029 459.679H74.0816L88.4911 440.413L97.6608 261.157H262.06L252.89 460.517H288.914L303.978 440.413L312.493 261.157H324.283L336.727 243.567V194.983H315.768L325.593 4L289.569 4.83765L273.194 24.1035L264.68 196.659H100.936L110.105 4.83765H74.7366L58.3622 24.1035L49.8475 196.659H38.0579L23.6484 214.249Z" fill="#45FFF4" stroke="#263B73" stroke-width="7"/>
<path d="M4 225.976V272.884H27.5792L17.7545 471.406H54.4332L68.8427 452.141L78.0123 272.884H242.411L233.242 472.244H269.265L284.33 452.141L292.845 272.884H304.634L317.079 255.294V206.71H296.12L305.944 15.7271L269.92 16.5647L253.546 35.8305L245.031 208.386H81.2872L90.4569 16.5647H55.0882L38.7138 35.8305L30.1991 208.386H18.4095L4 225.976Z" fill="#45FFF4" stroke="#263B73" stroke-width="7"/>
<path d="M289 5L269 16.5L305.944 15.727L328 3.5L289 5Z" fill="#45FFF4" stroke="#263B73" stroke-width="7"/>
<path d="M74 5.5L54 17L90.9442 16.227L113 4L74 5.5Z" fill="#45FFF4" stroke="#263B73" stroke-width="7"/>
<path d="M81.2871 208.385L101.591 196.658" stroke="#263B73" stroke-width="7"/>
<path d="M296.119 206.71L316.423 194.983" stroke="#263B73" stroke-width="7"/>
<path d="M296.119 206.71L316.423 194.983" stroke="#263B73" stroke-width="7"/>
<path d="M317.078 206.71L337.382 194.983" stroke="#263B73" stroke-width="7"/>
<path d="M336.729 243.567L317.079 255.294L304.635 272.884L324.284 261.157L336.729 243.567Z" fill="#45FFF4" stroke="#263B73" stroke-width="7"/>
<path d="M303.979 440.413L284.33 452.14L269.266 472.244L288.915 460.517L303.979 440.413Z" fill="#45FFF4" stroke="#263B73" stroke-width="7"/>
<path d="M88.4911 439.576L68.8418 451.303L53.7773 471.406L73.4266 459.679L88.4911 439.576Z" fill="#45FFF4" stroke="#263B73" stroke-width="7"/>
</svg>
