<svg width="339" height="474" viewBox="0 0 339 474" fill="none" xmlns="http://www.w3.org/2000/svg">
<path d="M22.6484 213.249V260.157H46.2276L36.4029 458.679H73.0816L87.4911 439.413L96.6608 260.157H261.06L251.89 459.517H287.914L302.978 439.413L311.493 260.157H323.283L335.727 242.567V193.983H314.768L324.593 3L288.569 3.83765L272.194 23.1035L263.68 195.659H99.9357L109.105 3.83765H73.7366L57.3622 23.1035L48.8475 195.659H37.0579L22.6484 213.249Z" fill="#45FFF4" stroke="#263B73" stroke-width="5"/>
<path d="M3 224.976V271.884H26.5792L16.7545 470.406H53.4332L67.8427 451.141L77.0123 271.884H241.411L232.242 471.244H268.265L283.33 451.141L291.845 271.884H303.634L316.079 254.294V205.71H295.12L304.944 14.7271L268.92 15.5647L252.546 34.8305L244.031 207.386H80.2872L89.4569 15.5647H54.0882L37.7138 34.8305L29.1991 207.386H17.4095L3 224.976Z" fill="#45FFF4" stroke="#263B73" stroke-width="5"/>
<path d="M73.7372 3.83765L56.5 15.5647H88.8016L105.5 3.83765H73.7372Z" fill="#45FFF4" stroke="#263B73" stroke-width="5"/>
<path d="M289.88 3L273.5 14.727H304.944L320.5 3H289.88Z" fill="#45FFF4" stroke="#263B73" stroke-width="5"/>
<path d="M80.2871 207.385L100.591 195.658" stroke="#263B73" stroke-width="5"/>
<path d="M295.119 205.71L315.423 193.983" stroke="#263B73" stroke-width="5"/>
<path d="M295.119 205.71L315.423 193.983" stroke="#263B73" stroke-width="5"/>
<path d="M316.078 205.71L336.382 193.983" stroke="#263B73" stroke-width="5"/>
<path d="M335.729 242.567L316.079 254.294L303.635 271.884L323.284 260.157L335.729 242.567Z" fill="#45FFF4" stroke="#263B73" stroke-width="5"/>
<path d="M302.979 439.413L283.33 451.14L268.266 471.244L287.915 459.517L302.979 439.413Z" fill="#45FFF4" stroke="#263B73" stroke-width="5"/>
<path d="M87.4911 438.576L67.8418 450.303L52.7773 470.406L72.4266 458.679L87.4911 438.576Z" fill="#45FFF4" stroke="#263B73" stroke-width="5"/>
</svg>
