<?xml version="1.0"?>
<svg xmlns="http://www.w3.org/2000/svg" height="512px" viewBox="0 0 64 64" width="512px"><g><g id="Save_box" data-name="Save box"><path d="m50 41v-5a2 2 0 0 1 2-2v-10a2 2 0 0 1 -2-2v-5a2 2 0 0 1 2-2v-5h-42v38h42v-5a2 2 0 0 1 -2-2zm-29-3a9 9 0 1 1 9-9 9.01 9.01 0 0 1 -9 9z" data-original="#000000" class="active-path" data-old_color="#000000" fill="#45fff4"/><path d="m52 36h2v5h-2z" data-original="#000000" class="active-path" data-old_color="#000000" fill="#45fff4"/><path d="m24.83 25.634 1.662-.96a7.029 7.029 0 0 0 -1.166-1.166l-.96 1.662-1.732-1 .961-1.665a6.919 6.919 0 0 0 -1.595-.425v1.92h-2v-1.92a6.919 6.919 0 0 0 -1.595.425l.961 1.665-1.732 1-.96-1.662a7.067 7.067 0 0 0 -1.166 1.166l1.662.96-1 1.732-1.67-.961a6.968 6.968 0 0 0 -.42 1.595h1.92v2h-1.92a6.968 6.968 0 0 0 .42 1.6l1.666-.961 1 1.732-1.662.96a7.067 7.067 0 0 0 1.166 1.166l.96-1.662 1.732 1-.961 1.665a6.919 6.919 0 0 0 1.599.42v-1.92h2v1.92a6.919 6.919 0 0 0 1.595-.425l-.961-1.665 1.732-1 .96 1.662a7.029 7.029 0 0 0 1.166-1.166l-1.662-.96 1-1.732 1.67.966a6.968 6.968 0 0 0 .42-1.6h-1.92v-2h1.92a6.968 6.968 0 0 0 -.424-1.595l-1.666.961zm-3.83 6.366a3 3 0 1 1 3-3 3 3 0 0 1 -3 3z" data-original="#000000" class="active-path" data-old_color="#000000" fill="#45fff4"/><circle cx="21" cy="29" r="1" data-original="#000000" class="active-path" data-old_color="#000000" fill="#45fff4"/><path d="m10 56h6v4h-6z" data-original="#000000" class="active-path" data-old_color="#000000" fill="#45fff4"/><path d="m48 56h6v4h-6z" data-original="#000000" class="active-path" data-old_color="#000000" fill="#45fff4"/><path d="m60 7a3 3 0 0 0 -3-3h-50a3 3 0 0 0 -3 3v44a3 3 0 0 0 3 3h50a3 3 0 0 0 3-3zm-4 15a2 2 0 0 1 -2 2v10a2 2 0 0 1 2 2v5a2 2 0 0 1 -2 2v6a1 1 0 0 1 -1 1h-44a1 1 0 0 1 -1-1v-40a1 1 0 0 1 1-1h44a1 1 0 0 1 1 1v6a2 2 0 0 1 2 2z" data-original="#000000" class="active-path" data-old_color="#000000" fill="#45fff4"/><path d="m52 17h2v5h-2z" data-original="#000000" class="active-path" data-old_color="#000000" fill="#45fff4"/></g></g> </svg>
