<svg width="75" height="75" viewBox="0 0 75 75" fill="none" xmlns="http://www.w3.org/2000/svg">
<path d="M74.5 74.5H0.5V20.0945L20.0944 0.5H74.5V74.5Z" fill="url(#paint0_radial)" stroke="#45FFF4"/>
<mask id="path-3-inside-1" fill="white">
<path fill-rule="evenodd" clip-rule="evenodd" d="M52.9105 24.6198L26.5576 52.7448L25.0898 51.3802L51.4426 23.2552L52.9105 24.6198Z"/>
<path d="M23 25C23 23.8954 23.8989 23 25.0078 23H32.2862C33.3951 23 34.2941 23.8954 34.2941 25V32.25C34.2941 33.3546 33.3951 34.25 32.2862 34.25H25.0078C23.8989 34.25 23 33.3546 23 32.25V25Z"/>
<path d="M43.7059 43.75C43.7059 42.6454 44.6049 41.75 45.7138 41.75H52.9922C54.1011 41.75 55 42.6454 55 43.75V51C55 52.1046 54.1011 53 52.9922 53H45.7138C44.6049 53 43.7059 52.1046 43.7059 51V43.75Z"/>
</mask>
<path d="M52.9105 24.6198L54.3699 25.9873C54.7335 25.5992 54.9276 25.0824 54.9093 24.5509C54.8909 24.0194 54.6617 23.5171 54.2722 23.155L52.9105 24.6198ZM26.5576 52.7448L25.1958 54.2096C26.0026 54.9596 27.2639 54.9161 28.0171 54.1123L26.5576 52.7448ZM25.0898 51.3802L23.6303 50.0127C23.2667 50.4008 23.0726 50.9176 23.091 51.4491C23.1093 51.9806 23.3385 52.4829 23.728 52.845L25.0898 51.3802ZM51.4426 23.2552L52.8044 21.7904C51.9977 21.0404 50.7363 21.0839 49.9832 21.8877L51.4426 23.2552ZM23.728 52.845L25.1958 54.2096L27.9194 51.28L26.4516 49.9154L23.728 52.845ZM54.2722 23.155L52.8044 21.7904L50.0808 24.72L51.5487 26.0846L54.2722 23.155ZM28.0171 54.1123L54.3699 25.9873L51.451 23.2523L25.0982 51.3773L28.0171 54.1123ZM49.9832 21.8877L23.6303 50.0127L26.5492 52.7477L52.9021 24.6227L49.9832 21.8877ZM25.0078 25H32.2862V21H25.0078V25ZM32.2941 25V32.25H36.2941V25H32.2941ZM32.2862 32.25H25.0078V36.25H32.2862V32.25ZM25 32.25V25H21V32.25H25ZM25.0078 32.25C25.0059 32.25 25.0046 32.2499 25.0038 32.2498C25.0031 32.2498 25.0027 32.2497 25.0026 32.2497C25.0025 32.2496 25.0027 32.2497 25.0028 32.2497C25.0029 32.2497 25.0025 32.2496 25.0018 32.2492C25.0011 32.2487 25.0003 32.248 24.9995 32.2472C24.9977 32.2454 24.9979 32.2448 24.9987 32.2468C24.9992 32.2479 24.9996 32.2493 24.9999 32.2506C25.0002 32.2521 25 32.2521 25 32.25H21C21 34.4665 22.8017 36.25 25.0078 36.25V32.25ZM32.2941 32.25C32.2941 32.2521 32.2939 32.2521 32.2942 32.2506C32.2945 32.2493 32.2949 32.2479 32.2954 32.2468C32.2962 32.2448 32.2964 32.2454 32.2945 32.2472C32.2938 32.248 32.2929 32.2487 32.2922 32.2492C32.2916 32.2496 32.2912 32.2497 32.2913 32.2497C32.2914 32.2497 32.2915 32.2496 32.2914 32.2497C32.2913 32.2497 32.291 32.2498 32.2902 32.2498C32.2895 32.2499 32.2882 32.25 32.2862 32.25V36.25C34.4923 36.25 36.2941 34.4665 36.2941 32.25H32.2941ZM32.2862 25C32.2882 25 32.2895 25.0001 32.2902 25.0002C32.291 25.0002 32.2913 25.0003 32.2914 25.0003C32.2915 25.0004 32.2914 25.0003 32.2913 25.0003C32.2912 25.0003 32.2916 25.0004 32.2922 25.0008C32.2929 25.0013 32.2938 25.002 32.2945 25.0028C32.2964 25.0046 32.2962 25.0052 32.2954 25.0032C32.2949 25.0021 32.2945 25.0007 32.2942 24.9994C32.2939 24.9979 32.2941 24.9979 32.2941 25H36.2941C36.2941 22.7835 34.4923 21 32.2862 21V25ZM25.0078 21C22.8017 21 21 22.7835 21 25H25C25 24.9979 25.0002 24.9979 24.9999 24.9994C24.9996 25.0007 24.9992 25.0021 24.9987 25.0032C24.9979 25.0052 24.9977 25.0046 24.9995 25.0028C25.0003 25.002 25.0011 25.0013 25.0018 25.0008C25.0025 25.0004 25.0029 25.0003 25.0028 25.0003C25.0027 25.0003 25.0025 25.0004 25.0026 25.0003C25.0027 25.0003 25.0031 25.0002 25.0038 25.0002C25.0046 25.0001 25.0059 25 25.0078 25V21ZM45.7138 43.75H52.9922V39.75H45.7138V43.75ZM53 43.75V51H57V43.75H53ZM52.9922 51H45.7138V55H52.9922V51ZM45.7059 51V43.75H41.7059V51H45.7059ZM45.7138 51C45.7118 51 45.7105 50.9999 45.7098 50.9998C45.709 50.9998 45.7087 50.9997 45.7086 50.9997C45.7085 50.9996 45.7086 50.9997 45.7087 50.9997C45.7088 50.9997 45.7084 50.9996 45.7078 50.9992C45.7071 50.9987 45.7062 50.998 45.7055 50.9972C45.7036 50.9954 45.7038 50.9948 45.7046 50.9968C45.7051 50.9979 45.7055 50.9993 45.7058 51.0006C45.7061 51.0021 45.7059 51.0021 45.7059 51H41.7059C41.7059 53.2165 43.5077 55 45.7138 55V51ZM53 51C53 51.0021 52.9998 51.0021 53.0001 51.0006C53.0004 50.9993 53.0008 50.9979 53.0013 50.9968C53.0021 50.9948 53.0023 50.9954 53.0005 50.9972C52.9997 50.998 52.9989 50.9987 52.9982 50.9992C52.9975 50.9996 52.9971 50.9997 52.9972 50.9997C52.9973 50.9997 52.9975 50.9996 52.9974 50.9997C52.9973 50.9997 52.9969 50.9998 52.9962 50.9998C52.9954 50.9999 52.9941 51 52.9922 51V55C55.1982 55 57 53.2165 57 51H53ZM52.9922 43.75C52.9941 43.75 52.9954 43.7501 52.9962 43.7502C52.9969 43.7502 52.9973 43.7503 52.9974 43.7503C52.9975 43.7504 52.9973 43.7503 52.9972 43.7503C52.9971 43.7503 52.9975 43.7504 52.9982 43.7508C52.9989 43.7513 52.9997 43.752 53.0005 43.7528C53.0023 43.7546 53.0021 43.7552 53.0013 43.7532C53.0008 43.7521 53.0004 43.7507 53.0001 43.7494C52.9998 43.7479 53 43.7479 53 43.75H57C57 41.5335 55.1982 39.75 52.9922 39.75V43.75ZM45.7138 39.75C43.5077 39.75 41.7059 41.5335 41.7059 43.75H45.7059C45.7059 43.7479 45.7061 43.7479 45.7058 43.7494C45.7055 43.7507 45.7051 43.7521 45.7046 43.7532C45.7038 43.7552 45.7036 43.7546 45.7055 43.7528C45.7062 43.752 45.7071 43.7513 45.7078 43.7508C45.7084 43.7504 45.7088 43.7503 45.7087 43.7503C45.7086 43.7503 45.7085 43.7504 45.7086 43.7503C45.7087 43.7503 45.709 43.7502 45.7098 43.7502C45.7105 43.7501 45.7118 43.75 45.7138 43.75V39.75Z" fill="#45FFF4" mask="url(#path-3-inside-1)"/>
<defs>
<radialGradient id="paint0_radial" cx="0" cy="0" r="1" gradientUnits="userSpaceOnUse" gradientTransform="translate(37.5 37.5) rotate(90) scale(37.5)">
<stop offset="0.234375" stop-color="#07646E"/>
<stop offset="1" stop-color="#0F5266"/>
</radialGradient>
</defs>
</svg>
