<svg width="75" height="75" viewBox="0 0 75 75" fill="none" xmlns="http://www.w3.org/2000/svg">
<path d="M74.5 74.5H0.5V20.0945L20.0945 0.5H74.5V74.5Z" fill="url(#paint0_radial)" stroke="#45FFF4"/>
<path d="M21.052 35.2708C21.052 34.7186 21.4997 34.2708 22.052 34.2708H27.2187C27.771 34.2708 28.2187 34.7186 28.2187 35.2708V50.4375C28.2187 50.9898 27.771 51.4375 27.2187 51.4375H22.052C21.4997 51.4375 21.052 50.9898 21.052 50.4375V35.2708ZM34.3855 30.2708C34.3855 29.7185 34.8332 29.2708 35.3855 29.2708H40.5522C41.1045 29.2708 41.5522 29.7185 41.5522 30.2708V50.4375C41.5522 50.9898 41.1045 51.4375 40.5522 51.4375H35.3855C34.8332 51.4375 34.3855 50.9898 34.3855 50.4375V30.2708ZM47.7187 24.4375C47.7187 23.8852 48.1664 23.4375 48.7187 23.4375H53.8853C54.4376 23.4375 54.8853 23.8852 54.8853 24.4375V50.4375C54.8853 50.9898 54.4376 51.4375 53.8853 51.4375H48.7187C48.1664 51.4375 47.7187 50.9898 47.7187 50.4375V24.4375Z" stroke="#45FFF4" stroke-width="2"/>
<defs>
<radialGradient id="paint0_radial" cx="0" cy="0" r="1" gradientUnits="userSpaceOnUse" gradientTransform="translate(37.5 37.5) rotate(90) scale(37.5)">
<stop offset="0.234375" stop-color="#07646E"/>
<stop offset="1" stop-color="#0F5266"/>
</radialGradient>
</defs>
</svg>
