<svg width="75" height="75" viewBox="0 0 75 75" fill="none" xmlns="http://www.w3.org/2000/svg">
<path d="M0.5 74.5V20.0945L20.0945 0.5H74.5V74.5H0.5Z" fill="url(#paint0_radial)" stroke="#45FFF4"/>
<path d="M27 54.93C37.6402 56.0278 27 54.93 37.6402 56.0278C45.4141 54.93 37.6402 56.0278 45.4141 54.93C45.4141 56.0278 45.4141 56.0278 47.7266 56.0278H55.863C58.3608 55.9608 58.3608 55.9608 58.3608 53.1806C58.3608 50.8358 57.9949 50.8895 57.5877 50.8895C57.9536 50.8763 58.3608 50.8358 58.3608 48.7359C58.3608 46.7119 57.9536 46.7789 57.5877 46.7789C57.9536 46.7789 58.3608 46.7966 58.3608 44.6566C58.3608 42.5166 57.9535 42.6683 57.5877 42.6683C57.9535 42.6683 58.3608 42.6013 58.3608 40.546C58.3608 37.5448 58.3608 37.4778 55.863 37.5301H47.7266C47.6283 37.5301 47.5312 37.5352 47.4353 37.5448C47.2519 35.9015 45.2368 35.2481 43.9297 34.4447C44.5084 34.4447 44.7007 34.4447 44.7007 32.3918C44.7007 29.6059 44.5084 29.6059 42.9694 29.6059L44.651 24.3523C44.7511 24.0392 44.698 23.6964 44.5084 23.4301C44.3185 23.1636 44.0151 23.0059 43.692 23.0059H40.4927C39.0149 22.9926 38.9551 23.0059 37.6402 23.0059C36.325 23.0059 36.4149 23.0059 34.7871 23.0059H31.5883C31.2652 23.0059 30.9619 23.1636 30.7719 23.4301C30.5823 23.6964 30.5292 24.0392 30.6293 24.3523L32.3109 29.6059C30.5797 29.6059 30.5797 29.6059 30.5797 32.3918C30.5797 34.4447 30.7719 34.446 31.3517 34.446C27.0079 36.9336 27 36.9336 27 46.7789C27 50.3144 27 50.3511 27 54.93ZM56.3653 44.7236C56.3653 45.2902 56.419 45.7513 55.863 45.7513H47.7266C47.1705 45.7513 47.2519 45.2902 47.2519 44.7236C47.2519 44.1571 47.1705 43.696 47.7266 43.696H55.863C56.419 43.696 56.3653 44.1571 56.3653 44.7236ZM56.3653 48.8029C56.3653 49.3695 56.419 49.8619 55.863 49.8619H47.7266C47.1705 49.8619 47.2519 49.4008 47.2519 48.8342C47.2519 48.2677 47.1705 47.8066 47.7266 47.8066H55.863C56.419 47.8066 56.3653 48.2364 56.3653 48.8029ZM55.863 53.9725H47.7266C47.1705 53.9725 47.2519 53.5743 47.2519 53.0077C47.2519 52.4412 47.1705 51.9172 47.7266 51.9172H55.863C56.419 51.9172 56.3653 52.3783 56.3653 52.9448C56.3653 53.5114 56.419 53.9725 55.863 53.9725ZM56.3653 40.613C56.3653 41.1796 56.419 41.6407 55.863 41.6407H47.7266C47.1705 41.6407 47.2519 41.1126 47.2519 40.546C47.2519 39.9795 47.1705 39.5854 47.7266 39.5854H55.863C56.419 39.5854 56.3653 40.0465 56.3653 40.613ZM41.6458 33.4195H33.6348C33.6258 33.4192 33.6169 33.4195 33.608 33.4195H33.6056C32.597 33.4195 32.597 33.4192 32.597 32.3918C32.597 31.3644 32.597 31.3642 33.6024 31.3644H33.6053C33.6077 31.3644 33.6101 31.3642 33.6124 31.3642H41.6676C41.67 31.3642 41.6726 31.3644 41.675 31.3644H41.6779C42.6834 31.3642 42.6834 31.3644 42.6834 32.3918C42.6834 33.4192 42.6834 33.4195 41.6747 33.4195H41.6716C41.6632 33.4195 41.6545 33.4192 41.6458 33.4195ZM35.6229 25.0612C36.18 25.0612 36.893 24.9199 36.893 24.3523C40.9276 25.38 43.5874 24.8481 40.2402 23.3866C40.7963 23.3866 38.6488 23.4671 38.6488 24.0336L37.3712 23.4301C37.3712 23.9977 35.0658 25.0612 35.6229 25.0612C36.18 25.0612 43.1092 25.0612 42.3022 25.0612L40.9427 29.3089H34.3377L32.9781 25.0612H35.6229ZM33.8023 35.4748H41.4741C43.3608 35.5893 44.572 36.2236 45.733 37.5448C45.2188 37.5448 45.2222 37.9657 45.2188 40.546C45.2161 42.6683 45.4815 42.6683 45.733 42.6683C45.4782 42.6683 45.2188 42.6683 45.2188 44.7236C45.2188 46.7789 45.4782 46.7789 45.733 46.7789C45.4782 46.7789 45.2188 46.7789 45.2188 48.8342C45.2188 50.8895 45.5229 50.9087 45.733 50.8895C45.4782 50.8895 45.2188 50.8895 45.2188 53.0077L37.6402 53.9725C29.0173 53.0077 37.6402 53.9725 29.0173 53.0077C29.0173 49.8619 29.0173 49.5742 29.0173 46.7789C29.0173 41.9318 28.4255 36.4175 33.8023 35.4748Z" fill="#45FFF4"/>
<defs>
<radialGradient id="paint0_radial" cx="0" cy="0" r="1" gradientUnits="userSpaceOnUse" gradientTransform="translate(37.5 37.5) rotate(90) scale(37.5)">
<stop offset="0.234375" stop-color="#07646E"/>
<stop offset="1" stop-color="#0F5266"/>
</radialGradient>
</defs>
</svg>
