<svg width="59" height="60" viewBox="0 0 59 60" fill="none" xmlns="http://www.w3.org/2000/svg">
<path fill-rule="evenodd" clip-rule="evenodd" d="M48.0459 12.3945L46.428 14.0161C54.4295 22.787 54.4295 36.2291 46.428 44.9999L48.0459 46.6216C56.9512 36.9443 56.9512 22.0345 48.0459 12.3567V12.3945Z" fill="#45FFF4"/>
<path fill-rule="evenodd" clip-rule="evenodd" d="M14.0162 12.5353C22.7668 4.51478 36.178 4.51478 44.9286 12.5353L46.5465 10.9137C36.891 1.98775 22.0161 1.98775 12.3606 10.9137L14.0162 12.5353Z" fill="#45FFF4"/>
<path fill-rule="evenodd" clip-rule="evenodd" d="M12.5064 45.0162C4.51458 36.2475 4.51458 22.8173 12.5064 14.0486L10.8885 12.427C1.98313 22.1048 1.98313 37.014 10.8885 46.6919L12.5064 45.0162Z" fill="#45FFF4"/>
<path fill-rule="evenodd" clip-rule="evenodd" d="M44.9126 46.5132C36.162 54.5337 22.7508 54.5337 14.0002 46.5132L12.3823 48.1348C22.0379 57.0608 36.9127 57.0608 46.5683 48.1348L44.9126 46.5132Z" fill="#45FFF4"/>
<path fill-rule="evenodd" clip-rule="evenodd" d="M34.364 25.3999C34.364 28.6432 29.3054 28.2486 27.6983 28.2486V22.5351C29.3054 22.5351 34.364 22.0269 34.364 25.3999ZM35.6853 34.2702C35.6853 37.8161 29.6236 37.4107 27.6929 37.4107V31.1188C29.6236 31.1242 35.6853 30.5675 35.6853 34.2702ZM39.6761 24.1188C39.3525 20.7351 36.4403 19.5999 32.7569 19.254V14.5891H29.9094V19.1621C29.1598 19.1621 28.394 19.1621 27.6336 19.1891V14.5891H24.8023V19.281H22.9903H19.0318V22.3351C19.0318 22.3351 21.1351 22.2972 21.1027 22.3351C21.8912 22.248 22.6063 22.8026 22.7206 23.5891V36.4378C22.6861 36.9951 22.2078 37.4183 21.6517 37.3842C21.6485 37.3842 21.6453 37.3842 21.642 37.3837C21.6798 37.4161 19.5711 37.3837 19.5711 37.3837L19.0049 40.7945H22.7152H24.7538V45.5621H27.6013V40.8648H29.8771V45.5405H32.7299V40.827C37.5405 40.5351 40.8949 39.3459 41.3155 34.8324C41.6553 31.1999 39.9511 29.5783 37.2277 28.9242C38.8833 28.081 39.9241 26.5945 39.6761 24.1188Z" fill="#45FFF4"/>
<mask id="mask0" mask-type="alpha" maskUnits="userSpaceOnUse" x="0" y="0" width="59" height="60">
<path d="M0 0H58.9234V59.0595H0V0Z" fill="white"/>
</mask>
<g mask="url(#mask0)">
<path fill-rule="evenodd" clip-rule="evenodd" d="M29.4563 2.3027C14.4628 2.31189 2.3152 14.5016 2.32436 29.5297C2.33353 44.5578 14.4952 56.7335 29.4887 56.7243C44.4719 56.7157 56.6147 44.5416 56.6206 29.5243C56.6028 14.4984 44.4476 2.32487 29.4563 2.31892V2.3027ZM29.4563 59.0595C13.1852 59.0568 -0.00323518 45.8335 5.95292e-07 29.5243C0.00323637 13.2151 13.196 -0.00324265 29.4671 5.96691e-07C45.7344 0.00324384 58.9207 13.2195 58.9234 29.5243C58.9056 45.8287 45.7231 59.0416 29.4563 59.0595Z" fill="#45FFF4"/>
</g>
</svg>
