<svg width="512" height="512" viewBox="0 0 512 512" fill="none" xmlns="http://www.w3.org/2000/svg">
<path d="M151.228 128.003C164.483 128.003 175.229 117.258 175.229 104.003C175.229 90.7474 164.483 80.002 151.228 80.002C137.973 80.002 127.228 90.7474 127.228 104.003C127.228 117.258 137.973 128.003 151.228 128.003Z" fill="#45FFF4"/>
<path d="M283.054 269.189L242.81 228.945L14.5091 457.246C8.47993 463.275 8.47993 473.05 14.5091 479.079L32.9195 497.49C38.9486 503.519 48.7239 503.519 54.753 497.49L283.054 269.189Z" fill="#DEFEFE"/>
<path d="M266.272 245.727L163.968 229.753C149.525 227.498 146.446 208.058 159.484 201.45L251.846 154.644L235.397 52.2394C233.082 37.8241 250.582 28.8829 260.906 39.2071L334.246 112.547L426.25 65.4928C439.254 58.8416 453.158 72.7459 446.507 85.7502L399.453 177.754L472.793 251.094C483.117 261.418 474.176 278.919 459.761 276.603L357.355 260.153L310.549 352.515C303.942 365.553 284.501 362.474 282.246 348.031L266.272 245.727Z" fill="#45FFF4"/>
<path d="M477.743 241.9C475.266 239.422 445.5 210 445.5 210C445.5 210 439.032 215.573 437.604 217C436.209 218.396 430.5 223 430.5 223C430.5 223 461.089 253.531 463.598 256.041L465.721 258.164C468.068 260.511 467.152 263.053 466.649 264.037C466.146 265.021 464.625 267.249 461.346 266.728L358.941 250.279C354.648 249.591 350.401 251.754 348.435 255.632L301.629 347.992C300.127 350.956 297.424 350.872 296.33 350.699C295.237 350.526 292.64 349.769 292.127 346.487L276.151 244.183C275.48 239.887 272.11 236.516 267.814 235.846L165.51 219.871C162.228 219.359 161.471 216.761 161.298 215.668C161.125 214.575 161.042 211.871 164.005 210.37L256.365 163.564C260.244 161.598 262.408 157.352 261.718 153.058L245.271 50.6524C244.745 47.3763 246.978 45.8533 247.962 45.3503C248.947 44.8483 251.49 43.9333 253.834 46.2773L327.173 119.617C330.242 122.685 334.938 123.423 338.799 121.449L430.803 74.395C433.757 72.8839 435.896 74.539 436.678 75.321C437.459 76.103 439.116 78.2411 437.604 81.1961L390.55 173.2C388.575 177.062 389.315 181.757 392.382 184.826L399.958 192.402C402.532 194.975 430.5 223 430.5 223C430.5 223 436.271 218.332 437.604 217C438.872 215.732 445.5 210 445.5 210C445.5 210 416.739 180.896 414.102 178.258L411.67 175.828L455.41 90.3023C460.454 80.4421 458.652 69.0098 450.819 61.1777C442.988 53.3455 431.554 51.5444 421.695 56.5875L336.171 100.329L267.977 32.135C260.149 24.3058 248.722 22.5027 238.862 27.5399C229.004 32.577 223.768 42.8942 225.524 53.8245L240.814 149.023L154.964 192.53C145.078 197.54 139.811 207.85 141.544 218.797C143.277 229.745 151.474 237.923 162.425 239.633L210.476 247.136L7.43792 450.175C-2.47931 460.093 -2.47931 476.231 7.43792 486.151L25.8494 504.561C30.8085 509.52 37.3226 511.999 43.8358 511.999C50.3509 511.999 56.8641 509.52 61.8242 504.561L264.863 301.522L272.366 349.574C274.075 360.525 282.254 368.721 293.201 370.455C294.587 370.675 295.961 370.782 297.317 370.782C306.671 370.781 315.092 365.67 319.468 357.035L362.975 271.185L458.173 286.475C469.105 288.232 479.421 282.996 484.457 273.137C489.494 263.278 487.69 251.849 479.863 244.022L477.743 241.9ZM128.092 410.009H75.8885L157.89 328.007H210.093L128.092 410.009ZM47.6829 490.418C45.5628 492.536 42.1117 492.538 39.9917 490.418L21.5813 472.008C19.4612 469.887 19.4612 466.437 21.5813 464.317L75.8885 410.009H128.092L47.6829 490.418ZM210.093 328.007H157.89L234.941 250.956L257.518 254.481L261.043 277.057L210.093 328.007Z" fill="#2D5286"/>
<path d="M423.665 335.89H416.665V328.89C416.665 323.368 412.186 318.89 406.664 318.89C401.142 318.89 396.664 323.368 396.664 328.89V335.89H389.664C384.142 335.89 379.664 340.368 379.664 345.89C379.664 351.412 384.142 355.891 389.664 355.891H396.664V362.891C396.664 368.413 401.142 372.891 406.664 372.891C412.186 372.891 416.665 368.413 416.665 362.891V355.891H423.665C429.187 355.891 433.665 351.412 433.665 345.89C433.665 340.368 429.187 335.89 423.665 335.89Z" fill="#2D5286"/>
<path d="M328.995 37.0009H335.996V44.001C335.996 49.5242 340.474 54.0013 345.996 54.0013C351.518 54.0013 355.996 49.5242 355.996 44.001V37.0009H362.996C368.518 37.0009 372.997 32.5238 372.997 27.0006C372.997 21.4775 368.518 17.0004 362.996 17.0004H355.996V10.0002C355.996 4.47711 351.518 0 345.996 0C340.474 0 335.996 4.47711 335.996 10.0002V17.0004H328.995C323.473 17.0004 318.995 21.4775 318.995 27.0006C318.995 32.5238 323.472 37.0009 328.995 37.0009Z" fill="#2D5286"/>
<path d="M151.228 138.003C169.977 138.003 185.229 122.751 185.229 104.002C185.229 85.2538 169.977 70.0015 151.228 70.0015C132.48 70.0015 117.227 85.2538 117.227 104.002C117.227 122.751 132.48 138.003 151.228 138.003ZM151.228 90.0019C158.948 90.0019 165.229 96.2821 165.229 104.002C165.229 111.722 158.948 118.003 151.228 118.003C143.508 118.003 137.228 111.722 137.228 104.002C137.228 96.2821 143.508 90.0019 151.228 90.0019Z" fill="#2D5286"/>
<path d="M501.999 164.004C499.369 164.004 496.789 165.074 494.929 166.934C493.069 168.794 491.999 171.374 491.999 174.004C491.999 176.634 493.068 179.214 494.929 181.074C496.79 182.934 499.369 184.004 501.999 184.004C504.629 184.004 507.209 182.934 509.068 181.074C510.928 179.214 511.999 176.634 511.999 174.004C511.999 171.374 510.929 168.794 509.068 166.934C507.209 165.074 504.628 164.004 501.999 164.004Z" fill="#2D5286"/>
<path d="M501.999 20C504.629 20 507.209 18.93 509.068 17.07C510.928 15.21 511.999 12.63 511.999 10C511.999 7.37 510.929 4.79 509.068 2.93C507.209 1.07 504.628 0 501.999 0C499.37 0 496.789 1.07 494.929 2.93C493.069 4.79 491.999 7.37 491.999 10C491.999 12.63 493.068 15.21 494.929 17.07C496.79 18.93 499.369 20 501.999 20Z" fill="#2D5286"/>
<path d="M106.99 37.0005C109.62 37.0005 112.2 35.9305 114.059 34.0705C115.919 32.2105 116.99 29.6305 116.99 27.0005C116.99 24.3705 115.92 21.7905 114.059 19.9305C112.2 18.0705 109.62 17.0005 106.99 17.0005C104.36 17.0005 101.78 18.0705 99.92 19.9305C98.06 21.7905 96.99 24.3705 96.99 27.0005C96.99 29.6305 98.059 32.2105 99.92 34.0705C101.781 35.9305 104.36 37.0005 106.99 37.0005Z" fill="#2D5286"/>
</svg>
