<svg width="512" height="512" viewBox="0 0 512 512" fill="none" xmlns="http://www.w3.org/2000/svg">
<g clip-path="url(#clip0)">
<path d="M151.229 128.003C164.484 128.003 175.229 117.258 175.229 104.003C175.229 90.7474 164.484 80.002 151.229 80.002C137.973 80.002 127.228 90.7474 127.228 104.003C127.228 117.258 137.973 128.003 151.229 128.003Z" fill="#45FFF4"/>
<path d="M283.055 269.189L242.811 228.945L14.5093 457.246C8.4802 463.275 8.4802 473.05 14.5093 479.079L32.9198 497.49C38.9489 503.519 48.7241 503.519 54.7533 497.49L283.055 269.189Z" fill="#DEFEFE"/>
<path d="M51.7452 420.01H132.234L214.236 338.008H133.747L51.7452 420.01Z" fill="#45FFF4"/>
<path d="M266.272 245.727L163.968 229.753C149.526 227.498 146.446 208.058 159.485 201.45L251.846 154.644L235.398 52.2394C233.082 37.8241 250.582 28.8829 260.906 39.2071L334.246 112.547L426.25 65.4928C439.254 58.8416 453.159 72.7459 446.507 85.7502L399.453 177.754L472.793 251.094C483.117 261.418 474.176 278.919 459.761 276.603L357.355 260.153L310.549 352.515C303.942 365.553 284.502 362.474 282.247 348.031L266.272 245.727Z" fill="#FFD24C"/>
<path d="M477.743 241.9C473.839 237.995 467.507 237.994 463.6 241.899C459.695 245.804 459.694 252.135 463.598 256.041L465.721 258.164C468.068 260.511 467.152 263.053 466.649 264.037C466.146 265.021 464.625 267.249 461.346 266.728L358.941 250.279C354.648 249.591 350.401 251.754 348.435 255.632L301.629 347.992C300.127 350.956 297.424 350.872 296.33 350.699C295.237 350.526 292.64 349.769 292.127 346.487L276.151 244.183C275.48 239.887 272.11 236.516 267.814 235.846L165.51 219.871C162.228 219.359 161.471 216.761 161.298 215.668C161.125 214.575 161.042 211.871 164.005 210.37L256.365 163.564C260.244 161.598 262.408 157.352 261.718 153.058L245.271 50.6524C244.746 47.3763 246.978 45.8533 247.962 45.3503C248.947 44.8483 251.49 43.9333 253.834 46.2773L327.174 119.617C330.242 122.685 334.938 123.423 338.799 121.449L430.803 74.395C433.757 72.8839 435.896 74.539 436.678 75.321C437.459 76.103 439.116 78.2411 437.604 81.1961L390.55 173.2C388.575 177.062 389.315 181.757 392.382 184.826L463.598 256.041C467.504 259.946 459.693 245.804 463.6 241.899C467.505 237.994 483.768 247.928 479.863 244.022C453.232 217.391 411.671 175.828 411.671 175.828L455.411 90.3023C460.454 80.4421 458.652 69.0098 450.82 61.1777C442.988 53.3455 431.554 51.5444 421.695 56.5875L336.171 100.329L267.977 32.135C260.149 24.3058 248.722 22.5027 238.863 27.5399C229.004 32.577 223.768 42.8942 225.524 53.8245L240.815 149.023L154.965 192.53C145.078 197.54 139.811 207.85 141.544 218.797C143.277 229.745 151.475 237.923 162.425 239.633L210.476 247.136L7.43817 450.175C-2.47906 460.093 -2.47906 476.231 7.43817 486.151L25.8496 504.561C30.8087 509.52 37.3229 511.999 43.836 511.999C50.3512 511.999 56.8643 509.52 61.8244 504.561L264.863 301.522L272.366 349.574C274.075 360.525 282.255 368.721 293.201 370.455C294.587 370.675 295.961 370.782 297.317 370.782C306.671 370.781 315.092 365.67 319.469 357.035L362.976 271.185L458.173 286.475C469.105 288.232 479.421 282.996 484.457 273.137C489.495 263.278 487.69 251.849 479.863 244.022C479.035 243.193 477.743 241.9 477.743 241.9ZM128.092 410.009H75.8888L137.89 348.007H190.092L128.092 410.009ZM47.6831 490.418C45.5631 492.536 42.112 492.538 39.9919 490.418L21.5815 472.008C19.4615 469.887 19.4615 466.437 21.5815 464.317L55.8883 430.009H108.092L47.6831 490.418ZM210.093 328.007H157.891L234.942 250.956L257.518 254.481L261.043 277.057L210.093 328.007Z" fill="#2D5286"/>
<path d="M423.665 335.89H416.665V328.89C416.665 323.368 412.187 318.89 406.665 318.89C401.142 318.89 396.664 323.368 396.664 328.89V335.89H389.664C384.142 335.89 379.664 340.368 379.664 345.89C379.664 351.412 384.142 355.891 389.664 355.891H396.664V362.891C396.664 368.413 401.142 372.891 406.665 372.891C412.187 372.891 416.665 368.413 416.665 362.891V355.891H423.665C429.187 355.891 433.665 351.412 433.665 345.89C433.665 340.368 429.187 335.89 423.665 335.89Z" fill="#2D5286"/>
<path d="M328.996 37.0009H335.996V44.001C335.996 49.5242 340.474 54.0013 345.996 54.0013C351.518 54.0013 355.996 49.5242 355.996 44.001V37.0009H362.997C368.519 37.0009 372.997 32.5238 372.997 27.0006C372.997 21.4775 368.519 17.0004 362.997 17.0004H355.996V10.0002C355.996 4.47711 351.518 0 345.996 0C340.474 0 335.996 4.47711 335.996 10.0002V17.0004H328.996C323.474 17.0004 318.995 21.4775 318.995 27.0006C318.995 32.5238 323.473 37.0009 328.996 37.0009Z" fill="#2D5286"/>
<path d="M151.229 138.003C169.977 138.003 185.229 122.751 185.229 104.002C185.229 85.2538 169.977 70.0015 151.229 70.0015C132.48 70.0015 117.228 85.2538 117.228 104.002C117.228 122.751 132.48 138.003 151.229 138.003ZM151.229 90.0019C158.949 90.0019 165.229 96.2821 165.229 104.002C165.229 111.722 158.949 118.003 151.229 118.003C143.508 118.003 137.228 111.722 137.228 104.002C137.228 96.2821 143.508 90.0019 151.229 90.0019Z" fill="#2D5286"/>
<path d="M502 164.004C499.37 164.004 496.79 165.074 494.93 166.934C493.07 168.794 492 171.374 492 174.004C492 176.634 493.069 179.214 494.93 181.074C496.791 182.934 499.37 184.004 502 184.004C504.63 184.004 507.21 182.934 509.069 181.074C510.929 179.214 512 176.634 512 174.004C512 171.374 510.93 168.794 509.069 166.934C507.21 165.074 504.629 164.004 502 164.004Z" fill="#2D5286"/>
<path d="M502 20C504.63 20 507.21 18.93 509.069 17.07C510.929 15.21 512 12.63 512 10C512 7.37 510.93 4.79 509.069 2.93C507.21 1.07 504.629 0 502 0C499.371 0 496.79 1.07 494.93 2.93C493.07 4.79 492 7.37 492 10C492 12.63 493.069 15.21 494.93 17.07C496.791 18.93 499.37 20 502 20Z" fill="#2D5286"/>
<path d="M106.99 37.0005C109.62 37.0005 112.2 35.9305 114.059 34.0705C115.919 32.2105 116.99 29.6305 116.99 27.0005C116.99 24.3705 115.92 21.7905 114.059 19.9305C112.2 18.0705 109.62 17.0005 106.99 17.0005C104.36 17.0005 101.78 18.0705 99.9203 19.9305C98.0603 21.7905 96.9903 24.3705 96.9903 27.0005C96.9903 29.6305 98.0593 32.2105 99.9203 34.0705C101.781 35.9305 104.36 37.0005 106.99 37.0005Z" fill="#2D5286"/>
<path d="M431.778 210.085C429.918 211.945 428.847 214.515 428.847 217.155C428.847 219.785 429.917 222.365 431.778 224.225C433.637 226.085 436.217 227.155 438.847 227.155C441.488 227.155 444.057 226.085 445.917 224.225C447.787 222.365 448.856 219.785 448.856 217.155C448.856 214.525 447.787 211.945 445.917 210.085C444.057 208.225 441.487 207.155 438.847 207.155C436.217 207.155 433.637 208.225 431.778 210.085Z" fill="#2D5286"/>
</g>
<defs>
<clipPath id="clip0">
<rect width="512" height="512" fill="white"/>
</clipPath>
</defs>
</svg>
