<svg width="512" height="512" viewBox="0 0 512 512" fill="none" xmlns="http://www.w3.org/2000/svg">
<path d="M77.637 383.425C77.637 450.293 131.844 504.5 198.712 504.5C198.734 504.5 198.756 504.499 198.778 504.499V504.5H270.961L290.961 443.962L270.961 383.424H77.637V383.425Z" fill="#45FFF4"/>
<path d="M149.82 383.425H77.637C77.637 450.293 131.844 504.5 198.712 504.5C198.734 504.5 198.756 504.499 198.778 504.499V504.5H270.896C204.027 504.5 149.82 450.293 149.82 383.425V383.425Z" fill="#45FFF4"/>
<path d="M270.895 504.5H270.961V504.499C270.939 504.499 270.917 504.5 270.895 504.5Z" fill="white"/>
<path d="M270.939 504.999L270.896 504.5L270.907 504.249L270.895 504H270.96L270.967 504.999L270.945 504.844L270.939 504.999ZM270.895 504.5V504V504.5Z" fill="#2D5286"/>
<path d="M470.961 344.5V164.662C470.961 154.423 479.261 146.123 489.5 146.123C497.784 146.123 504.5 139.407 504.5 131.123C504.5 122.839 497.784 116.123 489.5 116.123H480.96C442.3 116.123 410.96 147.463 410.96 186.123V303.425C410.96 347.608 375.143 383.425 330.96 383.425H310.961L290.961 443.963L310.961 504.501C399.326 504.5 470.961 432.866 470.961 344.5V344.5Z" fill="#DEFEFE"/>
<path d="M384.154 426.996C367.185 410.027 366.438 382.995 381.886 365.124C368.052 376.556 350.309 383.425 330.96 383.425H310.961L290.961 443.963L310.961 504.501C368.76 504.501 419.396 473.85 447.514 427.92C429.686 444.742 401.601 444.443 384.154 426.996Z" fill="#DEFEFE"/>
<path d="M270.961 383.425H310.961V504.5H270.961V383.425Z" fill="#FFD24C"/>
<path d="M64.824 409.454L144.923 442.632C162.366 449.857 182.364 441.574 189.589 424.131C196.814 406.688 188.531 386.69 171.088 379.465L90.989 346.287C73.546 339.062 53.548 347.345 46.323 364.788C39.098 382.231 47.381 402.229 64.824 409.454Z" fill="#45FFF4"/>
<path d="M312.599 409.454L232.5 442.632C215.057 449.857 195.059 441.574 187.834 424.131C180.609 406.688 188.892 386.69 206.335 379.465L286.434 346.287C303.877 339.062 323.875 347.345 331.1 364.788C338.326 382.231 330.043 402.229 312.599 409.454V409.454Z" fill="#45FFF4"/>
<path d="M333.839 287.212C353.766 287.212 369.92 271.058 369.92 251.131C369.92 231.204 353.766 215.05 333.839 215.05C313.912 215.05 297.758 231.204 297.758 251.131C297.758 271.058 313.912 287.212 333.839 287.212Z" fill="#45FFF4"/>
<path d="M333.839 307.212C344.885 307.212 353.839 298.258 353.839 287.212C353.839 276.166 344.885 267.212 333.839 267.212C322.793 267.212 313.839 276.166 313.839 287.212C313.839 298.258 322.793 307.212 333.839 307.212Z" fill="#FFD24C"/>
<path d="M43.581 287.212C63.508 287.212 79.662 271.058 79.662 251.131C79.662 231.204 63.508 215.05 43.581 215.05C23.654 215.05 7.5 231.204 7.5 251.131C7.5 271.058 23.654 287.212 43.581 287.212Z" fill="#45FFF4"/>
<path d="M43.5811 307.212C54.6268 307.212 63.5811 298.258 63.5811 287.212C63.5811 276.166 54.6268 267.212 43.5811 267.212C32.5354 267.212 23.5811 276.166 23.5811 287.212C23.5811 298.258 32.5354 307.212 43.5811 307.212Z" fill="#FFD24C"/>
<path d="M188.712 396.128C268.793 396.128 333.712 331.209 333.712 251.128C333.712 171.047 268.793 106.128 188.712 106.128C108.631 106.128 43.712 171.047 43.712 251.128C43.712 331.209 108.631 396.128 188.712 396.128Z" fill="#45FFF4"/>
<path d="M93.712 251.128C93.712 179.573 145.545 120.13 213.712 108.282C205.59 106.87 197.238 106.128 188.712 106.128C108.631 106.128 43.712 171.047 43.712 251.128C43.712 331.209 108.631 396.128 188.712 396.128C197.238 396.128 205.59 395.385 213.712 393.974C145.545 382.126 93.712 322.684 93.712 251.128V251.128Z" fill="#45FFF4"/>
<path d="M140.027 246.111L115.962 239.663C111.965 238.589 107.849 240.965 106.776 244.966C105.704 248.967 108.078 253.08 112.08 254.152L119.158 256.049C118.906 256.8 118.763 257.601 118.763 258.436V268.802C118.763 272.945 122.121 276.302 126.263 276.302C130.405 276.302 133.763 272.945 133.763 268.802V259.962L136.144 260.6C136.794 260.775 137.447 260.858 138.09 260.858C141.401 260.858 144.432 258.648 145.33 255.297C146.402 251.296 144.028 247.183 140.027 246.111V246.111Z" fill="#2D5286"/>
<path d="M270.648 244.966C269.576 240.965 265.463 238.586 261.462 239.663L237.397 246.111C233.396 247.182 231.022 251.296 232.094 255.297C232.992 258.648 236.022 260.858 239.334 260.858C239.977 260.858 240.63 260.775 241.28 260.6L243.661 259.962V268.802C243.661 272.945 247.019 276.302 251.161 276.302C255.303 276.302 258.661 272.945 258.661 268.802V258.436C258.661 257.6 258.518 256.799 258.266 256.049L265.344 254.152C269.346 253.08 271.72 248.967 270.648 244.966V244.966Z" fill="#2D5286"/>
<path d="M221.982 10.8428L188.712 177.137C188.712 177.137 226.015 230.505 325.058 230.505H334.84C345.643 230.505 354.4 221.748 354.4 210.945V173.188C354.4 93.0758 297.543 26.2458 221.982 10.8428V10.8428Z" fill="white"/>
<path d="M354.4 173.188V192.685C268.923 186.73 236.213 139.94 236.213 139.94C204.923 101.835 200.063 44.3542 200.615 7.9292C286.565 14.0322 354.4 85.6842 354.4 173.188Z" fill="#FFE9A6"/>
<path d="M352.251 146.508C303.053 131.144 283.191 102.743 283.191 102.743C263.848 79.187 254.611 48.229 250.503 19.416C303.461 40.717 342.872 88.577 352.251 146.508Z" fill="#FFD24C"/>
<path d="M221.982 10.843C211.233 8.652 200.107 7.5 188.712 7.5H73.024C45.41 7.5 23.024 29.886 23.024 57.5V210.945C23.024 221.748 31.781 230.505 42.584 230.505H52.366C151.409 230.505 188.712 177.137 188.712 177.137C237.582 117.624 221.982 10.843 221.982 10.843V10.843Z" fill="white"/>
<path d="M23.024 57.5V189.689C106.635 183.006 138.712 137.137 138.712 137.137C169.331 99.849 174.641 44.009 174.337 7.5H73.024C45.41 7.5 23.024 29.886 23.024 57.5V57.5Z" fill="#FFE9A6"/>
<path d="M73.024 7.5C45.41 7.5 23.024 29.886 23.024 57.5V129.709C69.53 114.116 88.4 87.137 88.4 87.137C106.919 64.584 116.176 35.245 120.536 7.5H73.024Z" fill="#FFD24C"/>
<path d="M108.988 286.935C121.426 299.384 141.601 299.388 154.044 286.945C163.511 277.478 178.861 277.478 188.328 286.945L188.406 287.023C197.873 296.49 197.873 311.84 188.406 321.307L183.673 326.04C164.023 345.69 132.164 345.69 112.514 326.04C103.004 316.53 98.097 304.16 97.793 291.698C97.649 285.795 104.814 282.757 108.988 286.935V286.935Z" fill="white"/>
<path d="M269.801 286.935C257.363 299.384 237.188 299.388 224.745 286.945C215.278 277.478 199.928 277.478 190.461 286.945L190.383 287.023C180.916 296.49 180.916 311.84 190.383 321.307L195.116 326.04C214.766 345.69 246.625 345.69 266.275 326.04C275.785 316.53 280.692 304.16 280.996 291.698C281.141 285.795 273.976 282.757 269.801 286.935V286.935Z" fill="white"/>
<path d="M489.499 108.622H480.958C438.224 108.622 403.458 143.389 403.458 186.122V303.424C403.458 340.134 376.631 370.314 341.107 375.218C340.827 370.758 339.831 366.27 338.027 361.917C333.422 350.798 324.498 342.48 313.557 338.598C318.976 330.886 323.705 322.655 327.641 313.99C329.666 314.458 331.744 314.71 333.836 314.71C349 314.71 361.336 302.373 361.336 287.21C361.336 286.464 361.298 285.728 361.239 284.996C371.435 276.756 377.417 264.406 377.417 251.129C377.417 237.801 371.407 225.432 361.16 217.195C361.637 215.187 361.897 213.096 361.897 210.944V173.186C361.897 133.23 347.964 94.2438 322.666 63.4089C297.716 32.9979 262.898 11.805 224.626 3.72999C224.39 3.68099 224.154 3.64499 223.919 3.61899C223.771 3.57899 223.63 3.52399 223.478 3.49299C212.109 1.176 200.411 0 188.712 0H73.0239C41.3179 0 15.524 25.7939 15.524 57.4999V210.945C15.524 213.097 15.784 215.189 16.261 217.198C6.02599 225.442 0 237.865 0 251.131C0 264.378 5.98999 276.753 16.178 284.995C16.119 285.727 16.081 286.464 16.081 287.211C16.081 302.374 28.4169 314.711 43.5809 314.711C45.6769 314.711 47.7549 314.457 49.7789 313.99C53.7219 322.67 58.4599 330.915 63.8919 338.639C52.9919 342.552 43.9599 350.895 39.3939 361.918C30.5979 383.153 40.7189 407.587 61.9549 416.383L76.1199 422.25C84.1508 447.614 100.311 470.375 121.714 486.403C144.075 503.147 170.7 511.999 198.712 511.999C198.732 512 198.755 512 198.778 511.999H310.96C368.605 511.999 421.568 482.874 452.443 434.195C454.665 430.698 453.631 426.064 450.134 423.842C446.637 421.621 442.003 422.655 439.782 426.152C413.246 468.059 368.004 494.404 318.46 496.799V414.989C328.66 409.792 335.913 400.826 339.207 390.522C359.953 388.585 379.182 379.401 393.812 364.299C409.706 347.892 418.459 326.273 418.459 303.424V186.122C418.459 151.659 446.497 123.622 480.959 123.622H489.5C493.636 123.622 497 126.987 497 131.123C497 135.259 493.636 138.623 489.5 138.623C475.142 138.623 463.46 150.304 463.46 164.662V344.499C463.46 363.876 450.148 409.781 439.782 426.152C443.633 424.628 441.649 424.628 445.5 426.152C446.406 426.51 441.66 441.979 449 429C451.986 429 453.607 431.445 452.443 434.195C463.827 416.222 478.46 365.774 478.46 344.499V164.662C478.46 158.575 483.412 153.623 489.5 153.623C501.907 153.623 512 143.529 512 131.123C511.999 118.716 501.906 108.622 489.499 108.622ZM188.712 388.627C112.894 388.627 51.2119 326.944 51.2119 251.128C51.2119 246.753 51.4199 242.355 51.8299 238.005H52.3659C132.912 238.005 174.2 204.024 188.723 188.7C203.462 204.232 244.755 238.005 325.056 238.005H325.587C325.998 242.355 326.21 246.751 326.21 251.128C326.211 326.944 264.529 388.627 188.712 388.627ZM243.759 24.8589C249.21 59.0489 260.454 86.7878 277.237 107.313C279.521 110.453 299.636 136.612 345.481 152.18C346.414 159.075 346.898 166.089 346.898 173.188V184.5C309.041 180.532 283.172 168.142 267.862 158.135C250.286 146.646 242.42 135.728 242.359 135.643C242.248 135.484 242.131 135.33 242.008 135.18C236.015 127.881 230.732 119.368 226.283 109.881C228.66 98.1348 230.289 85.5548 231.156 72.1569C232.564 50.3929 231.565 31.7259 230.593 20.613C235.07 21.841 239.461 23.259 243.759 24.8589ZM220.841 131.285C223.767 135.987 226.908 140.408 230.256 144.504C233.308 148.717 266.342 191.713 346.899 199.576V210.945C346.899 217.594 341.489 223.005 334.839 223.005H325.057C247.342 223.005 209.226 188.84 198.337 176.979C207.839 164.136 215.354 148.872 220.841 131.285ZM333.838 299.711C333.653 299.711 333.47 299.684 333.286 299.676C335.866 292.013 337.845 284.077 339.183 275.929C343.405 277.938 346.338 282.233 346.338 287.212C346.338 294.103 340.731 299.711 333.838 299.711ZM355.28 270.02C351.658 265.512 346.65 262.165 340.906 260.636C341.101 257.49 341.211 254.322 341.211 251.128C341.211 246.546 340.991 241.946 340.584 237.385C345.559 236.305 350.024 233.853 353.57 230.446C359.185 235.79 362.419 243.206 362.419 251.131C362.419 258.198 359.829 264.865 355.28 270.02ZM342.164 134.979C305.2 120.269 289.49 98.6608 289.336 98.4438C289.225 98.2858 289.108 98.1318 288.986 97.9828C275.395 81.4318 265.765 59.3139 260.285 32.1199C300.918 52.8659 331.011 90.6128 342.164 134.979ZM215.182 17.206C217.444 39.0519 223.12 123.418 182.915 172.377C182.805 172.512 182.682 172.675 182.581 172.816C182.492 172.942 173.43 185.507 152.992 197.895C134.094 209.35 101.295 223.004 52.3669 223.004H42.5849C35.9349 223.004 30.5249 217.594 30.5249 210.944V196.509C109.265 188.002 141.652 145.862 144.67 141.699C174.132 105.666 181.309 54.0729 181.815 15H188.712C197.595 15 206.476 15.741 215.182 17.206ZM166.815 15C166.325 51.6509 159.743 99.7078 132.915 132.377C132.805 132.512 132.682 132.674 132.582 132.815C132.506 132.921 124.82 143.587 107.673 154.924C92.7248 164.807 67.4649 177.131 30.5239 181.416V135.016C73.2559 119.316 92.1508 94.7308 94.3518 91.7048C110.173 72.3569 121.089 46.5629 126.855 15H166.815ZM73.0239 15H111.591C106.16 42.8869 96.4318 65.5379 82.6028 82.3768C82.4928 82.5118 82.3708 82.6728 82.2698 82.8148C82.1068 83.0438 66.6989 104.247 30.5229 118.934V57.4999C30.5239 34.0649 49.5889 15 73.0239 15ZM15 251.131C15 243.243 18.251 235.808 23.862 230.455C27.4049 233.856 31.8659 236.304 36.8349 237.384C36.4279 241.946 36.2119 246.547 36.2119 251.128C36.2119 254.322 36.3229 257.489 36.5169 260.635C30.7719 262.164 25.7629 265.511 22.14 270.019C17.591 264.86 15 258.182 15 251.131ZM43.5809 299.711C36.6879 299.711 31.0809 294.104 31.0809 287.211C31.0809 282.231 34.0149 277.935 38.2389 275.927C39.5769 284.076 41.5559 292.011 44.1359 299.674C43.9509 299.682 43.7679 299.711 43.5809 299.711ZM53.2519 367.657C56.8559 358.957 64.8039 352.86 73.9869 351.484C99.8498 381.013 136.901 400.501 178.456 403.275C177.026 410.707 177.661 418.374 180.369 425.612C173.477 436.188 159.676 440.625 147.793 435.703L67.6939 402.525C54.0999 396.893 47.6209 381.252 53.2519 367.657ZM198.66 496.999C153.293 496.978 113.255 470.615 95.1208 430.12L142.053 449.56C147.176 451.682 152.526 452.691 157.816 452.69C169.423 452.69 180.725 447.823 188.679 439.231C192.737 443.663 197.748 447.193 203.466 449.561C208.61 451.691 214.013 452.756 219.418 452.756C224.822 452.756 230.227 451.691 235.371 449.56L263.46 437.925V496.999H198.778C198.746 496.998 198.702 496.998 198.66 496.999ZM303.46 421.356V496.999H278.46V431.711L303.46 421.356ZM309.728 402.524L229.63 435.702C223.044 438.431 215.791 438.429 209.206 435.702C202.621 432.974 197.491 427.846 194.764 421.26C192.397 415.547 192.089 409.362 193.816 403.532C237.46 402.089 276.517 382.223 303.445 351.473C312.715 352.844 320.54 358.891 324.171 367.657C329.802 381.252 323.323 396.893 309.728 402.524Z" fill="#2D5286"/>
<path d="M279.989 278.649C274.666 276.37 268.585 277.542 264.496 281.633C259.897 286.237 253.781 288.772 247.274 288.774C247.272 288.774 247.271 288.774 247.269 288.774C240.765 288.774 234.649 286.241 230.049 281.64C219.009 270.602 201.798 269.418 189.401 278.097C177.024 269.417 159.792 270.592 148.742 281.64C144.142 286.241 138.027 288.774 131.522 288.774C131.52 288.774 131.518 288.774 131.517 288.774C125.01 288.772 118.894 286.237 114.295 281.633C110.206 277.54 104.125 276.367 98.802 278.649C93.494 280.922 90.156 286.117 90.297 291.881C90.661 306.784 96.668 320.798 107.213 331.344C118.484 342.615 133.29 348.25 148.096 348.25C162.902 348.25 177.707 342.614 188.979 331.344L189.397 330.926L189.815 331.344C201.086 342.615 215.892 348.25 230.697 348.25C245.503 348.25 260.309 342.614 271.58 331.343C282.124 320.798 288.132 306.784 288.496 291.881C288.635 286.117 285.296 280.923 279.989 278.649V278.649ZM117.818 320.738C110.567 313.486 106.213 304.018 105.413 293.868C112.615 300.271 121.795 303.772 131.513 303.774H131.522C142.033 303.773 151.916 299.68 159.349 292.248C164.771 286.826 173.009 285.923 179.369 289.488C177.028 293.965 175.783 298.969 175.783 304.165C175.783 309.588 177.14 314.801 179.683 319.426L178.371 320.738C161.676 337.433 134.512 337.432 117.818 320.738V320.738ZM260.972 320.737C244.278 337.432 217.114 337.432 200.419 320.737L195.686 316.005C192.524 312.842 190.782 308.638 190.782 304.165C190.782 299.693 192.524 295.489 195.719 292.294L195.764 292.248C199.028 288.983 203.315 287.352 207.603 287.352C211.89 287.352 216.178 288.985 219.442 292.248C226.875 299.681 236.757 303.774 247.269 303.774H247.278C256.996 303.772 266.176 300.271 273.378 293.868C272.578 304.02 268.224 313.486 260.972 320.737V320.737Z" fill="#2D5286"/>
</svg>
