<?xml version="1.0" encoding="UTF-8" standalone="no"?>
<!DOCTYPE svg PUBLIC "-//W3C//DTD SVG 1.1//EN" "http://www.w3.org/Graphics/SVG/1.1/DTD/svg11.dtd">
<svg version="1.1" xmlns="http://www.w3.org/2000/svg" xmlns:xlink="http://www.w3.org/1999/xlink" preserveAspectRatio="xMidYMid meet" viewBox="0 0 44 44" width="44" height="44"><defs><path d="M5 5L40 5L40 40L5 40L5 5ZM13.24 28.4C13.08 28.6 12.26 29.6 10.79 31.39L10.79 31.78L17.76 31.78L17.76 31.39C16.29 29.6 15.47 28.6 15.3 28.4C15.01 28.06 14.96 27.9 14.96 27.37C14.96 26.78 14.96 23.79 14.96 18.42L21.09 31.78L21.8 31.78L27.06 18.42C27.06 24.81 27.06 28.35 27.06 29.06C27.06 29.35 27.06 29.41 26.87 29.59C26.75 29.71 26.13 30.31 25.02 31.39L25.02 31.78L34.21 31.78L34.21 31.39C33.12 30.31 32.51 29.71 32.39 29.59C32.21 29.41 32.18 29.35 32.18 29.06C32.18 27.75 32.18 17.25 32.18 15.94C32.18 15.65 32.21 15.59 32.39 15.41C32.51 15.29 33.12 14.69 34.21 13.61L34.21 13.22L27.74 13.22L23.12 24.76L17.92 13.22L11.13 13.22L11.13 13.61C12.41 15.2 13.13 16.08 13.27 16.25C13.51 16.54 13.56 16.62 13.56 17.02C13.56 17.71 13.56 21.16 13.56 27.37C13.54 27.83 13.44 28.17 13.24 28.4Z" id="argcImnK8"></path></defs><g><g><g><use xlink:href="#argcImnK8" opacity="1" fill="#45fff4" fill-opacity="1"></use><g><use xlink:href="#argcImnK8" opacity="1" fill-opacity="0" stroke="#000000" stroke-width="1" stroke-opacity="0"></use></g></g></g></g></svg>