<svg width="512" height="512" viewBox="0 0 512 512" fill="none" xmlns="http://www.w3.org/2000/svg">
<g clip-path="url(#clip0)">
<path d="M159.662 324.46C183.954 316.901 217.963 309.542 258.335 309.542C299.857 309.542 334.647 317.327 359.046 325.112C357.157 364.693 359.318 444.637 387.596 502H324.756C281.508 502 239.186 502 192.532 502H131.164C159.593 444.278 161.622 363.956 159.662 324.46Z" fill="#45FFF4"/>
<path d="M159.662 324.46C183.954 316.901 217.963 309.542 258.335 309.542C299.857 309.542 334.647 317.327 359.046 325.112C358.288 340.906 358.367 359.233 359.547 379.615C333.098 373.821 298.92 368.762 258.264 368.762C218.769 368.762 185.41 373.414 159.245 379.006C160.413 357.761 160.445 340.242 159.662 324.46V324.46Z" fill="#FFD24C"/>
<path d="M354.135 241.043C354.125 241.043 354.125 241.053 354.125 241.053C348.227 243.693 343.27 248.35 340.341 254.437C339.152 257.765 338.032 261.123 336.963 264.492L335.334 269.959C313.076 265.391 287.149 262.153 258.334 262.153C228.319 262.153 201.433 265.661 178.565 270.528L175.896 261.583C175.186 259.394 174.447 257.215 173.677 255.047C170.779 248.64 165.66 243.743 159.544 241.024C156.566 233.188 154.577 224.903 155.866 214.139C158.754 189.981 172.138 182.205 172.138 182.205C172.138 182.205 161.403 122.485 211.558 92.4614C239.383 75.8 274.415 75.8 302.241 92.4614C352.406 122.486 341.661 182.205 341.661 182.205C341.661 182.205 355.225 189.961 357.933 214.139C359.082 224.362 357.103 232.928 354.135 241.043Z" fill="#F9F6F4"/>
<path d="M416.162 11.2523C416.162 11.2523 413.953 97.3677 323.87 111.091C318.363 104.265 311.297 97.8777 302.241 92.4605C294.145 87.6234 285.45 84.1843 276.495 82.1562C278.184 77.5881 308.628 -0.842031 416.162 11.2523Z" fill="#DEFEFE"/>
<path d="M235.575 82.3654L235.635 82.5554C227.27 84.6144 219.144 87.9225 211.558 92.4606C202.403 97.9478 195.276 104.415 189.739 111.331C189.499 111.301 189.269 111.261 189.029 111.231C98.0557 97.9378 95.8367 11.2524 95.8367 11.2524C206.591 -1.20193 235.575 82.3654 235.575 82.3654Z" fill="#DEFEFE"/>
<path d="M178.565 270.526C156.726 275.174 138.556 281.071 124.852 286.328L121.354 274.614C116.926 259.801 125.352 244.209 140.165 239.782C142.844 238.982 145.542 238.603 148.191 238.603C159.035 238.603 169.111 244.95 173.678 255.044C174.448 257.213 175.187 259.392 175.897 261.581L178.565 270.526Z" fill="#F9F6F4"/>
<path d="M392.375 274.614L389.177 285.319C375.214 280.102 357.023 274.394 335.334 269.956L336.963 264.489C338.032 261.121 339.152 257.763 340.341 254.434C346.221 242.212 360.556 235.886 373.554 239.781C388.377 244.211 396.803 259.802 392.375 274.614Z" fill="#F9F6F4"/>
<path d="M392.375 274.614L389.177 285.319C375.214 280.102 357.023 274.394 335.334 269.956L336.963 264.489C338.032 261.121 339.152 257.763 340.341 254.434C346.221 242.212 360.556 235.886 373.554 239.781C388.377 244.211 396.803 259.802 392.375 274.614Z" fill="#F9F6F4"/>
<path d="M258.336 262.151C320.358 262.151 369.044 277.135 396.424 288.131C409.759 293.487 415.284 309.385 408.174 321.872C402.302 332.185 389.726 336.547 378.704 332.142C355.644 322.925 312.787 309.545 258.336 309.545C203.874 309.545 161.009 322.931 137.934 332.158C126.899 336.57 114.307 332.192 108.444 321.857L108.443 321.855C101.359 309.37 106.89 293.497 120.211 288.145C147.583 277.149 196.286 262.151 258.336 262.151Z" fill="#868EAF"/>
<path d="M258.336 262.151C320.358 262.151 369.044 277.135 396.424 288.131C409.759 293.487 415.284 309.385 408.174 321.872C402.302 332.185 389.726 336.547 378.704 332.142C355.644 322.925 312.787 309.545 258.336 309.545C203.874 309.545 161.009 322.931 137.934 332.158C126.899 336.57 114.307 332.192 108.444 321.857L108.443 321.855C101.359 309.37 106.89 293.497 120.211 288.145C147.583 277.149 196.286 262.151 258.336 262.151Z" fill="#45FFF4"/>
<path d="M267.5 364.936C265.406 359.91 259.48 357.434 254.44 359.526C249.409 361.614 246.94 367.55 249.03 372.586C251.118 377.617 257.054 380.086 262.09 377.996C267.112 375.911 269.596 369.968 267.5 364.936Z" fill="#2D5286"/>
<path d="M401.548 281.387L402.118 279.478C405.024 269.753 403.968 259.48 399.143 250.551C394.32 241.624 386.306 235.107 376.585 232.203C373.723 231.346 370.78 230.848 367.812 230.681C368.474 225.982 368.676 220.763 368.031 215.025C365.909 196.081 357.986 185.303 352.397 179.914C352.958 173.273 353.26 161.819 350.744 148.708C348.734 138.231 345.292 128.58 340.521 119.882C381.265 109.189 402.265 83.4312 412.873 62.5566C425.564 37.5839 426.295 14.4803 426.32 13.5093C426.453 8.32215 422.597 3.89503 417.44 3.31501C357.939 -3.37317 320.842 16.8204 300.199 34.9409C284.315 48.8853 275.246 63.7997 270.729 72.8639C261.096 71.5079 251.314 71.5949 241.7 73.1199C237.43 64.5257 228.893 50.2783 214.157 36.7679C193.386 17.7234 155.83 -3.53917 94.8826 3.31401C89.7264 3.89403 85.8703 8.32115 86.0033 13.5073C86.0283 14.4853 86.7634 37.739 99.5767 62.8066C110.353 83.8902 131.742 109.893 173.375 120.295C168.722 128.885 165.361 138.397 163.381 148.706C160.86 161.845 161.167 173.319 161.729 179.954C156.207 185.339 148.354 196.091 146.1 214.948C145.4 220.794 145.554 226.021 146.176 230.681C143.237 230.851 140.315 231.349 137.464 232.2C117.644 238.125 106 259.62 111.935 279.475L112.887 282.664C96.7116 291.622 90.7205 312.786 99.9527 328.868C108.175 343.271 126.414 349.598 141.81 343.443C144.313 342.442 147.148 341.358 150.287 340.226C150.572 354.732 149.849 369.286 149.192 383.774C146.405 423.984 138.432 466.938 122.355 499.579C120.828 502.679 121.01 506.347 122.835 509.28C124.66 512.213 127.871 513.997 131.327 513.997H387.76C391.216 513.997 394.427 512.212 396.252 509.278C398.077 506.344 398.258 502.674 396.73 499.575C390.713 487.368 374.204 448.678 369.739 384.832C369.739 384.832 368.534 354.8 368.766 340.972C371.086 341.829 373.22 342.653 375.156 343.426C390.741 349.654 408.74 343.373 417.028 328.818C421.851 320.348 422.777 310.213 419.566 301.013C416.507 292.253 409.978 285.17 401.548 281.387ZM381.547 260.058C383.831 264.285 384.331 269.147 382.955 273.749V273.75L382.771 274.364C372.606 270.909 361.074 267.503 348.296 264.497C348.775 263.071 349.25 261.69 349.727 260.347C353.63 252.76 362.69 248.918 370.854 251.363C375.465 252.742 379.262 255.829 381.547 260.058ZM313.396 49.9713C336.956 29.2877 367.828 20.0065 405.257 22.3195C403.972 29.9657 401.162 41.4561 395.044 53.4954C381.667 79.8181 359.091 96.2096 327.889 102.277C317.717 91.3094 304.73 82.9902 290.706 77.867C294.864 70.4518 302.051 59.9296 313.396 49.9713ZM273.871 93.7455C290.232 98.4996 304.761 105.428 315.825 118.868C320.363 124.372 324.015 130.575 326.755 137.468L306.999 144.343C300.392 146.639 297.021 152.475 294.591 158.591C294.061 159.925 293.513 161.304 292.819 162.827C290.526 167.852 292.74 173.784 297.764 176.078C302.711 178.335 308.754 176.083 311.014 171.133C311.918 169.155 314.125 163.596 314.473 162.92L331.834 156.878C333.865 171.253 331.999 182.336 331.982 182.434C331.208 186.738 332.902 190.815 336.762 192.835C337.848 193.579 346.206 199.833 348.159 217.255C348.854 223.435 348.24 229.223 346.109 236.065C336.635 241.774 331.911 250.241 328.583 260.403C307.721 256.634 284.228 254.151 258.5 254.151C231.648 254.151 207.229 256.855 185.697 260.903C182.431 250.547 177.422 241.711 167.824 235.984C166.161 230.832 165.052 224.914 165.961 217.325C168.051 199.847 176.344 193.551 177.425 192.799C181.249 190.765 182.915 186.713 182.146 182.435C182.103 182.195 180.244 171.208 182.314 156.833L199.803 162.919C200.15 163.595 202.359 169.154 203.262 171.132C205.52 176.08 211.563 178.335 216.512 176.077C221.536 173.784 223.75 167.852 221.457 162.826C220.762 161.304 220.214 159.924 219.685 158.59C217.254 152.471 213.897 146.642 207.277 144.342L187.445 137.44C192.276 125.405 200.283 114.874 210.712 107.145C219.436 100.679 228.816 97.4606 239.001 94.0205C250.456 91.2974 262.378 91.2114 273.871 93.7455ZM117.724 54.3624C111.346 42.1091 108.422 30.1887 107.091 22.3175C145.079 19.9775 176.281 29.5627 199.947 50.8773C210.9 60.7426 217.884 71.1929 221.891 78.4271C208.336 83.6352 195.811 91.8644 185.967 102.571C154.33 96.8086 131.386 80.6071 117.724 54.3624ZM132.506 260.057C134.79 255.828 138.585 252.741 143.187 251.366C151.565 248.866 160.795 252.931 164.569 260.827C165.074 262.257 165.552 263.698 166.029 265.135C153.194 268.252 141.661 271.759 131.556 275.283L131.098 273.75C129.722 269.147 130.222 264.284 132.506 260.057ZM146.726 493.999C160.455 459.938 166.452 421.493 168.877 389.295C183.981 386.359 199.553 384.147 215.294 382.719C218.722 382.408 257.5 379 257.5 379C257.5 379 264.289 362.282 257.5 358.5C252.014 359.075 218.979 362.303 213.486 362.801C198.79 364.135 184.222 366.12 170.016 368.72C170.432 357.111 170.515 345.472 170.137 333.86C228.345 317.348 290.813 317.544 348.911 334.451C348.552 346.004 348.655 357.585 349.083 369.133C334.197 366.334 318.927 364.213 303.52 362.811C298.028 362.317 262.988 359.035 257.5 358.5C250.359 362.282 257.5 379 257.5 379C257.5 379 298.279 382.417 301.708 382.729C318.171 384.227 334.458 386.585 350.248 389.738C352.701 421.821 358.701 460.117 372.356 493.999H146.726ZM399.645 318.925C396.272 324.848 388.933 327.397 382.577 324.858C345.071 309.866 304.392 302.26 264.059 301.594C219.91 300.864 175.427 308.462 134.383 324.875C128.015 327.421 120.673 324.863 117.303 318.924C113.223 311.782 116.522 302.471 124.099 299.425C142.458 292.049 161.481 286.492 180.808 282.31C230.746 271.681 283.409 271.478 333.485 281.756C353.733 285.922 373.667 291.704 392.859 299.412C400.469 302.468 403.712 311.785 399.645 318.925Z" fill="#2D5286"/>
<path d="M235.452 182.436C231.627 186.42 231.755 192.75 235.739 196.575C239.39 200.08 242.91 203.462 247.698 205.411V214.011H240.968C235.444 214.011 230.967 218.488 230.967 224.011C230.967 229.534 235.444 234.011 240.968 234.011H274.429C279.953 234.011 284.43 229.534 284.43 224.011C284.43 218.488 279.953 214.011 274.429 214.011H267.698V205.45C272.546 203.497 276.11 200.074 279.753 196.482C283.685 192.604 283.73 186.273 279.852 182.34C275.973 178.407 269.642 178.363 265.709 182.241L262.556 185.35C259.926 187.945 255.656 187.971 252.993 185.414L249.592 182.148C245.607 178.322 239.276 178.453 235.452 182.436V182.436Z" fill="#2D5286"/>
</g>
<defs>
<clipPath id="clip0">
<rect width="512" height="512" fill="white"/>
</clipPath>
</defs>
</svg>
