<svg width="459" height="239" viewBox="0 0 459 239" fill="none" xmlns="http://www.w3.org/2000/svg">
<g filter="url(#filter0_d)">
<path fill-rule="evenodd" clip-rule="evenodd" d="M12 60H447V138H12V60ZM10 140V138V60V58H12H447H449V60V218V220H447H12H10V218V140ZM12 140H447V218H12V140Z" fill="#45FFF4"/>
</g>
<rect x="12" y="60" width="435" height="78" fill="#0F5467"/>
<rect x="12" y="140" width="435" height="78" fill="#0F5467"/>
<rect x="199" y="2" width="240" height="235" fill="url(#paint0_linear)" fill-opacity="0.8"/>
<rect x="198" y="2" width="1" height="235" fill="#00CCC0"/>
<rect x="439" y="2" width="1" height="235" fill="#00CCC0"/>
<path fill-rule="evenodd" clip-rule="evenodd" d="M197 15L199 17V2H209L211 4H307L309 2H329L331 4H427L429 2H439V17L441 15V2V0H439H199H197V2V15Z" fill="#DEFEFE"/>
<path fill-rule="evenodd" clip-rule="evenodd" d="M197 224L199 222V237H209L211 235H307L309 237H329L331 235H427L429 237H439V222L441 224V237V239H439H199H197V237V224Z" fill="#DEFEFE"/>
<g filter="url(#filter1_d)">
<path d="M364.47 39V24.51C366.458 24.384 368.334 24.321 370.098 24.321C372.408 24.321 374.011 24.853 374.907 25.917C375.817 26.981 376.272 28.927 376.272 31.755C376.272 34.583 375.817 36.529 374.907 37.593C374.011 38.657 372.408 39.189 370.098 39.189C368.334 39.189 366.458 39.126 364.47 39ZM367.662 26.841V36.648C367.9 36.648 368.285 36.655 368.817 36.669C369.363 36.669 369.79 36.669 370.098 36.669C371.176 36.669 371.911 36.326 372.303 35.64C372.709 34.954 372.912 33.659 372.912 31.755C372.912 29.851 372.709 28.556 372.303 27.87C371.911 27.17 371.176 26.82 370.098 26.82L367.662 26.841ZM386.454 35.199H381.477L380.427 39H377.151L381.33 25.35C381.386 25.098 381.519 24.895 381.729 24.741C381.939 24.587 382.177 24.51 382.443 24.51H385.467C386.069 24.51 386.44 24.79 386.58 25.35L390.759 39H387.504L386.454 35.199ZM385.761 32.721L384.543 28.29C384.375 27.59 384.277 27.135 384.249 26.925H383.682C383.654 27.065 383.605 27.289 383.535 27.597C383.465 27.905 383.409 28.136 383.367 28.29L382.149 32.721H385.761ZM395.45 39H392.258V24.51H395.45V39Z" fill="#DEFEFE"/>
</g>
<g filter="url(#filter2_d)">
<path d="M249.109 36.501L249.256 38.853C247.94 38.993 245.7 39.063 242.536 39.063C241.57 39.063 240.8 38.804 240.226 38.286C239.652 37.754 239.358 37.04 239.344 36.144V27.366C239.358 26.47 239.652 25.763 240.226 25.245C240.8 24.713 241.57 24.447 242.536 24.447C245.7 24.447 247.94 24.517 249.256 24.657L249.109 27.03H243.544C243.194 27.03 242.942 27.114 242.788 27.282C242.634 27.45 242.557 27.723 242.557 28.101V30.306H248.332V32.616H242.557V35.409C242.557 35.801 242.634 36.081 242.788 36.249C242.942 36.417 243.194 36.501 243.544 36.501H249.109ZM262.343 27.114H258.017V39H254.804V27.114H250.478V24.51H262.343V27.114ZM275.69 24.51V39H272.498V32.532H267.374V39H264.182V24.51H267.374V30.054H272.498V24.51H275.69Z" fill="#DEFEFE"/>
</g>
<g filter="url(#filter3_d)">
<path d="M53.5442 93V83.34C54.3375 83.256 55.4575 83.214 56.9042 83.214C58.1082 83.214 58.9342 83.4287 59.3822 83.858C59.8395 84.2873 60.0682 85.09 60.0682 86.266C60.0682 87.4513 59.8488 88.2587 59.4102 88.688C58.9808 89.1173 58.2015 89.332 57.0722 89.332C56.3722 89.332 55.6628 89.29 54.9442 89.206V93H53.5442ZM54.9442 88.128H56.8762C57.5575 88.1187 58.0242 87.988 58.2762 87.736C58.5282 87.484 58.6542 86.994 58.6542 86.266C58.6542 85.538 58.5282 85.048 58.2762 84.796C58.0242 84.544 57.5575 84.418 56.8762 84.418C55.9428 84.418 55.2988 84.4227 54.9442 84.432V88.128ZM62.0413 86.812C62.536 86.2613 63.376 85.986 64.5613 85.986C65.7466 85.986 66.5866 86.2613 67.0813 86.812C67.576 87.3627 67.8233 88.2913 67.8233 89.598C67.8233 90.9047 67.576 91.8287 67.0813 92.37C66.5866 92.9113 65.7466 93.182 64.5613 93.182C63.376 93.182 62.536 92.9113 62.0413 92.37C61.5466 91.8287 61.2993 90.9047 61.2993 89.598C61.2993 88.2913 61.5466 87.3627 62.0413 86.812ZM66.0173 87.652C65.756 87.3067 65.2706 87.134 64.5613 87.134C63.852 87.134 63.3666 87.3067 63.1053 87.652C62.844 87.9973 62.7133 88.646 62.7133 89.598C62.7133 90.5407 62.844 91.1847 63.1053 91.53C63.3666 91.8753 63.852 92.048 64.5613 92.048C65.2706 92.048 65.756 91.8753 66.0173 91.53C66.2786 91.1847 66.4093 90.5407 66.4093 89.598C66.4093 88.646 66.2786 87.9973 66.0173 87.652ZM70.0257 86.812C70.5203 86.2613 71.3603 85.986 72.5457 85.986C73.731 85.986 74.571 86.2613 75.0657 86.812C75.5603 87.3627 75.8077 88.2913 75.8077 89.598C75.8077 90.9047 75.5603 91.8287 75.0657 92.37C74.571 92.9113 73.731 93.182 72.5457 93.182C71.3603 93.182 70.5203 92.9113 70.0257 92.37C69.531 91.8287 69.2837 90.9047 69.2837 89.598C69.2837 88.2913 69.531 87.3627 70.0257 86.812ZM74.0017 87.652C73.7403 87.3067 73.255 87.134 72.5457 87.134C71.8363 87.134 71.351 87.3067 71.0897 87.652C70.8283 87.9973 70.6977 88.646 70.6977 89.598C70.6977 90.5407 70.8283 91.1847 71.0897 91.53C71.351 91.8753 71.8363 92.048 72.5457 92.048C73.255 92.048 73.7403 91.8753 74.0017 91.53C74.263 91.1847 74.3937 90.5407 74.3937 89.598C74.3937 88.646 74.263 87.9973 74.0017 87.652ZM78.962 83.2V91.026C78.9527 91.3153 79.0227 91.5347 79.172 91.684C79.3214 91.824 79.5454 91.894 79.844 91.894H80.474L80.628 92.944C80.3574 93.0653 79.9234 93.126 79.326 93.126C78.794 93.126 78.374 92.972 78.066 92.664C77.758 92.3467 77.604 91.9033 77.604 91.334V83.2H78.962ZM91.6184 93H90.1204L89.2944 89.99C89.089 89.346 88.683 89.024 88.0764 89.024L86.0884 89.01V93H84.7024V83.34C85.4957 83.256 86.6204 83.214 88.0764 83.214C89.243 83.214 90.0644 83.4147 90.5404 83.816C91.0257 84.2173 91.2684 84.95 91.2684 86.014C91.2684 86.7887 91.1284 87.372 90.8484 87.764C90.5777 88.156 90.125 88.394 89.4904 88.478V88.548C90.1157 88.7347 90.5217 89.2013 90.7084 89.948L91.6184 93ZM86.0884 87.82H88.0484C88.739 87.8107 89.2104 87.6893 89.4624 87.456C89.7237 87.2133 89.8544 86.7607 89.8544 86.098C89.8544 85.4447 89.7237 85.0013 89.4624 84.768C89.2104 84.5347 88.739 84.418 88.0484 84.418C87.0964 84.418 86.443 84.4227 86.0884 84.432V87.82ZM97.3616 90.242H94.2956C94.361 90.9513 94.543 91.4273 94.8416 91.67C95.1496 91.9127 95.649 92.034 96.3396 92.034C96.9463 92.034 97.7443 91.978 98.7336 91.866L98.8596 92.762C98.2436 93.0327 97.343 93.168 96.1576 93.168C94.963 93.168 94.1136 92.8973 93.6096 92.356C93.115 91.8147 92.8676 90.886 92.8676 89.57C92.8676 88.2447 93.1103 87.316 93.5956 86.784C94.0903 86.252 94.9023 85.986 96.0316 85.986C97.077 85.986 97.8376 86.1773 98.3136 86.56C98.7896 86.9427 99.0276 87.5167 99.0276 88.282C99.0276 89.5887 98.4723 90.242 97.3616 90.242ZM94.2816 89.192H96.9976C97.4456 89.192 97.6696 88.8887 97.6696 88.282C97.6603 87.862 97.539 87.568 97.3056 87.4C97.0816 87.2227 96.6803 87.134 96.1016 87.134C95.4296 87.134 94.963 87.2787 94.7016 87.568C94.4403 87.848 94.3003 88.3893 94.2816 89.192ZM104.517 91.894L104.671 92.944C104.241 93.0653 103.705 93.126 103.061 93.126C102.482 93.126 102.039 92.9627 101.731 92.636C101.432 92.3 101.283 91.824 101.283 91.208V87.218H100.037V86.238L101.283 86.182V84.166H102.627V86.168H104.741V87.218H102.627V91.026C102.627 91.3433 102.692 91.5673 102.823 91.698C102.963 91.8287 103.196 91.894 103.523 91.894H104.517ZM112.072 86.168V93H110.994L110.896 92.062C109.898 92.8087 108.927 93.182 107.984 93.182C106.743 93.182 106.122 92.552 106.122 91.292V86.168H107.48V90.9C107.471 91.32 107.541 91.614 107.69 91.782C107.84 91.9407 108.096 92.02 108.46 92.02C108.992 92.02 109.748 91.7167 110.728 91.11V86.168H112.072ZM118.558 85.986L118.404 87.26H117.984C117.452 87.26 116.635 87.5213 115.534 88.044V93H114.176V86.168H115.226L115.366 87.204C116.383 86.392 117.34 85.986 118.236 85.986H118.558ZM120.984 86.168L121.068 87.218C122.141 86.3967 123.149 85.986 124.092 85.986C124.699 85.986 125.156 86.1493 125.464 86.476C125.781 86.7933 125.94 87.26 125.94 87.876V93H124.582V88.268C124.582 87.8387 124.517 87.5447 124.386 87.386C124.265 87.218 124.041 87.134 123.714 87.134C123.359 87.134 123.005 87.2133 122.65 87.372C122.295 87.5307 121.81 87.792 121.194 88.156V93H119.836V86.168H120.984ZM131.078 90.312L129.174 89.836C128.605 89.6867 128.204 89.4673 127.97 89.178C127.737 88.8793 127.62 88.45 127.62 87.89C127.62 87.134 127.821 86.6253 128.222 86.364C128.633 86.1027 129.333 85.9767 130.322 85.986C131.414 86.0047 132.385 86.084 133.234 86.224L133.122 87.204C131.694 87.1573 130.831 87.134 130.532 87.134C129.87 87.134 129.436 87.176 129.23 87.26C129.034 87.3347 128.936 87.5447 128.936 87.89C128.936 88.0487 128.95 88.1793 128.978 88.282C129.006 88.3753 129.076 88.4547 129.188 88.52C129.31 88.5853 129.403 88.632 129.468 88.66C129.534 88.6787 129.678 88.7207 129.902 88.786L131.834 89.262C132.413 89.4113 132.824 89.626 133.066 89.906C133.309 90.1767 133.43 90.6013 133.43 91.18C133.43 91.9827 133.206 92.5147 132.758 92.776C132.32 93.028 131.554 93.154 130.462 93.154C129.51 93.154 128.605 93.0887 127.746 92.958L127.844 91.95C128.367 91.9967 129.146 92.02 130.182 92.02C130.948 92.02 131.461 91.9687 131.722 91.866C131.984 91.754 132.114 91.5253 132.114 91.18C132.114 91.0307 132.096 90.9093 132.058 90.816C132.021 90.7133 131.942 90.6293 131.82 90.564C131.699 90.4987 131.601 90.4567 131.526 90.438C131.461 90.41 131.312 90.368 131.078 90.312ZM142.458 84.068H141.072C140.652 84.068 140.353 84.1473 140.176 84.306C140.008 84.4647 139.924 84.74 139.924 85.132V86.168H142.038V87.218H139.924V93H138.566V87.218H137.334V86.238L138.566 86.168V84.978C138.566 84.3153 138.725 83.816 139.042 83.48C139.359 83.1347 139.877 82.962 140.596 82.962C141.473 82.962 142.131 82.9947 142.57 83.06L142.458 84.068ZM143.731 86.812C144.225 86.2613 145.065 85.986 146.251 85.986C147.436 85.986 148.276 86.2613 148.771 86.812C149.265 87.3627 149.513 88.2913 149.513 89.598C149.513 90.9047 149.265 91.8287 148.771 92.37C148.276 92.9113 147.436 93.182 146.251 93.182C145.065 93.182 144.225 92.9113 143.731 92.37C143.236 91.8287 142.989 90.9047 142.989 89.598C142.989 88.2913 143.236 87.3627 143.731 86.812ZM147.707 87.652C147.445 87.3067 146.96 87.134 146.251 87.134C145.541 87.134 145.056 87.3067 144.795 87.652C144.533 87.9973 144.403 88.646 144.403 89.598C144.403 90.5407 144.533 91.1847 144.795 91.53C145.056 91.8753 145.541 92.048 146.251 92.048C146.96 92.048 147.445 91.8753 147.707 91.53C147.968 91.1847 148.099 90.5407 148.099 89.598C148.099 88.646 147.968 87.9973 147.707 87.652ZM155.677 85.986L155.523 87.26H155.103C154.571 87.26 153.754 87.5213 152.653 88.044V93H151.295V86.168H152.345L152.485 87.204C153.502 86.392 154.459 85.986 155.355 85.986H155.677ZM55.9198 113.894L56.0738 114.944C55.6445 115.065 55.1078 115.126 54.4638 115.126C53.8852 115.126 53.4418 114.963 53.1338 114.636C52.8352 114.3 52.6858 113.824 52.6858 113.208V109.218H51.4398V108.238L52.6858 108.182V106.166H54.0298V108.168H56.1438V109.218H54.0298V113.026C54.0298 113.343 54.0952 113.567 54.2258 113.698C54.3658 113.829 54.5992 113.894 54.9258 113.894H55.9198ZM58.9396 105.2V107.846C58.9396 108.313 58.9069 108.756 58.8416 109.176C59.9242 108.383 60.9182 107.986 61.8236 107.986C62.4209 107.986 62.8782 108.149 63.1956 108.476C63.5129 108.793 63.6716 109.26 63.6716 109.876V115H62.3136V110.268C62.3136 109.839 62.2482 109.545 62.1176 109.386C61.9962 109.218 61.7722 109.134 61.4456 109.134C61.0909 109.134 60.7269 109.213 60.3536 109.372C59.9896 109.531 59.5136 109.787 58.9256 110.142V115H57.5676V105.2H58.9396ZM69.9017 112.242H66.8357C66.901 112.951 67.083 113.427 67.3817 113.67C67.6897 113.913 68.189 114.034 68.8797 114.034C69.4864 114.034 70.2844 113.978 71.2737 113.866L71.3997 114.762C70.7837 115.033 69.883 115.168 68.6977 115.168C67.503 115.168 66.6537 114.897 66.1497 114.356C65.655 113.815 65.4077 112.886 65.4077 111.57C65.4077 110.245 65.6504 109.316 66.1357 108.784C66.6304 108.252 67.4424 107.986 68.5717 107.986C69.617 107.986 70.3777 108.177 70.8537 108.56C71.3297 108.943 71.5677 109.517 71.5677 110.282C71.5677 111.589 71.0124 112.242 69.9017 112.242ZM66.8217 111.192H69.5377C69.9857 111.192 70.2097 110.889 70.2097 110.282C70.2004 109.862 70.079 109.568 69.8457 109.4C69.6217 109.223 69.2204 109.134 68.6417 109.134C67.9697 109.134 67.503 109.279 67.2417 109.568C66.9804 109.848 66.8404 110.389 66.8217 111.192ZM77.8781 105.34V112.928C77.8781 113.255 77.9434 113.488 78.0741 113.628C78.2047 113.759 78.4334 113.824 78.7601 113.824H82.1901L82.2601 114.902C81.3547 114.986 80.1134 115.028 78.5361 115.028C77.1641 115.028 76.4781 114.393 76.4781 113.124V105.34H77.8781ZM83.6412 109.302L83.5152 108.308C84.7472 108.093 85.8532 107.986 86.8332 107.986C87.6638 107.986 88.2752 108.154 88.6672 108.49C89.0592 108.826 89.2552 109.409 89.2552 110.24V115H88.1912L88.0372 113.922C87.2532 114.725 86.3432 115.126 85.3072 115.126C84.6725 115.126 84.1638 114.958 83.7812 114.622C83.4078 114.286 83.2212 113.81 83.2212 113.194V112.48C83.2212 111.939 83.3892 111.519 83.7252 111.22C84.0612 110.921 84.5372 110.772 85.1532 110.772H87.8972V110.24C87.8878 109.82 87.7898 109.531 87.6032 109.372C87.4165 109.213 87.0618 109.134 86.5392 109.134C86.0258 109.134 85.0598 109.19 83.6412 109.302ZM84.5932 112.662V113.026C84.5932 113.362 84.6725 113.605 84.8312 113.754C84.9898 113.903 85.2418 113.978 85.5872 113.978C86.3992 113.978 87.1692 113.661 87.8972 113.026V111.794H85.4052C85.1065 111.803 84.8965 111.883 84.7752 112.032C84.6538 112.172 84.5932 112.382 84.5932 112.662ZM94.3761 112.312L92.4721 111.836C91.9028 111.687 91.5014 111.467 91.2681 111.178C91.0348 110.879 90.9181 110.45 90.9181 109.89C90.9181 109.134 91.1188 108.625 91.5201 108.364C91.9308 108.103 92.6308 107.977 93.6201 107.986C94.7121 108.005 95.6828 108.084 96.5321 108.224L96.4201 109.204C94.9921 109.157 94.1288 109.134 93.8301 109.134C93.1674 109.134 92.7334 109.176 92.5281 109.26C92.3321 109.335 92.2341 109.545 92.2341 109.89C92.2341 110.049 92.2481 110.179 92.2761 110.282C92.3041 110.375 92.3741 110.455 92.4861 110.52C92.6074 110.585 92.7008 110.632 92.7661 110.66C92.8314 110.679 92.9761 110.721 93.2001 110.786L95.1321 111.262C95.7108 111.411 96.1214 111.626 96.3641 111.906C96.6068 112.177 96.7281 112.601 96.7281 113.18C96.7281 113.983 96.5041 114.515 96.0561 114.776C95.6174 115.028 94.8521 115.154 93.7601 115.154C92.8081 115.154 91.9028 115.089 91.0441 114.958L91.1421 113.95C91.6648 113.997 92.4441 114.02 93.4801 114.02C94.2454 114.02 94.7588 113.969 95.0201 113.866C95.2814 113.754 95.4121 113.525 95.4121 113.18C95.4121 113.031 95.3934 112.909 95.3561 112.816C95.3188 112.713 95.2394 112.629 95.1181 112.564C94.9968 112.499 94.8988 112.457 94.8241 112.438C94.7588 112.41 94.6094 112.368 94.3761 112.312ZM102.199 113.894L102.353 114.944C101.924 115.065 101.387 115.126 100.743 115.126C100.164 115.126 99.7211 114.963 99.4131 114.636C99.1145 114.3 98.9651 113.824 98.9651 113.208V109.218H97.7191V108.238L98.9651 108.182V106.166H100.309V108.168H102.423V109.218H100.309V113.026C100.309 113.343 100.374 113.567 100.505 113.698C100.645 113.829 100.878 113.894 101.205 113.894H102.199ZM106.866 106.502L106.768 105.41C107.73 105.242 108.654 105.158 109.54 105.158C110.614 105.158 111.384 105.321 111.85 105.648C112.317 105.975 112.55 106.558 112.55 107.398C112.55 108.845 112.079 109.657 111.136 109.834V109.89C111.734 109.993 112.154 110.245 112.396 110.646C112.648 111.038 112.784 111.593 112.802 112.312C112.821 113.311 112.592 114.039 112.116 114.496C111.64 114.953 110.838 115.182 109.708 115.182C108.822 115.182 107.79 115.098 106.614 114.93L106.698 113.796C107.79 113.889 108.677 113.936 109.358 113.936C110.114 113.936 110.646 113.805 110.954 113.544C111.262 113.283 111.416 112.821 111.416 112.158C111.416 111.589 111.29 111.169 111.038 110.898C110.786 110.618 110.306 110.478 109.596 110.478H107.818V109.386H109.596C110.259 109.377 110.693 109.232 110.898 108.952C111.104 108.672 111.206 108.266 111.206 107.734C111.197 107.165 111.066 106.801 110.814 106.642C110.562 106.474 110.068 106.39 109.33 106.39C108.565 106.39 107.744 106.427 106.866 106.502ZM115.303 106.32C115.817 105.545 116.694 105.158 117.935 105.158C119.177 105.158 120.049 105.545 120.553 106.32C121.067 107.085 121.323 108.369 121.323 110.17C121.323 111.971 121.067 113.259 120.553 114.034C120.049 114.799 119.177 115.182 117.935 115.182C116.694 115.182 115.817 114.799 115.303 114.034C114.799 113.259 114.547 111.971 114.547 110.17C114.547 108.369 114.799 107.085 115.303 106.32ZM117.921 106.376C117.175 106.376 116.652 106.661 116.353 107.23C116.064 107.79 115.919 108.77 115.919 110.17C115.919 111.57 116.064 112.555 116.353 113.124C116.652 113.684 117.175 113.964 117.921 113.964C118.696 113.964 119.228 113.684 119.517 113.124C119.816 112.564 119.965 111.579 119.965 110.17C119.965 108.761 119.816 107.776 119.517 107.216C119.228 106.656 118.696 106.376 117.921 106.376ZM126.477 115V105.34C127.699 105.256 128.861 105.214 129.963 105.214C131.381 105.214 132.371 105.573 132.931 106.292C133.5 107.011 133.785 108.303 133.785 110.17C133.785 112.037 133.5 113.329 132.931 114.048C132.371 114.767 131.381 115.126 129.963 115.126C128.861 115.126 127.699 115.084 126.477 115ZM127.877 106.446V113.866C128.474 113.894 129.169 113.908 129.963 113.908C130.84 113.908 131.447 113.637 131.783 113.096C132.128 112.555 132.301 111.579 132.301 110.17C132.301 108.761 132.128 107.785 131.783 107.244C131.447 106.703 130.84 106.432 129.963 106.432C129.683 106.432 129.309 106.437 128.843 106.446C128.385 106.446 128.063 106.446 127.877 106.446ZM135.717 109.302L135.591 108.308C136.823 108.093 137.929 107.986 138.909 107.986C139.74 107.986 140.351 108.154 140.743 108.49C141.135 108.826 141.331 109.409 141.331 110.24V115H140.267L140.113 113.922C139.329 114.725 138.419 115.126 137.383 115.126C136.749 115.126 136.24 114.958 135.857 114.622C135.484 114.286 135.297 113.81 135.297 113.194V112.48C135.297 111.939 135.465 111.519 135.801 111.22C136.137 110.921 136.613 110.772 137.229 110.772H139.973V110.24C139.964 109.82 139.866 109.531 139.679 109.372C139.493 109.213 139.138 109.134 138.615 109.134C138.102 109.134 137.136 109.19 135.717 109.302ZM136.669 112.662V113.026C136.669 113.362 136.749 113.605 136.907 113.754C137.066 113.903 137.318 113.978 137.663 113.978C138.475 113.978 139.245 113.661 139.973 113.026V111.794H137.481C137.183 111.803 136.973 111.883 136.851 112.032C136.73 112.172 136.669 112.382 136.669 112.662ZM149.546 108.168L146.9 115.322C146.266 117.002 145.22 117.851 143.764 117.87L143.624 116.974C144.156 116.815 144.576 116.596 144.884 116.316C145.192 116.036 145.44 115.681 145.626 115.252L145.724 115H145.444C145.183 115 145.024 114.883 144.968 114.65L142.546 108.168H144.002L145.696 113.138C145.808 113.427 145.888 113.707 145.934 113.978H146.13C146.224 113.726 146.317 113.446 146.41 113.138L148.09 108.168H149.546ZM153.917 112.312L152.013 111.836C151.444 111.687 151.042 111.467 150.809 111.178C150.576 110.879 150.459 110.45 150.459 109.89C150.459 109.134 150.66 108.625 151.061 108.364C151.472 108.103 152.172 107.977 153.161 107.986C154.253 108.005 155.224 108.084 156.073 108.224L155.961 109.204C154.533 109.157 153.67 109.134 153.371 109.134C152.708 109.134 152.274 109.176 152.069 109.26C151.873 109.335 151.775 109.545 151.775 109.89C151.775 110.049 151.789 110.179 151.817 110.282C151.845 110.375 151.915 110.455 152.027 110.52C152.148 110.585 152.242 110.632 152.307 110.66C152.372 110.679 152.517 110.721 152.741 110.786L154.673 111.262C155.252 111.411 155.662 111.626 155.905 111.906C156.148 112.177 156.269 112.601 156.269 113.18C156.269 113.983 156.045 114.515 155.597 114.776C155.158 115.028 154.393 115.154 153.301 115.154C152.349 115.154 151.444 115.089 150.585 114.958L150.683 113.95C151.206 113.997 151.985 114.02 153.021 114.02C153.786 114.02 154.3 113.969 154.561 113.866C154.822 113.754 154.953 113.525 154.953 113.18C154.953 113.031 154.934 112.909 154.897 112.816C154.86 112.713 154.78 112.629 154.659 112.564C154.538 112.499 154.44 112.457 154.365 112.438C154.3 112.41 154.15 112.368 153.917 112.312Z" fill="#DEFEFE"/>
</g>
<g filter="url(#filter4_d)">
<path d="M54.4246 175H53.0246V165.34H54.4246V175ZM57.7647 168.168L57.8347 169.218C58.7867 168.397 59.7014 167.986 60.5787 167.986C61.5214 167.986 62.1001 168.383 62.3147 169.176C63.2201 168.383 64.1161 167.986 65.0027 167.986C65.6001 167.986 66.0527 168.149 66.3607 168.476C66.6781 168.793 66.8367 169.26 66.8367 169.876V175H65.5067V170.268C65.4974 169.867 65.4181 169.577 65.2687 169.4C65.1194 169.223 64.8674 169.134 64.5127 169.134C64.2047 169.134 63.9107 169.204 63.6307 169.344C63.3507 169.484 62.9401 169.75 62.3987 170.142V175H61.0967V170.268C61.0967 169.857 61.0174 169.568 60.8587 169.4C60.7001 169.223 60.4481 169.134 60.1027 169.134C59.8041 169.134 59.5101 169.204 59.2207 169.344C58.9407 169.484 58.5301 169.745 57.9887 170.128V175H56.6447V168.168H57.7647ZM70.0147 168.168L70.1127 169.218C70.4674 168.845 70.9061 168.546 71.4287 168.322C71.9514 168.098 72.4601 167.986 72.9547 167.986C74.5041 167.986 75.2787 169.199 75.2787 171.626C75.2787 172.914 75.0687 173.829 74.6487 174.37C74.2287 174.902 73.5707 175.168 72.6747 175.168C71.7601 175.168 70.9387 174.939 70.2107 174.482C70.2481 174.874 70.2574 175.336 70.2387 175.868V177.786H68.8947V168.168H70.0147ZM70.2387 170.156V173.628C71.1814 173.871 71.8721 173.992 72.3107 173.992C72.8987 173.992 73.3047 173.833 73.5287 173.516C73.7621 173.189 73.8787 172.555 73.8787 171.612C73.8787 170.707 73.7714 170.072 73.5567 169.708C73.3514 169.344 72.9967 169.162 72.4927 169.162C71.9047 169.162 71.1534 169.493 70.2387 170.156ZM78.4425 165.2V173.026C78.4332 173.315 78.5032 173.535 78.6525 173.684C78.8018 173.824 79.0258 173.894 79.3245 173.894H79.9545L80.1085 174.944C79.8378 175.065 79.4038 175.126 78.8065 175.126C78.2745 175.126 77.8545 174.972 77.5465 174.664C77.2385 174.347 77.0845 173.903 77.0845 173.334V165.2H78.4425ZM81.7011 165.256H82.3451C82.6065 165.256 82.7371 165.387 82.7371 165.648V166.432C82.7371 166.703 82.6065 166.838 82.3451 166.838H81.7011C81.4398 166.838 81.3091 166.703 81.3091 166.432V165.648C81.3091 165.387 81.4398 165.256 81.7011 165.256ZM82.6951 175H81.3511V168.168H82.6951V175ZM89.0218 172.242H85.9558C86.0211 172.951 86.2031 173.427 86.5018 173.67C86.8098 173.913 87.3091 174.034 87.9998 174.034C88.6065 174.034 89.4045 173.978 90.3938 173.866L90.5198 174.762C89.9038 175.033 89.0031 175.168 87.8178 175.168C86.6231 175.168 85.7738 174.897 85.2698 174.356C84.7751 173.815 84.5278 172.886 84.5278 171.57C84.5278 170.245 84.7705 169.316 85.2558 168.784C85.7505 168.252 86.5625 167.986 87.6918 167.986C88.7371 167.986 89.4978 168.177 89.9738 168.56C90.4498 168.943 90.6878 169.517 90.6878 170.282C90.6878 171.589 90.1325 172.242 89.0218 172.242ZM85.9418 171.192H88.6578C89.1058 171.192 89.3298 170.889 89.3298 170.282C89.3205 169.862 89.1991 169.568 88.9658 169.4C88.7418 169.223 88.3405 169.134 87.7618 169.134C87.0898 169.134 86.6231 169.279 86.3618 169.568C86.1005 169.848 85.9605 170.389 85.9418 171.192ZM97.2827 175L97.1707 174.062C96.2933 174.799 95.3973 175.168 94.4827 175.168C93.6427 175.168 93.0313 174.869 92.6487 174.272C92.2753 173.665 92.0887 172.76 92.0887 171.556C92.0887 170.249 92.2987 169.33 92.7187 168.798C93.1387 168.257 93.7967 167.986 94.6927 167.986C95.5513 167.986 96.3353 168.191 97.0447 168.602C97.0073 168.201 96.9887 167.753 96.9887 167.258V165.2H98.3467V175H97.2827ZM96.9887 173.138V169.498C96.1393 169.274 95.486 169.162 95.0287 169.162C94.45 169.162 94.0487 169.325 93.8247 169.652C93.6007 169.969 93.4887 170.599 93.4887 171.542C93.4887 172.485 93.596 173.129 93.8107 173.474C94.0347 173.819 94.4127 173.992 94.9447 173.992C95.29 173.992 95.5933 173.931 95.8547 173.81C96.1253 173.689 96.5033 173.465 96.9887 173.138ZM110.595 175H109.097L108.271 171.99C108.066 171.346 107.66 171.024 107.053 171.024L105.065 171.01V175H103.679V165.34C104.472 165.256 105.597 165.214 107.053 165.214C108.22 165.214 109.041 165.415 109.517 165.816C110.002 166.217 110.245 166.95 110.245 168.014C110.245 168.789 110.105 169.372 109.825 169.764C109.554 170.156 109.102 170.394 108.467 170.478V170.548C109.092 170.735 109.498 171.201 109.685 171.948L110.595 175ZM105.065 169.82H107.025C107.716 169.811 108.187 169.689 108.439 169.456C108.7 169.213 108.831 168.761 108.831 168.098C108.831 167.445 108.7 167.001 108.439 166.768C108.187 166.535 107.716 166.418 107.025 166.418C106.073 166.418 105.42 166.423 105.065 166.432V169.82ZM116.338 172.242H113.272C113.338 172.951 113.52 173.427 113.818 173.67C114.126 173.913 114.626 174.034 115.316 174.034C115.923 174.034 116.721 173.978 117.71 173.866L117.836 174.762C117.22 175.033 116.32 175.168 115.134 175.168C113.94 175.168 113.09 174.897 112.586 174.356C112.092 173.815 111.844 172.886 111.844 171.57C111.844 170.245 112.087 169.316 112.572 168.784C113.067 168.252 113.879 167.986 115.008 167.986C116.054 167.986 116.814 168.177 117.29 168.56C117.766 168.943 118.004 169.517 118.004 170.282C118.004 171.589 117.449 172.242 116.338 172.242ZM113.258 171.192H115.974C116.422 171.192 116.646 170.889 116.646 170.282C116.637 169.862 116.516 169.568 116.282 169.4C116.058 169.223 115.657 169.134 115.078 169.134C114.406 169.134 113.94 169.279 113.678 169.568C113.417 169.848 113.277 170.389 113.258 171.192ZM123.493 173.894L123.647 174.944C123.218 175.065 122.681 175.126 122.037 175.126C121.458 175.126 121.015 174.963 120.707 174.636C120.408 174.3 120.259 173.824 120.259 173.208V169.218H119.013V168.238L120.259 168.182V166.166H121.603V168.168H123.717V169.218H121.603V173.026C121.603 173.343 121.668 173.567 121.799 173.698C121.939 173.829 122.172 173.894 122.499 173.894H123.493ZM131.049 168.168V175H129.971L129.873 174.062C128.874 174.809 127.903 175.182 126.961 175.182C125.719 175.182 125.099 174.552 125.099 173.292V168.168H126.457V172.9C126.447 173.32 126.517 173.614 126.667 173.782C126.816 173.941 127.073 174.02 127.437 174.02C127.969 174.02 128.725 173.717 129.705 173.11V168.168H131.049ZM137.535 167.986L137.381 169.26H136.961C136.429 169.26 135.612 169.521 134.511 170.044V175H133.153V168.168H134.203L134.343 169.204C135.36 168.392 136.317 167.986 137.213 167.986H137.535ZM139.961 168.168L140.045 169.218C141.118 168.397 142.126 167.986 143.069 167.986C143.675 167.986 144.133 168.149 144.441 168.476C144.758 168.793 144.917 169.26 144.917 169.876V175H143.559V170.268C143.559 169.839 143.493 169.545 143.363 169.386C143.241 169.218 143.017 169.134 142.691 169.134C142.336 169.134 141.981 169.213 141.627 169.372C141.272 169.531 140.787 169.792 140.171 170.156V175H138.813V168.168H139.961ZM150.055 172.312L148.151 171.836C147.581 171.687 147.18 171.467 146.947 171.178C146.713 170.879 146.597 170.45 146.597 169.89C146.597 169.134 146.797 168.625 147.199 168.364C147.609 168.103 148.309 167.977 149.299 167.986C150.391 168.005 151.361 168.084 152.211 168.224L152.099 169.204C150.671 169.157 149.807 169.134 149.509 169.134C148.846 169.134 148.412 169.176 148.207 169.26C148.011 169.335 147.913 169.545 147.913 169.89C147.913 170.049 147.927 170.179 147.955 170.282C147.983 170.375 148.053 170.455 148.165 170.52C148.286 170.585 148.379 170.632 148.445 170.66C148.51 170.679 148.655 170.721 148.879 170.786L150.811 171.262C151.389 171.411 151.8 171.626 152.043 171.906C152.285 172.177 152.407 172.601 152.407 173.18C152.407 173.983 152.183 174.515 151.735 174.776C151.296 175.028 150.531 175.154 149.439 175.154C148.487 175.154 147.581 175.089 146.723 174.958L146.821 173.95C147.343 173.997 148.123 174.02 149.159 174.02C149.924 174.02 150.437 173.969 150.699 173.866C150.96 173.754 151.091 173.525 151.091 173.18C151.091 173.031 151.072 172.909 151.035 172.816C150.997 172.713 150.918 172.629 150.797 172.564C150.675 172.499 150.577 172.457 150.503 172.438C150.437 172.41 150.288 172.368 150.055 172.312ZM91.0275 185.94L91.1955 186.57C90.2902 186.999 89.6275 187.713 89.2075 188.712C88.7969 189.711 88.5915 191.013 88.5915 192.618C88.5915 195.773 89.4595 197.793 91.1955 198.68L91.0275 199.31C89.7395 198.825 88.7922 198.045 88.1855 196.972C87.5789 195.889 87.2755 194.443 87.2755 192.632C87.2755 190.812 87.5789 189.361 88.1855 188.278C88.7922 187.195 89.7395 186.416 91.0275 185.94ZM97.6057 194.088H93.7557L92.8597 197H91.4317L94.4557 187.718C94.5303 187.466 94.703 187.34 94.9737 187.34H96.4017C96.6817 187.34 96.8497 187.466 96.9057 187.718L99.9437 197H98.5017L97.6057 194.088ZM97.2417 192.87L96.1077 189.202C96.0797 189.118 96.0377 188.987 95.9817 188.81C95.935 188.633 95.8977 188.502 95.8697 188.418H95.4917L95.2677 189.202L94.1337 192.87H97.2417ZM101.245 197V187.34C102.039 187.256 103.159 187.214 104.605 187.214C105.809 187.214 106.635 187.429 107.083 187.858C107.541 188.287 107.769 189.09 107.769 190.266C107.769 191.451 107.55 192.259 107.111 192.688C106.682 193.117 105.903 193.332 104.773 193.332C104.073 193.332 103.364 193.29 102.645 193.206V197H101.245ZM102.645 192.128H104.577C105.259 192.119 105.725 191.988 105.977 191.736C106.229 191.484 106.355 190.994 106.355 190.266C106.355 189.538 106.229 189.048 105.977 188.796C105.725 188.544 105.259 188.418 104.577 188.418C103.644 188.418 103 188.423 102.645 188.432V192.128ZM113.072 193.654V197H111.672V193.64L108.48 187.34H109.964L111.91 191.302C111.985 191.461 112.125 191.834 112.33 192.422H112.428C112.624 191.843 112.764 191.475 112.848 191.316L114.794 187.34H116.25L113.072 193.654ZM116.8 186.57L116.968 185.94C118.265 186.416 119.217 187.195 119.824 188.278C120.43 189.361 120.734 190.812 120.734 192.632C120.734 194.443 120.43 195.889 119.824 196.972C119.217 198.045 118.265 198.825 116.968 199.31L116.8 198.68C118.536 197.793 119.404 195.773 119.404 192.618C119.404 191.013 119.194 189.711 118.774 188.712C118.363 187.713 117.705 186.999 116.8 186.57Z" fill="#DEFEFE"/>
</g>
<defs>
<filter id="filter0_d" x="0" y="48" width="459" height="182" filterUnits="userSpaceOnUse" color-interpolation-filters="sRGB">
<feFlood flood-opacity="0" result="BackgroundImageFix"/>
<feColorMatrix in="SourceAlpha" type="matrix" values="0 0 0 0 0 0 0 0 0 0 0 0 0 0 0 0 0 0 127 0"/>
<feOffset/>
<feGaussianBlur stdDeviation="5"/>
<feColorMatrix type="matrix" values="0 0 0 0 0.270833 0 0 0 0 1 0 0 0 0 0.95625 0 0 0 1 0"/>
<feBlend mode="normal" in2="BackgroundImageFix" result="effect1_dropShadow"/>
<feBlend mode="normal" in="SourceGraphic" in2="effect1_dropShadow" result="shape"/>
</filter>
<filter id="filter1_d" x="363.47" y="23.321" width="32.9801" height="16.868" filterUnits="userSpaceOnUse" color-interpolation-filters="sRGB">
<feFlood flood-opacity="0" result="BackgroundImageFix"/>
<feColorMatrix in="SourceAlpha" type="matrix" values="0 0 0 0 0 0 0 0 0 0 0 0 0 0 0 0 0 0 127 0"/>
<feOffset/>
<feGaussianBlur stdDeviation="0.5"/>
<feColorMatrix type="matrix" values="0 0 0 0 0.870588 0 0 0 0 0.996078 0 0 0 0 0.996078 0 0 0 1 0"/>
<feBlend mode="normal" in2="BackgroundImageFix" result="effect1_dropShadow"/>
<feBlend mode="normal" in="SourceGraphic" in2="effect1_dropShadow" result="shape"/>
</filter>
<filter id="filter2_d" x="238.344" y="23.447" width="38.3459" height="16.616" filterUnits="userSpaceOnUse" color-interpolation-filters="sRGB">
<feFlood flood-opacity="0" result="BackgroundImageFix"/>
<feColorMatrix in="SourceAlpha" type="matrix" values="0 0 0 0 0 0 0 0 0 0 0 0 0 0 0 0 0 0 127 0"/>
<feOffset/>
<feGaussianBlur stdDeviation="0.5"/>
<feColorMatrix type="matrix" values="0 0 0 0 0.870588 0 0 0 0 0.996078 0 0 0 0 0.996078 0 0 0 1 0"/>
<feBlend mode="normal" in2="BackgroundImageFix" result="effect1_dropShadow"/>
<feBlend mode="normal" in="SourceGraphic" in2="effect1_dropShadow" result="shape"/>
</filter>
<filter id="filter3_d" x="50.4398" y="81.962" width="106.829" height="36.908" filterUnits="userSpaceOnUse" color-interpolation-filters="sRGB">
<feFlood flood-opacity="0" result="BackgroundImageFix"/>
<feColorMatrix in="SourceAlpha" type="matrix" values="0 0 0 0 0 0 0 0 0 0 0 0 0 0 0 0 0 0 127 0"/>
<feOffset/>
<feGaussianBlur stdDeviation="0.5"/>
<feColorMatrix type="matrix" values="0 0 0 0 0.870588 0 0 0 0 0.996078 0 0 0 0 0.996078 0 0 0 1 0"/>
<feBlend mode="normal" in2="BackgroundImageFix" result="effect1_dropShadow"/>
<feBlend mode="normal" in="SourceGraphic" in2="effect1_dropShadow" result="shape"/>
</filter>
<filter id="filter4_d" x="52.0246" y="164.2" width="101.382" height="36.11" filterUnits="userSpaceOnUse" color-interpolation-filters="sRGB">
<feFlood flood-opacity="0" result="BackgroundImageFix"/>
<feColorMatrix in="SourceAlpha" type="matrix" values="0 0 0 0 0 0 0 0 0 0 0 0 0 0 0 0 0 0 127 0"/>
<feOffset/>
<feGaussianBlur stdDeviation="0.5"/>
<feColorMatrix type="matrix" values="0 0 0 0 0.870588 0 0 0 0 0.996078 0 0 0 0 0.996078 0 0 0 1 0"/>
<feBlend mode="normal" in2="BackgroundImageFix" result="effect1_dropShadow"/>
<feBlend mode="normal" in="SourceGraphic" in2="effect1_dropShadow" result="shape"/>
</filter>
<linearGradient id="paint0_linear" x1="439" y1="119.5" x2="199" y2="119.5" gradientUnits="userSpaceOnUse">
<stop stop-color="#067079"/>
<stop offset="0.244792" stop-color="#088691"/>
<stop offset="0.5" stop-color="#067079"/>
<stop offset="0.755208" stop-color="#088691"/>
<stop offset="1" stop-color="#067079"/>
</linearGradient>
</defs>
</svg>
