<svg width="330" height="237" viewBox="0 0 330 237" fill="none" xmlns="http://www.w3.org/2000/svg">
<g filter="url(#filter0_d)">
<path fill-rule="evenodd" clip-rule="evenodd" d="M12 60H318V218H12V60ZM10 58H12H318H320V60V218V220H318H12H10V218V60V58ZM317.98 138H12.0195V140H317.98V138Z" fill="#45FFF4"/>
</g>
<rect x="12" y="60" width="306" height="78" fill="#0F5467"/>
<rect x="12" y="140" width="306" height="78" fill="#0F5467"/>
<rect x="133" y="2" width="180" height="235" fill="url(#paint0_linear)" fill-opacity="0.8"/>
<rect x="132" y="2" width="1" height="235" fill="#00CCC0"/>
<rect x="313" y="2" width="1" height="235" fill="#00CCC0"/>
<path fill-rule="evenodd" clip-rule="evenodd" d="M131 15L133 17V2H153L154 4H202L203 2H243L244 4H292L293 2H313V17L315 15V0H314H313H133H131V2V15Z" fill="#DEFEFE"/>
<path fill-rule="evenodd" clip-rule="evenodd" d="M131 222L133 220V235H163L164 233H212L213 235H233L234 233H282L283 235H313V220L315 222V235V237H313H133H131V235V222Z" fill="#DEFEFE"/>
<g filter="url(#filter1_d)">
<path d="M253.47 39V24.51C255.458 24.384 257.334 24.321 259.098 24.321C261.408 24.321 263.011 24.853 263.907 25.917C264.817 26.981 265.272 28.927 265.272 31.755C265.272 34.583 264.817 36.529 263.907 37.593C263.011 38.657 261.408 39.189 259.098 39.189C257.334 39.189 255.458 39.126 253.47 39ZM256.662 26.841V36.648C256.9 36.648 257.285 36.655 257.817 36.669C258.363 36.669 258.79 36.669 259.098 36.669C260.176 36.669 260.911 36.326 261.303 35.64C261.709 34.954 261.912 33.659 261.912 31.755C261.912 29.851 261.709 28.556 261.303 27.87C260.911 27.17 260.176 26.82 259.098 26.82L256.662 26.841ZM275.454 35.199H270.477L269.427 39H266.151L270.33 25.35C270.386 25.098 270.519 24.895 270.729 24.741C270.939 24.587 271.177 24.51 271.443 24.51H274.467C275.069 24.51 275.44 24.79 275.58 25.35L279.759 39H276.504L275.454 35.199ZM274.761 32.721L273.543 28.29C273.375 27.59 273.277 27.135 273.249 26.925H272.682C272.654 27.065 272.605 27.289 272.535 27.597C272.465 27.905 272.409 28.136 272.367 28.29L271.149 32.721H274.761ZM284.45 39H281.258V24.51H284.45V39Z" fill="#DEFEFE"/>
</g>
<g filter="url(#filter2_d)">
<path d="M169.109 36.501L169.256 38.853C167.94 38.993 165.7 39.063 162.536 39.063C161.57 39.063 160.8 38.804 160.226 38.286C159.652 37.754 159.358 37.04 159.344 36.144V27.366C159.358 26.47 159.652 25.763 160.226 25.245C160.8 24.713 161.57 24.447 162.536 24.447C165.7 24.447 167.94 24.517 169.256 24.657L169.109 27.03H163.544C163.194 27.03 162.942 27.114 162.788 27.282C162.634 27.45 162.557 27.723 162.557 28.101V30.306H168.332V32.616H162.557V35.409C162.557 35.801 162.634 36.081 162.788 36.249C162.942 36.417 163.194 36.501 163.544 36.501H169.109ZM182.343 27.114H178.017V39H174.804V27.114H170.478V24.51H182.343V27.114ZM195.69 24.51V39H192.498V32.532H187.374V39H184.182V24.51H187.374V30.054H192.498V24.51H195.69Z" fill="#DEFEFE"/>
</g>
<g filter="url(#filter3_d)">
<path d="M28.4221 93V84.72C29.1021 84.648 30.0621 84.612 31.3021 84.612C32.3341 84.612 33.0421 84.796 33.4261 85.164C33.8181 85.532 34.0141 86.22 34.0141 87.228C34.0141 88.244 33.8261 88.936 33.4501 89.304C33.0821 89.672 32.4141 89.856 31.4461 89.856C30.8461 89.856 30.2381 89.82 29.6221 89.748V93H28.4221ZM29.6221 88.824H31.2781C31.8621 88.816 32.2621 88.704 32.4781 88.488C32.6941 88.272 32.8021 87.852 32.8021 87.228C32.8021 86.604 32.6941 86.184 32.4781 85.968C32.2621 85.752 31.8621 85.644 31.2781 85.644C30.4781 85.644 29.9261 85.648 29.6221 85.656V88.824ZM35.7053 87.696C36.1293 87.224 36.8493 86.988 37.8653 86.988C38.8813 86.988 39.6013 87.224 40.0253 87.696C40.4493 88.168 40.6613 88.964 40.6613 90.084C40.6613 91.204 40.4493 91.996 40.0253 92.46C39.6013 92.924 38.8813 93.156 37.8653 93.156C36.8493 93.156 36.1293 92.924 35.7053 92.46C35.2813 91.996 35.0693 91.204 35.0693 90.084C35.0693 88.964 35.2813 88.168 35.7053 87.696ZM39.1133 88.416C38.8893 88.12 38.4733 87.972 37.8653 87.972C37.2573 87.972 36.8413 88.12 36.6173 88.416C36.3933 88.712 36.2813 89.268 36.2813 90.084C36.2813 90.892 36.3933 91.444 36.6173 91.74C36.8413 92.036 37.2573 92.184 37.8653 92.184C38.4733 92.184 38.8893 92.036 39.1133 91.74C39.3373 91.444 39.4493 90.892 39.4493 90.084C39.4493 89.268 39.3373 88.712 39.1133 88.416ZM42.5491 87.696C42.9731 87.224 43.6931 86.988 44.7091 86.988C45.7251 86.988 46.4451 87.224 46.8691 87.696C47.2931 88.168 47.5051 88.964 47.5051 90.084C47.5051 91.204 47.2931 91.996 46.8691 92.46C46.4451 92.924 45.7251 93.156 44.7091 93.156C43.6931 93.156 42.9731 92.924 42.5491 92.46C42.1251 91.996 41.9131 91.204 41.9131 90.084C41.9131 88.964 42.1251 88.168 42.5491 87.696ZM45.9571 88.416C45.7331 88.12 45.3171 87.972 44.7091 87.972C44.1011 87.972 43.6851 88.12 43.4611 88.416C43.2371 88.712 43.1251 89.268 43.1251 90.084C43.1251 90.892 43.2371 91.444 43.4611 91.74C43.6851 92.036 44.1011 92.184 44.7091 92.184C45.3171 92.184 45.7331 92.036 45.9571 91.74C46.1811 91.444 46.2931 90.892 46.2931 90.084C46.2931 89.268 46.1811 88.712 45.9571 88.416ZM50.2088 84.6V91.308C50.2008 91.556 50.2608 91.744 50.3888 91.872C50.5168 91.992 50.7088 92.052 50.9648 92.052H51.5048L51.6368 92.952C51.4048 93.056 51.0328 93.108 50.5208 93.108C50.0648 93.108 49.7048 92.976 49.4408 92.712C49.1768 92.44 49.0448 92.06 49.0448 91.572V84.6H50.2088ZM61.0571 93H59.7731L59.0651 90.42C58.8891 89.868 58.5411 89.592 58.0211 89.592L56.3171 89.58V93H55.1291V84.72C55.8091 84.648 56.7731 84.612 58.0211 84.612C59.0211 84.612 59.7251 84.784 60.1331 85.128C60.5491 85.472 60.7571 86.1 60.7571 87.012C60.7571 87.676 60.6371 88.176 60.3971 88.512C60.1651 88.848 59.7771 89.052 59.2331 89.124V89.184C59.7691 89.344 60.1171 89.744 60.2771 90.384L61.0571 93ZM56.3171 88.56H57.9971C58.5891 88.552 58.9931 88.448 59.2091 88.248C59.4331 88.04 59.5451 87.652 59.5451 87.084C59.5451 86.524 59.4331 86.144 59.2091 85.944C58.9931 85.744 58.5891 85.644 57.9971 85.644C57.1811 85.644 56.6211 85.648 56.3171 85.656V88.56ZM65.9799 90.636H63.3519C63.4079 91.244 63.5639 91.652 63.8199 91.86C64.0839 92.068 64.5119 92.172 65.1039 92.172C65.6239 92.172 66.3079 92.124 67.1559 92.028L67.2639 92.796C66.7359 93.028 65.9639 93.144 64.9479 93.144C63.9239 93.144 63.1959 92.912 62.7639 92.448C62.3399 91.984 62.1279 91.188 62.1279 90.06C62.1279 88.924 62.3359 88.128 62.7519 87.672C63.1759 87.216 63.8719 86.988 64.8399 86.988C65.7359 86.988 66.3879 87.152 66.7959 87.48C67.2039 87.808 67.4079 88.3 67.4079 88.956C67.4079 90.076 66.9319 90.636 65.9799 90.636ZM63.3399 89.736H65.6679C66.0519 89.736 66.2439 89.476 66.2439 88.956C66.2359 88.596 66.1319 88.344 65.9319 88.2C65.7399 88.048 65.3959 87.972 64.8999 87.972C64.3239 87.972 63.9239 88.096 63.6999 88.344C63.4759 88.584 63.3559 89.048 63.3399 89.736ZM72.1127 92.052L72.2447 92.952C71.8767 93.056 71.4167 93.108 70.8647 93.108C70.3687 93.108 69.9887 92.968 69.7247 92.688C69.4687 92.4 69.3407 91.992 69.3407 91.464V88.044H68.2727V87.204L69.3407 87.156V85.428H70.4927V87.144H72.3047V88.044H70.4927V91.308C70.4927 91.58 70.5487 91.772 70.6607 91.884C70.7807 91.996 70.9807 92.052 71.2607 92.052H72.1127ZM78.589 87.144V93H77.665L77.581 92.196C76.725 92.836 75.893 93.156 75.085 93.156C74.021 93.156 73.489 92.616 73.489 91.536V87.144H74.653V91.2C74.645 91.56 74.705 91.812 74.833 91.956C74.961 92.092 75.181 92.16 75.493 92.16C75.949 92.16 76.597 91.9 77.437 91.38V87.144H78.589ZM84.1482 86.988L84.0162 88.08H83.6562C83.2002 88.08 82.5002 88.304 81.5562 88.752V93H80.3922V87.144H81.2922L81.4122 88.032C82.2842 87.336 83.1042 86.988 83.8722 86.988H84.1482ZM86.2278 87.144L86.2998 88.044C87.2198 87.34 88.0838 86.988 88.8918 86.988C89.4118 86.988 89.8038 87.128 90.0678 87.408C90.3398 87.68 90.4758 88.08 90.4758 88.608V93H89.3118V88.944C89.3118 88.576 89.2558 88.324 89.1438 88.188C89.0398 88.044 88.8478 87.972 88.5678 87.972C88.2638 87.972 87.9598 88.04 87.6558 88.176C87.3518 88.312 86.9358 88.536 86.4078 88.848V93H85.2438V87.144H86.2278ZM94.8798 90.696L93.2478 90.288C92.7598 90.16 92.4158 89.972 92.2158 89.724C92.0158 89.468 91.9158 89.1 91.9158 88.62C91.9158 87.972 92.0878 87.536 92.4318 87.312C92.7838 87.088 93.3838 86.98 94.2318 86.988C95.1678 87.004 95.9998 87.072 96.7278 87.192L96.6318 88.032C95.4078 87.992 94.6678 87.972 94.4118 87.972C93.8438 87.972 93.4718 88.008 93.2958 88.08C93.1278 88.144 93.0438 88.324 93.0438 88.62C93.0438 88.756 93.0558 88.868 93.0798 88.956C93.1038 89.036 93.1638 89.104 93.2598 89.16C93.3638 89.216 93.4438 89.256 93.4998 89.28C93.5558 89.296 93.6798 89.332 93.8718 89.388L95.5278 89.796C96.0238 89.924 96.3758 90.108 96.5838 90.348C96.7918 90.58 96.8958 90.944 96.8958 91.44C96.8958 92.128 96.7038 92.584 96.3198 92.808C95.9438 93.024 95.2878 93.132 94.3518 93.132C93.5358 93.132 92.7598 93.076 92.0238 92.964L92.1078 92.1C92.5558 92.14 93.2238 92.16 94.1118 92.16C94.7678 92.16 95.2078 92.116 95.4318 92.028C95.6558 91.932 95.7678 91.736 95.7678 91.44C95.7678 91.312 95.7518 91.208 95.7198 91.128C95.6878 91.04 95.6198 90.968 95.5158 90.912C95.4118 90.856 95.3278 90.82 95.2638 90.804C95.2078 90.78 95.0798 90.744 94.8798 90.696ZM104.634 85.344H103.446C103.086 85.344 102.83 85.412 102.678 85.548C102.534 85.684 102.462 85.92 102.462 86.256V87.144H104.274V88.044H102.462V93H101.298V88.044H100.242V87.204L101.298 87.144V86.124C101.298 85.556 101.434 85.128 101.706 84.84C101.978 84.544 102.422 84.396 103.038 84.396C103.79 84.396 104.354 84.424 104.73 84.48L104.634 85.344ZM105.725 87.696C106.149 87.224 106.869 86.988 107.885 86.988C108.901 86.988 109.621 87.224 110.045 87.696C110.469 88.168 110.681 88.964 110.681 90.084C110.681 91.204 110.469 91.996 110.045 92.46C109.621 92.924 108.901 93.156 107.885 93.156C106.869 93.156 106.149 92.924 105.725 92.46C105.301 91.996 105.089 91.204 105.089 90.084C105.089 88.964 105.301 88.168 105.725 87.696ZM109.133 88.416C108.909 88.12 108.493 87.972 107.885 87.972C107.277 87.972 106.861 88.12 106.637 88.416C106.413 88.712 106.301 89.268 106.301 90.084C106.301 90.892 106.413 91.444 106.637 91.74C106.861 92.036 107.277 92.184 107.885 92.184C108.493 92.184 108.909 92.036 109.133 91.74C109.357 91.444 109.469 90.892 109.469 90.084C109.469 89.268 109.357 88.712 109.133 88.416ZM115.965 86.988L115.833 88.08H115.473C115.017 88.08 114.317 88.304 113.373 88.752V93H112.209V87.144H113.109L113.229 88.032C114.101 87.336 114.921 86.988 115.689 86.988H115.965ZM31.7884 111.052L31.9204 111.952C31.5524 112.056 31.0924 112.108 30.5404 112.108C30.0444 112.108 29.6644 111.968 29.4004 111.688C29.1444 111.4 29.0164 110.992 29.0164 110.464V107.044H27.9484V106.204L29.0164 106.156V104.428H30.1684V106.144H31.9804V107.044H30.1684V110.308C30.1684 110.58 30.2244 110.772 30.3364 110.884C30.4564 110.996 30.6564 111.052 30.9364 111.052H31.7884ZM34.3768 103.6V105.868C34.3768 106.268 34.3488 106.648 34.2928 107.008C35.2208 106.328 36.0728 105.988 36.8488 105.988C37.3608 105.988 37.7528 106.128 38.0248 106.408C38.2968 106.68 38.4328 107.08 38.4328 107.608V112H37.2688V107.944C37.2688 107.576 37.2128 107.324 37.1008 107.188C36.9968 107.044 36.8048 106.972 36.5248 106.972C36.2208 106.972 35.9088 107.04 35.5888 107.176C35.2768 107.312 34.8688 107.532 34.3648 107.836V112H33.2008V103.6H34.3768ZM43.7729 109.636H41.1449C41.2009 110.244 41.3569 110.652 41.6129 110.86C41.8769 111.068 42.3049 111.172 42.8969 111.172C43.4169 111.172 44.1009 111.124 44.9489 111.028L45.0569 111.796C44.5289 112.028 43.7569 112.144 42.7409 112.144C41.7169 112.144 40.9889 111.912 40.5569 111.448C40.1329 110.984 39.9209 110.188 39.9209 109.06C39.9209 107.924 40.1289 107.128 40.5449 106.672C40.9689 106.216 41.6649 105.988 42.6329 105.988C43.5289 105.988 44.1809 106.152 44.5889 106.48C44.9969 106.808 45.2009 107.3 45.2009 107.956C45.2009 109.076 44.7249 109.636 43.7729 109.636ZM41.1329 108.736H43.4609C43.8449 108.736 44.0369 108.476 44.0369 107.956C44.0289 107.596 43.9249 107.344 43.7249 107.2C43.5329 107.048 43.1889 106.972 42.6929 106.972C42.1169 106.972 41.7169 107.096 41.4929 107.344C41.2689 107.584 41.1489 108.048 41.1329 108.736ZM50.6098 103.72V110.224C50.6098 110.504 50.6658 110.704 50.7778 110.824C50.8898 110.936 51.0858 110.992 51.3658 110.992H54.3058L54.3658 111.916C53.5898 111.988 52.5258 112.024 51.1738 112.024C49.9978 112.024 49.4098 111.48 49.4098 110.392V103.72H50.6098ZM55.5496 107.116L55.4416 106.264C56.4976 106.08 57.4456 105.988 58.2856 105.988C58.9976 105.988 59.5216 106.132 59.8576 106.42C60.1936 106.708 60.3616 107.208 60.3616 107.92V112H59.4496L59.3176 111.076C58.6456 111.764 57.8656 112.108 56.9776 112.108C56.4336 112.108 55.9976 111.964 55.6696 111.676C55.3496 111.388 55.1896 110.98 55.1896 110.452V109.84C55.1896 109.376 55.3336 109.016 55.6216 108.76C55.9096 108.504 56.3176 108.376 56.8456 108.376H59.1976V107.92C59.1896 107.56 59.1056 107.312 58.9456 107.176C58.7856 107.04 58.4816 106.972 58.0336 106.972C57.5936 106.972 56.7656 107.02 55.5496 107.116ZM56.3656 109.996V110.308C56.3656 110.596 56.4336 110.804 56.5696 110.932C56.7056 111.06 56.9216 111.124 57.2176 111.124C57.9136 111.124 58.5736 110.852 59.1976 110.308V109.252H57.0616C56.8056 109.26 56.6256 109.328 56.5216 109.456C56.4176 109.576 56.3656 109.756 56.3656 109.996ZM64.7509 109.696L63.1189 109.288C62.6309 109.16 62.2869 108.972 62.0869 108.724C61.8869 108.468 61.7869 108.1 61.7869 107.62C61.7869 106.972 61.9589 106.536 62.3029 106.312C62.6549 106.088 63.2549 105.98 64.1029 105.988C65.0389 106.004 65.8709 106.072 66.5989 106.192L66.5029 107.032C65.2789 106.992 64.5389 106.972 64.2829 106.972C63.7149 106.972 63.3429 107.008 63.1669 107.08C62.9989 107.144 62.9149 107.324 62.9149 107.62C62.9149 107.756 62.9269 107.868 62.9509 107.956C62.9749 108.036 63.0349 108.104 63.1309 108.16C63.2349 108.216 63.3149 108.256 63.3709 108.28C63.4269 108.296 63.5509 108.332 63.7429 108.388L65.3989 108.796C65.8949 108.924 66.2469 109.108 66.4549 109.348C66.6629 109.58 66.7669 109.944 66.7669 110.44C66.7669 111.128 66.5749 111.584 66.1909 111.808C65.8149 112.024 65.1589 112.132 64.2229 112.132C63.4069 112.132 62.6309 112.076 61.8949 111.964L61.9789 111.1C62.4269 111.14 63.0949 111.16 63.9829 111.16C64.6389 111.16 65.0789 111.116 65.3029 111.028C65.5269 110.932 65.6389 110.736 65.6389 110.44C65.6389 110.312 65.6229 110.208 65.5909 110.128C65.5589 110.04 65.4909 109.968 65.3869 109.912C65.2829 109.856 65.1989 109.82 65.1349 109.804C65.0789 109.78 64.9509 109.744 64.7509 109.696ZM71.4564 111.052L71.5884 111.952C71.2204 112.056 70.7604 112.108 70.2084 112.108C69.7124 112.108 69.3324 111.968 69.0684 111.688C68.8124 111.4 68.6844 110.992 68.6844 110.464V107.044H67.6164V106.204L68.6844 106.156V104.428H69.8364V106.144H71.6484V107.044H69.8364V110.308C69.8364 110.58 69.8924 110.772 70.0044 110.884C70.1244 110.996 70.3244 111.052 70.6044 111.052H71.4564ZM75.4569 104.716L75.3729 103.78C76.1969 103.636 76.9889 103.564 77.7489 103.564C78.6689 103.564 79.3289 103.704 79.7289 103.984C80.1289 104.264 80.3289 104.764 80.3289 105.484C80.3289 106.724 79.9249 107.42 79.1169 107.572V107.62C79.6289 107.708 79.9889 107.924 80.1969 108.268C80.4129 108.604 80.5289 109.08 80.5449 109.696C80.5609 110.552 80.3649 111.176 79.9569 111.568C79.5489 111.96 78.8609 112.156 77.8929 112.156C77.1329 112.156 76.2489 112.084 75.2409 111.94L75.3129 110.968C76.2489 111.048 77.0089 111.088 77.5929 111.088C78.2409 111.088 78.6969 110.976 78.9609 110.752C79.2249 110.528 79.3569 110.132 79.3569 109.564C79.3569 109.076 79.2489 108.716 79.0329 108.484C78.8169 108.244 78.4049 108.124 77.7969 108.124H76.2729V107.188H77.7969C78.3649 107.18 78.7369 107.056 78.9129 106.816C79.0889 106.576 79.1769 106.228 79.1769 105.772C79.1689 105.284 79.0569 104.972 78.8409 104.836C78.6249 104.692 78.2009 104.62 77.5689 104.62C76.9129 104.62 76.2089 104.652 75.4569 104.716ZM82.6886 104.56C83.1286 103.896 83.8806 103.564 84.9446 103.564C86.0086 103.564 86.7566 103.896 87.1886 104.56C87.6286 105.216 87.8486 106.316 87.8486 107.86C87.8486 109.404 87.6286 110.508 87.1886 111.172C86.7566 111.828 86.0086 112.156 84.9446 112.156C83.8806 112.156 83.1286 111.828 82.6886 111.172C82.2566 110.508 82.0406 109.404 82.0406 107.86C82.0406 106.316 82.2566 105.216 82.6886 104.56ZM84.9326 104.608C84.2926 104.608 83.8446 104.852 83.5886 105.34C83.3406 105.82 83.2166 106.66 83.2166 107.86C83.2166 109.06 83.3406 109.904 83.5886 110.392C83.8446 110.872 84.2926 111.112 84.9326 111.112C85.5966 111.112 86.0526 110.872 86.3006 110.392C86.5566 109.912 86.6846 109.068 86.6846 107.86C86.6846 106.652 86.5566 105.808 86.3006 105.328C86.0526 104.848 85.5966 104.608 84.9326 104.608ZM92.2658 112V103.72C93.3138 103.648 94.3098 103.612 95.2538 103.612C96.4698 103.612 97.3178 103.92 97.7978 104.536C98.2858 105.152 98.5298 106.26 98.5298 107.86C98.5298 109.46 98.2858 110.568 97.7978 111.184C97.3178 111.8 96.4698 112.108 95.2538 112.108C94.3098 112.108 93.3138 112.072 92.2658 112ZM93.4658 104.668V111.028C93.9778 111.052 94.5738 111.064 95.2538 111.064C96.0058 111.064 96.5258 110.832 96.8138 110.368C97.1098 109.904 97.2578 109.068 97.2578 107.86C97.2578 106.652 97.1098 105.816 96.8138 105.352C96.5258 104.888 96.0058 104.656 95.2538 104.656C95.0138 104.656 94.6938 104.66 94.2938 104.668C93.9018 104.668 93.6258 104.668 93.4658 104.668ZM100.186 107.116L100.078 106.264C101.134 106.08 102.082 105.988 102.922 105.988C103.634 105.988 104.158 106.132 104.494 106.42C104.83 106.708 104.998 107.208 104.998 107.92V112H104.086L103.954 111.076C103.282 111.764 102.502 112.108 101.614 112.108C101.07 112.108 100.634 111.964 100.306 111.676C99.9863 111.388 99.8263 110.98 99.8263 110.452V109.84C99.8263 109.376 99.9703 109.016 100.258 108.76C100.546 108.504 100.954 108.376 101.482 108.376H103.834V107.92C103.826 107.56 103.742 107.312 103.582 107.176C103.422 107.04 103.118 106.972 102.67 106.972C102.23 106.972 101.402 107.02 100.186 107.116ZM101.002 109.996V110.308C101.002 110.596 101.07 110.804 101.206 110.932C101.342 111.06 101.558 111.124 101.854 111.124C102.55 111.124 103.21 110.852 103.834 110.308V109.252H101.698C101.442 109.26 101.262 109.328 101.158 109.456C101.054 109.576 101.002 109.756 101.002 109.996ZM112.04 106.144L109.772 112.276C109.228 113.716 108.332 114.444 107.084 114.46L106.964 113.692C107.42 113.556 107.78 113.368 108.044 113.128C108.308 112.888 108.52 112.584 108.68 112.216L108.764 112H108.524C108.3 112 108.164 111.9 108.116 111.7L106.04 106.144H107.288L108.74 110.404C108.836 110.652 108.904 110.892 108.944 111.124H109.112C109.192 110.908 109.272 110.668 109.352 110.404L110.792 106.144H112.04ZM115.786 109.696L114.154 109.288C113.666 109.16 113.322 108.972 113.122 108.724C112.922 108.468 112.822 108.1 112.822 107.62C112.822 106.972 112.994 106.536 113.338 106.312C113.69 106.088 114.29 105.98 115.138 105.988C116.074 106.004 116.906 106.072 117.634 106.192L117.538 107.032C116.314 106.992 115.574 106.972 115.318 106.972C114.75 106.972 114.378 107.008 114.202 107.08C114.034 107.144 113.95 107.324 113.95 107.62C113.95 107.756 113.962 107.868 113.986 107.956C114.01 108.036 114.07 108.104 114.166 108.16C114.27 108.216 114.35 108.256 114.406 108.28C114.462 108.296 114.586 108.332 114.778 108.388L116.434 108.796C116.93 108.924 117.282 109.108 117.49 109.348C117.698 109.58 117.802 109.944 117.802 110.44C117.802 111.128 117.61 111.584 117.226 111.808C116.85 112.024 116.194 112.132 115.258 112.132C114.442 112.132 113.666 112.076 112.93 111.964L113.014 111.1C113.462 111.14 114.13 111.16 115.018 111.16C115.674 111.16 116.114 111.116 116.338 111.028C116.562 110.932 116.674 110.736 116.674 110.44C116.674 110.312 116.658 110.208 116.626 110.128C116.594 110.04 116.526 109.968 116.422 109.912C116.318 109.856 116.234 109.82 116.17 109.804C116.114 109.78 115.986 109.744 115.786 109.696Z" fill="#DEFEFE"/>
</g>
<g filter="url(#filter4_d)">
<path d="M30.5068 172H29.3068V163.72H30.5068V172ZM33.3698 166.144L33.4298 167.044C34.2458 166.34 35.0298 165.988 35.7818 165.988C36.5898 165.988 37.0858 166.328 37.2698 167.008C38.0458 166.328 38.8138 165.988 39.5738 165.988C40.0858 165.988 40.4738 166.128 40.7378 166.408C41.0098 166.68 41.1458 167.08 41.1458 167.608V172H40.0058V167.944C39.9978 167.6 39.9298 167.352 39.8018 167.2C39.6738 167.048 39.4578 166.972 39.1538 166.972C38.8898 166.972 38.6378 167.032 38.3978 167.152C38.1578 167.272 37.8058 167.5 37.3418 167.836V172H36.2258V167.944C36.2258 167.592 36.1578 167.344 36.0218 167.2C35.8858 167.048 35.6698 166.972 35.3738 166.972C35.1178 166.972 34.8658 167.032 34.6178 167.152C34.3778 167.272 34.0258 167.496 33.5618 167.824V172H32.4098V166.144H33.3698ZM43.8698 166.144L43.9538 167.044C44.2578 166.724 44.6338 166.468 45.0818 166.276C45.5298 166.084 45.9658 165.988 46.3898 165.988C47.7178 165.988 48.3818 167.028 48.3818 169.108C48.3818 170.212 48.2018 170.996 47.8418 171.46C47.4818 171.916 46.9178 172.144 46.1498 172.144C45.3658 172.144 44.6618 171.948 44.0378 171.556C44.0698 171.892 44.0778 172.288 44.0618 172.744V174.388H42.9098V166.144H43.8698ZM44.0618 167.848V170.824C44.8698 171.032 45.4618 171.136 45.8378 171.136C46.3418 171.136 46.6898 171 46.8818 170.728C47.0818 170.448 47.1818 169.904 47.1818 169.096C47.1818 168.32 47.0898 167.776 46.9058 167.464C46.7298 167.152 46.4258 166.996 45.9938 166.996C45.4898 166.996 44.8458 167.28 44.0618 167.848ZM51.0936 163.6V170.308C51.0856 170.556 51.1456 170.744 51.2736 170.872C51.4016 170.992 51.5936 171.052 51.8496 171.052H52.3896L52.5216 171.952C52.2896 172.056 51.9176 172.108 51.4056 172.108C50.9496 172.108 50.5896 171.976 50.3256 171.712C50.0616 171.44 49.9296 171.06 49.9296 170.572V163.6H51.0936ZM53.8867 163.648H54.4387C54.6627 163.648 54.7747 163.76 54.7747 163.984V164.656C54.7747 164.888 54.6627 165.004 54.4387 165.004H53.8867C53.6627 165.004 53.5507 164.888 53.5507 164.656V163.984C53.5507 163.76 53.6627 163.648 53.8867 163.648ZM54.7387 172H53.5867V166.144H54.7387V172ZM60.1615 169.636H57.5335C57.5895 170.244 57.7455 170.652 58.0015 170.86C58.2655 171.068 58.6935 171.172 59.2855 171.172C59.8055 171.172 60.4895 171.124 61.3375 171.028L61.4455 171.796C60.9175 172.028 60.1455 172.144 59.1295 172.144C58.1055 172.144 57.3775 171.912 56.9455 171.448C56.5215 170.984 56.3095 170.188 56.3095 169.06C56.3095 167.924 56.5175 167.128 56.9335 166.672C57.3575 166.216 58.0535 165.988 59.0215 165.988C59.9175 165.988 60.5695 166.152 60.9775 166.48C61.3855 166.808 61.5895 167.3 61.5895 167.956C61.5895 169.076 61.1135 169.636 60.1615 169.636ZM57.5215 168.736H59.8495C60.2335 168.736 60.4255 168.476 60.4255 167.956C60.4175 167.596 60.3135 167.344 60.1135 167.2C59.9215 167.048 59.5775 166.972 59.0815 166.972C58.5055 166.972 58.1055 167.096 57.8815 167.344C57.6575 167.584 57.5375 168.048 57.5215 168.736ZM67.2423 172L67.1463 171.196C66.3943 171.828 65.6263 172.144 64.8423 172.144C64.1223 172.144 63.5983 171.888 63.2703 171.376C62.9503 170.856 62.7903 170.08 62.7903 169.048C62.7903 167.928 62.9703 167.14 63.3303 166.684C63.6903 166.22 64.2543 165.988 65.0223 165.988C65.7583 165.988 66.4303 166.164 67.0383 166.516C67.0063 166.172 66.9903 165.788 66.9903 165.364V163.6H68.1543V172H67.2423ZM66.9903 170.404V167.284C66.2623 167.092 65.7023 166.996 65.3103 166.996C64.8143 166.996 64.4703 167.136 64.2783 167.416C64.0863 167.688 63.9903 168.228 63.9903 169.036C63.9903 169.844 64.0823 170.396 64.2663 170.692C64.4583 170.988 64.7823 171.136 65.2383 171.136C65.5343 171.136 65.7943 171.084 66.0183 170.98C66.2503 170.876 66.5743 170.684 66.9903 170.404ZM78.6528 172H77.3688L76.6608 169.42C76.4848 168.868 76.1368 168.592 75.6168 168.592L73.9128 168.58V172H72.7248V163.72C73.4048 163.648 74.3688 163.612 75.6168 163.612C76.6168 163.612 77.3208 163.784 77.7288 164.128C78.1448 164.472 78.3528 165.1 78.3528 166.012C78.3528 166.676 78.2328 167.176 77.9928 167.512C77.7608 167.848 77.3728 168.052 76.8288 168.124V168.184C77.3648 168.344 77.7128 168.744 77.8728 169.384L78.6528 172ZM73.9128 167.56H75.5928C76.1848 167.552 76.5888 167.448 76.8048 167.248C77.0288 167.04 77.1408 166.652 77.1408 166.084C77.1408 165.524 77.0288 165.144 76.8048 164.944C76.5888 164.744 76.1848 164.644 75.5928 164.644C74.7768 164.644 74.2168 164.648 73.9128 164.656V167.56ZM83.5756 169.636H80.9476C81.0036 170.244 81.1596 170.652 81.4156 170.86C81.6796 171.068 82.1076 171.172 82.6996 171.172C83.2196 171.172 83.9036 171.124 84.7516 171.028L84.8596 171.796C84.3316 172.028 83.5596 172.144 82.5436 172.144C81.5196 172.144 80.7916 171.912 80.3596 171.448C79.9356 170.984 79.7236 170.188 79.7236 169.06C79.7236 167.924 79.9316 167.128 80.3476 166.672C80.7716 166.216 81.4676 165.988 82.4356 165.988C83.3316 165.988 83.9836 166.152 84.3916 166.48C84.7996 166.808 85.0036 167.3 85.0036 167.956C85.0036 169.076 84.5276 169.636 83.5756 169.636ZM80.9356 168.736H83.2636C83.6476 168.736 83.8396 168.476 83.8396 167.956C83.8316 167.596 83.7276 167.344 83.5276 167.2C83.3356 167.048 82.9916 166.972 82.4956 166.972C81.9196 166.972 81.5196 167.096 81.2956 167.344C81.0716 167.584 80.9516 168.048 80.9356 168.736ZM89.7084 171.052L89.8404 171.952C89.4724 172.056 89.0124 172.108 88.4604 172.108C87.9644 172.108 87.5844 171.968 87.3204 171.688C87.0644 171.4 86.9364 170.992 86.9364 170.464V167.044H85.8684V166.204L86.9364 166.156V164.428H88.0884V166.144H89.9004V167.044H88.0884V170.308C88.0884 170.58 88.1444 170.772 88.2564 170.884C88.3764 170.996 88.5764 171.052 88.8564 171.052H89.7084ZM96.1847 166.144V172H95.2607L95.1767 171.196C94.3207 171.836 93.4887 172.156 92.6807 172.156C91.6167 172.156 91.0847 171.616 91.0847 170.536V166.144H92.2487V170.2C92.2407 170.56 92.3007 170.812 92.4287 170.956C92.5567 171.092 92.7767 171.16 93.0887 171.16C93.5447 171.16 94.1927 170.9 95.0327 170.38V166.144H96.1847ZM101.744 165.988L101.612 167.08H101.252C100.796 167.08 100.096 167.304 99.1519 167.752V172H97.9879V166.144H98.8879L99.0079 167.032C99.8799 166.336 100.7 165.988 101.468 165.988H101.744ZM103.823 166.144L103.895 167.044C104.815 166.34 105.679 165.988 106.487 165.988C107.007 165.988 107.399 166.128 107.663 166.408C107.935 166.68 108.071 167.08 108.071 167.608V172H106.907V167.944C106.907 167.576 106.851 167.324 106.739 167.188C106.635 167.044 106.443 166.972 106.163 166.972C105.859 166.972 105.555 167.04 105.251 167.176C104.947 167.312 104.531 167.536 104.003 167.848V172H102.839V166.144H103.823ZM112.476 169.696L110.844 169.288C110.356 169.16 110.012 168.972 109.812 168.724C109.612 168.468 109.512 168.1 109.512 167.62C109.512 166.972 109.684 166.536 110.028 166.312C110.38 166.088 110.98 165.98 111.828 165.988C112.764 166.004 113.596 166.072 114.324 166.192L114.228 167.032C113.004 166.992 112.264 166.972 112.008 166.972C111.44 166.972 111.068 167.008 110.892 167.08C110.724 167.144 110.64 167.324 110.64 167.62C110.64 167.756 110.652 167.868 110.676 167.956C110.7 168.036 110.76 168.104 110.856 168.16C110.96 168.216 111.04 168.256 111.096 168.28C111.152 168.296 111.276 168.332 111.468 168.388L113.124 168.796C113.62 168.924 113.972 169.108 114.18 169.348C114.388 169.58 114.492 169.944 114.492 170.44C114.492 171.128 114.3 171.584 113.916 171.808C113.54 172.024 112.884 172.132 111.948 172.132C111.132 172.132 110.356 172.076 109.62 171.964L109.704 171.1C110.152 171.14 110.82 171.16 111.708 171.16C112.364 171.16 112.804 171.116 113.028 171.028C113.252 170.932 113.364 170.736 113.364 170.44C113.364 170.312 113.348 170.208 113.316 170.128C113.284 170.04 113.216 169.968 113.112 169.912C113.008 169.856 112.924 169.82 112.86 169.804C112.804 169.78 112.676 169.744 112.476 169.696ZM61.8807 181.52L62.0247 182.06C61.2487 182.428 60.6807 183.04 60.3207 183.896C59.9687 184.752 59.7927 185.868 59.7927 187.244C59.7927 189.948 60.5367 191.68 62.0247 192.44L61.8807 192.98C60.7767 192.564 59.9647 191.896 59.4447 190.976C58.9247 190.048 58.6647 188.808 58.6647 187.256C58.6647 185.696 58.9247 184.452 59.4447 183.524C59.9647 182.596 60.7767 181.928 61.8807 181.52ZM67.5191 188.504H64.2191L63.4511 191H62.2271L64.8191 183.044C64.8831 182.828 65.0311 182.72 65.2631 182.72H66.4871C66.7271 182.72 66.8711 182.828 66.9191 183.044L69.5231 191H68.2871L67.5191 188.504ZM67.2071 187.46L66.2351 184.316C66.2111 184.244 66.1751 184.132 66.1271 183.98C66.0871 183.828 66.0551 183.716 66.0311 183.644H65.7071L65.5151 184.316L64.5431 187.46H67.2071ZM70.6389 191V182.72C71.3189 182.648 72.2789 182.612 73.5189 182.612C74.5509 182.612 75.2589 182.796 75.6429 183.164C76.0349 183.532 76.2309 184.22 76.2309 185.228C76.2309 186.244 76.0429 186.936 75.6669 187.304C75.2989 187.672 74.6309 187.856 73.6629 187.856C73.0629 187.856 72.4549 187.82 71.8389 187.748V191H70.6389ZM71.8389 186.824H73.4949C74.0789 186.816 74.4789 186.704 74.6949 186.488C74.9109 186.272 75.0189 185.852 75.0189 185.228C75.0189 184.604 74.9109 184.184 74.6949 183.968C74.4789 183.752 74.0789 183.644 73.4949 183.644C72.6949 183.644 72.1429 183.648 71.8389 183.656V186.824ZM80.7764 188.132V191H79.5764V188.12L76.8404 182.72H78.1124L79.7804 186.116C79.8444 186.252 79.9644 186.572 80.1404 187.076H80.2244C80.3924 186.58 80.5124 186.264 80.5844 186.128L82.2524 182.72H83.5004L80.7764 188.132ZM83.971 182.06L84.115 181.52C85.227 181.928 86.043 182.596 86.563 183.524C87.083 184.452 87.343 185.696 87.343 187.256C87.343 188.808 87.083 190.048 86.563 190.976C86.043 191.896 85.227 192.564 84.115 192.98L83.971 192.44C85.459 191.68 86.203 189.948 86.203 187.244C86.203 185.868 86.023 184.752 85.663 183.896C85.311 183.04 84.747 182.428 83.971 182.06Z" fill="#DEFEFE"/>
</g>
<defs>
<filter id="filter0_d" x="0" y="48" width="330" height="182" filterUnits="userSpaceOnUse" color-interpolation-filters="sRGB">
<feFlood flood-opacity="0" result="BackgroundImageFix"/>
<feColorMatrix in="SourceAlpha" type="matrix" values="0 0 0 0 0 0 0 0 0 0 0 0 0 0 0 0 0 0 127 0"/>
<feOffset/>
<feGaussianBlur stdDeviation="5"/>
<feColorMatrix type="matrix" values="0 0 0 0 0.270833 0 0 0 0 1 0 0 0 0 0.95625 0 0 0 1 0"/>
<feBlend mode="normal" in2="BackgroundImageFix" result="effect1_dropShadow"/>
<feBlend mode="normal" in="SourceGraphic" in2="effect1_dropShadow" result="shape"/>
</filter>
<filter id="filter1_d" x="252.47" y="23.321" width="32.9801" height="16.868" filterUnits="userSpaceOnUse" color-interpolation-filters="sRGB">
<feFlood flood-opacity="0" result="BackgroundImageFix"/>
<feColorMatrix in="SourceAlpha" type="matrix" values="0 0 0 0 0 0 0 0 0 0 0 0 0 0 0 0 0 0 127 0"/>
<feOffset/>
<feGaussianBlur stdDeviation="0.5"/>
<feColorMatrix type="matrix" values="0 0 0 0 0.870588 0 0 0 0 0.996078 0 0 0 0 0.996078 0 0 0 1 0"/>
<feBlend mode="normal" in2="BackgroundImageFix" result="effect1_dropShadow"/>
<feBlend mode="normal" in="SourceGraphic" in2="effect1_dropShadow" result="shape"/>
</filter>
<filter id="filter2_d" x="158.344" y="23.447" width="38.3459" height="16.616" filterUnits="userSpaceOnUse" color-interpolation-filters="sRGB">
<feFlood flood-opacity="0" result="BackgroundImageFix"/>
<feColorMatrix in="SourceAlpha" type="matrix" values="0 0 0 0 0 0 0 0 0 0 0 0 0 0 0 0 0 0 127 0"/>
<feOffset/>
<feGaussianBlur stdDeviation="0.5"/>
<feColorMatrix type="matrix" values="0 0 0 0 0.870588 0 0 0 0 0.996078 0 0 0 0 0.996078 0 0 0 1 0"/>
<feBlend mode="normal" in2="BackgroundImageFix" result="effect1_dropShadow"/>
<feBlend mode="normal" in="SourceGraphic" in2="effect1_dropShadow" result="shape"/>
</filter>
<filter id="filter3_d" x="26.9482" y="83.396" width="91.8537" height="32.064" filterUnits="userSpaceOnUse" color-interpolation-filters="sRGB">
<feFlood flood-opacity="0" result="BackgroundImageFix"/>
<feColorMatrix in="SourceAlpha" type="matrix" values="0 0 0 0 0 0 0 0 0 0 0 0 0 0 0 0 0 0 127 0"/>
<feOffset/>
<feGaussianBlur stdDeviation="0.5"/>
<feColorMatrix type="matrix" values="0 0 0 0 0.870588 0 0 0 0 0.996078 0 0 0 0 0.996078 0 0 0 1 0"/>
<feBlend mode="normal" in2="BackgroundImageFix" result="effect1_dropShadow"/>
<feBlend mode="normal" in="SourceGraphic" in2="effect1_dropShadow" result="shape"/>
</filter>
<filter id="filter4_d" x="28.3066" y="162.6" width="87.1847" height="31.38" filterUnits="userSpaceOnUse" color-interpolation-filters="sRGB">
<feFlood flood-opacity="0" result="BackgroundImageFix"/>
<feColorMatrix in="SourceAlpha" type="matrix" values="0 0 0 0 0 0 0 0 0 0 0 0 0 0 0 0 0 0 127 0"/>
<feOffset/>
<feGaussianBlur stdDeviation="0.5"/>
<feColorMatrix type="matrix" values="0 0 0 0 0.870588 0 0 0 0 0.996078 0 0 0 0 0.996078 0 0 0 1 0"/>
<feBlend mode="normal" in2="BackgroundImageFix" result="effect1_dropShadow"/>
<feBlend mode="normal" in="SourceGraphic" in2="effect1_dropShadow" result="shape"/>
</filter>
<linearGradient id="paint0_linear" x1="313" y1="119.5" x2="133" y2="119.5" gradientUnits="userSpaceOnUse">
<stop stop-color="#067079"/>
<stop offset="0.244792" stop-color="#088691"/>
<stop offset="0.5" stop-color="#067079"/>
<stop offset="0.755208" stop-color="#088691"/>
<stop offset="1" stop-color="#067079"/>
</linearGradient>
</defs>
</svg>
