<svg width="10" height="10" viewBox="0 0 10 10" fill="none" xmlns="http://www.w3.org/2000/svg">
<path d="M10 1.80825C9.93312 1.94947 9.80862 2.12784 9.62653 2.34337C9.44445 2.55889 9.21963 2.74842 8.95206 2.91192C8.9595 2.97139 8.96508 3.02712 8.96878 3.07915C8.99764 3.88015 8.80578 4.71121 8.53958 5.40357C8.02359 6.69084 7.23295 7.72686 6.10368 8.43032C4.92606 9.1058 3.55457 9.24947 2.29097 9.12708C1.45208 9.03074 0.625275 8.75681 0 8.2408C1.14361 8.3775 2.21088 7.98847 3.05463 7.36007C2.11736 7.3838 1.43637 6.70579 1.11483 5.92195C1.25978 5.95994 1.4114 5.95536 1.54962 5.94426C1.71975 5.92827 1.88125 5.91232 2.04014 5.87737C1.4425 5.68455 0.919567 5.33008 0.646608 4.79598C0.4865 4.45757 0.414208 4.1353 0.4125 3.77034C0.692542 3.91778 1.0294 4.06148 1.33781 4.04904C0.872042 3.65448 0.498642 3.15023 0.429225 2.57189C0.3854 2.08967 0.506067 1.64949 0.680067 1.23967C1.37679 2.00538 2.15853 2.63552 3.06022 3.0234C3.67687 3.27591 4.29177 3.41096 4.92756 3.41358C4.85417 2.84571 4.91123 2.2965 5.1784 1.83052C5.49282 1.32954 5.95155 1.03887 6.46603 0.894065C7.20218 0.705298 7.92017 0.97194 8.37239 1.48492C8.86007 1.43225 9.32723 1.2159 9.69903 0.994398C9.54105 1.47281 9.23342 1.9485 8.78488 2.17612C9.21193 2.09705 9.61945 1.97062 10 1.80825Z" fill="white"/>
</svg>
