<svg width="512" height="512" viewBox="0 0 512 512" fill="none" xmlns="http://www.w3.org/2000/svg">
<path d="M456 392C442.719 392 432 402.719 432 416V504H408V344C408 317.52 429.52 296 456 296C482.48 296 504 317.52 504 344C504 370.48 482.48 392 456 392ZM480 344C480 330.719 469.281 320 456 320C442.719 320 432 330.719 432 344V374.48C439.039 370.32 447.281 368 456 368C469.281 368 480 357.281 480 344V344Z" fill="#45FFF4"/>
<path d="M376 496V504H200C237.199 491.52 264.961 461.039 275.441 432H312C347.359 432 376 460.641 376 496Z" fill="#45FFF4"/>
<path d="M312 432H280C315.359 432 344 460.641 344 496V504H376V496C376 460.641 347.359 432 312 432Z" fill="#45FFF4"/>
<path d="M200 504H24V496C24 460.641 52.6406 432 88 432H124.559C135.039 461.039 162.801 491.52 200 504Z" fill="#45FFF4"/>
<path d="M200 316C200 327.039 208.961 336 220 336H248C261.039 336 272.719 329.68 280 320V408C280 415.602 278.398 423.762 275.441 432C264.961 461.039 237.207 491.52 200 504C162.801 491.52 135.039 461.039 124.559 432C121.602 423.762 120 415.602 120 408V320C127.281 329.68 138.961 336 152 336H180C191.039 336 200 327.039 200 316Z" fill="white"/>
<path d="M112 296V272C112 285.281 122.719 296 136 296H180C191.039 296 200 304.961 200 316C200 327.039 191.039 336 180 336H152C138.961 336 127.281 329.68 120 320V319.922C114.961 313.281 112 304.961 112 296Z" fill="white"/>
<path d="M264 296C277.281 296 288 285.281 288 272V296C288 304.961 285.039 313.281 280 319.922V320C272.719 329.68 261.039 336 248 336H220C208.961 336 200 327.039 200 316C200 304.961 208.961 296 220 296H264Z" fill="white"/>
<path d="M220 296C208.961 296 200 304.961 200 316C200 304.961 191.039 296 180 296H136C122.719 296 112 285.281 112 272V296C112 304.961 114.961 313.281 120 319.922V369.359C95.4414 347.359 80 315.527 80 280V224.078C112.879 229.039 154.641 232 200 232C245.359 232 287.121 229.039 320 224.078V280C320 315.52 304.559 347.441 280 369.359V319.922C285.039 313.281 288 304.961 288 296V272C288 285.281 277.281 296 264 296H220Z" fill="#DEFEFE"/>
<path d="M288 227.961V296C288 303.426 285.879 310.344 282.32 316.289C281.625 318.473 280.816 320.594 280 322.719V369.359C304.559 347.441 320 315.527 320 280V224.078C310.121 225.566 299.344 226.848 288 227.961Z" fill="#DEFEFE"/>
<path d="M93.9219 166C121.359 115.281 181.68 8 200 8C218.32 8 278.641 115.281 306.078 166C357.84 172.398 392 183.441 392 196C392 207.359 363.922 217.52 320 224.078C287.121 229.039 245.359 232 200 232C154.641 232 112.879 229.039 80 224.078C36.0781 217.527 8 207.359 8 196C8 183.441 42.1602 172.398 93.9219 166Z" fill="#45FFF4"/>
<path d="M200 8C176 8 80 192 80 192H320C320 192 224 8 200 8Z" fill="#656D78"/>
<path d="M200 8C176 8 80 192 80 192C80 192 97.6641 200 200 200C302.336 200 320 192 320 192C320 192 224 8 200 8Z" fill="#45FFF4"/>
<path d="M291.047 196.777C314.359 194.543 320 192 320 192C320 192 224 8 200 8C196.215 8 190.633 12.5937 183.93 20.3047C217.391 58.8633 280.113 176.137 291.047 196.777Z" fill="#45FFF4"/>
<path d="M24 504C19.5742 504 16 500.426 16 496C16 456.289 48.3047 423.984 88.0156 423.984C92.4414 423.984 96.0156 427.559 96.0156 431.984C96.0156 436.406 92.4414 439.984 88.0156 439.984C57.1289 439.984 32 465.113 32 496C32 500.426 28.4258 504 24 504Z" fill="#2D5286"/>
<path d="M376 503.992C371.574 503.992 368 500.414 368 495.992C368 465.121 342.871 439.992 312 439.992C307.574 439.992 304 436.414 304 431.992C304 427.566 307.574 423.992 312 423.992C351.703 423.992 384 456.289 384 495.992C384 500.414 380.426 503.992 376 503.992Z" fill="#2D5286"/>
<path d="M124.566 440L88.0156 439.984C83.5938 439.984 80.0156 436.398 80.0156 431.984C80.0156 427.559 83.6016 423.984 88.0156 423.984L124.566 424C128.992 424 132.566 427.586 132.566 432C132.566 436.426 128.984 440 124.566 440Z" fill="#2D5286"/>
<path d="M312 439.992L275.168 439.984C270.742 439.984 267.168 436.398 267.168 431.984C267.168 427.559 270.754 423.984 275.168 423.984L312 423.992C316.426 423.992 320 427.574 320 431.992C320 436.414 316.414 439.992 312 439.992Z" fill="#2D5286"/>
<path d="M80 295.984C75.5742 295.984 72 292.406 72 287.984V224.137C72 219.711 75.5742 216.137 80 216.137C84.4258 216.137 88 219.711 88 224.137V287.984C88 292.406 84.4258 295.984 80 295.984Z" fill="#2D5286"/>
<path d="M320 295.984C315.574 295.984 312 292.406 312 287.984V224.105C312 219.68 315.574 216.105 320 216.105C324.426 216.105 328 219.68 328 224.105V287.984C328 292.406 324.426 295.984 320 295.984Z" fill="#2D5286"/>
<path d="M152 343.977C125.527 343.977 104 322.449 104 295.977C104 291.551 107.574 287.977 112 287.977C116.426 287.977 120 291.551 120 295.977C120 313.625 134.352 327.977 152 327.977C156.426 327.977 160 331.551 160 335.977C160 340.398 156.426 343.977 152 343.977Z" fill="#2D5286"/>
<path d="M136 303.977C118.352 303.977 104 289.625 104 271.977C104 267.551 107.574 263.977 112 263.977C116.426 263.977 120 267.551 120 271.977C120 280.801 127.176 287.977 136 287.977C140.426 287.977 144 291.551 144 295.977C144 300.398 140.426 303.977 136 303.977Z" fill="#2D5286"/>
<path d="M180 303.977H136C131.574 303.977 128 300.398 128 295.977C128 291.551 131.574 287.977 136 287.977H180C184.426 287.977 188 291.551 188 295.977C188 300.398 184.426 303.977 180 303.977Z" fill="#2D5286"/>
<path d="M180 343.977H152C147.574 343.977 144 340.398 144 335.977C144 331.551 147.574 327.977 152 327.977H180C184.426 327.977 188 331.551 188 335.977C188 340.398 184.426 343.977 180 343.977Z" fill="#2D5286"/>
<path d="M180 343.977C175.574 343.977 172 340.398 172 335.977C172 331.551 175.574 327.977 180 327.977C186.617 327.977 192 322.594 192 315.977C192 309.359 186.617 303.977 180 303.977C175.574 303.977 172 300.398 172 295.977C172 291.551 175.574 287.977 180 287.977C195.441 287.977 208 300.535 208 315.977C208 331.414 195.441 343.977 180 343.977Z" fill="#2D5286"/>
<path d="M112 303.977C107.574 303.977 104 300.398 104 295.977V271.977C104 267.551 107.574 263.977 112 263.977C116.426 263.977 120 267.551 120 271.977V295.977C120 300.398 116.426 303.977 112 303.977Z" fill="#2D5286"/>
<path d="M248 343.977C243.574 343.977 240 340.398 240 335.977C240 331.551 243.574 327.977 248 327.977C265.648 327.977 280 313.625 280 295.977C280 291.551 283.574 287.977 288 287.977C292.426 287.977 296 291.551 296 295.977C296 322.449 274.473 343.977 248 343.977Z" fill="#2D5286"/>
<path d="M264 303.977C259.574 303.977 256 300.398 256 295.977C256 291.551 259.574 287.977 264 287.977C272.824 287.977 280 280.801 280 271.977C280 267.551 283.574 263.977 288 263.977C292.426 263.977 296 267.551 296 271.977C296 289.625 281.648 303.977 264 303.977Z" fill="#2D5286"/>
<path d="M264 303.977H220C215.574 303.977 212 300.398 212 295.977C212 291.551 215.574 287.977 220 287.977H264C268.426 287.977 272 291.551 272 295.977C272 300.398 268.426 303.977 264 303.977Z" fill="#2D5286"/>
<path d="M248 343.977H220C215.574 343.977 212 340.398 212 335.977C212 331.551 215.574 327.977 220 327.977H248C252.426 327.977 256 331.551 256 335.977C256 340.398 252.426 343.977 248 343.977Z" fill="#2D5286"/>
<path d="M220 343.977C204.559 343.977 192 331.414 192 315.977C192 300.535 204.559 287.977 220 287.977C224.426 287.977 228 291.551 228 295.977C228 300.398 224.426 303.977 220 303.977C213.383 303.977 208 309.359 208 315.977C208 322.594 213.383 327.977 220 327.977C224.426 327.977 228 331.551 228 335.977C228 340.398 224.426 343.977 220 343.977Z" fill="#2D5286"/>
<path d="M288 303.977C283.574 303.977 280 300.398 280 295.977V271.977C280 267.551 283.574 263.977 288 263.977C292.426 263.977 296 267.551 296 271.977V295.977C296 300.398 292.426 303.977 288 303.977Z" fill="#2D5286"/>
<path d="M120 415.977C115.574 415.977 112 412.398 112 407.977V319.953C112 315.527 115.574 311.953 120 311.953C124.426 311.953 128 315.527 128 319.953V407.977C128 412.398 124.426 415.977 120 415.977Z" fill="#2D5286"/>
<path d="M280 415.977C275.574 415.977 272 412.398 272 407.977V319.953C272 315.527 275.574 311.953 280 311.953C284.426 311.953 288 315.527 288 319.953V407.977C288 412.398 284.426 415.977 280 415.977Z" fill="#2D5286"/>
<path d="M200 511.977C199.145 511.977 198.281 511.832 197.465 511.559C144.672 493.895 112 444.039 112 407.977C112 403.551 115.574 399.977 120 399.977C124.426 399.977 128 403.551 128 407.977C128 438.039 156.824 479.832 200 495.504C243.176 479.832 271.992 438.031 271.992 407.977C271.992 403.551 275.566 399.977 279.992 399.977C284.414 399.977 287.992 403.551 287.992 407.977C287.992 444.039 255.32 493.895 202.535 511.559C201.719 511.832 200.855 511.977 200 511.977V511.977Z" fill="#2D5286"/>
<path d="M119.969 377.383C118.062 377.383 116.152 376.711 114.625 375.336C87.5352 351.055 72 316.289 72 279.961C72 275.535 75.5742 271.961 80 271.961C84.4258 271.961 88 275.535 88 279.961C88 311.754 101.602 342.168 125.312 363.434C128.602 366.375 128.871 371.434 125.922 374.727C124.344 376.488 122.168 377.383 119.969 377.383V377.383Z" fill="#2D5286"/>
<path d="M280 377.398C277.809 377.398 275.617 376.504 274.039 374.734C271.098 371.441 271.375 366.383 274.664 363.441C298.391 342.199 312 311.777 312 279.961C312 275.535 315.574 271.961 320 271.961C324.426 271.961 328 275.535 328 279.961C328 316.32 312.457 351.098 285.336 375.359C283.809 376.727 281.895 377.398 280 377.398V377.398Z" fill="#2D5286"/>
<path d="M200 240C191.832 240 0 239.496 0 196C0 191.574 3.57422 188 8 188C12.4258 188 16 191.574 16 196C19.4492 205.887 83.9219 224 200 224C316.078 224 380.551 205.887 384.031 195.754C384.031 191.328 387.594 187.879 392.016 187.879C396.441 187.879 400 191.574 400 196C400 239.504 208.168 240 200 240Z" fill="#2D5286"/>
<path d="M392 204C387.574 204 384 200.426 384 196C382.863 192.863 365.871 181.496 305.121 173.93C300.734 173.383 297.625 169.391 298.176 165C298.711 160.617 302.703 157.512 307.105 158.055C400 169.617 400 189.481 400 196C400 200.426 396.426 204 392 204Z" fill="#2D5286"/>
<path d="M7.98438 204.129C3.55859 204.129 0 200.426 0 196C0 189.48 0 169.625 92.8945 158.047C97.3047 157.52 101.289 160.609 101.824 164.992C102.367 169.383 99.2656 173.375 94.8789 173.922C34.1211 181.496 17.1289 192.863 15.9688 196.246C15.9688 200.672 12.4062 204.129 7.98438 204.129Z" fill="#2D5286"/>
<path d="M320.008 200C317.129 200 314.336 198.441 312.902 195.703C269.504 112.527 213.785 20.1523 199.441 15.9453C195.016 15.9453 191.711 12.3906 191.711 7.96875C191.719 3.55078 195.574 0 200 0C225.105 0 290.398 117.977 327.098 188.297C329.137 192.215 327.617 197.047 323.703 199.098C322.512 199.711 321.246 200 320.008 200V200Z" fill="#2D5286"/>
<path d="M79.9922 200C78.7539 200 77.4883 199.711 76.2969 199.098C72.3828 197.047 70.8633 192.223 72.9024 188.297C109.602 117.977 174.895 0 200 0C204.426 0 208 3.57422 208 8C208 12.4258 204.426 16 200 16C186.207 20.1523 130.496 112.52 87.0977 195.703C85.6641 198.441 82.8711 200 79.9922 200Z" fill="#2D5286"/>
<path d="M24 512C19.5742 512 16 508.426 16 504V496C16 491.574 19.5742 488 24 488C28.4258 488 32 491.574 32 496V504C32 508.426 28.4258 512 24 512Z" fill="#2D5286"/>
<path d="M376 512C371.574 512 368 508.426 368 504V495.992C368 491.566 371.574 487.992 376 487.992C380.426 487.992 384 491.566 384 495.992V504C384 508.426 380.426 512 376 512Z" fill="#2D5286"/>
<path d="M456 376C451.574 376 448 372.426 448 368C448 363.574 451.574 360 456 360C464.824 360 472 352.824 472 344C472 335.176 464.824 328 456 328C447.176 328 440 335.176 440 344C440 348.426 436.426 352 432 352C427.574 352 424 348.426 424 344C424 326.352 438.352 312 456 312C473.648 312 488 326.352 488 344C488 361.648 473.648 376 456 376Z" fill="#2D5286"/>
<path d="M432 511.977C427.574 511.977 424 508.398 424 503.977V344C424 339.574 427.574 336 432 336C436.426 336 440 339.574 440 344V503.977C440 508.398 436.426 511.977 432 511.977Z" fill="#2D5286"/>
<path d="M408 512C403.574 512 400 508.426 400 504V344C400 339.574 403.574 336 408 336C412.426 336 416 339.574 416 344V504C416 508.426 412.426 512 408 512Z" fill="#2D5286"/>
<path d="M456 400C451.574 400 448 396.426 448 392C448 387.574 451.574 384 456 384C478.055 384 496 366.055 496 344C496 321.945 478.055 304 456 304C433.945 304 416 321.945 416 344C416 348.426 412.426 352 408 352C403.574 352 400 348.426 400 344C400 313.129 425.129 288 456 288C486.871 288 512 313.129 512 344C512 374.871 486.871 400 456 400Z" fill="#2D5286"/>
<path d="M432 424C427.574 424 424 420.426 424 416C424 398.352 438.352 384 456 384C460.426 384 464 387.574 464 392C464 396.426 460.426 400 456 400C447.176 400 440 407.176 440 416C440 420.426 436.426 424 432 424Z" fill="#2D5286"/>
<path d="M432 382.449C429.238 382.449 426.559 381.016 425.07 378.465C422.855 374.641 424.16 369.754 427.977 367.527C436.457 362.602 446.152 360 456 360C460.426 360 464 363.574 464 368C464 372.426 460.426 376 456 376C448.961 376 442.055 377.848 436.008 381.367C434.742 382.098 433.367 382.449 432 382.449V382.449Z" fill="#2D5286"/>
</svg>
