<svg width="511" height="511" viewBox="0 0 511 511" fill="none" xmlns="http://www.w3.org/2000/svg">
<g clip-path="url(#clip0)">
<path d="M313.231 391.236C310.993 374.148 307.321 358.179 302.849 343.329C297.414 325.602 290.872 309.563 283.925 295.423C272.747 272.593 260.693 254.702 251.43 242.491C251.43 242.491 233.707 266.117 247.995 295.423V295.501C255.504 309.002 263.087 325.053 269.317 343.329C274.264 357.86 278.416 373.906 280.974 391.236C283.208 406.253 284.326 422.3 283.839 439.142C283.289 454.472 281.523 470.44 278.089 487.049C277.531 489.848 276.9 492.725 276.174 495.59L274.744 503.017H307.243C308.517 497.665 309.636 492.316 310.595 487.049C313.707 470.44 315.305 454.472 315.703 439.142C316.264 422.374 315.305 406.405 313.231 391.236Z" fill="#DEFEFE"/>
<path d="M248.003 295.423V295.501C255.504 309.002 263.087 325.053 269.317 343.329C274.264 357.86 278.416 373.906 280.973 391.236C283.207 406.253 284.326 422.3 283.839 439.142C283.289 454.472 281.523 470.44 278.089 487.049C277.531 489.848 276.899 492.725 276.174 495.59L274.743 503.017H72.3459C108.915 468.132 163.609 383.251 123.687 295.423H107.718C107.718 268.994 89.8352 247.517 67.7962 247.517C67.7962 247.517 75.7806 215.657 35.9405 199.61H35.8508C35.8508 199.61 43.8352 167.751 11.9795 143.719C14.5331 142.519 66.997 118.807 35.8508 79.8441H99.726C91.9833 41.197 46.7904 9.98063 43.9951 8.0625L195.539 79.8441H219.492L355.227 151.704L379.18 143.719L363.211 207.595L347.242 223.563L235.461 202.643V223.563C235.461 223.563 242.007 230.109 251.43 242.483C251.43 242.491 233.714 266.117 248.003 295.423Z" fill="#45FFF4"/>
<path d="M355.227 151.704L353.473 150.776L339.258 207.594L327.067 219.785L347.243 223.563L363.212 207.594L379.18 143.719L355.227 151.704Z" fill="#DEFEFE"/>
<path d="M347.325 231.548C346.83 231.548 346.342 231.497 345.847 231.411L218.097 207.458C213.762 206.643 210.908 202.468 211.723 198.14C212.537 193.813 216.658 190.944 221.04 191.758L344.646 214.94L356.073 203.513L367.98 155.895L357.832 159.279C355.746 159.965 353.504 159.782 351.57 158.76L217.594 87.8286H195.621C194.436 87.8286 193.27 87.5635 192.202 87.0605L40.4985 15.2009C36.5141 13.3101 34.8065 8.54986 36.7051 4.56546C38.5921 0.581054 43.364 -1.11095 47.3328 0.76429L197.415 71.8598H219.574C220.873 71.8598 222.159 72.1756 223.309 72.7837L356.027 143.049L376.736 136.14C379.492 135.224 382.557 135.875 384.689 137.856C386.822 139.836 387.715 142.83 387.005 145.657L371.036 209.532C370.685 210.94 369.96 212.214 368.939 213.24L352.97 229.209C351.457 230.717 349.422 231.548 347.325 231.548V231.548Z" fill="#2D5286"/>
<path d="M307.321 511.002C306.705 511.002 306.085 510.928 305.461 510.784C301.173 509.762 298.529 505.45 299.551 501.162C337.999 340.023 230.974 230.293 229.89 229.209C226.775 226.086 226.783 221.029 229.906 217.918C233.032 214.803 238.073 214.811 241.188 217.918C242.334 219.068 355.66 334.823 315.083 504.869C314.214 508.534 310.931 511.002 307.321 511.002Z" fill="#2D5286"/>
<path d="M115.777 87.8287H35.9331C31.516 87.8287 27.9487 84.2497 27.9487 79.8443C27.9487 75.4349 31.516 71.8599 35.9331 71.8599H115.777C120.19 71.8599 123.762 75.4349 123.762 79.8443C123.762 84.2497 120.19 87.8287 115.777 87.8287Z" fill="#2D5286"/>
<path d="M75.8552 151.704H11.98C7.56286 151.704 3.99561 148.125 3.99561 143.719C3.99561 139.31 7.56286 135.735 11.98 135.735H75.8552C80.2685 135.735 83.8396 139.31 83.8396 143.719C83.8396 148.125 80.2685 151.704 75.8552 151.704Z" fill="#2D5286"/>
<path d="M91.8239 207.595H35.9331C31.516 207.595 27.9487 204.016 27.9487 199.61C27.9487 195.201 31.516 191.626 35.9331 191.626H91.8239C96.2372 191.626 99.8083 195.201 99.8083 199.61C99.8083 204.016 96.2372 207.595 91.8239 207.595Z" fill="#2D5286"/>
<path d="M99.8082 255.501H67.8706C63.4535 255.501 59.8862 251.922 59.8862 247.517C59.8862 243.107 63.4535 239.532 67.8706 239.532H99.8082C104.221 239.532 107.793 243.107 107.793 247.517C107.793 251.922 104.221 255.501 99.8082 255.501Z" fill="#2D5286"/>
<path d="M67.8782 255.501C67.2389 255.501 66.5839 255.427 65.9367 255.259C61.656 254.191 59.0556 249.856 60.1239 245.575C60.697 243.045 65.0244 219.848 32.9699 207.018C28.8724 205.372 26.8763 200.733 28.5137 196.639C30.1512 192.542 34.8295 190.569 38.8919 192.191C75.5975 206.873 78.9659 236.066 75.6131 249.446C74.7047 253.08 71.4533 255.501 67.8782 255.501Z" fill="#2D5286"/>
<path d="M35.9408 207.595C35.3014 207.595 34.6464 207.52 33.9993 207.353C29.7186 206.285 27.1182 201.949 28.1864 197.669C28.4242 196.616 34.2449 170.394 7.18837 150.097C3.66011 147.454 2.93886 142.448 5.58993 138.92C8.2332 135.407 13.239 134.671 16.7595 137.322C52.5295 164.14 44.0499 200.023 43.6679 201.532C42.7673 205.173 39.5158 207.595 35.9408 207.595Z" fill="#2D5286"/>
<path d="M131.746 303.407H107.793C103.375 303.407 99.8081 299.836 99.8081 295.423C99.8081 291.006 103.375 287.438 107.793 287.438H131.746C136.159 287.438 139.73 291.006 139.73 295.423C139.73 299.836 136.159 303.407 131.746 303.407Z" fill="#2D5286"/>
<path d="M11.9873 151.704C8.88793 151.704 5.94836 149.891 4.65011 146.873C2.90743 142.83 4.78267 138.136 8.81775 136.39C15.5312 133.481 33.7183 122.877 37.1998 108.912C39.0673 101.368 36.6189 93.4971 29.6949 84.8343C26.9425 81.3918 27.5078 76.3626 30.9425 73.614C34.3967 70.8538 39.4103 71.4269 42.1667 74.8616C52.2914 87.5088 55.8197 100.281 52.6735 112.834C46.5253 137.345 16.3928 150.511 15.114 151.064C14.1004 151.493 13.0322 151.704 11.9873 151.704V151.704Z" fill="#2D5286"/>
<path d="M235.543 231.548C231.126 231.548 227.559 227.969 227.559 223.563V202.437C227.559 198.027 231.126 194.452 235.543 194.452C239.956 194.452 243.527 198.027 243.527 202.437V223.563C243.527 227.969 239.956 231.548 235.543 231.548Z" fill="#2D5286"/>
<path d="M276.26 503.583C275.648 503.583 275.025 503.513 274.401 503.368C270.112 502.347 267.473 498.035 268.494 493.746C288.557 409.669 264.67 341.61 241.099 299.326C238.943 295.478 240.323 290.608 244.182 288.468C248.023 286.32 252.9 287.692 255.04 291.548C279.999 336.316 305.278 408.378 284.023 497.458C283.145 501.123 279.871 503.583 276.26 503.583V503.583Z" fill="#2D5286"/>
<path d="M72.4439 511.002C70.3347 511.002 68.2451 510.171 66.67 508.534C63.6213 505.349 63.7343 500.292 66.9195 497.244C103.103 462.624 154.268 381.852 116.487 298.725C114.658 294.71 116.432 289.977 120.448 288.156C124.502 286.304 129.204 288.117 131.017 292.117C172.506 383.392 117.189 471.263 77.9527 508.787C76.4127 510.265 74.4322 511.002 72.4439 511.002Z" fill="#2D5286"/>
<path d="M99.8005 87.8284C96.0695 87.8284 92.7323 85.2008 91.9838 81.4074C84.7479 45.2554 39.9331 14.9279 39.477 14.6277C35.8201 12.1755 34.8298 7.21639 37.2821 3.55168C39.7304 -0.105243 44.6661 -1.10329 48.3464 1.34115C50.4165 2.72127 99.1027 35.6023 107.641 78.2768C108.502 82.6043 105.699 86.8031 101.379 87.6764C100.845 87.7778 100.311 87.8284 99.8005 87.8284Z" fill="#2D5286"/>
<path d="M107.793 303.407C103.375 303.407 99.8082 299.836 99.8082 295.423C99.8082 273.407 85.4808 255.501 67.8706 255.501C63.4535 255.501 59.8862 251.922 59.8862 247.517C59.8862 243.107 63.4535 239.532 67.8706 239.532C94.2878 239.532 115.777 264.608 115.777 295.423C115.777 299.836 112.206 303.407 107.793 303.407Z" fill="#2D5286"/>
<path d="M243.52 135.735C242.319 135.735 241.099 135.462 239.956 134.897L208.019 118.928C204.073 116.955 202.479 112.156 204.451 108.211C206.432 104.265 211.227 102.663 215.165 104.643L247.102 120.612C251.048 122.585 252.642 127.38 250.674 131.326C249.266 134.121 246.447 135.735 243.52 135.735Z" fill="#2D5286"/>
<path d="M227.796 135.735C223.379 135.735 219.773 132.156 219.773 127.751C219.773 123.341 223.301 119.766 227.707 119.766H227.796C232.206 119.766 235.781 123.341 235.781 127.751C235.781 132.156 232.206 135.735 227.796 135.735Z" fill="#2D5286"/>
<path d="M248.069 303.423C245.114 303.423 242.264 301.778 240.892 298.935C224.642 265.672 244.276 238.826 245.114 237.703C247.773 234.179 252.756 233.454 256.292 236.097C259.824 238.741 260.541 243.746 257.898 247.275C257.325 248.058 243.368 267.618 255.231 291.933C257.165 295.891 255.527 300.674 251.559 302.608C250.44 303.165 249.251 303.423 248.069 303.423V303.423Z" fill="#2D5286"/>
<path d="M274.849 511.002C274.354 511.002 273.851 510.951 273.348 510.858C269.013 510.027 266.171 505.852 266.993 501.524L268.405 494.105C269.227 489.77 273.418 486.936 277.738 487.75C282.073 488.581 284.915 492.756 284.093 497.084L282.681 504.503C281.956 508.335 278.607 511.002 274.849 511.002Z" fill="#2D5286"/>
<path d="M310.705 495.033H278.163C273.746 495.033 270.179 491.462 270.179 487.049C270.179 482.632 273.746 479.064 278.163 479.064H310.705C315.122 479.064 318.689 482.632 318.689 487.049C318.689 491.462 315.122 495.033 310.705 495.033Z" fill="#2D5286"/>
<path d="M315.847 447.127H283.999C279.582 447.127 276.015 443.555 276.015 439.142C276.015 434.725 279.582 431.158 283.999 431.158H315.847C320.264 431.158 323.831 434.725 323.831 439.142C323.831 443.555 320.256 447.127 315.847 447.127V447.127Z" fill="#2D5286"/>
<path d="M313.422 399.22H281.044C276.631 399.22 273.06 395.649 273.06 391.236C273.06 386.819 276.631 383.251 281.044 383.251H313.422C317.835 383.251 321.407 386.819 321.407 391.236C321.407 395.649 317.835 399.22 313.422 399.22V399.22Z" fill="#2D5286"/>
<path d="M302.931 351.314H269.387C264.97 351.314 261.403 347.742 261.403 343.329C261.403 338.912 264.97 335.345 269.387 335.345H302.931C307.344 335.345 310.915 338.912 310.915 343.329C310.915 347.742 307.344 351.314 302.931 351.314Z" fill="#2D5286"/>
<path d="M283.991 303.407H248.062C243.644 303.407 240.077 299.836 240.077 295.423C240.077 291.006 243.644 287.438 248.062 287.438H283.991C288.405 287.438 291.976 291.006 291.976 295.423C291.976 299.836 288.405 303.407 283.991 303.407Z" fill="#2D5286"/>
<path d="M479.067 223.563C474.65 223.563 471.083 219.984 471.083 215.579C471.083 211.169 474.65 207.594 479.067 207.594C485.668 207.594 491.044 202.218 491.044 195.618C491.044 189.013 485.668 183.641 479.067 183.641C474.65 183.641 471.083 180.062 471.083 175.657C471.083 171.247 474.65 167.672 479.067 167.672C494.475 167.672 507.013 180.206 507.013 195.618C507.013 211.025 494.475 223.563 479.067 223.563Z" fill="#FFD24C"/>
<path d="M479.075 223.563C478.58 223.563 478.077 223.513 477.574 223.419L393.738 207.45C389.41 206.62 386.564 202.444 387.387 198.117C388.209 193.789 392.338 190.928 396.732 191.766L480.568 207.735C484.895 208.565 487.738 212.745 486.915 217.072C486.178 220.904 482.833 223.563 479.075 223.563Z" fill="#FFD24C"/>
<path d="M435.161 247.516C434.639 247.516 434.112 247.466 433.586 247.357L393.664 239.372C389.344 238.507 386.533 234.3 387.407 229.973C388.26 225.645 392.49 222.842 396.802 223.711L436.724 231.696C441.044 232.561 443.855 236.768 442.986 241.095C442.225 244.889 438.888 247.516 435.161 247.516Z" fill="#FFD24C"/>
</g>
<defs>
<clipPath id="clip0">
<rect width="511" height="511" fill="white"/>
</clipPath>
</defs>
</svg>
