<svg width="45" height="33" viewBox="0 0 45 33" fill="none" xmlns="http://www.w3.org/2000/svg">
<path d="M38.7499 4.3125C38.7499 4.3125 34.0923 0.666406 28.5937 0.25L28.0981 1.24227C33.0685 2.46 35.3496 4.20078 37.7343 6.34375C33.6241 4.24547 29.5687 2.28125 22.4999 2.28125C15.4312 2.28125 11.3758 4.24547 7.26556 6.34375C9.65025 4.20078 12.364 2.265 16.9018 1.24227L16.4062 0.25C10.6374 0.793359 6.24994 4.3125 6.24994 4.3125C6.24994 4.3125 1.04892 11.8545 0.156189 26.6562C5.39681 32.7023 13.3593 32.75 13.3593 32.75L15.0249 30.5319C12.1974 29.5488 9.00838 27.7948 6.24994 24.625C9.53853 27.1133 14.5019 29.7031 22.4999 29.7031C30.498 29.7031 35.4613 27.1133 38.7499 24.625C35.9925 27.7948 32.8035 29.5488 29.9749 30.5319L31.6406 32.75C31.6406 32.75 39.6031 32.7023 44.8437 26.6562C43.951 11.8545 38.7499 4.3125 38.7499 4.3125ZM15.8984 22.5938C13.9342 22.5938 12.3437 20.7758 12.3437 18.5312C12.3437 16.2867 13.9342 14.4688 15.8984 14.4688C17.8626 14.4688 19.4531 16.2867 19.4531 18.5312C19.4531 20.7758 17.8626 22.5938 15.8984 22.5938ZM29.1015 22.5938C27.1373 22.5938 25.5468 20.7758 25.5468 18.5312C25.5468 16.2867 27.1373 14.4688 29.1015 14.4688C31.0657 14.4688 32.6562 16.2867 32.6562 18.5312C32.6562 20.7758 31.0657 22.5938 29.1015 22.5938Z" fill="#45FFF4"/>
</svg>
