<svg width="512" height="512" viewBox="0 0 512 512" fill="none" xmlns="http://www.w3.org/2000/svg">
<path d="M381.28 265.6C379.04 269.28 376.4 272.8 373.44 276.08C369.6 273.52 364.96 272 360 272C360 258.72 349.28 248 336 248C324.32 248 314.64 256.32 312.48 267.28L304.48 265.68C299.2 264.64 294.8 260.96 292.8 255.92L284.16 234.32V234.24C309.92 223.28 328 197.76 328 168V120H281.92C271.04 120 260.48 117.84 250.56 113.76C240.72 109.68 231.68 103.68 224 96H222.24C201.12 96 184 113.12 184 134.24V168C184 187.84 192.08 205.92 205.12 218.88C211.52 225.36 219.28 230.64 227.84 234.24V234.32L219.2 255.92C217.2 260.96 212.8 264.64 207.52 265.68L164.56 274.32C157.12 275.84 150 278.32 143.44 281.84L142.64 280.4C138.08 276.08 134.08 271.12 130.8 265.68C123.84 254.4 120 241.2 120 227.52V225.6C120 209.04 125.68 192.96 136 180C146.32 167.04 152 150.96 152 134.4V128C152 99.28 163.68 73.28 182.48 54.48C201.28 35.68 227.28 24 256 24C313.44 24 360 70.56 360 128V134.4C360 150.96 365.68 167.04 376 180C386.32 192.96 392 209.04 392 225.6V227.52C392 241.12 388.24 254.16 381.36 265.52L381.28 265.6Z" fill="#45FFF4"/>
<path d="M351.92 378C352 379.04 352 380.16 352 381.28C352 393.52 348.8 405.6 342.72 416.24L338 424.4C335.12 429.44 332.56 434.64 330.4 440H181.6C179.44 434.64 176.88 429.44 174 424.4C165.68 409.92 160.96 393.84 160.16 377.2C160.08 375.44 160 373.6 160 371.84C160 364.08 161.84 356.4 165.28 349.36C172.08 335.84 184.56 326.08 199.36 322.8L289.04 302.88C292 312.8 301.12 320 312 320C312 333.28 322.72 344 336 344C337.68 344 339.36 343.84 340.96 343.52C347.6 353.84 351.36 365.76 351.92 378V378Z" fill="#45FFF4"/>
<path d="M142.64 280.4L143.44 281.84C133.6 286.88 124.88 294 117.92 302.8C109.04 314.08 103.36 327.52 101.44 341.68L98.56 363.76C74.72 356.48 57.52 340.48 45.2 321.92C21.52 286.24 16 241.36 16 232C16 216 16 192 40 192C56.48 192 103.2 237.36 130.8 265.68C134.08 271.12 138.08 276.08 142.64 280.4V280.4Z" fill="#FFD24C"/>
<path d="M98.56 363.76L89.84 429.76C34.96 418.4 16 366.24 16 352C16 336 16 320 32 320C36.4 320 40.8 320.72 45.2 321.92C57.52 340.48 74.72 356.48 98.56 363.76Z" fill="#FFD24C"/>
<path d="M480 320C496 320 496 336 496 352C496 366.24 477.04 418.4 422.16 429.76L413.44 363.76C437.28 356.48 454.48 340.48 466.8 321.92C471.2 320.72 475.6 320 480 320V320Z" fill="#FFD24C"/>
<path d="M472 192C496 192 496 216 496 232C496 241.36 490.48 286.24 466.8 321.92C454.48 340.48 437.28 356.48 413.44 363.76L410.56 341.68C408.64 327.52 402.96 314.08 394.08 302.8C390.96 298.88 387.44 295.2 383.68 292C382.56 285.36 378.8 279.68 373.44 276.08C376.4 272.8 379.04 269.28 381.28 265.6L381.36 265.52C408.96 237.2 455.52 192 472 192V192Z" fill="#FFD24C"/>
<path d="M394.097 302.24C402.973 312.934 408.65 325.677 410.569 339.102L413.448 360.037L422.164 422.612L432 493H376.025L352.035 373.538H351.955C351.395 361.933 347.637 350.631 341 340.847C351.875 338.647 360.032 329.545 360.032 318.547C373.306 318.547 384.021 308.383 384.021 295.792C384.021 294.503 383.941 293.214 383.701 292C387.46 295.034 390.978 298.523 394.097 302.24V302.24Z" fill="white"/>
<path d="M181.6 440H330.4C323.6 453.714 320 468.421 320 483.328V493H192V483.328C192 468.421 188.4 453.714 181.6 440Z" fill="white"/>
<path d="M311.521 270.254C298.268 270.254 287.571 280.546 287.571 293.297C287.571 295.601 287.89 297.828 288.608 299.902L199.114 319.028C184.344 322.177 171.89 331.547 165.104 344.528C161.671 351.287 159.835 358.661 159.835 366.111C159.835 367.801 159.915 369.568 159.994 371.258L135.884 493H80L89.8197 421.721L98.5217 358.354L101.396 337.154C103.312 323.559 108.98 310.655 117.842 299.825C124.787 291.376 133.489 284.54 143.309 279.701C149.855 276.322 156.961 273.941 164.385 272.481L207.257 264.186C212.526 263.187 216.917 259.654 218.913 254.815L227.535 234.077V234C236.157 237.533 245.657 239.53 255.637 239.53C265.616 239.53 275.116 237.533 283.738 234V234.077L292.361 254.815C294.356 259.654 298.747 263.187 304.017 264.186L312 265.722C311.681 267.181 311.521 268.718 311.521 270.254V270.254Z" fill="white"/>
<path d="M328 120V168C328 197.76 309.92 223.28 284.16 234.24C275.52 237.92 266 240 256 240C246 240 236.48 237.92 227.84 234.24C219.28 230.64 211.52 225.36 205.12 218.88C192.08 205.92 184 187.84 184 168V134.24C184 113.12 201.12 96 222.24 96H224C231.68 103.68 240.72 109.68 250.56 113.76C260.48 117.84 271.04 120 281.92 120H328Z" fill="white"/>
<path d="M383.68 292C383.92 293.28 384 294.64 384 296C384 309.28 373.28 320 360 320C360 331.6 351.84 341.2 340.96 343.52C339.36 343.84 337.68 344 336 344C322.72 344 312 333.28 312 320C301.12 320 292 312.8 289.04 302.88C288.32 300.72 288 298.4 288 296C288 282.72 298.72 272 312 272C312 270.4 312.16 268.8 312.48 267.28C314.64 256.32 324.32 248 336 248C349.28 248 360 258.72 360 272C364.96 272 369.6 273.52 373.44 276.08C378.8 279.68 382.56 285.36 383.68 292Z" fill="#FFD24C"/>
<path d="M336 312C344.837 312 352 304.837 352 296C352 287.163 344.837 280 336 280C327.163 280 320 287.163 320 296C320 304.837 327.163 312 336 312Z" fill="#DEFEFE"/>
<path d="M286.312 197.264L287.152 195.576L272.84 188.416L272 190.112C268.952 196.208 262.824 200 256 200C249.176 200 243.048 196.208 240 190.112L239.16 188.424L224.848 195.584L225.688 197.272C231.464 208.824 243.08 216 256 216C268.92 216 280.536 208.824 286.312 197.264Z" fill="#2D5286"/>
<path d="M256 480C260.418 480 264 476.418 264 472C264 467.582 260.418 464 256 464C251.582 464 248 467.582 248 472C248 476.418 251.582 480 256 480Z" fill="#2D5286"/>
<path d="M482.048 312.136C499.064 279.656 504 244.472 504 232C504 216.424 504 184 472 184C467.112 184 453.376 184.072 399.496 236.112C399.8 233.264 400 230.392 400 227.496V225.616C400 207.288 393.696 189.312 382.248 175.008C373.064 163.52 368 149.104 368 134.392V128C368 66.24 317.76 16 256 16C194.24 16 144 66.24 144 128V134.392C144 149.104 138.936 163.528 129.752 175C118.304 189.304 112 207.28 112 225.608V227.488C112 230.376 112.176 233.24 112.48 236.088C58.64 184.072 44.896 184 40 184C8 184 8 216.424 8 232C8 244.472 12.936 279.656 29.96 312.136C8.064 313.52 8 336.552 8 352C8 366.584 25.76 420.168 80.96 435.728L74 496H258.5H439L431.04 435.728C486.24 420.16 504 366.584 504 352C504 336.552 503.936 313.52 482.048 312.136ZM472 200C485.608 200 488 210.32 488 232C488 247.728 475.824 327.992 420.056 352.624L418.472 340.664C416.408 325.032 410.144 310.232 400.352 297.872C397.464 294.216 394.216 290.856 390.784 287.72C389.536 283.104 387.352 278.888 384.336 275.336C385.432 273.84 386.44 272.296 387.424 270.744C454.448 202.016 470.4 200 472 200ZM366.328 496H328V492.36C328 469.96 333.872 447.848 344.984 428.4L349.672 420.2C350.28 419.144 350.712 418.008 351.272 416.928L366.328 496ZM167.016 428.4C178.128 447.84 184 469.96 184 492.36V496H145.672L160.92 415.96C162.696 420.216 164.72 424.376 167.016 428.4ZM192.984 448H319.016C314.424 462.296 312 477.264 312 492.36V496H200V492.36C200 477.264 197.576 462.296 192.984 448ZM344 381.312C344 392.144 341.16 402.848 335.784 412.256L331.096 420.456C328.952 424.208 327.048 428.08 325.256 431.992H186.752C184.96 428.072 183.056 424.208 180.912 420.456C172.464 405.688 168 388.88 168 371.856C168 365.328 169.536 358.792 172.464 352.968C178.176 341.536 188.616 333.392 201.08 330.624L284.4 312.104C288.792 319.6 296.112 325.184 304.808 327.184C308.088 341.384 320.832 352 336 352C336.168 352 336.32 351.96 336.488 351.96C341.32 360.984 344 371 344 381.312ZM312 280H318.24C314.4 284.256 312 289.832 312 296C312 302.168 314.408 307.744 318.24 312H312C303.176 312 296 304.824 296 296C296 287.176 303.176 280 312 280ZM352 278.24C347.744 274.4 342.168 272 336 272C329.832 272 324.256 274.408 320 278.24V272C320 263.176 327.176 256 336 256C344.824 256 352 263.176 352 272V278.24ZM344 296C344 300.416 340.416 304 336 304C331.584 304 328 300.416 328 296C328 291.584 331.584 288 336 288C340.416 288 344 291.584 344 296ZM336 336C327.176 336 320 328.824 320 320V313.76C324.256 317.6 329.832 320 336 320C342.168 320 347.744 317.592 352 313.76V320C352 328.824 344.824 336 336 336ZM353.76 280H360C368.824 280 376 287.176 376 296C376 304.824 368.824 312 360 312H353.76C357.6 307.744 360 302.168 360 296C360 289.832 357.592 284.256 353.76 280ZM128 225.608C128 210.896 133.064 196.472 142.248 185C153.696 170.696 160 152.72 160 134.392V128C160 75.064 203.064 32 256 32C308.936 32 352 75.064 352 128V134.392C352 152.72 358.304 170.696 369.752 185C378.936 196.48 384 210.896 384 225.608V227.488C384 241.472 379.52 254.984 371.28 266.128C369.944 265.624 368.6 265.136 367.192 264.808C363.912 250.616 351.168 240 336 240C323.352 240 312.48 247.424 307.288 258.104L306.072 257.864C303.408 257.336 301.224 255.504 300.216 252.992L294.304 238.216C319.12 224.608 336 198.24 336 168V112H281.936C262.184 112 243.624 104.312 229.656 90.344L227.312 88H222.24C196.744 88 176 108.744 176 134.24V168C176 198.24 192.88 224.608 217.704 238.208L211.792 252.984C210.784 255.496 208.6 257.328 205.936 257.856L163 266.44C157.008 267.64 151.224 269.528 145.672 271.912C134.44 259.944 128 243.984 128 227.496V225.608ZM192 168V134.24C192 118.048 204.8 104.776 220.816 104.032C237.488 119.512 259.064 128 281.936 128H320V168C320 203.288 291.288 232 256 232C220.712 232 192 203.288 192 168ZM40 200C41.608 200 57.608 202.008 124.808 270.992C126.76 274.064 128.856 277.04 131.216 279.832C123.872 284.8 117.224 290.824 111.648 297.864C101.856 310.232 95.592 325.032 93.528 340.664L91.944 352.616C36.176 327.984 24 247.72 24 232C24 210.32 26.392 200 40 200ZM24 352C24 331.312 25.896 328 32 328C34.672 328 37.488 328.408 40.352 329.032C52.296 346.04 68.392 360.696 89.784 368.936L83.064 419.752C39.632 406.096 24 362.728 24 352ZM109.384 342.76C111.072 329.984 116.192 317.904 124.192 307.808C134.68 294.568 149.576 285.448 166.136 282.136L209.072 273.552C217.056 271.952 223.624 266.488 226.648 258.928L232.44 244.456C239.888 246.752 247.8 248 256 248C264.2 248 272.112 246.752 279.56 244.448L285.352 258.92C287.136 263.376 290.248 266.968 294.056 269.608C285.6 275.376 280 285.024 280 296C280 296.232 280.056 296.448 280.056 296.672L197.608 315C180.416 318.832 166.032 330.056 158.144 345.816C154.128 353.848 152 362.856 152 371.856C152 373.392 152.088 374.92 152.152 376.448L129.376 496H89.12L109.384 342.76ZM382.624 496L359.864 376.496L359.664 376.536C359.048 366.432 356.592 356.6 352.232 347.512C359.664 343.112 365.192 335.832 367.192 327.184C376.888 324.952 384.816 318.24 388.928 309.416C396.24 319.184 401.016 330.632 402.624 342.752L422.872 496H382.624ZM428.928 419.752L422.208 368.936C443.6 360.696 459.696 346.04 471.64 329.024C474.504 328.408 477.32 328 480 328C486.104 328 488 331.312 488 352C488 362.728 472.368 406.088 428.928 419.752Z" fill="#2D5286"/>
<path d="M320 503C315.574 503 312 499.426 312 495V487C312 482.574 315.574 479 320 479C324.426 479 328 482.574 328 487V495C328 499.426 324.426 503 320 503Z" fill="#2D5286"/>
<path d="M376.538 503.729C372.213 504.665 367.963 501.927 367.027 497.602L365.335 489.783C364.399 485.457 367.136 481.208 371.462 480.272C375.787 479.336 380.037 482.073 380.973 486.399L382.665 494.218C383.601 498.543 380.864 502.793 376.538 503.729Z" fill="#2D5286"/>
<path d="M431.912 502.319C427.524 502.893 423.517 499.812 422.943 495.424L421.906 487.491C421.333 483.103 424.413 479.095 428.802 478.522C433.19 477.948 437.198 481.029 437.771 485.417L438.808 493.35C439.382 497.738 436.301 501.746 431.912 502.319Z" fill="#2D5286"/>
<path d="M192 503C187.574 503 184 499.426 184 495V487C184 482.574 187.574 479 192 479C196.426 479 200 482.574 200 487V495C200 499.426 196.426 503 192 503Z" fill="#2D5286"/>
<path d="M81.2652 502.86C77.0991 502.4 74.1268 498.476 74.6123 494.077L75.4899 486.125C75.9753 481.726 79.7319 478.545 83.8979 479.004C88.064 479.464 91.0363 483.388 90.5508 487.787L89.6733 495.739C89.1878 500.138 85.4312 503.319 81.2652 502.86Z" fill="#2D5286"/>
<path d="M135.668 503.44C131.331 502.556 128.543 498.34 129.427 494.003L131.025 486.164C131.909 481.828 136.125 479.04 140.462 479.924C144.798 480.808 147.586 485.024 146.702 489.36L145.104 497.199C144.22 501.536 140.004 504.324 135.668 503.44Z" fill="#2D5286"/>
</svg>
