<svg width="488" height="488" viewBox="0 0 488 488" fill="none" xmlns="http://www.w3.org/2000/svg">
<g clip-path="url(#clip0)">
<path d="M404.003 416.002V472C404.003 476.398 400.401 480 396.003 480H92.5L244.008 418.49L355.684 368.003H356.004C372.722 368.003 387.444 376.491 396.003 389.444C401.042 397.042 404.003 406.17 404.003 416.002Z" fill="#45FFF4"/>
<path d="M244.008 418.49L103 472L92.0128 480C87.6145 480 84.0131 476.398 84.0131 472V416.002C84.0131 406.17 86.9739 397.042 92.0128 389.444C100.571 376.491 115.293 368.003 132.011 368.003H132.332L244.008 418.49Z" fill="#DEFEFE"/>
<path d="M355.684 368.004L244.008 418.49L132.332 368.004H196.009V326.005C210.728 332.403 226.969 336.005 244.008 336.005C261.046 336.005 277.288 332.403 292.006 326.005V368.004H355.684Z" fill="white"/>
<path d="M124.012 216.009C124.012 265.206 153.612 307.447 196.009 326.005V368.004H132.012C115.293 368.004 100.571 376.492 92.0128 389.444V183.932L124.012 199.931V216.009Z" fill="#45FFF4"/>
<path d="M356.004 368.004H292.006V326.005C334.403 307.447 364.004 265.206 364.004 216.009V199.931L396.003 183.932V389.444C387.445 376.492 372.722 368.004 356.004 368.004Z" fill="#45FFF4"/>
<path d="M348.004 49.1427C320.806 23.624 284.245 7.94482 244.008 7.94482C203.771 7.94482 167.131 23.542 140.011 49.1427V49.2208C112.411 75.052 94.4932 111.141 92.2511 151.378V152.01H124.012V151.932H148.011C156.89 151.932 164.01 144.811 164.01 135.933C164.01 127.132 156.89 119.933 148.011 119.933H164.01C172.889 119.933 180.01 112.812 180.01 103.934H220.009C233.289 103.934 244.008 93.2116 244.008 79.9346C244.008 93.2116 254.726 103.934 268.007 103.934H308.006C308.006 112.812 315.205 119.933 324.005 119.933H340.005C331.204 119.933 324.005 127.132 324.005 135.933C324.005 144.811 331.204 151.932 340.005 151.932H364.004V152.01H395.765V151.932C393.683 111.453 375.683 75.1418 348.004 49.1427Z" fill="#45FFF4"/>
<path d="M348.004 49.1427C320.806 23.624 284.245 7.94482 244.008 7.94482C238.594 7.94482 233.258 8.27294 227.993 8.8237C261.878 12.3744 292.463 27.0458 316.005 49.1427C343.684 75.1418 361.684 111.453 363.766 151.94H364.004V152.01H395.765V151.932C393.683 111.453 375.683 75.1418 348.004 49.1427Z" fill="#45FFF4"/>
<path d="M244.008 119.934L260.007 144.011L244.008 167.932L228.008 143.933L244.008 119.934Z" fill="#FFD24C"/>
<path d="M460.001 151.933L364.004 199.931V152.011H395.765L460.001 151.933Z" fill="#DEFEFE"/>
<path d="M244.008 119.934L228.008 143.933L244.008 167.932L260.007 144.011L244.008 119.934ZM364.004 199.931V216.009C364.004 265.206 334.403 307.447 292.006 326.005C277.288 332.403 261.046 336.005 244.008 336.005C226.969 336.005 210.728 332.403 196.009 326.005C153.612 307.447 124.012 265.206 124.012 216.009V151.933H148.011C156.89 151.933 164.01 144.812 164.01 135.933C164.01 127.133 156.89 119.934 148.011 119.934H164.01C172.889 119.934 180.01 112.813 180.01 103.934H220.009C233.289 103.934 244.008 93.212 244.008 79.9351C244.008 93.212 254.726 103.934 268.007 103.934H308.006C308.006 112.813 315.205 119.934 324.005 119.934H340.005C331.204 119.934 324.005 127.133 324.005 135.933C324.005 144.812 331.204 151.933 340.005 151.933H364.004V199.931Z" fill="white"/>
<path d="M332.005 119.934V122.164C334.372 120.781 337.087 119.934 340.005 119.934H332.005Z" fill="#94C1FF"/>
<path d="M340.005 151.933C337.087 151.933 334.372 151.093 332.005 149.714V216.009C332.005 265.206 302.404 307.447 260.007 326.005C249.984 330.364 239.207 333.302 228.008 334.813C233.258 335.516 238.567 336.005 244.008 336.005C261.046 336.005 277.288 332.403 292.006 326.005C334.403 307.447 364.004 265.206 364.004 216.009V151.933H340.005Z" fill="white"/>
<path d="M124.012 152.011V199.931L28.0149 151.933L92.2511 152.011H124.012Z" fill="#DEFEFE"/>
<path d="M84.013 424.025C79.5913 424.025 76.0133 420.451 76.0133 416.026C76.0133 385.14 101.141 360.012 132.027 360.012C136.453 360.012 140.027 363.59 140.027 368.011C140.027 372.437 136.453 376.011 132.027 376.011C109.965 376.011 92.0128 393.964 92.0128 416.026C92.0128 420.451 88.4387 424.025 84.013 424.025Z" fill="#2D5286"/>
<path d="M404.003 424.017C399.581 424.017 396.003 420.443 396.003 416.018C396.003 393.964 378.058 376.019 356.004 376.019C351.582 376.019 348.004 372.445 348.004 368.019C348.004 363.598 351.582 360.02 356.004 360.02C386.874 360.02 412.002 385.148 412.002 416.018C412.002 420.443 408.428 424.017 404.003 424.017Z" fill="#2D5286"/>
<path d="M196.009 376.019L132.027 376.011C127.605 376.011 124.027 372.429 124.027 368.011C124.027 363.59 127.613 360.012 132.027 360.012L196.009 360.02C200.435 360.02 204.009 363.605 204.009 368.019C204.009 372.445 200.427 376.019 196.009 376.019Z" fill="#2D5286"/>
<path d="M356.004 376.019L292.006 376.011C287.584 376.011 284.006 372.429 284.006 368.011C284.006 363.59 287.592 360.012 292.006 360.012L356.004 360.02C360.43 360.02 364.004 363.605 364.004 368.019C364.004 372.445 360.422 376.019 356.004 376.019Z" fill="#2D5286"/>
<path d="M84.0039 488C79.592 488 76.0078 484.027 76.0078 479.108L76 416.892C76 411.986 79.5764 408 83.9961 408C88.4119 408 91.9922 411.977 91.9922 416.892L92 479.108C92 484.019 88.4275 488 84.0039 488Z" fill="#2D5286"/>
<path d="M404 488C399.578 488 396 484.028 396 479.109V416.891C396 411.977 399.578 408 404 408C408.426 408 412 411.977 412 416.891V479.109C412 484.028 408.426 488 404 488Z" fill="#2D5286"/>
<path d="M196.009 376.019C191.588 376.019 188.01 372.445 188.01 368.019V326.021C188.01 321.599 191.588 318.021 196.009 318.021C200.435 318.021 204.009 321.599 204.009 326.021V368.019C204.009 372.445 200.435 376.019 196.009 376.019Z" fill="#2D5286"/>
<path d="M292.006 376.011C287.584 376.011 284.006 372.437 284.006 368.012V326.021C284.006 321.599 287.584 318.021 292.006 318.021C296.432 318.021 300.006 321.599 300.006 326.021V368.012C300.006 372.437 296.432 376.011 292.006 376.011Z" fill="#2D5286"/>
<path d="M244.008 344.012C173.436 344.012 116.012 286.592 116.012 216.016C116.012 211.602 119.59 208.017 124.012 208.017C128.437 208.017 132.011 211.602 132.011 216.016C132.011 277.776 182.248 328.013 244.008 328.013C305.767 328.013 356.004 277.776 356.004 216.016C356.004 211.602 359.582 208.017 364.004 208.017C368.429 208.017 372.004 211.602 372.004 216.016C372.004 286.592 314.584 344.012 244.008 344.012Z" fill="#2D5286"/>
<path d="M124.012 224.016C119.59 224.016 116.012 220.434 116.012 216.016V152.01C116.012 147.597 119.59 144.011 124.012 144.011C128.437 144.011 132.011 147.597 132.011 152.01V216.016C132.011 220.434 128.437 224.016 124.012 224.016Z" fill="#2D5286"/>
<path d="M364.004 224.016C359.582 224.016 356.004 220.434 356.004 216.016V152.01C356.004 147.597 359.582 144.011 364.004 144.011C368.43 144.011 372.004 147.597 372.004 152.01V216.016C372.004 220.434 368.43 224.016 364.004 224.016Z" fill="#2D5286"/>
<path d="M324.005 127.996C310.775 127.996 300.006 117.227 300.006 103.997C300.006 99.5829 303.584 95.9971 308.006 95.9971C312.431 95.9971 316.005 99.5829 316.005 103.997C316.005 108.403 319.591 111.997 324.005 111.997C328.431 111.997 332.005 115.582 332.005 119.996C332.005 124.41 328.431 127.996 324.005 127.996Z" fill="#2D5286"/>
<path d="M340.005 159.995C326.775 159.995 316.005 149.225 316.005 135.995C316.005 122.765 326.775 111.996 340.005 111.996C344.43 111.996 348.004 115.582 348.004 119.996C348.004 124.41 344.43 127.996 340.005 127.996C335.591 127.996 332.005 131.589 332.005 135.995C332.005 140.401 335.591 143.995 340.005 143.995C344.43 143.995 348.004 147.581 348.004 151.995C348.004 156.409 344.43 159.995 340.005 159.995Z" fill="#2D5286"/>
<path d="M340.005 127.996H324.005C319.583 127.996 316.005 124.41 316.005 119.996C316.005 115.582 319.583 111.996 324.005 111.996H340.005C344.43 111.996 348.004 115.582 348.004 119.996C348.004 124.41 344.43 127.996 340.005 127.996Z" fill="#2D5286"/>
<path d="M364.004 159.995H340.005C335.583 159.995 332.005 156.409 332.005 151.995C332.005 147.581 335.583 143.995 340.005 143.995H364.004C368.429 143.995 372.004 147.581 372.004 151.995C372.004 156.409 368.429 159.995 364.004 159.995Z" fill="#2D5286"/>
<path d="M164.018 127.996C159.597 127.996 156.019 124.41 156.019 119.996C156.019 115.582 159.597 111.997 164.018 111.997C168.436 111.997 172.018 108.403 172.018 103.997C172.018 99.5829 175.596 95.9971 180.018 95.9971C184.443 95.9971 188.018 99.5829 188.018 103.997C188.018 117.227 177.248 127.996 164.018 127.996Z" fill="#2D5286"/>
<path d="M148.019 159.995C143.597 159.995 140.019 156.409 140.019 151.995C140.019 147.581 143.597 143.995 148.019 143.995C152.437 143.995 156.019 140.401 156.019 135.995C156.019 131.589 152.437 127.996 148.019 127.996C143.597 127.996 140.019 124.41 140.019 119.996C140.019 115.582 143.597 111.996 148.019 111.996C161.249 111.996 172.018 122.765 172.018 135.995C172.018 149.225 161.249 159.995 148.019 159.995Z" fill="#2D5286"/>
<path d="M164.018 127.996H148.019C143.597 127.996 140.019 124.41 140.019 119.996C140.019 115.582 143.597 111.996 148.019 111.996H164.018C168.444 111.996 172.018 115.582 172.018 119.996C172.018 124.41 168.444 127.996 164.018 127.996Z" fill="#2D5286"/>
<path d="M148.019 159.995H124.02C119.598 159.995 116.02 156.409 116.02 151.995C116.02 147.581 119.598 143.995 124.02 143.995H148.019C152.444 143.995 156.018 147.581 156.018 151.995C156.018 156.409 152.444 159.995 148.019 159.995Z" fill="#2D5286"/>
<path d="M220.009 111.997H180.018C175.596 111.997 172.018 108.411 172.018 103.997C172.018 99.5829 175.596 95.9971 180.018 95.9971H220.009C224.434 95.9971 228.008 99.5829 228.008 103.997C228.008 108.411 224.434 111.997 220.009 111.997Z" fill="#2D5286"/>
<path d="M395.796 159.995C391.569 159.995 388.034 156.682 387.812 152.409C383.835 75.9194 320.669 15.9995 244.008 15.9995C167.643 15.9995 104.493 75.6616 100.227 151.827C99.989 156.233 96.1337 159.546 91.7979 159.37C87.3801 159.124 84.0052 155.346 84.263 150.94C88.9894 66.3025 159.163 0 244.008 0C329.181 0 399.37 66.5838 403.796 151.581C404.018 155.987 400.628 159.749 396.218 159.979C396.073 159.995 395.932 159.995 395.796 159.995Z" fill="#2D5286"/>
<path d="M220.009 111.996C215.587 111.996 212.009 108.41 212.009 103.997C212.009 99.5826 215.587 95.9968 220.009 95.9968C228.832 95.9968 236.008 88.8212 236.008 79.9973C236.008 75.5834 239.586 71.9976 244.008 71.9976C248.433 71.9976 252.007 75.5834 252.007 79.9973C252.007 97.6452 237.656 111.996 220.009 111.996Z" fill="#2D5286"/>
<path d="M308.006 111.997H268.015C263.593 111.997 260.015 108.411 260.015 103.997C260.015 99.5829 263.593 95.9971 268.015 95.9971H308.006C312.431 95.9971 316.005 99.5829 316.005 103.997C316.005 108.411 312.431 111.997 308.006 111.997Z" fill="#2D5286"/>
<path d="M268.015 111.996C250.367 111.996 236.016 97.6452 236.016 79.9973C236.016 75.5834 239.594 71.9976 244.016 71.9976C248.441 71.9976 252.015 75.5834 252.015 79.9973C252.015 88.8212 259.191 95.9968 268.015 95.9968C272.44 95.9968 276.015 99.5826 276.015 103.997C276.015 108.41 272.44 111.996 268.015 111.996Z" fill="#2D5286"/>
<path d="M88.6178 483C85.3401 483 82.2053 481.32 80.7681 478.486C78.8057 474.625 80.7345 470.07 85.0628 468.327L351.844 360.685C356.181 358.935 361.286 360.655 363.232 364.517C365.194 368.382 363.265 372.933 358.937 374.676L92.1561 482.318C91.0005 482.786 89.8071 483 88.6178 483V483Z" fill="#2D5286"/>
<path d="M240.241 421C239.174 421 238.096 420.796 237.059 420.349L128.558 373.991C124.661 372.322 122.925 367.99 124.692 364.305C126.458 360.623 131.032 358.986 134.944 360.652L243.442 407.017C247.339 408.687 249.075 413.022 247.308 416.704C246.015 419.406 243.196 421 240.241 421Z" fill="#2D5286"/>
<path d="M396.003 397.467C391.581 397.467 388.003 393.889 388.003 389.468V183.994C388.003 179.58 391.581 175.994 396.003 175.994C400.429 175.994 404.003 179.58 404.003 183.994V389.468C404.003 393.882 400.429 397.467 396.003 397.467Z" fill="#2D5286"/>
<path d="M364.004 160.002C359.59 160.002 356.004 156.42 356.004 152.003C356.004 147.589 359.582 144.003 364.004 144.003L460.001 143.995C464.419 143.995 468 147.581 468 151.995C468 156.409 464.426 159.995 460.001 159.995L364.004 160.002Z" fill="#2D5286"/>
<path d="M364.012 207.993C361.074 207.993 358.254 206.376 356.844 203.568C354.867 199.618 356.469 194.81 360.422 192.834L456.419 144.835C460.368 142.859 465.168 144.46 467.153 148.409C469.129 152.362 467.528 157.171 463.579 159.147L367.582 207.146C366.437 207.72 365.211 207.993 364.012 207.993Z" fill="#2D5286"/>
<path d="M92.0128 397.467C87.5911 397.467 84.0131 393.889 84.0131 389.468V183.994C84.0131 179.58 87.5911 175.994 92.0128 175.994C96.4384 175.994 100.013 179.58 100.013 183.994V389.468C100.013 393.882 96.4384 397.467 92.0128 397.467Z" fill="#2D5286"/>
<path d="M124.012 160.002L28.0149 159.995C23.5931 159.995 20.0151 156.409 20.0151 151.995C20.0151 147.581 23.601 143.995 28.0149 143.995L124.012 144.003C128.437 144.003 132.011 147.589 132.011 152.003C132.011 156.42 128.43 160.002 124.012 160.002Z" fill="#2D5286"/>
<path d="M124.004 207.993C122.805 207.993 121.578 207.72 120.438 207.153L24.4407 159.155C20.4877 157.178 18.8862 152.37 20.8627 148.421C22.847 144.468 27.6477 142.866 31.6007 144.843L127.598 192.841C131.547 194.818 133.148 199.626 131.172 203.579C129.765 206.376 126.941 207.993 124.004 207.993Z" fill="#2D5286"/>
<path d="M244.008 127.996C239.586 127.996 236.008 124.41 236.008 119.996V79.9973C236.008 75.5834 239.586 71.9976 244.008 71.9976C248.433 71.9976 252.008 75.5834 252.008 79.9973V119.996C252.008 124.41 248.433 127.996 244.008 127.996Z" fill="#2D5286"/>
<path d="M156.018 80.0053C142.788 80.0053 132.011 69.2361 132.011 55.9983C132.011 51.5844 135.589 47.9985 140.011 47.9985C144.437 47.9985 148.011 51.5844 148.011 55.9983C148.011 60.4122 151.605 64.0058 156.018 64.0058C160.444 64.0058 164.018 67.5916 164.018 72.0056C164.018 76.4234 160.444 80.0053 156.018 80.0053Z" fill="#2D5286"/>
<path d="M244.008 80.0053H156.019C151.597 80.0053 148.019 76.4234 148.019 72.0056C148.019 67.5917 151.597 64.0059 156.019 64.0059H244.008C248.433 64.0059 252.008 67.5917 252.008 72.0056C252.008 76.4234 248.433 80.0053 244.008 80.0053Z" fill="#2D5286"/>
<path d="M140.011 63.9985C135.59 63.9985 132.011 60.4126 132.011 55.9985V49.1587C132.011 44.7407 135.59 41.1587 140.011 41.1587C144.437 41.1587 148.011 44.7407 148.011 49.1587V55.9985C148.011 60.4126 144.437 63.9985 140.011 63.9985Z" fill="#2D5286"/>
<path d="M331.997 80.0053C327.571 80.0053 323.997 76.4234 323.997 72.0056C323.997 67.5916 327.571 64.0058 331.997 64.0058C336.411 64.0058 340.005 60.4122 340.005 55.9983C340.005 51.5844 343.583 47.9985 348.004 47.9985C352.43 47.9985 356.004 51.5844 356.004 55.9983C356.004 69.2361 345.227 80.0053 331.997 80.0053Z" fill="#2D5286"/>
<path d="M331.997 80.0053H244.008C239.586 80.0053 236.008 76.4234 236.008 72.0056C236.008 67.5917 239.586 64.0059 244.008 64.0059H331.997C336.423 64.0059 339.997 67.5917 339.997 72.0056C339.997 76.4234 336.423 80.0053 331.997 80.0053Z" fill="#2D5286"/>
<path d="M348.005 63.9985C343.583 63.9985 340.005 60.4126 340.005 55.9985V49.1587C340.005 44.7407 343.583 41.1587 348.005 41.1587C352.43 41.1587 356.005 44.7407 356.005 49.1587V55.9985C356.005 60.4126 352.43 63.9985 348.005 63.9985Z" fill="#2D5286"/>
<path d="M260.015 152.003C257.433 152.003 254.886 150.757 253.351 148.444L237.352 124.437C234.895 120.766 235.895 115.789 239.567 113.34C243.258 110.875 248.207 111.875 250.664 115.555L266.663 139.562C269.12 143.234 268.12 148.21 264.449 150.659C263.077 151.569 261.535 152.003 260.015 152.003Z" fill="#2D5286"/>
<path d="M244 175.994C242.48 175.994 240.93 175.56 239.566 174.65C235.887 172.193 234.895 167.233 237.352 163.553L253.351 139.562C255.8 135.882 260.769 134.89 264.448 137.347C268.128 139.804 269.12 144.765 266.663 148.444L250.664 172.436C249.129 174.748 246.586 175.994 244 175.994Z" fill="#2D5286"/>
<path d="M244.016 175.994C241.434 175.994 238.887 174.748 237.352 172.436L221.352 148.436C218.895 144.765 219.888 139.788 223.567 137.339C227.247 134.874 232.215 135.874 234.664 139.554L250.664 163.553C253.121 167.225 252.129 172.201 248.449 174.65C247.078 175.56 245.535 175.994 244.016 175.994Z" fill="#2D5286"/>
<path d="M228.001 151.995C226.481 151.995 224.938 151.561 223.567 150.651C219.888 148.202 218.895 143.234 221.352 139.554L237.352 115.555C239.793 111.875 244.754 110.875 248.449 113.34C252.129 115.789 253.121 120.758 250.664 124.437L234.664 148.437C233.129 150.749 230.586 151.995 228.001 151.995Z" fill="#2D5286"/>
</g>
<defs>
<clipPath id="clip0">
<rect width="488" height="488" fill="white"/>
</clipPath>
</defs>
</svg>
