<svg width="75" height="75" viewBox="0 0 75 75" fill="none" xmlns="http://www.w3.org/2000/svg">
<path d="M0.5 73V20.0945L20.0944 0.5H73C73.8284 0.5 74.5 1.17157 74.5 2V73C74.5 73.8284 73.8284 74.5 73 74.5H2C1.17157 74.5 0.5 73.8284 0.5 73Z" fill="url(#paint0_radial)" stroke="#45FFF4"/>
<path fill-rule="evenodd" clip-rule="evenodd" d="M27.8428 24C27.3812 24 26.8838 24.4178 26.8838 25.0881V29.1722H24.8487V25.0881C24.8487 23.452 26.1211 22 27.8428 22H50.1027C51.8244 22 53.0969 23.452 53.0969 25.0881V35.5032L53.5275 35.0597L55 36.4403L52.0793 39.4486L49.1587 36.4403L50.6312 35.0597L51.0617 35.5032V25.0881C51.0617 24.4178 50.5643 24 50.1027 24H27.8428ZM25.9207 36.5514L28.8413 39.5597L27.3688 40.9403L26.9383 40.4968V50.9119C26.9383 51.5822 27.4357 52 27.8973 52H50.1572C50.6188 52 51.1162 51.5822 51.1162 50.9119V46.8278H53.1513V50.9119C53.1513 52.548 51.8789 54 50.1572 54H27.8973C26.1756 54 24.9031 52.548 24.9031 50.9119V40.4968L24.4725 40.9403L23 39.5597L25.9207 36.5514Z" fill="#45FFF4"/>
<defs>
<radialGradient id="paint0_radial" cx="0" cy="0" r="1" gradientUnits="userSpaceOnUse" gradientTransform="translate(37.5 37.5) rotate(90) scale(37.5)">
<stop offset="0.234375" stop-color="#07646E"/>
<stop offset="1" stop-color="#0F5266"/>
</radialGradient>
</defs>
</svg>
