<svg width="50" height="50" viewBox="0 0 50 50" fill="none" xmlns="http://www.w3.org/2000/svg">
<circle cx="25" cy="25" r="25" fill="#45FFF4"/>
<path d="M17.1758 16.389L17 12.8427C17.2579 12.7959 17.7267 12.7139 18.4066 12.5969C19.1099 12.4565 19.6022 12.3745 19.8835 12.3511C20.1648 12.3043 20.6103 12.2458 21.2198 12.1756C21.8293 12.1053 22.4623 12.0585 23.1187 12.0351C23.7985 12.0117 24.5839 12 25.4747 12C28.0066 12 29.8938 12.4448 31.1363 13.3343C32.3788 14.2238 33 15.5932 33 17.4424C33 18.3787 32.789 19.2566 32.367 20.0758C31.9685 20.8717 31.4762 21.574 30.8901 22.1826C30.304 22.7912 29.7062 23.4115 29.0967 24.0435C28.4872 24.6756 27.948 25.448 27.4791 26.361C27.0103 27.2505 26.7407 28.2336 26.6703 29.3104H22.4505C22.4037 27.9059 22.6264 26.6067 23.1187 25.4129C23.611 24.2191 24.1619 23.2828 24.7714 22.6039C25.4044 21.9251 26.0022 21.2111 26.5648 20.4621C27.1275 19.713 27.4322 19.0459 27.4791 18.4607C27.5495 17.6882 27.3267 17.1264 26.811 16.7753C26.2952 16.4007 25.4396 16.2135 24.244 16.2135C22.181 16.2135 19.8249 16.272 17.1758 16.389ZM23.9275 31.698H25.1582C25.8381 31.698 26.307 31.8268 26.5648 32.0843C26.8462 32.3418 26.9868 32.8099 26.9868 33.4888V35.1742C26.9868 35.853 26.8462 36.3329 26.5648 36.6138C26.307 36.8713 25.8381 37 25.1582 37H23.9275C23.2476 37 22.767 36.8713 22.4857 36.6138C22.2278 36.3329 22.0989 35.853 22.0989 35.1742V33.4888C22.0989 32.8099 22.2278 32.3418 22.4857 32.0843C22.767 31.8268 23.2476 31.698 23.9275 31.698Z" fill="#0F5467"/>
</svg>
