<?xml version="1.0" encoding="UTF-8" standalone="no"?>
<!DOCTYPE svg PUBLIC "-//W3C//DTD SVG 1.1//EN" "http://www.w3.org/Graphics/SVG/1.1/DTD/svg11.dtd">
<svg version="1.1" xmlns="http://www.w3.org/2000/svg" xmlns:xlink="http://www.w3.org/1999/xlink" preserveAspectRatio="xMidYMid meet" viewBox="0 0 48.14 57" width="48.14" height="57"><defs><path d="M47.91 33.06C47.91 47.1 37.72 56.87 23.1 56.87C22.15 56.87 17.38 56.87 8.79 56.87L0.46 48.54L0.46 1.06C9.21 1.06 14.07 1.06 15.04 1.06C22.87 1.06 29.46 3.87 33.94 8.58C34.38 9.02 36.6 11.23 40.59 15.2C45.47 22.29 47.91 28.24 47.91 33.06ZM8.25 8.55L8.25 10.22L15.38 17.28L15.38 15.57L8.35 8.55L8.25 8.55ZM9.79 8.55L8.82 8.55L15.61 15.34L16.58 15.34L9.79 8.55ZM12.17 8.55L10.26 8.55L17.05 15.34L18.96 15.34L12.17 8.55ZM12.63 8.55L19.42 15.34L21.93 15.34L15.14 8.55L12.63 8.55ZM17.72 8.72C17.02 8.61 16.35 8.58 15.61 8.55C16.06 9 18.33 11.26 22.4 15.34C22.82 15.34 23.05 15.34 23.1 15.34C23.54 15.34 23.97 15.34 24.37 15.37C23.04 14.04 18.38 9.38 17.72 8.72ZM20.03 9.12C19.46 8.98 18.85 8.88 18.25 8.78C18.92 9.44 24.21 14.74 24.87 15.4C25.44 15.44 26.01 15.54 26.51 15.6C25.22 14.31 20.67 9.77 20.03 9.12ZM22.13 9.75C21.66 9.58 21.16 9.42 20.66 9.28C21.31 9.93 26.47 15.09 27.11 15.74C27.58 15.84 28.02 15.94 28.45 16.07C27.19 14.81 22.76 10.38 22.13 9.75ZM30.49 16.91C29.88 16.29 24.95 11.37 24.34 10.75C23.9 10.52 23.44 10.29 22.97 10.09C23.38 10.5 25.46 12.57 29.19 16.31C29.79 16.57 30.22 16.77 30.49 16.91ZM9.46 24.63L9.19 24.9L8.25 23.96L8.25 41.49L15.38 41.49L15.38 17.74L8.25 10.75L8.25 12.39L15.01 19.12L14.74 19.35L8.25 12.9L8.25 14.57L13.87 20.22L13.64 20.49L8.25 15.07L8.25 16.77L12.77 21.32L12.53 21.59L8.25 17.28L8.25 18.98L11.67 22.43L11.43 22.69L8.25 19.48L8.25 21.22L10.56 23.53L10.29 23.8L8.25 21.72L8.25 23.43L9.46 24.63ZM25.51 11.46C25.81 11.75 27.29 13.24 29.96 15.9C28.2 13.72 26.71 12.24 25.51 11.46ZM37.21 13.1C39.02 16.47 40.19 20.65 40.19 25C40.19 25.47 40.19 25.94 40.16 26.37C40.61 26.83 42.88 29.11 46.98 33.23C46.98 33.13 46.98 33.07 46.98 33.06C46.98 26.07 44.7 20.79 39.92 15.87C39.38 15.32 37.48 13.37 37.21 13.1ZM32.33 25C32.33 22.53 31.9 20.25 31.09 18.25C29.05 16.84 26.71 16.27 23.1 16.27C22.65 16.27 20.39 16.27 16.31 16.27L16.31 41.45C26.99 36.84 32.33 31.35 32.33 25ZM45.84 40.68C46.51 38.51 46.91 36.17 46.98 33.69C46.29 33.01 40.81 27.53 40.12 26.84C39.96 29.25 39.49 31.49 38.75 33.59C40.17 35.01 45.13 39.98 45.84 40.68ZM38.62 33.93C37.98 35.6 37.18 37.17 36.21 38.58C36.93 39.3 42.71 45.08 43.43 45.8C44.37 44.33 45.14 42.72 45.71 41.02C44.29 39.6 39.33 34.64 38.62 33.93ZM43.23 46.07C42.51 45.35 36.76 39.6 36.04 38.88C35.21 40.05 34.27 41.15 33.2 42.12C33.69 42.61 36.12 45.04 40.49 49.41C41.78 47.99 42.7 46.87 43.23 46.07ZM37.35 51.95C38.38 51.25 39.35 50.48 40.26 49.65C39.53 48.92 33.7 43.08 32.97 42.36C32.06 43.19 31.09 43.96 30.02 44.63C31.49 46.09 36.61 51.22 37.35 51.95ZM34.14 53.73C35.14 53.26 36.11 52.72 37.05 52.15C36.31 51.42 30.46 45.56 29.72 44.83C28.82 45.43 27.85 45.93 26.81 46.4C28.28 47.87 33.4 52.99 34.14 53.73ZM30.96 54.86C31.93 54.6 32.9 54.23 33.8 53.86C33.07 53.13 27.21 47.27 26.48 46.54C25.58 46.94 24.64 47.31 23.67 47.57C25.13 49.03 30.23 54.13 30.96 54.86ZM27.88 55.56C28.82 55.4 29.72 55.2 30.59 54.96C29.87 54.24 24.06 48.43 23.34 47.71C22.47 47.94 21.56 48.14 20.63 48.31C22.08 49.76 27.16 54.84 27.88 55.56ZM17.72 48.71C18.44 49.43 24.19 55.15 24.91 55.87C25.78 55.83 26.61 55.73 27.45 55.63C26.97 55.15 24.55 52.73 20.19 48.38C19.1 48.55 18.28 48.67 17.72 48.71ZM23.1 55.93C23.57 55.93 24 55.93 24.44 55.9C23.72 55.18 18 49.46 17.28 48.74C16.55 48.78 15.81 48.81 15.04 48.81C15.04 48.81 15.03 48.81 15.01 48.81L22.13 55.93C22.71 55.93 23.04 55.93 23.1 55.93ZM9.19 55.93L9.66 55.93L2.57 48.81L2.07 48.81L9.19 55.93ZM10.16 55.93L10.76 55.93L3.64 48.81L3.04 48.81L10.16 55.93ZM11.23 55.93L12 55.93L4.88 48.81L4.11 48.81L11.23 55.93ZM12.47 55.93L13.44 55.93L6.31 48.81L5.34 48.81L12.47 55.93ZM13.91 55.93L15.08 55.93L7.95 48.81L6.78 48.81L13.91 55.93ZM15.54 55.93L16.95 55.93L9.83 48.81L8.42 48.81L15.54 55.93ZM17.45 55.93L19.16 55.93L12.03 48.81L10.33 48.81L17.45 55.93ZM19.62 55.93L21.66 55.93L14.51 48.81L12.5 48.81L19.62 55.93ZM93.06 49.88L93.06 56.87L60.89 56.87L52.56 48.54L52.56 1.06L83.76 1.06L92.09 9.38L92.09 15.97L68.38 15.97L68.35 20.75L79.95 20.75L88.28 29.08L88.28 35.8L68.35 35.8L68.35 41.55L84.73 41.55L93.06 49.88ZM84.03 2.66L84.03 8.25L91.15 15.04L91.15 9.79L84.03 2.66ZM61.02 8.25L60.52 8.25L67.61 15.04L68.11 15.04L61.02 8.25ZM62.33 8.25L61.52 8.25L68.61 15.04L69.45 15.04L62.33 8.25ZM64 8.25L62.83 8.25L69.95 15.04L71.12 15.04L64 8.25ZM66.04 8.25L64.5 8.25L71.62 15.04L73.13 15.04L66.04 8.25ZM68.65 8.25L66.54 8.25L73.63 15.04L75.8 15.04L68.65 8.25ZM71.32 8.25L69.18 8.25L76.31 15.04L78.48 15.04L71.32 8.25ZM74.13 8.25L71.86 8.25L78.98 15.04L81.25 15.04L74.13 8.25ZM76.87 8.25L74.63 8.25L81.76 15.04L83.93 15.04L76.87 8.25ZM79.18 8.25L77.34 8.25L84.46 15.04L86.27 15.04L79.18 8.25ZM81.19 8.25L79.65 8.25L86.81 15.04L88.28 15.04L81.19 8.25ZM82.56 8.25L81.66 8.25L88.81 15.04L89.61 15.04L82.56 8.25ZM83.56 8.25L83.03 8.25L90.15 15.04L90.62 15.04L83.56 8.25ZM61.93 19.58L61.66 19.82L60.29 18.51L60.29 20.75L67.41 20.75L67.41 15.3L60.29 8.51L60.29 9.92L66.47 15.84L66.17 16.04L60.29 10.42L60.29 11.96L65.34 16.77L65.04 17.01L60.29 12.43L60.29 13.97L64.2 17.71L63.9 17.94L60.29 14.47L60.29 16.01L63.06 18.65L62.8 18.88L60.29 16.47L60.29 18.01L61.93 19.58ZM80.22 28.08L80.18 28.08L87.34 34.87L87.34 29.48L80.22 22.36L80.22 28.08ZM68.25 34.87L61.12 28.08L60.52 28.08L67.64 34.87L68.25 34.87ZM68.75 34.87L69.92 34.87L62.83 28.08L61.62 28.08L68.75 34.87ZM70.42 34.87L72.26 34.87L65.1 28.08L63.33 28.08L70.42 34.87ZM72.76 34.87L75.27 34.87L68.18 28.08L65.64 28.08L72.76 34.87ZM71.42 28.08L68.68 28.08L75.77 34.87L78.48 34.87L71.42 28.08ZM74.57 28.08L71.89 28.08L79.01 34.87L81.69 34.87L74.57 28.08ZM76.94 28.08L75.07 28.08L82.19 34.87L84 34.87L76.94 28.08ZM78.58 28.08L77.41 28.08L84.53 34.87L85.67 34.87L78.58 28.08ZM86.2 34.87L86.81 34.87L79.72 28.08L79.05 28.08L86.2 34.87ZM61.16 40.78L60.89 41.05L60.29 40.48L60.29 41.55L67.41 41.55L67.41 35.1L60.29 28.31L60.29 29.78L66.47 35.73L66.24 35.97L60.29 30.28L60.29 31.86L65.44 36.77L65.17 37.01L60.29 32.32L60.29 33.86L64.37 37.77L64.1 38.01L60.29 34.36L60.29 35.9L63.3 38.78L63.03 39.01L60.29 36.4L60.29 37.94L62.23 39.78L61.96 40.02L60.29 38.41L60.29 39.95L61.16 40.78ZM85 48.81L92.12 55.93L92.12 50.28L85 43.16L85 48.81ZM54.17 48.81L61.29 55.93L64.53 55.93L57.41 48.81L54.17 48.81ZM57.88 48.81L65 55.93L67.95 55.93L60.79 48.81L57.88 48.81ZM68.41 55.93L71.02 55.93L63.87 48.81L61.26 48.81L68.41 55.93ZM71.49 55.93L73.8 55.93L66.67 48.81L64.33 48.81L71.49 55.93ZM67.14 48.81L74.27 55.93L76.34 55.93L69.18 48.81L67.14 48.81ZM71.49 48.81L69.65 48.81L76.81 55.93L78.61 55.93L71.49 48.81ZM79.08 55.93L80.69 55.93L73.56 48.81L71.96 48.81L79.08 55.93ZM81.15 55.93L82.59 55.93L75.44 48.81L74.03 48.81L81.15 55.93ZM83.06 55.93L84.3 55.93L77.14 48.81L75.9 48.81L83.06 55.93ZM84.77 55.93L85.84 55.93L78.68 48.81L77.61 48.81L84.77 55.93ZM86.3 55.93L87.24 55.93L80.08 48.81L79.15 48.81L86.3 55.93ZM87.71 55.93L88.51 55.93L81.35 48.81L80.55 48.81L87.71 55.93ZM88.98 55.93L89.65 55.93L82.53 48.81L81.82 48.81L88.98 55.93ZM90.12 55.93L90.72 55.93L83.56 48.81L82.99 48.81L90.12 55.93ZM91.19 55.93L91.65 55.93L84.5 48.81L84.03 48.81L91.19 55.93ZM113.06 16.24L113.06 22.36L125.23 22.36L133.55 30.69L133.55 37.51L113.06 37.51L113.06 56.87L105.63 56.87L97.31 48.54L97.31 1.06L129.37 1.06L137.7 9.38L137.7 16.24L113.06 16.24ZM129.64 8.51L136.73 15.3L136.77 15.3L136.77 9.79L129.64 2.66L129.64 8.51ZM112.86 15.3L105.73 8.51L105.26 8.51L112.32 15.3L112.86 15.3ZM107 8.51L106.27 8.51L113.32 15.3L114.16 15.3L107 8.51ZM108.71 8.51L107.54 8.51L114.63 15.3L115.87 15.3L108.71 8.51ZM110.92 8.51L109.24 8.51L116.33 15.3L118.04 15.3L110.92 8.51ZM113.93 8.51L111.45 8.51L118.51 15.3L121.05 15.3L113.93 8.51ZM116.8 8.51L114.43 8.51L121.55 15.3L123.92 15.3L116.8 8.51ZM119.94 8.51L117.3 8.51L124.43 15.3L127.07 15.3L119.94 8.51ZM122.95 8.51L120.41 8.51L127.57 15.3L130.04 15.3L122.95 8.51ZM125.13 8.51L123.46 8.51L130.55 15.3L132.25 15.3L125.13 8.51ZM126.83 8.51L125.63 8.51L132.75 15.3L133.96 15.3L126.83 8.51ZM128.14 8.51L127.34 8.51L134.46 15.3L135.23 15.3L128.14 8.51ZM135.73 15.3L136.23 15.3L129.14 8.51L128.64 8.51L135.73 15.3ZM112.12 22.36L112.12 15.57L105 8.75L105 9.89L111.35 16.01L111.12 16.24L105 10.39L105 11.93L110.31 17.04L110.05 17.31L105 12.43L105 13.97L109.28 18.08L109.01 18.35L105 14.47L105 16.01L108.24 19.12L108.01 19.35L105 16.47L105 18.04L107.2 20.15L106.97 20.39L105 18.51L105 20.05L106.17 21.19L105.93 21.42L105 20.52L105 22.36L112.12 22.36ZM125.5 29.78L132.62 36.57L132.62 31.09L125.5 23.96L125.5 29.78ZM112.29 36.57L112.96 36.57L105.83 29.78L105.2 29.78L112.29 36.57ZM113.42 36.57L114.56 36.57L107.47 29.78L106.33 29.78L113.42 36.57ZM115.03 36.57L117.14 36.57L109.98 29.78L107.97 29.78L115.03 36.57ZM117.6 36.57L120.21 36.57L113.12 29.78L110.48 29.78L117.6 36.57ZM120.68 36.57L123.69 36.57L116.63 29.78L113.62 29.78L120.68 36.57ZM124.19 36.57L126.83 36.57L119.71 29.78L117.1 29.78L124.19 36.57ZM127.34 36.57L129.34 36.57L122.29 29.78L120.18 29.78L127.34 36.57ZM129.84 36.57L130.98 36.57L123.89 29.78L122.75 29.78L129.84 36.57ZM131.48 36.57L132.12 36.57L125.03 29.78L124.36 29.78L131.48 36.57ZM112.12 55.93L112.12 36.74L112.05 36.8L105 30.08L105 31.19L111.38 37.34L111.15 37.57L105 31.69L105 33.23L110.35 38.38L110.08 38.64L105 33.73L105 35.27L109.31 39.41L109.04 39.68L105 35.77L105 37.31L108.27 40.45L108.04 40.68L105 37.77L105 39.35L107.24 41.49L107 41.72L105 39.81L105 41.39L106.2 42.52L105.97 42.76L105 41.82L105 48.81L112.12 55.93ZM106.03 55.93L107.4 55.93L100.32 48.81L98.91 48.81L106.03 55.93ZM100.78 48.81L107.91 55.93L109.11 55.93L101.99 48.81L100.78 48.81ZM109.61 55.93L110.48 55.93L103.39 48.81L102.46 48.81L109.61 55.93ZM110.98 55.93L111.62 55.93L104.53 48.81L103.86 48.81L110.98 55.93ZM157.2 9.38L157.2 56.87L149.64 56.87L141.31 48.54L141.31 1.06L148.87 1.06L157.2 9.38ZM156.26 10.32L156.26 9.79L149.14 2.66L149.14 3.2L156.26 10.32ZM156.26 11.76L156.26 10.82L149.14 3.7L149.14 4.64L156.26 11.76ZM156.26 13.73L156.26 12.23L149.14 5.1L149.14 6.61L156.26 13.73ZM156.26 16.51L156.26 14.23L149.14 7.11L149.14 9.38L156.26 16.51ZM156.26 20.29L156.26 16.97L149.14 9.85L149.14 13.16L156.26 20.29ZM156.26 25.5L156.26 20.75L149.14 13.63L149.14 18.38L156.26 25.5ZM156.26 55.93L156.26 25.97L149.14 18.85L149.14 48.81L156.26 55.93ZM142.92 48.81L150.04 55.93L151.55 55.93L144.46 48.81L142.92 48.81ZM146.13 48.81L144.92 48.81L152.05 55.93L153.25 55.93L146.13 48.81ZM153.75 55.93L154.62 55.93L147.53 48.81L146.6 48.81L153.75 55.93ZM155.12 55.93L155.76 55.93L148.67 48.81L148 48.81L155.12 55.93ZM226.35 23.7C226.35 33.06 219.2 39.88 209.26 39.88C208.7 39.88 205.87 39.88 200.77 39.88L200.77 56.87L193.25 56.87L184.92 48.54L184.92 1.06C195.03 1.06 200.65 1.06 201.77 1.06C207.66 1.06 212.37 3.16 214.92 5.71C215.36 6.15 217.58 8.35 221.57 12.33C224.76 16.9 226.35 20.69 226.35 23.7ZM193.41 20.82L193.15 21.09L192.71 20.65L192.71 25.3L199.5 25.3L199.5 15L192.71 8.21L192.71 9.65L198.56 15.64L198.33 15.87L192.71 10.19L192.71 11.79L197.53 16.67L197.29 16.91L192.71 12.29L192.71 13.86L196.52 17.71L196.26 17.94L192.71 14.37L192.71 15.94L195.49 18.75L195.22 18.98L192.71 16.44L192.71 18.01L194.45 19.78L194.18 20.02L192.71 18.55L192.71 20.12L193.41 20.82ZM193.91 8.21L193.18 8.21L199.67 14.7L199.97 14.67L200.34 14.67L193.91 8.21ZM195.39 8.21L194.38 8.21L200.84 14.67L201.84 14.67L195.39 8.21ZM197.29 8.21L195.85 8.21L202.31 14.67L203.75 14.67L197.29 8.21ZM199.5 8.21L197.76 8.21L204.21 14.67L205.95 14.67L199.5 8.21ZM199.97 8.21L206.42 14.67L208.36 14.67L201.91 8.21L199.97 8.21ZM204.01 8.41C203.51 8.31 202.94 8.28 202.41 8.25C202.84 8.67 204.98 10.82 208.83 14.67L210.27 14.67C206.51 10.92 204.43 8.83 204.01 8.41ZM206.02 8.95C205.59 8.78 205.08 8.65 204.62 8.55C205.23 9.17 210.18 14.12 210.8 14.73C210.94 14.73 211.07 14.73 211.2 14.77C211.14 14.47 211.07 14.2 210.97 13.9C209.98 12.91 206.51 9.44 206.02 8.95ZM206.89 9.32C207.14 9.57 208.4 10.84 210.67 13.13C209.31 11.15 208.05 9.87 206.89 9.32ZM217.96 10.02C218.76 11.83 219.3 14.07 219.3 16.31C219.3 16.71 219.3 17.11 219.26 17.48C219.88 18.03 224.8 22.5 225.42 23.06C225.28 19.08 223.78 15.94 220.9 13C220.31 12.4 218.25 10.32 217.96 10.02ZM211.4 16.64C211.4 16.34 211.4 16.04 211.37 15.74C210.8 15.64 210.2 15.6 209.63 15.6C209.02 15.6 205.95 15.6 200.44 15.6L200.44 25.3L201.57 25.3C208.13 22.92 211.4 20.03 211.4 16.64ZM225.42 23.7C225.42 23.69 225.42 23.63 225.42 23.53C221.7 20.14 219.64 18.25 219.23 17.88C219.06 19.78 218.59 21.56 217.86 23.16C218.3 23.56 220.51 25.57 224.48 29.18C225.1 26.84 225.42 25.01 225.42 23.7ZM215.45 26.81C216.14 27.43 221.65 32.43 222.34 33.06C223.14 31.99 223.84 30.79 224.35 29.51C223.9 29.11 221.68 27.09 217.69 23.46C216.8 25.02 216.05 26.14 215.45 26.81ZM222.14 33.29C221.45 32.67 215.91 27.67 215.22 27.04C214.45 27.88 213.61 28.58 212.67 29.25C213.14 29.67 215.48 31.8 219.7 35.63C220.83 34.65 221.65 33.87 222.14 33.29ZM216.95 37.31C217.86 36.87 218.66 36.4 219.43 35.84C218.72 35.2 213.08 30.09 212.37 29.45C211.57 29.95 210.73 30.42 209.83 30.82C211.26 32.12 216.24 36.66 216.95 37.31ZM214.21 38.31C215.05 38.08 215.88 37.77 216.65 37.44C215.94 36.79 210.21 31.6 209.5 30.95C208.7 31.29 207.86 31.55 207.02 31.79C208.46 33.09 213.49 37.66 214.21 38.31ZM211.54 38.81C212.34 38.71 213.11 38.58 213.84 38.41C213.13 37.75 207.37 32.51 206.66 31.86C205.89 32.06 205.12 32.19 204.31 32.29C205.76 33.59 210.82 38.16 211.54 38.81ZM209.26 38.95C209.87 38.95 210.47 38.91 211.04 38.88C210.32 38.23 204.57 33.01 203.85 32.36C203.18 32.42 202.48 32.46 201.77 32.49C202.25 32.92 204.62 35.07 208.9 38.95C209.12 38.95 209.24 38.95 209.26 38.95ZM206.55 38.95L208.36 38.95L201.27 32.49L199.43 32.49L206.55 38.95ZM199.83 38.95L199.87 38.95L192.74 32.49L192.71 32.49L192.71 34.2L198.9 39.81L198.63 40.05L192.71 34.66L192.71 36.44L197.73 40.98L197.46 41.22L192.71 36.91L192.71 38.64L196.56 42.16L196.32 42.39L192.71 39.11L192.71 40.88L195.39 43.33L195.15 43.56L192.71 41.35L192.71 43.06L194.25 44.46L194.01 44.73L192.71 43.56L192.71 48.81L199.83 55.93L199.83 38.95ZM200.34 38.95L201.07 38.95L193.95 32.49L193.25 32.49L200.34 38.95ZM201.54 38.95L202.44 38.95L195.32 32.49L194.42 32.49L201.54 38.95ZM202.94 38.95L204.08 38.95L196.99 32.49L195.85 32.49L202.94 38.95ZM204.58 38.95L206.05 38.95L198.96 32.49L197.43 32.49L204.58 38.95ZM193.65 55.93L195.12 55.93L188.03 48.81L186.52 48.81L193.65 55.93ZM188.5 48.81L195.62 55.93L196.82 55.93L189.7 48.81L188.5 48.81ZM197.33 55.93L198.19 55.93L191.11 48.81L190.17 48.81L197.33 55.93ZM198.7 55.93L199.33 55.93L192.24 48.81L191.57 48.81L198.7 55.93ZM278.59 9.02C278.59 24.87 278.59 33.67 278.59 35.43C278.59 48.81 270.63 57.57 258.55 57.57C252.17 57.57 247.59 55.77 243.44 51.62C242.75 50.94 237.27 45.51 236.58 44.83C232.81 41.12 230.77 35.53 230.77 28.38C230.77 26.55 230.77 17.44 230.77 1.02L238.29 1.02L246.62 9.35C246.62 25.44 246.62 34.38 246.62 36.17C246.62 38.24 246.85 40.25 247.39 42.06C248.49 42.32 249.69 42.49 250.96 42.49C258.52 42.49 263.07 37.14 263.07 28.11C263.07 26.3 263.07 17.28 263.07 1.02L270.59 1.02L278.59 9.02ZM238.56 2.63L238.56 3.16L245.68 10.29L245.68 9.75L238.56 2.63ZM277.65 9.99L277.65 9.42L270.86 2.66L270.86 3.2L277.65 9.99ZM245.68 10.79L238.56 3.67L238.56 4.6L245.68 11.72L245.68 10.79ZM277.65 11.42L277.65 10.49L270.86 3.7L270.86 4.64L277.65 11.42ZM245.68 12.19L238.56 5.07L238.56 6.57L245.68 13.7L245.68 12.19ZM277.65 13.4L277.65 11.89L270.86 5.1L270.86 6.61L277.65 13.4ZM245.68 14.2L238.56 7.08L238.56 9.35L245.68 16.47L245.68 14.2ZM277.65 16.17L277.65 13.9L270.86 7.11L270.86 9.38L277.65 16.17ZM245.68 16.94L238.56 9.82L238.56 13.13L245.68 20.25L245.68 16.94ZM277.65 19.95L277.65 16.64L270.86 9.85L270.86 13.16L277.65 19.95ZM245.68 20.72L238.56 13.6L238.56 18.35L245.68 25.47L245.68 20.72ZM270.86 13.63L270.86 18.38L277.65 25.17L277.65 20.42L270.86 13.63ZM238.56 28.11C238.56 35.07 241.43 39.91 246.35 41.72C245.91 39.98 245.68 38.11 245.68 36.17C245.68 35.49 245.68 32.08 245.68 25.94L238.56 18.81C238.56 24.39 238.56 27.49 238.56 28.11ZM277.65 35.43C277.65 34.78 277.65 31.51 277.65 25.64L270.86 18.85C270.86 24.57 270.86 27.74 270.86 28.38C270.86 31.49 270.49 34.3 269.76 36.77C270.21 37.22 272.46 39.47 276.51 43.53C277.27 40.09 277.65 37.4 277.65 35.43ZM267.62 41.55C268.29 42.23 273.67 47.6 274.34 48.27C275.17 46.94 275.88 45.47 276.38 43.86C275.93 43.41 273.68 41.16 269.62 37.11C268.84 39.2 268.17 40.68 267.62 41.55ZM274.17 48.58C273.5 47.9 268.12 42.53 267.45 41.85C266.75 42.96 265.94 43.93 265.04 44.83C265.49 45.28 267.73 47.52 271.76 51.55C272.9 50.3 273.7 49.31 274.17 48.58ZM269.02 53.76C269.92 53.19 270.76 52.52 271.53 51.79C270.85 51.11 265.45 45.71 264.77 45.03C264.01 45.77 263.17 46.4 262.23 46.97C263.59 48.33 268.34 53.08 269.02 53.76ZM266.28 55.2C267.12 54.83 267.95 54.43 268.72 53.93C268.04 53.25 262.61 47.82 261.93 47.14C261.16 47.61 260.33 48.01 259.46 48.38C260.82 49.74 265.6 54.51 266.28 55.2ZM244.11 50.95C244.81 51.62 245.51 52.22 246.22 52.76C245.89 52.43 244.26 50.8 241.33 47.87L240.46 47.47C242.65 49.56 243.87 50.72 244.11 50.95ZM242.1 48.17C242.66 48.74 247.16 53.23 247.72 53.79C248.22 54.09 248.69 54.39 249.19 54.63C248.79 54.22 246.76 52.19 243.11 48.54C242.66 48.39 242.32 48.26 242.1 48.17ZM263.57 56.07C264.37 55.87 265.14 55.63 265.91 55.33C265.23 54.65 259.77 49.19 259.09 48.51C258.32 48.78 257.52 49.01 256.72 49.21C258.09 50.58 262.89 55.38 263.57 56.07ZM250.09 55.06C250.53 55.23 250.96 55.43 251.43 55.56C250.78 54.92 245.59 49.73 244.94 49.08C244.54 48.98 244.18 48.88 243.77 48.74C245.04 50.01 249.46 54.43 250.09 55.06ZM252.17 55.8C252.64 55.93 253.1 56.07 253.61 56.17C252.94 55.5 247.62 50.18 246.95 49.51C246.48 49.41 246.05 49.34 245.61 49.24C246.92 50.56 251.51 55.14 252.17 55.8ZM260.96 56.5C261.73 56.43 262.47 56.3 263.17 56.13C262.48 55.45 257 49.96 256.31 49.28C255.61 49.45 254.88 49.58 254.11 49.65C255.48 51.02 260.28 55.82 260.96 56.5ZM254.17 56.27C254.71 56.37 255.24 56.43 255.78 56.5C255.11 55.83 249.73 50.45 249.06 49.78C248.52 49.75 248.02 49.68 247.49 49.58C248.82 50.92 253.51 55.6 254.17 56.27ZM258.55 56.63C259.22 56.63 259.89 56.6 260.53 56.53C259.85 55.85 254.39 50.4 253.71 49.71C253.07 49.78 252.4 49.81 251.77 49.85C253.12 51.2 257.88 55.96 258.55 56.63ZM256.28 56.53C256.88 56.6 257.45 56.63 258.09 56.63C257.63 56.18 255.37 53.92 251.3 49.85C251.02 49.85 250.86 49.85 250.83 49.85C250.4 49.85 249.99 49.85 249.56 49.81C250.9 51.16 255.61 55.86 256.28 56.53ZM324.03 49.71L324.03 56.87L293.57 56.87L285.24 48.54L285.24 1.06L292.76 1.06L301.09 9.38L301.09 41.39L315.7 41.39L324.03 49.71ZM293.03 2.66L293.03 3.16L300.15 10.29L300.15 9.79L293.03 2.66ZM300.15 10.79L293.03 3.67L293.03 4.6L300.15 11.72L300.15 10.79ZM300.15 12.19L293.03 5.07L293.03 6.57L300.15 13.7L300.15 12.19ZM300.15 14.2L293.03 7.08L293.03 9.35L300.15 16.47L300.15 14.2ZM300.15 16.94L293.03 9.82L293.03 13.13L300.15 20.25L300.15 16.94ZM300.15 20.72L293.03 13.6L293.03 18.35L300.15 25.47L300.15 20.72ZM300.15 41.39L300.15 25.94L293.03 18.81L293.03 41.39L300.15 41.39ZM323.09 50.11L315.97 42.99L315.97 48.81L323.09 55.93L323.09 50.11ZM293.97 55.93L297.08 55.93L289.92 48.81L286.85 48.81L293.97 55.93ZM297.55 55.93L300.35 55.93L293.2 48.81L290.39 48.81L297.55 55.93ZM300.82 55.93L303.33 55.93L296.17 48.81L293.67 48.81L300.82 55.93ZM303.8 55.93L306.01 55.93L298.88 48.81L296.64 48.81L303.8 55.93ZM306.51 55.93L308.48 55.93L301.36 48.81L299.35 48.81L306.51 55.93ZM308.95 55.93L310.72 55.93L303.57 48.81L301.83 48.81L308.95 55.93ZM311.19 55.93L312.76 55.93L305.61 48.81L304.03 48.81L311.19 55.93ZM313.23 55.93L314.6 55.93L307.44 48.81L306.07 48.81L313.23 55.93ZM315.07 55.93L316.27 55.93L309.15 48.81L307.91 48.81L315.07 55.93ZM316.74 55.93L317.81 55.93L310.65 48.81L309.62 48.81L316.74 55.93ZM318.28 55.93L319.18 55.93L312.06 48.81L311.12 48.81L318.28 55.93ZM319.65 55.93L320.45 55.93L313.3 48.81L312.53 48.81L319.65 55.93ZM320.92 55.93L321.59 55.93L314.47 48.81L313.8 48.81L320.92 55.93ZM322.06 55.93L322.63 55.93L315.5 48.81L314.93 48.81L322.06 55.93ZM363.62 43.36C363.62 51.75 357 57.57 347.41 57.57C340.45 57.71 335.27 55.67 332.02 53.19C331.47 52.64 328.73 49.9 323.8 44.96L323.8 37.07C324.28 36.87 324.55 36.76 324.6 36.74C328.21 40.12 333.23 42.02 338.44 42.02C342.79 42.02 346.3 40.45 347.67 38.08C342.46 35.53 336.34 34.13 332.89 29.75C332.39 29.11 328.35 23.97 327.84 23.33C325.44 20.25 324.26 18.01 324.26 14.33C324.26 6.11 330.82 0.46 340.38 0.46C345.23 0.36 350.15 1.66 353.69 3.97C354.24 4.52 357 7.27 361.95 12.23L361.95 19.72C361.51 19.94 361.27 20.06 361.22 20.08C357.44 17.31 353.12 15.74 349.11 15.74C344.5 15.74 341.05 17.58 340.15 20.45C344.83 22.12 349.85 23.8 353.02 27.04C353.48 27.51 355.79 29.84 359.95 34.03C362.4 37.64 363.62 40.75 363.62 43.36ZM353.89 11.66L353.86 11.66L361.02 18.81L361.02 12.63L353.89 5.5L353.89 11.66ZM341.05 7.68C340.55 7.68 340.05 7.71 339.55 7.75C340.27 8.47 346.05 14.25 346.77 14.97C347.44 14.87 348.17 14.8 348.91 14.8C348.44 14.33 346.07 11.97 341.82 7.71C341.46 7.69 341.21 7.68 341.05 7.68ZM344.36 8.01C343.69 7.88 342.99 7.78 342.29 7.71C343 8.42 348.67 14.09 349.38 14.8C350.01 14.8 350.65 14.87 351.28 14.94C349.9 13.55 345.05 8.71 344.36 8.01ZM339.11 7.78C338.24 7.91 337.44 8.08 336.67 8.31C337.4 9.05 343.26 14.9 343.99 15.64C344.73 15.37 345.53 15.17 346.37 15.04C344.92 13.58 339.84 8.5 339.11 7.78ZM346.84 8.68C346.23 8.48 345.6 8.28 344.96 8.15C345.65 8.84 351.16 14.35 351.85 15.04C352.39 15.1 352.96 15.24 353.52 15.37C352.19 14.03 347.51 9.35 346.84 8.68ZM336.34 8.45C335.37 8.78 334.56 9.25 333.9 9.82C334.63 10.56 340.55 16.47 341.29 17.21C341.95 16.64 342.76 16.17 343.66 15.77C342.2 14.31 337.07 9.18 336.34 8.45ZM349.34 9.72C348.78 9.45 348.17 9.18 347.57 8.95C348.23 9.61 353.5 14.88 354.16 15.54C354.66 15.67 355.16 15.84 355.67 16.04C354.4 14.77 349.98 10.35 349.34 9.72ZM341.02 17.41C340.28 16.67 334.37 10.76 333.63 10.02C332.69 10.89 332.09 11.96 331.92 13.13C332.38 13.58 334.64 15.84 338.71 19.92L339.25 20.12C339.87 18.83 340.46 17.92 341.02 17.41ZM352.05 11.26C351.49 10.89 350.92 10.52 350.31 10.22C350.93 10.83 355.82 15.73 356.43 16.34C356.84 16.51 357.27 16.67 357.67 16.87C356.55 15.75 352.62 11.82 352.05 11.26ZM358.64 17.38C358.98 17.54 359.34 17.74 359.71 17.98C359.3 17.57 357.25 15.52 353.56 11.83L353.26 11.99C356.49 15.22 358.28 17.02 358.64 17.38ZM337.94 19.62C337.54 19.21 335.52 17.2 331.89 13.56L331.89 13.83C333.61 16.75 335.62 18.68 337.94 19.62ZM339.15 33.26C338.38 32.49 332.22 26.34 331.45 25.57C331.05 25.33 330.65 25.1 330.28 24.87C331.49 26.54 332.83 28.31 334.36 29.98C335.57 31.29 337.24 32.32 339.15 33.26ZM332.46 26.1C333.22 26.86 339.29 32.94 340.05 33.69C340.78 34.03 341.55 34.36 342.36 34.7C341.85 34.2 339.33 31.69 334.8 27.17C333.73 26.71 332.95 26.35 332.46 26.1ZM343.16 35.03C343.76 35.3 344.36 35.53 344.96 35.8C344.2 35.04 338.07 28.91 337.31 28.14C336.74 27.94 336.17 27.71 335.57 27.48C337.09 28.99 342.4 34.28 343.16 35.03ZM345.8 36.17C346.3 36.37 346.8 36.6 347.3 36.84C346.51 36.04 340.17 29.68 339.38 28.88C338.94 28.75 338.48 28.58 338.04 28.41C339.59 29.96 345.02 35.39 345.8 36.17ZM348.24 36.64C347.54 35.93 341.89 30.26 341.19 29.55C340.85 29.41 340.48 29.28 340.15 29.18C340.68 29.71 343.33 32.36 348.11 37.14C348.17 36.92 348.22 36.75 348.24 36.64ZM348.31 36.17C348.34 36.04 348.34 35.87 348.34 35.73C348.34 35.73 348.34 35.72 348.34 35.7L342.86 30.22L341.99 29.85C345.78 33.64 347.89 35.75 348.31 36.17ZM348.21 34.7C345.96 32.45 344.71 31.2 344.46 30.95C344.23 30.82 343.96 30.72 343.69 30.59C344 30.89 345.54 32.43 348.31 35.2L348.21 34.7ZM355.5 30.92C355.97 32.19 356.23 33.63 356.23 35.3C356.23 36.14 356.17 36.94 356.03 37.74C356.7 38.4 361.99 43.7 362.65 44.36C362.69 44.03 362.69 43.69 362.69 43.36C362.69 39.65 361.68 37.11 359.28 34.7C358.52 33.94 355.88 31.3 355.5 30.92ZM345.57 31.59C345.72 31.74 346.52 32.52 347.94 33.93C347.07 32.81 346.28 32.03 345.57 31.59ZM355.97 38.14C355.63 39.68 355.06 41.12 354.26 42.39C354.96 43.09 360.58 48.71 361.28 49.41C361.99 48.01 362.45 46.47 362.62 44.8C361.29 43.47 356.63 38.81 355.97 38.14ZM361.08 49.71C360.38 49.01 354.76 43.39 354.06 42.69C353.42 43.69 352.66 44.56 351.75 45.37C352.23 45.84 354.62 48.23 358.91 52.52C359.98 51.34 360.7 50.4 361.08 49.71ZM356.23 54.53C357.14 53.99 357.94 53.42 358.67 52.76C357.96 52.04 352.2 46.29 351.49 45.57C350.72 46.2 349.88 46.77 348.98 47.24C350.43 48.7 355.51 53.8 356.23 54.53ZM332.62 52.45C333.13 52.82 333.63 53.19 334.2 53.53C333.79 53.12 331.78 51.12 328.14 47.51L327.27 47.1C330.48 50.31 332.27 52.1 332.62 52.45ZM353.46 55.73C354.33 55.43 355.16 55.1 355.93 54.66C355.21 53.94 349.4 48.13 348.68 47.41C347.91 47.81 347.07 48.17 346.17 48.44C347.63 49.9 352.73 55 353.46 55.73ZM335.27 54.13C335.63 54.29 336 54.49 336.4 54.66C335.97 54.23 333.81 52.07 329.92 48.17L328.98 47.84C332.75 51.61 334.85 53.71 335.27 54.13ZM337.21 55C337.61 55.13 338.04 55.3 338.48 55.43C338.03 54.98 335.77 52.73 331.72 48.68L330.62 48.38C334.57 52.35 336.77 54.55 337.21 55ZM350.72 56.37C351.55 56.23 352.35 56.07 353.09 55.83C352.36 55.11 346.56 49.3 345.83 48.58C345.06 48.78 344.3 48.98 343.46 49.11C344.91 50.56 349.99 55.64 350.72 56.37ZM339.15 55.63C339.61 55.77 340.08 55.9 340.58 56C339.89 55.31 334.35 49.77 333.66 49.08C333.23 49.01 332.79 48.91 332.36 48.84C333.71 50.2 338.47 54.95 339.15 55.63ZM341.15 56.1C341.69 56.2 342.19 56.3 342.72 56.37C342.02 55.67 336.43 50.05 335.73 49.34C335.2 49.31 334.73 49.24 334.23 49.18C335.61 50.56 340.46 55.41 341.15 56.1ZM343.06 49.18C342.36 49.31 341.62 49.38 340.88 49.45C341.6 50.16 347.36 55.92 348.07 56.63C348.84 56.6 349.58 56.53 350.28 56.43C348.84 54.98 343.78 49.9 343.06 49.18ZM343.33 56.43C343.93 56.5 344.5 56.57 345.1 56.6C344.39 55.89 338.69 50.19 337.98 49.48C337.41 49.48 336.84 49.45 336.27 49.41C337.68 50.82 342.62 55.73 343.33 56.43ZM347.41 56.63C347.42 56.63 347.47 56.63 347.57 56.63C343.28 52.32 340.89 49.92 340.42 49.45C340.05 49.48 339.71 49.48 339.35 49.48C339.29 49.48 338.99 49.48 338.44 49.48L345.57 56.6C346.39 56.62 347 56.63 347.41 56.63ZM409.54 49.88L409.54 56.87L377.37 56.87L369.04 48.54L369.04 1.06L400.24 1.06L408.57 9.38L408.57 15.97L384.86 15.97L384.82 20.75L396.43 20.75L404.76 29.08L404.76 35.8L384.82 35.8L384.82 41.55L401.21 41.55L409.54 49.88ZM400.51 2.66L400.51 8.25L407.63 15.04L407.63 9.79L400.51 2.66ZM377.5 8.25L377 8.25L384.09 15.04L384.59 15.04L377.5 8.25ZM378.81 8.25L378 8.25L385.09 15.04L385.93 15.04L378.81 8.25ZM380.48 8.25L379.31 8.25L386.43 15.04L387.6 15.04L380.48 8.25ZM382.52 8.25L380.98 8.25L388.1 15.04L389.61 15.04L382.52 8.25ZM385.13 8.25L383.02 8.25L390.11 15.04L392.28 15.04L385.13 8.25ZM387.8 8.25L385.66 8.25L392.78 15.04L394.96 15.04L387.8 8.25ZM390.61 8.25L388.34 8.25L395.46 15.04L397.73 15.04L390.61 8.25ZM393.35 8.25L391.11 8.25L398.23 15.04L400.41 15.04L393.35 8.25ZM395.66 8.25L393.82 8.25L400.94 15.04L402.75 15.04L395.66 8.25ZM397.67 8.25L396.13 8.25L403.28 15.04L404.76 15.04L397.67 8.25ZM399.04 8.25L398.13 8.25L405.29 15.04L406.09 15.04L399.04 8.25ZM400.04 8.25L399.51 8.25L406.63 15.04L407.1 15.04L400.04 8.25ZM378.4 19.58L378.14 19.82L376.77 18.51L376.77 20.75L383.89 20.75L383.89 15.3L376.77 8.51L376.77 9.92L382.95 15.84L382.65 16.04L376.77 10.42L376.77 11.96L381.82 16.77L381.51 17.01L376.77 12.43L376.77 13.97L380.68 17.71L380.38 17.94L376.77 14.47L376.77 16.01L379.54 18.65L379.27 18.88L376.77 16.47L376.77 18.01L378.4 19.58ZM396.7 28.08L396.66 28.08L403.82 34.87L403.82 29.48L396.7 22.36L396.7 28.08ZM384.72 34.87L377.6 28.08L377 28.08L384.12 34.87L384.72 34.87ZM385.23 34.87L386.4 34.87L379.31 28.08L378.1 28.08L385.23 34.87ZM386.9 34.87L388.74 34.87L381.58 28.08L379.81 28.08L386.9 34.87ZM389.24 34.87L391.75 34.87L384.66 28.08L382.12 28.08L389.24 34.87ZM387.9 28.08L385.16 28.08L392.25 34.87L394.96 34.87L387.9 28.08ZM391.04 28.08L388.37 28.08L395.49 34.87L398.17 34.87L391.04 28.08ZM393.42 28.08L391.55 28.08L398.67 34.87L400.47 34.87L393.42 28.08ZM395.06 28.08L393.89 28.08L401.01 34.87L402.15 34.87L395.06 28.08ZM402.68 34.87L403.28 34.87L396.19 28.08L395.53 28.08L402.68 34.87ZM377.64 40.78L377.37 41.05L376.77 40.48L376.77 41.55L383.89 41.55L383.89 35.1L376.77 28.31L376.77 29.78L382.95 35.73L382.72 35.97L376.77 30.28L376.77 31.86L381.92 36.77L381.65 37.01L376.77 32.32L376.77 33.86L380.85 37.77L380.58 38.01L376.77 34.36L376.77 35.9L379.78 38.78L379.51 39.01L376.77 36.4L376.77 37.94L378.71 39.78L378.44 40.02L376.77 38.41L376.77 39.95L377.64 40.78ZM401.48 48.81L408.6 55.93L408.6 50.28L401.48 43.16L401.48 48.81ZM370.65 48.81L377.77 55.93L381.01 55.93L373.89 48.81L370.65 48.81ZM374.36 48.81L381.48 55.93L384.42 55.93L377.27 48.81L374.36 48.81ZM384.89 55.93L387.5 55.93L380.34 48.81L377.74 48.81L384.89 55.93ZM387.97 55.93L390.28 55.93L383.15 48.81L380.81 48.81L387.97 55.93ZM383.62 48.81L390.74 55.93L392.82 55.93L385.66 48.81L383.62 48.81ZM387.97 48.81L386.13 48.81L393.29 55.93L395.09 55.93L387.97 48.81ZM395.56 55.93L397.16 55.93L390.04 48.81L388.44 48.81L395.56 55.93ZM397.63 55.93L399.07 55.93L391.91 48.81L390.51 48.81L397.63 55.93ZM399.54 55.93L400.78 55.93L393.62 48.81L392.38 48.81L399.54 55.93ZM401.24 55.93L402.31 55.93L395.16 48.81L394.09 48.81L401.24 55.93ZM402.78 55.93L403.72 55.93L396.56 48.81L395.63 48.81L402.78 55.93ZM404.19 55.93L404.99 55.93L397.83 48.81L397.03 48.81L404.19 55.93ZM405.46 55.93L406.13 55.93L399 48.81L398.3 48.81L405.46 55.93ZM406.59 55.93L407.2 55.93L400.04 48.81L399.47 48.81L406.59 55.93ZM407.66 55.93L408.13 55.93L400.98 48.81L400.51 48.81L407.66 55.93Z" id="at1TIOv9d"></path></defs><g><g><g><use xlink:href="#at1TIOv9d" opacity="1" fill="#45fff4" fill-opacity="1"></use><g><use xlink:href="#at1TIOv9d" opacity="1" fill-opacity="0" stroke="#000000" stroke-width="1" stroke-opacity="0"></use></g></g></g></g></svg>