<?xml version="1.0"?>
<svg xmlns="http://www.w3.org/2000/svg" id="Layer_1" enable-background="new 0 0 511.402 511.402" height="512px" viewBox="0 0 511.402 511.402" width="512px"><g><g><circle cx="365.629" cy="42.002" r="42.002" data-original="#000000" class="active-path" data-old_color="#000000" fill="#45fff4"/><ellipse cx="182.858" cy="75.856" rx="39.063" ry="39.063" transform="matrix(.16 -.987 .987 .16 78.691 244.202)" data-original="#000000" class="active-path" data-old_color="#000000" fill="#45fff4"/><path d="m411.442 184.235-6.193-27.608c-.792-3.529-4.295-5.753-7.829-4.959l-22.929 5.144c-1.282.288-2.388.936-3.243 1.81h12.308c10.23 0 18.553 8.323 18.553 18.553v8.024z" data-original="#000000" class="active-path" data-old_color="#000000" fill="#45fff4"/><path d="m390.109 186.547v-9.373c0-3.619-2.934-6.553-6.553-6.553h-23.499c-3.619 0-6.553 2.934-6.553 6.553v43.659c0 3.619 2.934 6.553 6.553 6.553h3.496c-.349-1.446-.61-2.93-.767-4.45-1.81-17.538 10.258-33.299 27.323-36.389z" data-original="#000000" class="active-path" data-old_color="#000000" fill="#45fff4"/><g><path d="m496.604 204.524-22.722-69.134c-.23-.703-.498-1.394-.801-2.069-10.097-22.55-32.585-37.12-57.291-37.12h-104.391c-26.968 0-49.018 21.939-49.152 48.906l-.147 29.297c-1.073-3.074-2.082-5.987-3.009-8.684-8.745-25.447-23.407-38.349-43.581-38.349h-65.305c-20.174 0-34.836 12.902-43.581 38.349-11.998 34.913-37.489 104.895-43.396 121.084-1.489 4.082-2.811 6.957-2.258 11.937-4.928 1.41-8.55 5.946-8.55 11.321v13.242h-21.822c-9.324 0-16.883 7.559-16.883 16.883v76.813c0 9.258 7.485 16.883 16.883 16.883h2.163c-.052.537.01.566 0 3.718 0 3.339 2.692 6.046 6.031 6.046h15.186c3.339 0 6.031-2.707 6.031-6.046-.01-3.115.052-3.177 0-3.718h39.36c-.052.537.01.556 0 3.718 0 3.339 2.692 6.046 6.031 6.046h15.186c3.339 0 6.031-2.707 6.031-6.046-.01-3.115.052-3.177 0-3.718h2.163c9.377 0 16.883-7.605 16.883-16.883v-76.27c0-9.585-7.842-17.427-17.427-17.427h-21.278v-13.242c0-5.179-3.363-9.579-8.017-11.155 10.748-29.464 35.908-99.673 35.908-99.673l-18.987 100.166c1.655 3.197 2.595 6.821 2.595 10.662v1.287h10.322c16.228 0 29.383 13.155 29.383 29.383v76.269c0 14.858-11.088 27.167-25.422 29.108v42.134c0 12.264 9.536 22.709 21.792 23.146 12.868.458 23.444-9.838 23.444-22.603v-136.722h9.765v136.179c0 12.264 9.536 22.709 21.792 23.146 12.868.458 23.444-9.838 23.444-22.603v-136.722h14.382c6.562 0 11.536-5.986 10.28-12.474l-26.771-140.358s20.754 55.494 41.634 111.892c6.58 17.773 32.917 13.056 32.917-5.896v-159.906c.017-3.42 3.613-6.203 7.033-6.203v346.217c0 13.71 11.219 25.295 24.927 25.07 13.292-.218 24-11.061 24-24.405v-194.389h10.323v193.881c0 13.351 10.508 24.615 23.856 24.91 13.737.303 24.808-10.738 24.808-24.403 0-30.265 0-199.553 0-235.315l-20.815 2.134c-12.175 1.259-23.551-4.18-30.392-13.432h-9.101c-10.247 0-18.553-8.306-18.553-18.553v-43.659c0-9.507 7.191-17.357 16.418-18.42.906-3.651 2.881-7.066 6.091-9.763 2.375-1.996 5.252-3.305 8.279-3.984l22.501-5.048c9.807-2.199 19.858 3.761 22.164 14.042l3.256 14.513v-28.886c5.701 1.307 10.624 5.087 13.307 10.411l13.994 42.578-53.608 5.535c-11.788 1.217-20.358 11.761-19.142 23.549 1.214 11.748 11.717 20.361 23.55 19.142l80.108-8.271c13.601-1.407 22.458-15.039 18.181-28.048zm-444.169 118.779c.009-.081.021-.16.035 0zm54.506 0h-.035c.014-.16.026-.08.035 0zm-11.984 0c-18.902 0-11.631 0-30.536 0v-13.025h2.229c7.3 7.006 18.788 6.984 26.082 0 .103 0 2.329 0 2.225 0z" data-original="#000000" class="active-path" data-old_color="#000000" fill="#45fff4"/></g></g></g> </svg>
